<?xml version="1.0" encoding="UTF-8" standalone="no"?>
<svg
   xmlns:dc="http://purl.org/dc/elements/1.1/"
   xmlns:cc="http://creativecommons.org/ns#"
   xmlns:rdf="http://www.w3.org/1999/02/22-rdf-syntax-ns#"
   xmlns:svg="http://www.w3.org/2000/svg"
   xmlns="http://www.w3.org/2000/svg"
   xmlns:sodipodi="http://sodipodi.sourceforge.net/DTD/sodipodi-0.dtd"
   xmlns:inkscape="http://www.inkscape.org/namespaces/inkscape"
   viewBox="0 0 350 200"
   height="200"
   width="350"
   preserveAspectRatio="xMid meet"
   id="svg2"
   version="1.1"
   inkscape:version="0.48.3.1 r9886"
   sodipodi:docname="crosshair.svg">
  <metadata
     id="metadata13">
    <rdf:RDF>
      <cc:Work
         rdf:about="">
        <dc:format>image/svg+xml</dc:format>
        <dc:type
           rdf:resource="http://purl.org/dc/dcmitype/StillImage" />
        <dc:title></dc:title>
      </cc:Work>
    </rdf:RDF>
  </metadata>
  <defs
     id="defs11" />
  <sodipodi:namedview
     pagecolor="#ffffff"
     bordercolor="#666666"
     borderopacity="1"
     objecttolerance="10"
     gridtolerance="10"
     guidetolerance="10"
     inkscape:pageopacity="0"
     inkscape:pageshadow="2"
     inkscape:window-width="1280"
     inkscape:window-height="974"
     id="namedview9"
     showgrid="false"
     inkscape:zoom="1.0257143"
     inkscape:cx="87.202464"
     inkscape:cy="100"
     inkscape:window-x="1280"
     inkscape:window-y="0"
     inkscape:window-maximized="1"
     inkscape:current-layer="svg2" />
  <rect
     width="175"
     height="200"
     x="175"
     y="0"
     fill="#144f0b"
     id="rect4" />
  <rect
     width="175"
     height="200"
     x="0"
     y="0"
     fill="#294ba7"
     id="rect6" />
  <path
     d="m 258.78816,84.287735 -20.12204,43.416305 -6.4961,-16.12593 c -30.47922,15.69602 -39.62786,39.39623 -41.61631,76.45531 l -30.72152,-0.12008 c 2.4004,-47.09917 15.2661,-82.55613 60.81913,-104.901235 l -6.55379,-16.27293 44.69063,17.54856 z m -98.93247,1.89999 c 5.70508,4.5803 10.78709,9.55803 15.29004,14.951585 4.5474,-5.359365 9.67641,-10.294365 15.41952,-14.831505 v -38.63642 h 17.65712 l -32.37024,-35.70481 -33.36296,35.48174 17.36695,0.0808 v 38.65864 z m 7.19823,25.879695 C 158.18391,100.64188 146.1088,90.815465 129.79398,82.651425 l 6.68627,-16.21909 -45.268412,16.75584 20.212222,44.011595 6.62729,-16.0738 c 17.62292,9.25205 28.03309,21.14639 33.99928,36.75053 3.20595,-12.96869 7.97814,-24.8438 15.00329,-35.80909 z"
     id="direction-7-icon"
     inkscape:connector-curvature="0" />
</svg>
