<?xml version="1.0" encoding="UTF-8" standalone="no"?>
<svg
   xmlns:dc="http://purl.org/dc/elements/1.1/"
   xmlns:cc="http://creativecommons.org/ns#"
   xmlns:rdf="http://www.w3.org/1999/02/22-rdf-syntax-ns#"
   xmlns:svg="http://www.w3.org/2000/svg"
   xmlns="http://www.w3.org/2000/svg"
   xmlns:sodipodi="http://sodipodi.sourceforge.net/DTD/sodipodi-0.dtd"
   xmlns:inkscape="http://www.inkscape.org/namespaces/inkscape"
   viewBox="0 0 350 200"
   height="200"
   width="350"
   preserveAspectRatio="xMid meet"
   id="svg2"
   version="1.1"
   inkscape:version="0.48.3.1 r9886"
   sodipodi:docname="flame.svg">
  <metadata
     id="metadata13">
    <rdf:RDF>
      <cc:Work
         rdf:about="">
        <dc:format>image/svg+xml</dc:format>
        <dc:type
           rdf:resource="http://purl.org/dc/dcmitype/StillImage" />
        <dc:title></dc:title>
      </cc:Work>
    </rdf:RDF>
  </metadata>
  <defs
     id="defs11" />
  <sodipodi:namedview
     pagecolor="#ffffff"
     bordercolor="#666666"
     borderopacity="1"
     objecttolerance="10"
     gridtolerance="10"
     guidetolerance="10"
     inkscape:pageopacity="0"
     inkscape:pageshadow="2"
     inkscape:window-width="1280"
     inkscape:window-height="974"
     id="namedview9"
     showgrid="false"
     inkscape:zoom="1.0257143"
     inkscape:cx="86.310747"
     inkscape:cy="100.35051"
     inkscape:window-x="1280"
     inkscape:window-y="0"
     inkscape:window-maximized="1"
     inkscape:current-layer="svg2" />
  <rect
     width="175"
     height="200"
     x="175"
     y="0"
     fill="#144f0b"
     id="rect4" />
  <rect
     width="175"
     height="200"
     x="0"
     y="0"
     fill="#294ba7"
     id="rect6" />
  <path
     d="M 217.5744,84.81192 C 227.32872,60.60737 214.76819,32.29186 188.91307,24.0279 l -0.0765,3.06081 c 17.56181,8.11644 24.11254,29.33592 14.73855,45.83093 -8.91991,15.69748 -28.87668,21.19172 -44.57377,12.27062 -15.69748,-8.91991 -21.19093,-28.87588 -12.27062,-44.57336 3.49864,-6.15693 8.69941,-10.73586 14.67113,-13.49884 l -0.009,-3.18495 c -10.74419,3.33168 -20.29387,10.59547 -26.28978,21.14652 -7.17733,12.62913 -7.7024,27.22174 -2.69636,39.73467 -25.55412,3.77308 -43.644969,28.50826 -38.097979,54.86942 l 2.69873,-1.44554 c -1.61964,-19.27901 13.592829,-35.45755 32.565279,-35.45755 18.05437,0 32.691,14.63623 32.691,32.691 0,18.05476 -14.63623,32.6902 -32.691,32.6902 -7.08175,0 -13.63169,-2.25853 -18.98475,-6.08594 l -2.76377,1.58157 c 8.20448,7.69447 19.23816,12.40943 31.37395,12.40943 14.48236,0 27.39426,-6.71254 35.80139,-17.19339 8.40792,10.48085 21.32021,17.19339 35.80217,17.19339 12.13619,0 23.16988,-4.71496 31.37396,-12.40943 l -2.76378,-1.58157 c -5.35306,3.82702 -11.90299,6.08594 -18.98475,6.08594 -18.05437,0 -32.691,-14.63544 -32.691,-32.6902 0,-18.05477 14.63624,-32.691 32.691,-32.691 18.97246,0 34.18492,16.17854 32.56528,35.45755 l 2.69874,1.44554 c 5.54857,-26.36671 -12.5526,-51.10745 -38.11663,-54.8718 z m -42.57499,34.72507 c -5.63979,0 -10.21198,-4.5714 -10.21198,-10.21197 0,-5.63979 4.57219,-10.21158 10.21198,-10.21158 5.64057,0 10.21197,4.57179 10.21197,10.21158 0,5.64018 -4.5714,10.21197 -10.21197,10.21197 z m 23.58033,27.56915 c -2.01067,-3.76118 -3.04654,-8.0054 -2.88989,-12.50144 6.27709,-4.99375 10.71404,-12.19805 12.12508,-20.42711 3.62118,-2.15344 7.83407,-3.40743 12.33289,-3.4578 -0.73526,15.40878 -9.18284,28.79578 -21.56808,36.38635 z m -44.26999,-12.48676 c 0.15269,4.45995 -0.86454,8.70218 -2.89464,12.49548 -12.39317,-7.58938 -20.8467,-20.98074 -21.58117,-36.39546 4.49644,0.0472 8.70853,1.29801 12.32972,3.44669 1.41064,8.24215 5.85671,15.45636 12.14609,20.45329 z m -0.82647,-65.86385 c 13.45283,-7.28916 29.82014,-7.25228 43.25513,0.13405 -1.9488,3.51133 -4.92951,6.7054 -8.68751,8.99962 -8.26714,-3.53671 -17.66334,-3.55932 -25.93642,-0.0789 -3.65212,-2.25774 -6.59951,-5.36614 -8.6312,-9.05475 z"
     id="danger-6-icon"
     inkscape:connector-curvature="0" />
</svg>
