<?xml version="1.0" encoding="UTF-8" standalone="no"?>
<svg
   xmlns:dc="http://purl.org/dc/elements/1.1/"
   xmlns:cc="http://creativecommons.org/ns#"
   xmlns:rdf="http://www.w3.org/1999/02/22-rdf-syntax-ns#"
   xmlns:svg="http://www.w3.org/2000/svg"
   xmlns="http://www.w3.org/2000/svg"
   xmlns:sodipodi="http://sodipodi.sourceforge.net/DTD/sodipodi-0.dtd"
   xmlns:inkscape="http://www.inkscape.org/namespaces/inkscape"
   viewBox="0 0 350 200"
   height="200"
   width="350"
   preserveAspectRatio="xMid meet"
   id="svg2"
   version="1.1"
   inkscape:version="0.48.3.1 r9886"
   sodipodi:docname="bat\.svg">
  <metadata
     id="metadata13">
    <rdf:RDF>
      <cc:Work
         rdf:about="">
        <dc:format>image/svg+xml</dc:format>
        <dc:type
           rdf:resource="http://purl.org/dc/dcmitype/StillImage" />
        <dc:title></dc:title>
      </cc:Work>
    </rdf:RDF>
  </metadata>
  <defs
     id="defs11" />
  <sodipodi:namedview
     pagecolor="#ffffff"
     bordercolor="#666666"
     borderopacity="1"
     objecttolerance="10"
     gridtolerance="10"
     guidetolerance="10"
     inkscape:pageopacity="0"
     inkscape:pageshadow="2"
     inkscape:window-width="1280"
     inkscape:window-height="974"
     id="namedview9"
     showgrid="false"
     inkscape:zoom="1.0257143"
     inkscape:cx="87.202464"
     inkscape:cy="100"
     inkscape:window-x="1280"
     inkscape:window-y="0"
     inkscape:window-maximized="1"
     inkscape:current-layer="svg2" />
  <rect
     width="175"
     height="200"
     x="175"
     y="0"
     fill="#144f0b"
     id="rect4" />
  <rect
     width="175"
     height="200"
     x="0"
     y="0"
     fill="#294ba7"
     id="rect6" />
  <g
     id="g3868"
     transform="matrix(2.1309305,0,0,2.1309305,67.521193,30.20537)">
    <path
       id="path3858"
       d="M 92.427,17.571 C 70.58,27.783 75.895,29.818 59.203,33.86 c 0.621,1.767 0.639,3.313 1.607,5.894 14.625,-3.563 10.521,-7.906 39.627,-20.034 -1.248,-1.689 -4.91,-2.945 -8.01,-2.149 z"
       inkscape:connector-curvature="0" />
    <path
       id="path3860"
       d="m 92.081,15.546 c 2.444,-1.143 5.196,-2.363 8.356,-3.68 C 97.792,8.287 91.043,8.053 83.839,9.014 74.482,10.263 64.353,13.53 61.444,14.11 56.301,15.138 50.039,17.756 46.204,17.195 44.854,16.998 44.044,16.108 43.487,14.837 42.463,12.497 42.312,8.845 41.343,5.694 39.847,0.832 34.938,-0.618 30.59,0.224 27.798,0.765 26.663,2.328 21.8,2.795 13.469,1.678 0.438,1.488 0.438,1.488 c 4.769,1.963 16.036,3.599 20.336,4.628 4.301,1.029 5.103,7.855 5.891,14.072 0.91,7.183 2.107,15.252 7.25,22.266 5.143,7.013 11.284,7.763 16.032,7.646 2.608,-0.065 8.54,3.894 12.155,6.461 4.133,2.935 12.25,10.66 13.371,8.603 1.123,-2.058 -1.775,-3.927 -10.099,-15.147 -4.072,-5.49 -5.877,-8.91 -6.808,-11.383 -0.969,-2.578 -0.986,-4.127 -1.607,-5.893 17.408,-3.386 13.275,-6.982 35.122,-17.195 z"
       inkscape:connector-curvature="0" />
  </g>
</svg>
