<?xml version="1.0" encoding="UTF-8" standalone="no"?>
<svg
   xmlns:dc="http://purl.org/dc/elements/1.1/"
   xmlns:cc="http://creativecommons.org/ns#"
   xmlns:rdf="http://www.w3.org/1999/02/22-rdf-syntax-ns#"
   xmlns:svg="http://www.w3.org/2000/svg"
   xmlns="http://www.w3.org/2000/svg"
   xmlns:sodipodi="http://sodipodi.sourceforge.net/DTD/sodipodi-0.dtd"
   xmlns:inkscape="http://www.inkscape.org/namespaces/inkscape"
   viewBox="0 0 350 200"
   height="200"
   width="350"
   preserveAspectRatio="xMid meet"
   id="svg2"
   version="1.1"
   inkscape:version="0.48.3.1 r9886"
   sodipodi:docname="dove.svg">
  <metadata
     id="metadata13">
    <rdf:RDF>
      <cc:Work
         rdf:about="">
        <dc:format>image/svg+xml</dc:format>
        <dc:type
           rdf:resource="http://purl.org/dc/dcmitype/StillImage" />
        <dc:title></dc:title>
      </cc:Work>
    </rdf:RDF>
  </metadata>
  <defs
     id="defs11" />
  <sodipodi:namedview
     pagecolor="#ffffff"
     bordercolor="#666666"
     borderopacity="1"
     objecttolerance="10"
     gridtolerance="10"
     guidetolerance="10"
     inkscape:pageopacity="0"
     inkscape:pageshadow="2"
     inkscape:window-width="1280"
     inkscape:window-height="974"
     id="namedview9"
     showgrid="false"
     inkscape:zoom="1.0257143"
     inkscape:cx="87.202464"
     inkscape:cy="100"
     inkscape:window-x="1280"
     inkscape:window-y="0"
     inkscape:window-maximized="1"
     inkscape:current-layer="svg2" />
  <rect
     width="175"
     height="200"
     x="175"
     y="0"
     fill="#144f0b"
     id="rect4" />
  <rect
     width="175"
     height="200"
     x="0"
     y="0"
     fill="#294ba7"
     id="rect6" />
  <g
     id="g7572"
     transform="matrix(1.8579296,0,0,1.8579296,82.102538,33.132243)">
    <path
       id="path7562"
       d="m 12.116,25.498 0.305,10.492 2.385,15.11 5.619,20.879 h 7.468 c 0,0 0.328,-3.472 -4.343,-3.472 L 21.61,54.22 26.071,35.806 h 19.821 l -8.156,15.295 -4.237,20.88 h 8.22 c 0,0 0.561,-3.472 -4.059,-3.472 l 6.286,-14.288 11.989,-17.763 5.302,14.643 6.852,20.88 h 7.133 c 0,0 0.73,-3.472 -4.793,-3.472 L 67.153,54.22 64.245,35.806 c 0,0 21.42,0.587 26.457,-25.098 h 5.961 c 0,0 3.338,-0.074 3.338,-3.505 0,-0.004 0.056,-3.454 -3.338,-3.454 H 90.702 L 88.894,2.795 h -2.997 c 0,0 -0.178,-1.949 -2.033,-1.949 -1.745,0 -1.957,1.66 -1.957,2.344 v 2.619 c 0,15.28 -12.376,14.048 -12.376,14.048 -8.264,0 -12.729,-9.17 -12.729,-9.17 C 51.42,-0.417 40.231,0.002 40.231,0.002 c -11.764,0 -15.288,10.685 -18.693,10.685 0,0 -6.662,-0.109 -10.178,9.394 l -7.689,20.502 2.021,0.018 6.424,-15.103 z"
       inkscape:connector-curvature="0"
       style="fill:#010101" />
    <path
       id="path7564"
       d="m 11.265,37.944 1.347,8.363 -5.714,7.913 -2.924,14.287 c 0,0 4.187,-0.352 4.187,3.472 H 0 L 1.608,51.1 11.265,37.944 z"
       inkscape:connector-curvature="0"
       style="fill:#010101" />
  </g>
</svg>
