<?xml version="1.0" encoding="UTF-8" standalone="no"?>
<svg
   xmlns:dc="http://purl.org/dc/elements/1.1/"
   xmlns:cc="http://creativecommons.org/ns#"
   xmlns:rdf="http://www.w3.org/1999/02/22-rdf-syntax-ns#"
   xmlns:svg="http://www.w3.org/2000/svg"
   xmlns="http://www.w3.org/2000/svg"
   xmlns:sodipodi="http://sodipodi.sourceforge.net/DTD/sodipodi-0.dtd"
   xmlns:inkscape="http://www.inkscape.org/namespaces/inkscape"
   viewBox="0 0 350 200"
   height="200"
   width="350"
   preserveAspectRatio="xMid meet"
   id="svg2"
   version="1.1"
   inkscape:version="0.48.3.1 r9886"
   sodipodi:docname="shark.svg">
  <metadata
     id="metadata13">
    <rdf:RDF>
      <cc:Work
         rdf:about="">
        <dc:format>image/svg+xml</dc:format>
        <dc:type
           rdf:resource="http://purl.org/dc/dcmitype/StillImage" />
        <dc:title></dc:title>
      </cc:Work>
    </rdf:RDF>
  </metadata>
  <defs
     id="defs11" />
  <sodipodi:namedview
     pagecolor="#ffffff"
     bordercolor="#666666"
     borderopacity="1"
     objecttolerance="10"
     gridtolerance="10"
     guidetolerance="10"
     inkscape:pageopacity="0"
     inkscape:pageshadow="2"
     inkscape:window-width="1280"
     inkscape:window-height="974"
     id="namedview9"
     showgrid="false"
     inkscape:zoom="1.0257143"
     inkscape:cx="87.202464"
     inkscape:cy="100"
     inkscape:window-x="1280"
     inkscape:window-y="0"
     inkscape:window-maximized="1"
     inkscape:current-layer="svg2" />
  <rect
     width="175"
     height="200"
     x="175"
     y="0"
     fill="#144f0b"
     id="rect4" />
  <rect
     width="175"
     height="200"
     x="0"
     y="0"
     fill="#294ba7"
     id="rect6" />
  <path
     id="path3990"
     d="m 254.52044,162.26493 -10.50216,-10.33299 c -12.54533,-10.33298 -11.02271,-25.07764 -11.17888,-26.60026 -0.16918,-1.50961 -0.16918,-7.61309 0.33836,-9.64325 0.50754,-2.03016 -0.16918,-4.24251 -0.16918,-4.24251 3.73497,-15.252207 15.75975,-11.02271 15.75975,-11.02271 4.90622,0.50754 5.08841,-4.229497 5.08841,-4.229497 3.38359,-1.691799 2.5377,-5.244574 2.5377,-5.244574 l -5.94733,-6.272665 c -2.36852,-6.259653 -9.13571,-7.795285 -9.13571,-7.795285 1.00207,-6.259652 -2.21235,-10.163801 -2.21235,-10.163801 -0.50754,1.860979 -7.61309,9.356944 -8.13364,9.487083 -8.30282,2.030157 -5.59595,3.396609 -10.84051,7.118564 -5.24458,3.721956 -16.43647,8.302824 -21.34269,5.595947 -4.90621,-2.71989 -45.73059,-6.272666 -63.33831,-6.272666 -5.21854,0 -9.29187,1.080148 -12.44122,2.589752 -2.88907,-2.212351 -6.61103,-6.988427 -9.35694,-13.482328 -4.04731,-9.565164 -4.61991,-19.16937 -1.50961,-25.689299 1.66577,-3.513733 3.5658,-5.504849 5.66102,-5.921292 3.11031,-0.61165 6.9624,2.095227 8.06858,3.097291 2.0822,1.913033 5.32265,1.782895 7.2487,-0.299318 1.92604,-2.082212 1.80892,-5.33567 -0.27329,-7.261714 -0.81988,-0.754808 -8.21173,-7.313775 -16.97003,-5.634989 -5.49185,1.05412 -9.8775,4.95827 -13.02685,11.608334 -4.411692,9.265846 -3.930172,21.694054 1.32741,34.109247 2.36852,5.595947 6.14253,11.894641 10.76243,16.137148 -1.21028,1.691799 -1.69179,2.941126 -1.69179,2.941126 -1.52261,3.552775 -5.75211,11.517236 -4.2295,18.804986 1.52263,7.28774 -3.04523,10.67134 -3.89113,11.51724 -0.85892,0.85891 -9.669282,6.10348 -9.669282,6.10348 l -7.28774,25.75437 c -1.18426,4.91923 5.42677,7.79529 5.42677,7.79529 2.36852,-0.32535 2.53769,-8.12063 2.53769,-8.12063 l 5.765132,-13.57343 21.68104,-7.95145 c 0,0 0,9.14872 -0.33836,10.84052 -0.33836,1.6918 -1.18426,4.56786 -1.18426,4.56786 0.8459,5.92129 15.42139,19.65088 15.42139,19.65088 h 11.0097 v -3.55278 c -0.8459,-3.90415 -6.44185,-2.03015 -6.44185,-2.03015 l -8.13364,-12.36314 c 8.64119,-6.78021 12.19396,-18.12827 12.19396,-18.12827 4.06031,3.3836 23.54202,-2.88907 23.54202,-2.88907 l 11.69943,1.18426 -3.3836,27.26397 c -1.01508,6.61103 0.50755,8.97955 0.50755,8.97955 h 5.24457 c 3.73496,0 6.27266,0.50754 6.27266,-3.39661 0,-3.89114 -5.24457,-3.21442 -5.24457,-3.21442 l 12.85767,-25.40299 c 12.20697,-7.45693 19.98924,3.38359 19.98924,3.38359 l 0.68973,3.90415 c 4.73703,6.93637 30.82976,24.72628 30.82976,24.72628 h 12.87068 v -3.90415 c -2.21235,-4.06032 -7.45693,-2.52468 -7.45693,-2.52468 z"
     inkscape:connector-curvature="0" />
</svg>
