<?xml version="1.0" encoding="UTF-8" standalone="no"?>
<svg
   xmlns:dc="http://purl.org/dc/elements/1.1/"
   xmlns:cc="http://creativecommons.org/ns#"
   xmlns:rdf="http://www.w3.org/1999/02/22-rdf-syntax-ns#"
   xmlns:svg="http://www.w3.org/2000/svg"
   xmlns="http://www.w3.org/2000/svg"
   xmlns:sodipodi="http://sodipodi.sourceforge.net/DTD/sodipodi-0.dtd"
   xmlns:inkscape="http://www.inkscape.org/namespaces/inkscape"
   viewBox="0 0 350 200"
   height="200"
   width="350"
   preserveAspectRatio="xMid meet"
   id="svg2"
   version="1.1"
   inkscape:version="0.48.3.1 r9886"
   sodipodi:docname="wave.svg">
  <metadata
     id="metadata13">
    <rdf:RDF>
      <cc:Work
         rdf:about="">
        <dc:format>image/svg+xml</dc:format>
        <dc:type
           rdf:resource="http://purl.org/dc/dcmitype/StillImage" />
        <dc:title></dc:title>
      </cc:Work>
    </rdf:RDF>
  </metadata>
  <defs
     id="defs11" />
  <sodipodi:namedview
     pagecolor="#ffffff"
     bordercolor="#666666"
     borderopacity="1"
     objecttolerance="10"
     gridtolerance="10"
     guidetolerance="10"
     inkscape:pageopacity="0"
     inkscape:pageshadow="2"
     inkscape:window-width="1280"
     inkscape:window-height="974"
     id="namedview9"
     showgrid="false"
     inkscape:zoom="1.0257143"
     inkscape:cx="87.202464"
     inkscape:cy="100"
     inkscape:window-x="1280"
     inkscape:window-y="0"
     inkscape:window-maximized="1"
     inkscape:current-layer="svg2" />
  <rect
     width="175"
     height="200"
     x="175"
     y="0"
     fill="#144f0b"
     id="rect4" />
  <rect
     width="175"
     height="200"
     x="0"
     y="0"
     fill="#294ba7"
     id="rect6" />
  <path
     d="m 175,33.38137 c 36.81723,0 66.61863,29.79579 66.61863,66.61863 0,36.81803 -29.79579,66.61863 -66.61863,66.61863 -36.81723,0 -66.61863,-29.79578 -66.61863,-66.61863 0,-36.81803 29.79578,-66.61863 66.61863,-66.61863 z m 0,-16.05268 c -45.65824,0 -82.671309,37.01307 -82.671309,82.67131 0,45.65824 37.013069,82.67131 82.671309,82.67131 45.65824,0 82.67131,-37.01307 82.67131,-82.67131 0,-45.65824 -37.01307,-82.67131 -82.67131,-82.67131 z m -13.71822,64.29019 -32.97622,4.55334 24.00197,23.0669 -5.86004,32.76954 29.35514,-15.69952 29.35474,15.69952 -5.86003,-32.76954 24.00197,-23.0669 -32.97622,-4.55334 -14.52046,-29.95511 -14.52085,29.95511 z"
     id="star-2-circle-outline-icon"
     inkscape:connector-curvature="0" />
</svg>
