<?xml version="1.0" encoding="UTF-8" standalone="no"?>
<svg
   xmlns:dc="http://purl.org/dc/elements/1.1/"
   xmlns:cc="http://creativecommons.org/ns#"
   xmlns:rdf="http://www.w3.org/1999/02/22-rdf-syntax-ns#"
   xmlns:svg="http://www.w3.org/2000/svg"
   xmlns="http://www.w3.org/2000/svg"
   xmlns:sodipodi="http://sodipodi.sourceforge.net/DTD/sodipodi-0.dtd"
   xmlns:inkscape="http://www.inkscape.org/namespaces/inkscape"
   viewBox="0 0 350 200"
   height="200"
   width="350"
   preserveAspectRatio="xMid meet"
   id="svg2"
   version="1.1"
   inkscape:version="0.48.3.1 r9886"
   sodipodi:docname="compass-small-circle.svg">
  <metadata
     id="metadata13">
    <rdf:RDF>
      <cc:Work
         rdf:about="">
        <dc:format>image/svg+xml</dc:format>
        <dc:type
           rdf:resource="http://purl.org/dc/dcmitype/StillImage" />
        <dc:title></dc:title>
      </cc:Work>
    </rdf:RDF>
  </metadata>
  <defs
     id="defs11" />
  <sodipodi:namedview
     pagecolor="#ffffff"
     bordercolor="#666666"
     borderopacity="1"
     objecttolerance="10"
     gridtolerance="10"
     guidetolerance="10"
     inkscape:pageopacity="0"
     inkscape:pageshadow="2"
     inkscape:window-width="1280"
     inkscape:window-height="974"
     id="namedview9"
     showgrid="false"
     inkscape:zoom="1.0257143"
     inkscape:cx="87.202464"
     inkscape:cy="100"
     inkscape:window-x="1280"
     inkscape:window-y="0"
     inkscape:window-maximized="1"
     inkscape:current-layer="svg2" />
  <rect
     width="175"
     height="200"
     x="175"
     y="0"
     fill="#144f0b"
     id="rect4" />
  <rect
     width="175"
     height="200"
     x="0"
     y="0"
     fill="#294ba7"
     id="rect6" />
  <path
     d="m 175,38.095117 c 34.21178,0 61.90489,27.686766 61.90489,61.904883 0,34.21214 -27.68752,61.90488 -61.90489,61.90488 -34.21214,0 -61.90488,-27.68752 -61.90488,-61.90488 0,-34.212147 27.68714,-61.904883 61.90488,-61.904883 m 0,-14.91684 c -42.42759,0 -76.821727,34.39413 -76.821727,76.821723 0,42.42759 34.394137,76.82172 76.821727,76.82172 42.4276,0 76.82173,-34.39413 76.82173,-76.82172 0,-42.427593 -34.39413,-76.821723 -76.82173,-76.821723 z m -21.74651,62.078666 -10.57418,-17.57764 17.6112,10.59394 c -2.76372,1.86237 -5.15377,4.23639 -7.03702,6.9837 z m 36.92775,-6.65814 c 2.4087,1.70127 4.51943,3.79597 6.2386,6.19124 l 10.90123,-17.11074 -17.13983,10.9195 z m -36.6943,36.757707 -10.808,16.96492 16.93658,-10.79084 c -2.3673,-1.70499 -4.44074,-3.79335 -6.12858,-6.17408 z m 36.43662,6.49815 17.39751,10.4664 -10.48542,-17.43033 c -1.84857,2.7309 -4.19686,5.09522 -6.91209,6.96393 z m 38.85128,-21.85429 -37.00794,8.20352 c -1.62929,3.32384 -4.21848,6.08905 -7.40583,7.94135 L 175,153.77521 165.63819,116.14449 c -3.18661,-1.85155 -5.7758,-4.61713 -7.40509,-7.9406 l -37.00793,-8.20352 37.00793,-8.203887 c 1.62929,-3.32385 4.21848,-6.08906 7.40509,-7.94098 L 175,46.224797 l 9.36181,37.630706 c 3.18661,1.85192 5.7758,4.61713 7.40509,7.94098 l 37.00794,8.203887 z M 183.35567,100 c 0,-4.614527 -3.74077,-8.356047 -8.35567,-8.356047 -4.61489,0 -8.35641,3.74152 -8.35641,8.356047 0,4.61527 3.74152,8.35641 8.35641,8.35641 4.6149,0 8.35567,-3.74114 8.35567,-8.35641 z"
     id="compass-7-icon"
     inkscape:connector-curvature="0" />
</svg>
