<?xml version="1.0" encoding="UTF-8" standalone="no"?>
<svg
   xmlns:dc="http://purl.org/dc/elements/1.1/"
   xmlns:cc="http://creativecommons.org/ns#"
   xmlns:rdf="http://www.w3.org/1999/02/22-rdf-syntax-ns#"
   xmlns:svg="http://www.w3.org/2000/svg"
   xmlns="http://www.w3.org/2000/svg"
   xmlns:sodipodi="http://sodipodi.sourceforge.net/DTD/sodipodi-0.dtd"
   xmlns:inkscape="http://www.inkscape.org/namespaces/inkscape"
   viewBox="0 0 350 200"
   height="200"
   width="350"
   preserveAspectRatio="xMid meet"
   id="svg2"
   version="1.1"
   inkscape:version="0.48.3.1 r9886"
   sodipodi:docname="tri-star.svg">
  <metadata
     id="metadata13">
    <rdf:RDF>
      <cc:Work
         rdf:about="">
        <dc:format>image/svg+xml</dc:format>
        <dc:type
           rdf:resource="http://purl.org/dc/dcmitype/StillImage" />
        <dc:title></dc:title>
      </cc:Work>
    </rdf:RDF>
  </metadata>
  <defs
     id="defs11" />
  <sodipodi:namedview
     pagecolor="#ffffff"
     bordercolor="#666666"
     borderopacity="1"
     objecttolerance="10"
     gridtolerance="10"
     guidetolerance="10"
     inkscape:pageopacity="0"
     inkscape:pageshadow="2"
     inkscape:window-width="1280"
     inkscape:window-height="974"
     id="namedview9"
     showgrid="false"
     inkscape:zoom="1.0257143"
     inkscape:cx="87.202464"
     inkscape:cy="100"
     inkscape:window-x="1280"
     inkscape:window-y="0"
     inkscape:window-maximized="1"
     inkscape:current-layer="svg2" />
  <rect
     width="175"
     height="200"
     x="175"
     y="0"
     fill="#144f0b"
     id="rect4" />
  <rect
     width="175"
     height="200"
     x="0"
     y="0"
     fill="#294ba7"
     id="rect6" />
  <path
     id="path4499"
     d="m 146.68215,119.81897 c 0,0 16.74099,5.21991 19.78433,5.87218 3.04509,0.65227 6.9587,1.08477 7.39296,2.39282 0.43602,1.30102 -1.52254,10.8688 -1.30629,14.3464 0.21801,3.48111 -2.82709,16.74275 -2.60732,17.61302 0.21801,0.86852 1.08653,1.51728 1.08653,2.38931 0,0.87204 -1.7388,12.82913 -0.21625,14.56969 1.51903,1.73704 4.99838,4.78038 6.95695,4.34787 1.95505,-0.43601 4.13162,-0.64875 5.0019,-1.08828 0.87028,-0.43602 2.17306,-2.16955 1.08477,-3.25959 -1.08477,-1.08829 -3.25959,-4.35139 -3.25959,-5.43616 0,-1.08829 -0.21976,-7.60922 -0.21976,-9.56603 0,-1.95681 3.04685,-16.51946 3.47935,-17.60951 0.43602,-1.0918 4.34963,-11.52459 4.56764,-12.61287 0.21625,-1.08829 -0.65403,-3.48112 5.00014,-3.69561 5.65417,-0.21976 9.56603,-1.08828 10.43807,-1.74055 0.86852,-0.65227 -1.52431,5.65241 -1.3063,6.95694 0.21977,1.30454 0.002,9.56603 -0.4325,11.30834 -0.43426,1.73704 -3.04334,9.13002 -3.04334,10.00029 0,0.87028 3.25959,11.5246 3.25959,13.26515 0,1.73704 -0.43602,4.78038 2.39107,5.43616 2.82533,0.65227 4.56764,0.87204 6.52445,0.65227 1.95329,-0.21977 4.34963,-0.43953 4.34963,-1.96032 0,-1.52079 -1.96032,-3.69912 -3.04685,-5.00014 -1.08653,-1.30454 -2.39107,-3.04158 -2.60732,-5.00015 -0.21625,-1.95856 -1.5243,-7.60922 0.21625,-12.17686 1.74056,-4.56413 5.65417,-20.65108 5.65417,-25.00247 0,-4.35139 0.87204,-8.04524 1.3063,-8.69751 0.4325,-0.65227 3.25783,-11.30482 2.60556,-16.304964 -0.65227,-5.0019 1.09005,-20.002329 2.82883,-21.742885 1.73879,-1.738798 4.56236,-7.174959 10.00028,-4.565883 5.43441,2.609076 15.43645,7.174959 16.95724,7.174959 1.5243,0 3.26662,-1.522547 5.43968,-2.609076 2.17305,-1.086529 3.03982,-2.610834 4.34611,-2.827085 1.30278,-0.218009 3.91537,-1.956807 3.26135,-3.913615 -0.65227,-1.955048 -2.60556,-6.086672 -3.69561,-7.174959 -1.08653,-1.086529 -6.08843,-8.043479 -7.39297,-9.131766 -1.30629,-1.086529 -3.69912,-8.261488 -4.35139,-9.349776 -0.65051,-1.086527 -6.08843,-4.780374 -7.39121,-5.216392 -1.29926,-0.436018 -2.82532,-1.740556 -2.82532,-2.391067 0,-0.652269 1.08653,-7.609219 1.73879,-9.566026 0.65227,-1.956807 1.52255,-6.52269 1.52255,-7.174959 0,-0.654027 -3.25607,2.610834 -4.12811,4.783892 -0.87203,2.173058 -6.52796,7.82547 -7.39296,7.82547 -0.8738,0 -1.3063,-1.086529 -0.8738,-3.477596 0.43075,-2.391067 1.95681,-10.218295 1.30278,-11.086815 -0.65227,-0.870278 -1.08653,-1.522547 -2.60907,1.086529 -1.51903,2.609076 -6.74069,10.000286 -7.60745,13.043622 -0.87028,3.043336 -3.69912,7.174959 -3.69912,7.174959 0,0 -11.95534,10.220052 -15.4347,13.917415 -3.47935,3.695605 -11.30658,12.611121 -13.26338,13.915659 -1.95505,1.30278 -9.56603,3.041578 -12.60937,3.693847 -3.04157,0.654027 -16.52473,0.436018 -21.30863,0.436018 -4.78389,0 -11.74084,-0.43426 -14.1319,0 -2.39107,0.43426 -11.74261,4.347874 -13.91566,5.870421 -2.17306,1.520789 -5.00015,3.477596 -8.47774,3.911856 -3.47935,0.439534 -14.56793,0.654027 -17.829273,0.219767 -3.261345,-0.43426 -7.82547,-1.519031 -9.130008,-0.870278 -1.306296,0.650511 -3.045094,2.174816 -0.219767,2.827085 2.827085,0.654027 16.306728,4.349632 19.568068,4.782134 3.25959,0.43426 6.30644,0.655786 6.7407,1.306296 0.43602,0.650511 -4.56764,10.002043 -5.87042,14.348163 -1.30454,4.34787 -6.30292,13.91741 -6.52269,15.87422 -0.21625,1.95329 0.43602,6.95695 -0.65051,9.12649 -1.08829,2.17306 -5.219911,7.39297 -5.219911,8.48125 0,1.08477 -2.173058,7.82196 -2.173058,9.56251 0,1.74056 -1.304538,10.43983 -2.609076,11.5246 -1.306296,1.08828 -1.740556,5.43264 -0.652269,7.39297 1.086529,1.9568 1.088287,4.34787 3.261345,4.13162 2.173058,-0.21625 1.304538,0 3.479354,-0.86852 2.174815,-0.86852 3.697365,-0.87204 3.697365,-2.60908 0,-1.73704 -0.65227,-6.08843 -0.65227,-6.95695 0,-0.86852 0,-9.34977 0.87028,-11.30834 0.86852,-1.95329 3.69736,-8.69751 5.65241,-10.43631 1.95681,-1.73704 9.13177,-10.8688 11.30658,-12.60935 2.17482,-1.74056 7.82899,-8.47774 8.91376,-9.13001 1.08653,-0.65227 3.04333,-2.17658 3.91361,0.4325 0.87028,2.60908 -1.30454,9.78579 -2.82708,10.87232 -1.52255,1.08829 -2.38931,3.69912 -2.17306,4.56764 0.21625,0.86852 -0.43426,12.38959 -0.65227,14.99867 -0.21801,2.60908 -1.52255,6.52094 0.43602,8.26149 1.9568,1.74056 4.12986,1.96033 5.21815,2.39283 1.08653,0.43601 3.47935,0.43601 3.47935,0.43601 0,0 1.95681,-1.30805 2.60908,-1.52078 0.65227,-0.21977 -0.87028,-5.21991 -1.74056,-6.3082 -0.86852,-1.08477 -3.26134,-5.65593 -3.47759,-7.82547 -0.21801,-2.17306 -0.65227,-6.08843 2.17306,-8.04524 2.82532,-1.95681 8.6975,-7.39297 9.78403,-9.34977 1.08301,-1.95505 1.95329,-6.30644 1.95329,-6.30644 z"
     inkscape:connector-curvature="0" />
</svg>
