<?xml version="1.0" encoding="UTF-8" standalone="no"?>
<svg
   xmlns:dc="http://purl.org/dc/elements/1.1/"
   xmlns:cc="http://creativecommons.org/ns#"
   xmlns:rdf="http://www.w3.org/1999/02/22-rdf-syntax-ns#"
   xmlns:svg="http://www.w3.org/2000/svg"
   xmlns="http://www.w3.org/2000/svg"
   xmlns:sodipodi="http://sodipodi.sourceforge.net/DTD/sodipodi-0.dtd"
   xmlns:inkscape="http://www.inkscape.org/namespaces/inkscape"
   viewBox="0 0 350 200"
   height="200"
   width="350"
   preserveAspectRatio="xMid meet"
   id="svg2"
   version="1.1"
   inkscape:version="0.48.3.1 r9886"
   sodipodi:docname="bird.svg">
  <metadata
     id="metadata13">
    <rdf:RDF>
      <cc:Work
         rdf:about="">
        <dc:format>image/svg+xml</dc:format>
        <dc:type
           rdf:resource="http://purl.org/dc/dcmitype/StillImage" />
        <dc:title></dc:title>
      </cc:Work>
    </rdf:RDF>
  </metadata>
  <defs
     id="defs11" />
  <sodipodi:namedview
     pagecolor="#ffffff"
     bordercolor="#666666"
     borderopacity="1"
     objecttolerance="10"
     gridtolerance="10"
     guidetolerance="10"
     inkscape:pageopacity="0"
     inkscape:pageshadow="2"
     inkscape:window-width="1280"
     inkscape:window-height="974"
     id="namedview9"
     showgrid="false"
     inkscape:zoom="1.0257143"
     inkscape:cx="87.202464"
     inkscape:cy="100"
     inkscape:window-x="1280"
     inkscape:window-y="0"
     inkscape:window-maximized="1"
     inkscape:current-layer="svg2" />
  <rect
     width="175"
     height="200"
     x="175"
     y="0"
     fill="#144f0b"
     id="rect4" />
  <rect
     width="175"
     height="200"
     x="0"
     y="0"
     fill="#294ba7"
     id="rect6" />
  <g
     id="g3892"
     transform="matrix(1.5657543,0,0,1.5657543,95.543173,22.516054)">
	<path
   id="path3894"
   d="m 2.845,98.008 c 0.358,0.182 0.457,-0.624 1.088,-1.068 0.631,-0.444 3.254,-2.126 4.514,-2.471 1.26,-0.348 1.443,-0.525 1.805,-1.062 0.366,-0.537 0.929,-3.048 0.929,-3.048 0,0 0.17,1.265 0.39,1.848 0.215,0.586 0.934,0.593 1.833,0.601 0.899,0.009 4.676,-0.674 4.676,-0.674 0,0 0.625,0.274 1.161,0.818 0.536,0.546 0.884,1.627 1.604,1.454 0.718,-0.175 0.288,-1.884 0.288,-1.884 0,0 -0.591,-4.045 -1.824,-6.574 -1.232,-2.526 -3.692,-3.764 -4.125,-5.294 -0.433,-1.532 5.547,-11.939 6.187,-13.282 0.646,-1.341 3.843,-6.97 6.565,-9.816 2.721,-2.85 12.032,-9.136 16.992,-11.335 4.963,-2.2 14.014,-9.119 15.373,-10.631 1.36,-1.514 2.675,-2.446 3.494,-3.605 0.165,-0.233 0.312,-0.531 0.444,-0.854 l -0.593,2.245 c 0,0 -1.003,1.697 -2.004,2.854 -0.996,1.158 -2.357,2.312 -2.542,2.851 -0.185,0.537 -0.095,0.628 0.532,0.725 0.628,0.095 4.042,-0.053 5.668,-0.756 1.625,-0.702 3.89,-3.105 5.529,-5.426 1.638,-2.32 3.142,-8.952 3.24,-9.759 0.008,-0.102 0.016,-0.222 0.019,-0.353 l 0.024,0.308 c 0,0 5.105,-3.23 6.285,-4.207 1.173,-0.976 2.576,-2.085 3.302,-2.618 0.726,-0.532 4.024,-2.971 4.66,-3.593 0.634,-0.623 9.479,-5.028 9.479,-5.028 0,0 0.542,-0.176 1.002,-1.159 C 99.299,6.232 98.677,5.417 97.965,4.872 97.251,4.326 95.993,4.132 94.646,4.392 93.293,4.648 91.316,4.988 89.883,4.435 88.449,3.881 83.807,0.964 81.474,0.939 c 0,0 -4.883,0.146 -6.243,0.532 -0.848,0.24 -1.413,0.875 -1.413,0.875 L 72.883,1.94 c 0,0 -8.586,1.257 -11.288,1.95 -2.702,0.694 -9.822,3.23 -9.822,3.23 0,0 -10.017,4.846 -11.193,5.641 -1.177,0.799 -6.235,3.803 -6.235,3.803 0,0 -2.792,0.962 -4.232,1.128 -1.441,0.166 -8.093,0.819 -9.625,1.256 -1.531,0.434 -4.144,1.397 -5.23,2.286 -1.087,0.887 -4.07,2.746 -3.899,3.823 0.168,1.081 0.167,1.26 1.421,1.451 1.257,0.19 6.938,0.906 6.938,0.906 0,0 0.781,0.066 1.399,1.062 0.618,0.993 -0.377,1.97 -0.478,2.959 -0.099,0.985 -9.307,15.182 -10.415,18.225 0,0 -2.554,5.016 -3.556,10.706 -1.002,5.689 -0.444,13.147 -0.03,16.658 0.414,3.507 1.035,4.5 1.208,5.399 0.171,0.9 -3.088,3.387 -3.825,5.353 -0.739,1.97 -1.525,9.148 -1.525,9.148 0,0 -0.011,0.899 0.349,1.084 z M 77.161,10.853 C 76.844,10.528 76.974,9.8 77.349,9.432 c 0.376,-0.368 1.926,-0.344 2.246,-0.018 0.321,0.327 -0.312,1.235 -0.688,1.604 -0.374,0.367 -1.427,0.161 -1.746,-0.165 z"
   inkscape:connector-curvature="0" />

</g>
</svg>
