<?xml version="1.0" encoding="UTF-8" standalone="no"?>
<svg
   xmlns:dc="http://purl.org/dc/elements/1.1/"
   xmlns:cc="http://creativecommons.org/ns#"
   xmlns:rdf="http://www.w3.org/1999/02/22-rdf-syntax-ns#"
   xmlns:svg="http://www.w3.org/2000/svg"
   xmlns="http://www.w3.org/2000/svg"
   xmlns:sodipodi="http://sodipodi.sourceforge.net/DTD/sodipodi-0.dtd"
   xmlns:inkscape="http://www.inkscape.org/namespaces/inkscape"
   viewBox="0 0 350 200"
   height="200"
   width="350"
   preserveAspectRatio="xMid meet"
   id="svg2"
   version="1.1"
   inkscape:version="0.48.3.1 r9886"
   sodipodi:docname="wolf.svg">
  <metadata
     id="metadata13">
    <rdf:RDF>
      <cc:Work
         rdf:about="">
        <dc:format>image/svg+xml</dc:format>
        <dc:type
           rdf:resource="http://purl.org/dc/dcmitype/StillImage" />
        <dc:title></dc:title>
      </cc:Work>
    </rdf:RDF>
  </metadata>
  <defs
     id="defs11" />
  <sodipodi:namedview
     pagecolor="#ffffff"
     bordercolor="#666666"
     borderopacity="1"
     objecttolerance="10"
     gridtolerance="10"
     guidetolerance="10"
     inkscape:pageopacity="0"
     inkscape:pageshadow="2"
     inkscape:window-width="1280"
     inkscape:window-height="974"
     id="namedview9"
     showgrid="false"
     inkscape:zoom="1.0257143"
     inkscape:cx="87.202464"
     inkscape:cy="100"
     inkscape:window-x="1280"
     inkscape:window-y="0"
     inkscape:window-maximized="1"
     inkscape:current-layer="svg2" />
  <rect
     width="175"
     height="200"
     x="175"
     y="0"
     fill="#144f0b"
     id="rect4" />
  <rect
     width="175"
     height="200"
     x="0"
     y="0"
     fill="#294ba7"
     id="rect6" />
  <g
     id="g7538"
     transform="matrix(1.4787835,0,0,1.4787835,101.0616,29.236896)">
    <path
       id="path7528"
       d="M 35.714,35.682 C 39.159,26.94 45.018,19.519 52.392,14.12 51.262,9.494 50.838,4.73 51.175,0 49.28,1.077 47.436,2.301 45.678,3.677 44.019,4.97 42.431,6.399 40.931,7.952 c -1.38,1.425 -2.634,2.933 -3.792,4.485 -4.721,6.335 -7.535,13.61 -8.536,21.078 2.409,0.525 4.775,1.239 7.111,2.167 z"
       inkscape:connector-curvature="0"
       style="fill:#010101" />
    <path
       id="path7530"
       d="M 93.213,68.966 C 86.475,69.977 75.713,70.32 65.577,62.874 65.055,62.487 64.524,62.063 63.987,61.611 71.201,55.3 76.423,46.773 78.528,37.062 78.637,36.437 78.754,35.815 78.887,35.199 81.068,25.15 86.561,16.335 94.173,9.968 92.08,9.349 89.92,8.877 87.712,8.566 85.628,8.272 83.501,8.121 81.335,8.121 79.348,8.121 77.398,8.265 75.478,8.512 57.552,10.813 42.895,23.546 37.775,40.427 30.751,36.974 22.352,34.995 12.036,36.35 -1.343,38.104 0.041,51.192 0.041,51.192 c 0,0 4.839,-2.521 10.396,0.07 5.206,2.429 6.509,7.673 6.509,7.673 3.393,20.645 21.342,29.73 34.62,29.73 12.367,0 20.315,-6.489 20.315,-6.489 l 4.204,9.485 c 0,0 1.765,6.972 10.773,2.606 8.743,-4.234 13.201,-13.61 13.14,-21.352 -0.033,-3.537 -2.157,-4.646 -6.785,-3.949 z"
       inkscape:connector-curvature="0"
       style="fill:#010101" />
  </g>
</svg>
