<?xml version="1.0" encoding="UTF-8" standalone="no"?>
<svg
   xmlns:dc="http://purl.org/dc/elements/1.1/"
   xmlns:cc="http://creativecommons.org/ns#"
   xmlns:rdf="http://www.w3.org/1999/02/22-rdf-syntax-ns#"
   xmlns:svg="http://www.w3.org/2000/svg"
   xmlns="http://www.w3.org/2000/svg"
   xmlns:sodipodi="http://sodipodi.sourceforge.net/DTD/sodipodi-0.dtd"
   xmlns:inkscape="http://www.inkscape.org/namespaces/inkscape"
   viewBox="0 0 350 200"
   height="200"
   width="350"
   preserveAspectRatio="xMid meet"
   id="svg2"
   version="1.1"
   inkscape:version="0.48.3.1 r9886"
   sodipodi:docname="dog.svg">
  <metadata
     id="metadata13">
    <rdf:RDF>
      <cc:Work
         rdf:about="">
        <dc:format>image/svg+xml</dc:format>
        <dc:type
           rdf:resource="http://purl.org/dc/dcmitype/StillImage" />
        <dc:title></dc:title>
      </cc:Work>
    </rdf:RDF>
  </metadata>
  <defs
     id="defs11" />
  <sodipodi:namedview
     pagecolor="#ffffff"
     bordercolor="#666666"
     borderopacity="1"
     objecttolerance="10"
     gridtolerance="10"
     guidetolerance="10"
     inkscape:pageopacity="0"
     inkscape:pageshadow="2"
     inkscape:window-width="1280"
     inkscape:window-height="974"
     id="namedview9"
     showgrid="false"
     inkscape:zoom="1.0257143"
     inkscape:cx="87.202464"
     inkscape:cy="100"
     inkscape:window-x="1280"
     inkscape:window-y="0"
     inkscape:window-maximized="1"
     inkscape:current-layer="svg2" />
  <rect
     width="175"
     height="200"
     x="175"
     y="0"
     fill="#144f0b"
     id="rect4" />
  <rect
     width="175"
     height="200"
     x="0"
     y="0"
     fill="#294ba7"
     id="rect6" />
  <g
     id="g4548"
     transform="matrix(2.651409,0,0,2.651409,42.428224,-32.57045)">
    <path
       id="path4528"
       d="m 80.125,58.631 c 1.27,0 2.896,-0.839 3.633,-1.874 l 2.973,-4.179 H 57.938 l -4.305,6.053 h 26.492 z"
       inkscape:connector-curvature="0"
       style="fill:#000000" />
    <path
       id="path4530"
       d="m 86.686,49.528 c 1.27,0 2.896,-0.839 3.633,-1.875 l 2.972,-4.179 H 64.444 l -4.305,6.054 h 26.547 z"
       inkscape:connector-curvature="0"
       style="fill:#000000" />
    <path
       id="path4532"
       d="m 13.27,52.578 2.973,4.179 c 0.735,1.035 2.363,1.874 3.632,1.874 H 46.367 L 42.062,52.578 H 13.27 z"
       inkscape:connector-curvature="0"
       style="fill:#000000" />
    <path
       id="path4534"
       d="m 6.71,43.475 2.972,4.179 c 0.735,1.036 2.363,1.875 3.632,1.875 H 39.86 L 35.555,43.475 H 6.71 z"
       inkscape:connector-curvature="0"
       style="fill:#000000" />
    <path
       id="path4536"
       d="M 56.482,43.475 H 43.518 L 37.097,34.372 H 0.237 l 2.97,4.179 c 0.737,1.036 2.363,1.875 3.635,1.875 H 37.096 L 49.99,58.631 62.904,40.425 h 30.255 c 1.271,0 2.897,-0.839 3.635,-1.875 l 2.97,-4.179 H 62.903 l -6.421,9.104 z"
       inkscape:connector-curvature="0"
       style="fill:#000000" />
    <path
       id="path4538"
       d="M 57.79,33.538 55.152,30.002 C 54.822,29.559 54.107,29.2 53.554,29.2 H 47.23 l -2.104,11.225 h 9.734 l -1.282,-6.887 h 4.212 z"
       inkscape:connector-curvature="0"
       style="fill:#000000" />
    <polygon
       id="polygon4540"
       points="61.112,70.8 54.629,61.681 45.389,61.681 38.885,70.8 "
       style="fill:#000000" />
  </g>
</svg>
