<?xml version="1.0" encoding="UTF-8" standalone="no"?>
<svg
   xmlns:dc="http://purl.org/dc/elements/1.1/"
   xmlns:cc="http://creativecommons.org/ns#"
   xmlns:rdf="http://www.w3.org/1999/02/22-rdf-syntax-ns#"
   xmlns:svg="http://www.w3.org/2000/svg"
   xmlns="http://www.w3.org/2000/svg"
   xmlns:sodipodi="http://sodipodi.sourceforge.net/DTD/sodipodi-0.dtd"
   xmlns:inkscape="http://www.inkscape.org/namespaces/inkscape"
   viewBox="0 0 350 200"
   height="200"
   width="350"
   preserveAspectRatio="xMid meet"
   id="svg2"
   version="1.1"
   inkscape:version="0.48.3.1 r9886"
   sodipodi:docname="camel.svg">
  <metadata
     id="metadata13">
    <rdf:RDF>
      <cc:Work
         rdf:about="">
        <dc:format>image/svg+xml</dc:format>
        <dc:type
           rdf:resource="http://purl.org/dc/dcmitype/StillImage" />
        <dc:title></dc:title>
      </cc:Work>
    </rdf:RDF>
  </metadata>
  <defs
     id="defs11" />
  <sodipodi:namedview
     pagecolor="#ffffff"
     bordercolor="#666666"
     borderopacity="1"
     objecttolerance="10"
     gridtolerance="10"
     guidetolerance="10"
     inkscape:pageopacity="0"
     inkscape:pageshadow="2"
     inkscape:window-width="1280"
     inkscape:window-height="974"
     id="namedview9"
     showgrid="false"
     inkscape:zoom="1.0257143"
     inkscape:cx="87.202464"
     inkscape:cy="100"
     inkscape:window-x="1280"
     inkscape:window-y="0"
     inkscape:window-maximized="1"
     inkscape:current-layer="svg2" />
  <rect
     width="175"
     height="200"
     x="175"
     y="0"
     fill="#144f0b"
     id="rect4" />
  <rect
     width="175"
     height="200"
     x="0"
     y="0"
     fill="#294ba7"
     id="rect6" />
  <path
     id="path7596"
     d="m 265.80134,111.98792 c -0.85502,-1.7044 -1.60481,-4.02893 -2.22494,-6.97358 l -0.64643,-3.20398 -1.2628,-0.62013 -5.06436,-10.48763 c -1.49769,-2.324527 -2.94277,-4.286378 -4.28637,-5.862999 -1.39435,-1.574741 -2.37903,-2.816871 -3.04989,-3.641825 L 239.75984,75.154375 235.00743,70.0919 C 234.361,69.678483 233.35564,68.955004 231.98761,68.024816 230.6177,67.0702 229.0655,66.37115 227.38929,65.957733 222.50721,64.693054 218.81277,64.04662 216.27965,64.04662 l -13.66342,0.646434 -6.35346,1.264679 -7.28553,0.956496 -11.10964,-0.956496 -6.35346,-1.911113 -6.35346,-4.444229 -1.913,-1.26468 -3.15136,-3.177671 -6.04528,-1.911113 c -2.32453,-1.033541 -4.75241,-1.033541 -7.28365,0 l -6.66352,1.911113 -4.7543,3.177671 h -1.29098 l -1.26656,1.26468 c -1.05797,0.646433 -1.86038,1.007233 -2.37715,1.110587 -0.54308,0.129663 -1.00723,0.1804 -1.42065,0.1804 -1.08616,0 -2.86761,0.620125 -5.42515,1.884805 l -3.15137,3.177671 c -2.11782,2.117821 -3.71887,3.177671 -4.75241,3.177671 -1.7044,0.439725 -3.56478,0.853142 -5.57925,1.264679 -2.01446,0.413417 -3.95376,0.620125 -5.86487,0.620125 -1.67998,0 -3.28103,-0.257446 -4.752416,-0.774217 -1.47326,-0.51677 -2.76425,-1.653666 -3.79779,-3.331762 -2.557549,-2.557547 -3.203982,-5.398847 -1.911115,-8.576518 0,-1.679975 0.310062,-3.074317 0.930185,-4.107859 0.64644,-1.086158 1.70629,-2.350837 3.20398,-3.824104 l 5.062476,-5.088784 c 1.7044,-1.679975 2.94465,-3.331763 3.8241,-4.908384 0.82683,-1.576621 1.03354,-3.436996 0.62013,-5.554817 l -2.53124,-5.088784 -3.17767,-2.533117 c -1.26656,-0.437846 -1.911106,0 -1.911106,1.266559 0,1.266558 -0.31007,2.324529 -0.9565,3.177671 -1.7044,1.057971 -2.01447,1.574742 -0.93019,1.574742 l 1.88669,3.514042 -1.88669,4.107858 -8.574637,6.355343 -6.355342,9.222951 -0.310062,11.417817 c 0.206708,4.030813 1.24025,7.078822 3.151362,9.196643 2.970963,4.235642 6.043401,7.283651 9.196639,9.196643 2.35084,1.704404 4.77873,3.254716 7.336266,4.598318 2.53124,1.39434 5.26918,2.37715 8.24015,3.04801 l -2.55755,1.24025 H 93.75798 c -2.531238,-0.62012 -4.831338,-1.18951 -6.819497,-1.73259 -2.014467,-0.5412 -3.461425,-1.00723 -4.288259,-1.42065 h -1.602929 v 0.62012 l 8.266455,4.44236 c 3.797796,1.08427 7.336264,1.80963 10.615414,2.22305 3.281016,0.41342 6.845796,0.64643 10.643596,0.64643 2.53124,-0.43972 4.95912,-0.85314 7.30996,-1.26656 2.32453,-0.41341 4.64906,-0.98092 6.97359,-1.60292 l 9.19664,1.29286 h 4.44235 l -5.70891,4.75241 c -0.20671,0.82684 -0.20671,1.26656 0,1.26656 l 3.17767,0.64644 h 4.13417 l 1.57474,1.24025 c 0.43785,-0.62013 0.69717,-0.67087 0.80053,-0.15597 0.10335,0.54308 0.46415,1.65366 1.11058,3.35807 v 4.44235 7.90565 c -0.64643,1.70441 -1.1632,3.04801 -1.57474,3.97632 -0.43972,0.9565 -1.08428,1.7589 -1.91111,2.37715 l -1.60293,6.04528 -4.44235,6.04528 -1.91299,5.06247 -2.22118,6.35534 v 4.44236 l -0.93019,4.13416 c -0.43972,1.03354 -0.74978,1.8585 -0.98092,2.37715 -0.20671,0.51489 -0.62013,0.77422 -1.24025,0.77422 l -3.20398,3.51216 v 1.57662 l 3.20398,3.17579 4.13229,1.26656 h 10.77138 c 0.43785,0 0.64643,-1.05797 0.64643,-3.17579 v -6.35534 l 1.26468,-4.13229 1.26656,-5.06248 3.82223,-6.35534 2.8413,-4.13417 c 0.82683,-1.23837 1.91299,-1.8848 3.17767,-1.8848 l 8.55021,-7.6219 1.91299,-4.13229 5.08878,16.84297 1.26468,4.10786 1.29287,6.35534 c 0.20671,2.76426 0.20671,4.75242 0,6.01897 l -1.29287,1.913 v 1.91111 l -1.91111,3.15324 c 0,1.70441 0.64643,2.55567 1.91111,2.55567 h 1.60293 12.68438 c 2.11782,0 3.17767,-0.43785 3.17767,-1.26656 l -0.95838,-4.75241 c -0.43596,-0.85127 -0.69717,-1.65367 -0.80052,-2.37715 -0.10335,-0.74791 -0.15409,-1.96373 -0.15409,-3.66813 l -1.26656,-4.75242 -0.64643,-29.21541 2.86573,1.26468 7.00365,1.913 13.63899,2.8413 h 7.62003 l 0.64643,2.55754 c 0.62012,2.35084 0.93207,4.57389 0.93207,6.66541 0,2.35083 -0.31195,3.89927 -0.93207,4.77872 l -0.64643,7.28553 v 1.91111 c 0.64643,2.1197 0.64643,3.15324 0,3.15324 l -1.26656,4.13229 c -1.29287,2.11782 -2.96909,3.82223 -5.08691,5.08879 -0.64643,0.64643 -1.11246,1.16132 -1.42065,1.57662 -0.31194,0.43784 -0.2612,0.98092 0.15409,1.60105 l 1.26656,1.26656 h 18.72966 l 1.90923,-4.44235 v -3.1758 c 1.47515,-1.47326 1.47515,-3.92745 0,-7.28553 0,-2.32453 1.03542,-6.04528 3.15324,-11.10775 1.08616,-4.65094 2.76426,-8.26458 5.09067,-10.7977 l 0.95461,1.24025 c 0,0.67087 0.20483,1.75703 0.62013,3.35808 0.43972,1.57474 0.87757,3.64182 1.29287,6.19937 l 3.15324,7.90377 2.22117,4.44423 2.22118,6.04528 1.91299,7.62003 h 9.22295 l 2.52936,-1.26656 1.91299,-1.91112 1.26656,-2.84318 c 0.62012,-1.7044 0.62012,-2.86572 0,-3.51216 l -2.53312,-2.53312 -0.64643,-2.8413 -2.52936,-3.82222 -3.17767,-5.39885 -0.62013,-3.79779 v -3.1758 l 0.62013,-6.35534 v -24.13414 l 1.60105,-0.64643 7.90565,12.39874 2.22118,3.7978 v -6.01898 l -1.23649,-3.82222 c -0.44161,-1.67998 -1.08804,-3.35807 -1.91487,-5.06436 z"
     inkscape:connector-curvature="0" />
</svg>
