<?xml version="1.0" encoding="UTF-8" standalone="no"?>
<svg
   xmlns:dc="http://purl.org/dc/elements/1.1/"
   xmlns:cc="http://creativecommons.org/ns#"
   xmlns:rdf="http://www.w3.org/1999/02/22-rdf-syntax-ns#"
   xmlns:svg="http://www.w3.org/2000/svg"
   xmlns="http://www.w3.org/2000/svg"
   xmlns:sodipodi="http://sodipodi.sourceforge.net/DTD/sodipodi-0.dtd"
   xmlns:inkscape="http://www.inkscape.org/namespaces/inkscape"
   viewBox="0 0 350 200"
   height="200"
   width="350"
   preserveAspectRatio="xMid meet"
   id="svg2"
   version="1.1"
   inkscape:version="0.48.3.1 r9886"
   sodipodi:docname="planets-angle.svg">
  <metadata
     id="metadata13">
    <rdf:RDF>
      <cc:Work
         rdf:about="">
        <dc:format>image/svg+xml</dc:format>
        <dc:type
           rdf:resource="http://purl.org/dc/dcmitype/StillImage" />
        <dc:title></dc:title>
      </cc:Work>
    </rdf:RDF>
  </metadata>
  <defs
     id="defs11" />
  <sodipodi:namedview
     pagecolor="#ffffff"
     bordercolor="#666666"
     borderopacity="1"
     objecttolerance="10"
     gridtolerance="10"
     guidetolerance="10"
     inkscape:pageopacity="0"
     inkscape:pageshadow="2"
     inkscape:window-width="1280"
     inkscape:window-height="974"
     id="namedview9"
     showgrid="false"
     inkscape:zoom="1.0257143"
     inkscape:cx="87.202464"
     inkscape:cy="100"
     inkscape:window-x="1280"
     inkscape:window-y="0"
     inkscape:window-maximized="1"
     inkscape:current-layer="svg2" />
  <rect
     width="175"
     height="200"
     x="175"
     y="0"
     fill="#144f0b"
     id="rect4" />
  <rect
     width="175"
     height="200"
     x="0"
     y="0"
     fill="#294ba7"
     id="rect6" />
  <g
     id="g4202"
     transform="matrix(1.621208,0,0,1.621208,93.939092,18.947005)">
	<g
   id="g4204">
		<path
   id="path4206"
   d="m 92.397,3.091 c 0.807,-0.397 1.878,-0.109 2.354,0.66 0.614,0.88 0.251,2.248 -0.738,2.684 -7.804,4.031 -15.201,8.826 -22.169,14.167 -6.318,4.849 -12.303,10.13 -17.934,15.759 -0.078,0.072 -0.142,0.153 -0.192,0.246 13.249,-11.795 27.765,-22.268 43.57,-30.378 0.599,-0.324 1.369,-0.265 1.926,0.123 0.833,0.55 1.04,1.803 0.449,2.601 -0.302,0.459 -0.836,0.654 -1.3,0.898 -16.779,8.699 -32.07,20.083 -45.888,32.938 -0.221,0.277 -0.568,0.422 -0.766,0.718 0.305,-0.175 0.564,-0.415 0.824,-0.647 13.06,-10.92 27.068,-20.782 42.17,-28.678 0.561,-0.29 1.147,-0.665 1.811,-0.543 0.987,0.112 1.748,1.123 1.573,2.104 -0.073,0.564 -0.436,1.072 -0.929,1.347 -12.074,6.234 -23.438,13.78 -34.164,22.106 -0.207,0.162 -0.46,0.293 -0.589,0.531 3.262,-2.316 6.635,-4.479 10.017,-6.616 6.116,-3.832 12.382,-7.428 18.799,-10.735 0.845,-0.442 2.024,-0.115 2.464,0.748 0.492,0.851 0.171,2.071 -0.714,2.524 -15.833,8.178 -30.762,18.059 -44.703,29.146 -8.059,6.427 -15.811,13.247 -23.141,20.494 -0.335,0.339 -0.743,0.631 -0.983,1.047 2.901,0.041 5.806,0.007 8.707,0.017 0.497,-0.01 1.085,-0.042 1.463,0.34 0.236,0.445 -0.212,0.864 -0.534,1.116 -2.067,1.525 -4.157,3.02 -6.229,4.537 -0.671,0.516 -1.461,0.928 -1.927,1.662 -0.577,0.9 -0.849,2.045 -0.55,3.092 0.941,2.878 1.874,5.758 2.811,8.638 0.103,0.358 0.206,0.76 0.053,1.121 -0.084,0.203 -0.336,0.231 -0.527,0.216 -0.368,-0.048 -0.674,-0.275 -0.969,-0.48 -2.146,-1.56 -4.29,-3.121 -6.438,-4.678 -0.505,-0.356 -0.984,-0.788 -1.595,-0.957 -1.1,-0.353 -2.376,-0.229 -3.332,0.444 -2.41,1.754 -4.822,3.505 -7.234,5.256 C 7.487,96.897 7.044,97.208 6.601,97.02 6.261,96.772 6.369,96.292 6.436,95.941 7.381,92.973 8.363,90.017 9.314,87.05 9.648,85.665 9.137,84.089 8.013,83.202 5.869,81.64 3.72,80.088 1.577,78.523 1.079,78.137 0.5,77.83 0.119,77.316 -0.034,77.113 -0.059,76.76 0.161,76.598 0.405,76.41 0.724,76.359 1.024,76.351 c 2.969,0.003 5.939,-0.002 8.908,0.003 1.647,0.047 3.289,-1.096 3.734,-2.697 0.905,-2.761 1.794,-5.526 2.697,-8.287 0.15,-0.391 0.298,-0.898 0.745,-1.033 0.476,-0.048 0.691,0.471 0.831,0.837 0.733,2.134 1.387,4.292 2.11,6.429 0.083,0.248 0.16,0.499 0.218,0.756 0.239,-0.226 0.376,-0.531 0.558,-0.8 C 25.593,64.08 30.846,56.913 36.47,50.053 47.187,37.02 59.31,25.075 72.967,15.13 79.137,10.648 85.619,6.587 92.397,3.091 z M 53.48,36.747 m -2.074,6.922 c -0.177,0.036 -0.149,0.323 0.047,0.211 0.194,-0.028 0.154,-0.34 -0.047,-0.211 z"
   inkscape:connector-curvature="0"
   style="fill:#000000" />

	</g>

</g>
</svg>
