<?xml version="1.0" encoding="UTF-8" standalone="no"?>
<svg
   xmlns:dc="http://purl.org/dc/elements/1.1/"
   xmlns:cc="http://creativecommons.org/ns#"
   xmlns:rdf="http://www.w3.org/1999/02/22-rdf-syntax-ns#"
   xmlns:svg="http://www.w3.org/2000/svg"
   xmlns="http://www.w3.org/2000/svg"
   xmlns:sodipodi="http://sodipodi.sourceforge.net/DTD/sodipodi-0.dtd"
   xmlns:inkscape="http://www.inkscape.org/namespaces/inkscape"
   viewBox="0 0 350 200"
   height="200"
   width="350"
   preserveAspectRatio="xMid meet"
   id="svg2"
   version="1.1"
   inkscape:version="0.48.3.1 r9886"
   sodipodi:docname="badge-star.svg">
  <metadata
     id="metadata13">
    <rdf:RDF>
      <cc:Work
         rdf:about="">
        <dc:format>image/svg+xml</dc:format>
        <dc:type
           rdf:resource="http://purl.org/dc/dcmitype/StillImage" />
        <dc:title></dc:title>
      </cc:Work>
    </rdf:RDF>
  </metadata>
  <defs
     id="defs11" />
  <sodipodi:namedview
     pagecolor="#ffffff"
     bordercolor="#666666"
     borderopacity="1"
     objecttolerance="10"
     gridtolerance="10"
     guidetolerance="10"
     inkscape:pageopacity="0"
     inkscape:pageshadow="2"
     inkscape:window-width="1280"
     inkscape:window-height="974"
     id="namedview9"
     showgrid="false"
     inkscape:zoom="1.0257143"
     inkscape:cx="86.310747"
     inkscape:cy="100.35051"
     inkscape:window-x="1280"
     inkscape:window-y="0"
     inkscape:window-maximized="1"
     inkscape:current-layer="svg2" />
  <rect
     width="175"
     height="200"
     x="175"
     y="0"
     fill="#144f0b"
     id="rect4" />
  <rect
     width="175"
     height="200"
     x="0"
     y="0"
     fill="#294ba7"
     id="rect6" />
  <path
     d="m 190.21739,159.59769 c 8.0468,-2.0152 20.39218,-19.84436 18.29505,-37.3956 -2.3628,6.42991 -13.25815,12.57263 -16.1464,11.58762 5.51336,-8.266 11.71857,-26.78577 4.45064,-37.977205 -2.39406,8.025255 -8.02526,14.219915 -12.95192,14.211455 6.03035,-10.144765 7.13023,-40.177395 -24.5594,-46.082715 13.97493,20.66715 -21.19978,45.528135 6.10637,70.665775 -7.45419,-0.0769 -14.91684,-6.27153 -18.71828,-13.31095 -6.61703,17.17659 6.22929,33.71285 12.42141,38.30161 -30.16145,-3.2439 -47.26792,-40.62555 -40.89165,-69.990815 2.56471,15.638695 16.08093,20.142975 21.79407,20.392175 -36.40637,-44.035855 23.75054,-62.852545 10.10254,-96.904565 22.83355,2.29691 49.16062,26.25865 41.76893,52.23514 6.96931,-1.90072 13.51623,-8.87002 14.97387,-19.38564 14.69678,20.46989 13.45836,44.87977 6.56931,60.626605 6.54523,-0.0587 16.47121,-8.928745 18.58312,-17.938995 7.22864,43.178005 -23.25636,70.966105 -41.79766,70.966105 z m 21.10094,10.41255 h -76.02877 v 16.89528 h 76.02877 v -16.89528 z"
     id="danger-8-icon"
     inkscape:connector-curvature="0" />
</svg>
