<?xml version="1.0" encoding="UTF-8" standalone="no"?>
<svg
   xmlns:dc="http://purl.org/dc/elements/1.1/"
   xmlns:cc="http://creativecommons.org/ns#"
   xmlns:rdf="http://www.w3.org/1999/02/22-rdf-syntax-ns#"
   xmlns:svg="http://www.w3.org/2000/svg"
   xmlns="http://www.w3.org/2000/svg"
   xmlns:sodipodi="http://sodipodi.sourceforge.net/DTD/sodipodi-0.dtd"
   xmlns:inkscape="http://www.inkscape.org/namespaces/inkscape"
   viewBox="0 0 350 200"
   height="200"
   width="350"
   preserveAspectRatio="xMid meet"
   id="svg2"
   version="1.1"
   inkscape:version="0.48.3.1 r9886"
   sodipodi:docname="gear-triple.svg">
  <metadata
     id="metadata13">
    <rdf:RDF>
      <cc:Work
         rdf:about="">
        <dc:format>image/svg+xml</dc:format>
        <dc:type
           rdf:resource="http://purl.org/dc/dcmitype/StillImage" />
        <dc:title></dc:title>
      </cc:Work>
    </rdf:RDF>
  </metadata>
  <defs
     id="defs11" />
  <sodipodi:namedview
     pagecolor="#ffffff"
     bordercolor="#666666"
     borderopacity="1"
     objecttolerance="10"
     gridtolerance="10"
     guidetolerance="10"
     inkscape:pageopacity="0"
     inkscape:pageshadow="2"
     inkscape:window-width="1280"
     inkscape:window-height="974"
     id="namedview9"
     showgrid="false"
     inkscape:zoom="1.0257143"
     inkscape:cx="87.202464"
     inkscape:cy="100"
     inkscape:window-x="1280"
     inkscape:window-y="0"
     inkscape:window-maximized="1"
     inkscape:current-layer="svg2" />
  <rect
     width="175"
     height="200"
     x="175"
     y="0"
     fill="#144f0b"
     id="rect4" />
  <rect
     width="175"
     height="200"
     x="0"
     y="0"
     fill="#294ba7"
     id="rect6" />
  <path
     d="m 214.69773,95.755885 v -19.50017 l -10.536,-3.74668 c -4.01757,-1.42796 -7.25,-4.49662 -8.88203,-8.43563 -0.001,-10e-4 -0.002,-0.003 -0.002,-0.005 -1.63815,-3.94768 -1.52336,-8.40502 0.31069,-12.26496 l 4.79967,-10.09521 -13.78935,-13.78832 -10.09266,4.79762 c -3.85789,1.83457 -8.32187,1.94986 -12.26802,0.31375 -0.002,-0.002 -0.004,-0.002 -0.005,-0.002 -3.94207,-1.63407 -7.00462,-4.86241 -8.43462,-8.88305 l -3.74667,-10.53702 h -19.50017 l -3.7477,10.53702 c -1.42898,4.01656 -4.49561,7.25 -8.43411,8.88305 -10e-4,0 -0.003,10e-4 -0.005,0.002 -3.9487,1.63713 -8.40604,1.52235 -12.267,-0.31273 l -10.093681,-4.79864 -13.788834,13.78832 4.798645,10.09317 c 1.834565,3.8579 1.948843,8.32187 0.312733,12.26904 -0.001,10e-4 -0.001,0.002 -0.0031,0.005 -1.63305,3.94003 -4.861396,7.0041 -8.881013,8.43359 l -10.537015,3.74668 v 19.50017 l 10.537015,3.74668 c 4.016556,1.428985 7.248984,4.496625 8.882033,8.434615 0.001,0.002 0.001,0.004 0.002,0.005 1.63713,3.94871 1.522343,8.40605 -0.311713,12.267 l -4.799665,10.09471 13.789344,13.7873 10.093681,-4.7966 c 3.8579,-1.83457 8.32187,-1.94885 12.26904,-0.31274 0.001,9.9e-4 0.003,0.002 0.004,0.002 3.94055,1.63407 7.0036,4.86038 8.43309,8.88101 l 3.7477,10.53652 h 19.50017 l 3.72372,-10.46918 c 1.44071,-4.0543 4.5359,-7.31785 8.50859,-8.96978 0.002,-9.9e-4 0.004,-9.9e-4 0.006,-0.002 3.91095,-1.62693 8.32595,-1.51468 12.15119,0.30304 l 10.15745,4.82772 13.78935,-13.7873 -4.80171,-10.10083 c -1.83252,-3.85432 -1.94578,-8.31319 -0.31069,-12.25578 0.001,-0.002 0.002,-0.003 0.002,-0.005 1.63611,-3.94461 4.8665,-7.01072 8.8902,-8.441755 l 10.52936,-3.74463 z m -72.39597,16.799345 c -14.66326,0 -26.55018,-11.88744 -26.55018,-26.549685 0,-14.66326 11.88692,-26.5507 26.55018,-26.5507 14.66225,0 26.54968,11.88744 26.54968,26.5507 0,14.662755 -11.88743,26.549685 -26.54968,26.549685 z m 137.79295,40.53288 v -10.36662 l -5.60115,-1.99068 c -2.13658,-0.75914 -3.85534,-2.39167 -4.72314,-4.48489 -10e-4,0 -10e-4,-0.001 -10e-4,-0.002 -0.87086,-2.09934 -0.80913,-4.46909 0.16632,-6.52148 l 2.55084,-5.36698 -7.33061,-7.32959 -5.36596,2.55084 c -2.05087,0.97443 -4.42316,1.03616 -6.52148,0.16632 -0.001,0 -0.002,0 -0.003,0 -2.09424,-0.86984 -3.72372,-2.58553 -4.48285,-4.72314 l -1.9917,-5.60165 h -10.3666 l -1.9917,5.60165 c -0.76015,2.13556 -2.39065,3.85432 -4.48387,4.72314 -0.001,0 -0.002,0 -0.003,0 -2.09781,0.86984 -4.46755,0.80913 -6.51995,-0.16632 l -5.36698,-2.55084 -7.33061,7.32959 2.55187,5.36698 c 0.97442,2.05086 1.03513,4.42417 0.16529,6.52148 0,9.9e-4 0,0.002 -0.001,0.003 -0.8678,2.09526 -2.58451,3.72373 -4.7211,4.48388 l -5.60165,1.99068 v 10.36662 l 5.60165,1.99119 c 2.13557,0.75913 3.85432,2.38963 4.7211,4.48387 0.001,10e-4 0.001,0.002 0.001,0.003 0.87086,2.09832 0.81015,4.46806 -0.16529,6.52046 l -2.55187,5.36698 7.33061,7.32959 5.36698,-2.54982 c 2.05087,-0.97545 4.42316,-1.03616 6.52097,-0.16632 0.001,0 0.001,0.001 0.002,0.001 2.09526,0.8678 3.7227,2.58349 4.48387,4.72008 l 1.9917,5.60267 h 10.36662 l 1.97895,-5.56594 c 0.76627,-2.15546 2.41156,-3.89003 4.52366,-4.76905 0.001,0 0.002,-0.001 0.003,-0.001 2.07843,-0.86474 4.42622,-0.80505 6.45975,0.16121 l 5.39963,2.56666 7.33061,-7.32959 -2.55186,-5.36953 c -0.97443,-2.04985 -1.03514,-4.4201 -0.16632,-6.51536 0,-10e-4 10e-4,-0.002 10e-4,-0.002 0.87086,-2.0973 2.58758,-3.7278 4.7262,-4.48897 l 5.59911,-1.98915 z m -38.48661,8.92999 c -7.79486,0 -14.11381,-6.31946 -14.11381,-14.11381 0,-7.79487 6.31895,-14.11433 14.11381,-14.11433 7.79486,0 14.11432,6.31946 14.11432,14.11433 0,7.79486 -6.31946,14.11381 -14.11432,14.11381 z"
     id="gear-9-icon"
     inkscape:connector-curvature="0" />
</svg>
