<?xml version="1.0" encoding="UTF-8" standalone="no"?>
<svg
   xmlns:dc="http://purl.org/dc/elements/1.1/"
   xmlns:cc="http://creativecommons.org/ns#"
   xmlns:rdf="http://www.w3.org/1999/02/22-rdf-syntax-ns#"
   xmlns:svg="http://www.w3.org/2000/svg"
   xmlns="http://www.w3.org/2000/svg"
   xmlns:sodipodi="http://sodipodi.sourceforge.net/DTD/sodipodi-0.dtd"
   xmlns:inkscape="http://www.inkscape.org/namespaces/inkscape"
   viewBox="0 0 350 200"
   height="200"
   width="350"
   preserveAspectRatio="xMid meet"
   id="svg2"
   version="1.1"
   inkscape:version="0.48.3.1 r9886"
   sodipodi:docname="arrow-filter.svg">
  <metadata
     id="metadata13">
    <rdf:RDF>
      <cc:Work
         rdf:about="">
        <dc:format>image/svg+xml</dc:format>
        <dc:type
           rdf:resource="http://purl.org/dc/dcmitype/StillImage" />
        <dc:title></dc:title>
      </cc:Work>
    </rdf:RDF>
  </metadata>
  <defs
     id="defs11" />
  <sodipodi:namedview
     pagecolor="#ffffff"
     bordercolor="#666666"
     borderopacity="1"
     objecttolerance="10"
     gridtolerance="10"
     guidetolerance="10"
     inkscape:pageopacity="0"
     inkscape:pageshadow="2"
     inkscape:window-width="1280"
     inkscape:window-height="974"
     id="namedview9"
     showgrid="false"
     inkscape:zoom="1.0257143"
     inkscape:cx="87.202464"
     inkscape:cy="100"
     inkscape:window-x="1280"
     inkscape:window-y="0"
     inkscape:window-maximized="1"
     inkscape:current-layer="svg2" />
  <rect
     width="175"
     height="200"
     x="175"
     y="0"
     fill="#144f0b"
     id="rect4" />
  <rect
     width="175"
     height="200"
     x="0"
     y="0"
     fill="#294ba7"
     id="rect6" />
  <path
     d="M 211.0154,86.86123 V 69.17049 l -9.55861,-3.39911 c -3.64488,-1.29549 -6.57745,-4.07948 -8.05808,-7.65308 -9.2e-4,-9.3e-4 -0.002,-0.003 -0.002,-0.005 -1.48618,-3.58147 -1.38204,-7.62532 0.28187,-11.12718 l 4.35442,-9.15918 -12.51015,-12.50922 -9.1564,4.35256 c -3.50001,1.66438 -7.54987,1.76898 -11.12995,0.28465 -0.002,-0.002 -0.004,-0.002 -0.005,-0.002 -3.57638,-1.48248 -6.35482,-4.41135 -7.65216,-8.059 l -3.39911,-9.55954 h -17.69121 l -3.40003,9.55954 c -1.29642,3.64395 -4.07856,6.57744 -7.6517,8.059 -9.3e-4,0 -0.003,9.2e-4 -0.005,0.002 -3.5824,1.48526 -7.62624,1.38112 -11.12903,-0.28372 l -9.15732,-4.35349 -12.510152,12.50922 4.35349,9.15733 c 1.66437,3.50001 1.76805,7.54987 0.28372,11.13088 -9.3e-4,9.2e-4 -9.3e-4,0.002 -0.003,0.005 -1.48156,3.57452 -4.41042,6.35435 -8.05715,7.65123 l -9.55907,3.39911 v 17.6912 l 9.55953,3.39911 c 3.64396,1.29642 6.57652,4.07949 8.05808,7.65217 9.2e-4,0.002 9.2e-4,0.004 0.002,0.005 1.48526,3.5824 1.38112,7.62625 -0.2828,11.12903 l -4.35441,9.15825 12.510152,12.5083 9.15732,-4.35163 c 3.50001,-1.66438 7.54988,-1.76806 11.13088,-0.28373 9.3e-4,9.3e-4 0.003,0.002 0.004,0.002 3.57499,1.48249 6.35389,4.4095 7.65077,8.05715 l 3.40004,9.55861 h 17.6912 l 3.37828,-9.49751 c 1.30707,-3.6782 4.11512,-6.639 7.71927,-8.13768 0.002,-9.3e-4 0.004,-9.3e-4 0.006,-0.002 3.54815,-1.476 7.55358,-1.37417 11.02397,0.27493 l 9.21518,4.37987 12.51015,-12.5083 -4.35627,-9.1638 c -1.66253,-3.49677 -1.76528,-7.54201 -0.28187,-11.11885 9.3e-4,-0.002 0.002,-0.003 0.002,-0.005 1.48433,-3.57869 4.41505,-6.36037 8.06548,-7.65864 l 9.55259,-3.39772 z m -65.68002,15.24138 c -13.303,0 -24.08722,-10.78468 -24.08722,-24.08675 0,-13.303 10.78422,-24.08767 24.08722,-24.08767 13.30207,0 24.08674,10.78467 24.08674,24.08767 0,13.30207 -10.78467,24.08675 -24.08674,24.08675 z m 125.01032,36.77232 v -9.40495 l -5.08154,-1.80601 c -1.93839,-0.68871 -3.4977,-2.1698 -4.28499,-4.06884 -9.3e-4,0 -9.3e-4,-9.3e-4 -9.3e-4,-0.002 -0.79007,-1.9046 -0.73407,-4.0545 0.15089,-5.91651 l 2.31421,-4.86909 -6.65058,-6.64965 -4.86817,2.31421 c -1.86062,0.88403 -4.01284,0.94003 -5.9165,0.15088 -9.3e-4,0 -0.002,0 -0.003,0 -1.89997,-0.78914 -3.37829,-2.34568 -4.06699,-4.28498 l -1.80694,-5.08201 h -9.40494 l -1.80694,5.08201 c -0.68963,1.93745 -2.16887,3.49676 -4.06791,4.28498 -9.3e-4,0 -0.002,0 -0.003,0 -1.90321,0.78915 -4.05311,0.73407 -5.91512,-0.15088 l -4.8691,-2.31421 -6.65057,6.64965 2.31513,4.86909 c 0.88403,1.86063 0.93911,4.01377 0.14997,5.91651 0,9.2e-4 0,0.002 -9.3e-4,0.003 -0.78729,1.90089 -2.34476,3.37828 -4.28314,4.06791 l -5.082,1.80601 v 9.40495 l 5.082,1.806 c 1.93746,0.68871 3.49677,2.16795 4.28314,4.06792 9.3e-4,9.3e-4 9.3e-4,0.002 9.3e-4,0.003 0.79007,1.90367 0.73499,4.05357 -0.14997,5.91558 l -2.31513,4.86909 6.65057,6.64965 4.8691,-2.31328 c 1.86062,-0.88496 4.01284,-0.94003 5.91604,-0.15089 9.3e-4,0 9.3e-4,9.3e-4 0.002,9.3e-4 1.90089,0.78729 3.37736,2.34383 4.06792,4.28221 l 1.80693,5.08293 h 9.40495 l 1.79536,-5.04961 c 0.69519,-1.9555 2.18785,-3.52916 4.10402,-4.32664 9.2e-4,0 0.002,-9.3e-4 0.003,-9.3e-4 1.88562,-0.78451 4.01561,-0.73036 5.8605,0.14626 l 4.89872,2.32856 6.65057,-6.64965 -2.31513,-4.87141 c -0.88403,-1.8597 -0.93911,-4.01006 -0.15089,-5.91095 0,-9.3e-4 9.3e-4,-0.002 9.3e-4,-0.002 0.79007,-1.90275 2.34753,-3.38199 4.28776,-4.07255 l 5.07969,-1.80415 z m -34.91632,8.10158 c -7.07176,0 -12.80452,-5.73322 -12.80452,-12.80406 0,-7.07176 5.73276,-12.80498 12.80452,-12.80498 7.07175,0 12.80498,5.73322 12.80498,12.80498 0,7.07084 -5.73323,12.80406 -12.80498,12.80406 z m -32.98998,19.58654 v -5.1556 L 198.85099,160.51 c -0.74286,-0.18606 -1.32974,-0.76184 -1.52738,-1.50238 -9.2e-4,-0.004 -0.002,-0.008 -0.003,-0.0116 -0.19578,-0.72944 0.0208,-1.50887 0.56374,-2.03327 l 2.67106,-2.58451 -2.57803,-4.46457 -3.53935,1.01177 c -0.74887,0.2143 -1.55838,0.006 -2.10963,-0.5443 -4.6e-4,-9.2e-4 -9.2e-4,-9.2e-4 -9.2e-4,-0.002 -0.52811,-0.52625 -0.72852,-1.29827 -0.52394,-2.01521 l 1.02797,-3.59675 -4.46457,-2.57802 -2.57155,2.65856 c -0.53227,0.54985 -1.32234,0.77017 -2.0615,0.57207 -0.004,0 -0.008,-0.002 -0.0111,-0.003 -0.73129,-0.19439 -1.29919,-0.77109 -1.48294,-1.50608 l -0.90162,-3.60508 h -5.15559 l -0.89838,3.58795 c -0.1856,0.74286 -0.76184,1.32975 -1.50238,1.52784 -0.004,9.3e-4 -0.008,0.002 -0.0116,0.003 -0.72944,0.19624 -1.50794,-0.0208 -2.03327,-0.56328 l -2.58451,-2.67198 -4.46457,2.57802 1.01177,3.53982 c 0.2143,0.74841 0.006,1.55839 -0.5443,2.11009 -4.6e-4,0 -9.2e-4,9.3e-4 -10e-4,9.3e-4 -0.52671,0.5281 -1.29827,0.72851 -2.01521,0.52347 l -3.59721,-1.02797 -2.5771,4.46457 2.65856,2.57109 c 0.54939,0.53227 0.76925,1.32326 0.57207,2.06196 -9.2e-4,0.004 -0.003,0.008 -0.003,0.0116 -0.19439,0.73129 -0.77156,1.2992 -1.50609,1.48248 l -3.60553,0.90208 v 5.1556 l 3.58841,0.89745 c 0.74332,0.18606 1.32974,0.76276 1.52738,1.50238 0.001,0.005 0.002,0.009 0.003,0.0125 0.19625,0.72944 -0.0204,1.50794 -0.56327,2.03326 l -2.67106,2.58451 2.5771,4.46457 3.53982,-1.0127 c 0.74887,-0.21337 1.55839,-0.006 2.11009,0.5443 4.7e-4,9.3e-4 9.3e-4,0.002 0.002,0.002 0.52764,0.52625 0.72759,1.29919 0.52301,2.01521 l -1.02843,3.59767 4.46457,2.5771 2.57155,-2.65856 c 0.53181,-0.54986 1.3228,-0.76924 2.0615,-0.57207 0.004,9.2e-4 0.008,0.002 0.012,0.003 0.73082,0.1944 1.29873,0.77202 1.48248,1.50609 l 0.90254,3.606 h 5.1556 l 0.89745,-3.58888 c 0.18606,-0.74286 0.76183,-1.32974 1.50284,-1.52691 0.003,-0.002 0.007,-0.003 0.0111,-0.004 0.72944,-0.19532 1.50794,0.0208 2.03327,0.5642 l 2.58404,2.67106 4.46457,-2.5771 -1.01177,-3.54074 c -0.21383,-0.74842 -0.005,-1.55839 0.54477,-2.10917 4.6e-4,-9.3e-4 9.2e-4,-9.3e-4 10e-4,-0.002 0.52671,-0.52811 1.29873,-0.72759 2.01521,-0.52348 l 3.59628,1.0289 2.57803,-4.46457 -2.65856,-2.57201 c -0.5494,-0.53227 -0.76925,-1.32234 -0.57208,-2.06196 9.3e-4,-0.004 0.003,-0.007 0.003,-0.0116 0.19486,-0.73129 0.77202,-1.29828 1.50609,-1.48249 l 3.60554,-0.90207 z m -23.67991,6.71583 c -5.13245,0 -9.29294,-4.16095 -9.29294,-9.29386 0,-5.13199 4.16049,-9.29294 9.29294,-9.29294 5.13292,0 9.29294,4.16095 9.29294,9.29294 0,5.13291 -4.16002,9.29386 -9.29294,9.29386 z"
     id="gear-10-icon"
     inkscape:connector-curvature="0" />
</svg>
