<?xml version="1.0" encoding="UTF-8" standalone="no"?>
<svg
   xmlns:dc="http://purl.org/dc/elements/1.1/"
   xmlns:cc="http://creativecommons.org/ns#"
   xmlns:rdf="http://www.w3.org/1999/02/22-rdf-syntax-ns#"
   xmlns:svg="http://www.w3.org/2000/svg"
   xmlns="http://www.w3.org/2000/svg"
   xmlns:sodipodi="http://sodipodi.sourceforge.net/DTD/sodipodi-0.dtd"
   xmlns:inkscape="http://www.inkscape.org/namespaces/inkscape"
   viewBox="0 0 350 200"
   height="200"
   width="350"
   preserveAspectRatio="xMid meet"
   id="svg2"
   version="1.1"
   inkscape:version="0.48.3.1 r9886"
   sodipodi:docname="gear-double.svg">
  <metadata
     id="metadata13">
    <rdf:RDF>
      <cc:Work
         rdf:about="">
        <dc:format>image/svg+xml</dc:format>
        <dc:type
           rdf:resource="http://purl.org/dc/dcmitype/StillImage" />
        <dc:title></dc:title>
      </cc:Work>
    </rdf:RDF>
  </metadata>
  <defs
     id="defs11" />
  <sodipodi:namedview
     pagecolor="#ffffff"
     bordercolor="#666666"
     borderopacity="1"
     objecttolerance="10"
     gridtolerance="10"
     guidetolerance="10"
     inkscape:pageopacity="0"
     inkscape:pageshadow="2"
     inkscape:window-width="1280"
     inkscape:window-height="974"
     id="namedview9"
     showgrid="false"
     inkscape:zoom="1.0257143"
     inkscape:cx="87.202464"
     inkscape:cy="100"
     inkscape:window-x="1280"
     inkscape:window-y="0"
     inkscape:window-maximized="1"
     inkscape:current-layer="svg2" />
  <rect
     width="175"
     height="200"
     x="175"
     y="0"
     fill="#144f0b"
     id="rect4" />
  <rect
     width="175"
     height="200"
     x="0"
     y="0"
     fill="#294ba7"
     id="rect6" />
  <path
     d="m 246.94606,107.83212 v -15.6633 l -10.90263,-2.72836 c -2.25792,-0.56474 -4.03945,-2.3159 -4.64017,-4.56474 -0.004,-0.0122 -0.007,-0.0237 -0.009,-0.0363 -0.59373,-2.21636 0.0632,-4.58185 1.71239,-6.17688 l 8.11629,-7.85261 -7.83165,-13.56428 -10.75594,3.07377 c -2.27573,0.64996 -4.73448,0.0171 -6.41019,-1.65406 -0.001,-10e-4 -0.003,-0.003 -0.004,-0.004 -1.60377,-1.59888 -2.21147,-3.94481 -1.5891,-6.12205 l 3.12267,-10.92918 -13.56498,-7.83164 -7.81489,8.07717 c -1.61564,1.66978 -4.01745,2.33825 -6.2621,1.73928 -0.0119,-0.003 -0.0234,-0.006 -0.0353,-0.009 -2.22124,-0.59129 -3.9462,-2.34454 -4.50431,-4.57452 L 182.83056,28.05507 H 167.16727 L 164.4389,38.9577 c -0.56544,2.25792 -2.31659,4.03946 -4.56543,4.64052 -0.0115,0.003 -0.0234,0.006 -0.0356,0.009 -2.21636,0.59338 -4.58115,-0.0636 -6.17689,-1.71273 l -7.8526,-8.11664 -13.56498,7.83164 3.07377,10.75595 c 0.65031,2.27573 0.0171,4.73482 -1.65371,6.41018 -0.001,10e-4 -0.002,0.003 -0.004,0.004 -1.59923,1.60376 -3.94551,2.21077 -6.12275,1.58875 l -10.92917,-3.12267 -7.83165,13.56428 8.07787,7.81454 c 1.66978,1.61599 2.3379,4.0178 1.73893,6.2628 -0.003,0.0122 -0.006,0.0238 -0.009,0.0363 -0.59129,2.2209 -2.34454,3.94551 -4.57452,4.50397 l -10.95501,2.74058 v 15.6633 l 10.90228,2.72836 c 2.25827,0.56544 4.0398,2.3166 4.64052,4.56544 0.003,0.0115 0.007,0.0237 0.01,0.0363 0.59338,2.21636 -0.0636,4.58185 -1.71274,6.17758 l -8.11663,7.85191 7.83164,13.56428 10.75594,-3.07377 c 2.27574,-0.65066 4.73483,-0.0171 6.41054,1.65406 10e-4,0.001 0.002,0.003 0.003,0.004 1.60377,1.59888 2.21147,3.94551 1.5891,6.12275 l -3.12302,10.92847 13.56499,7.83165 7.81453,-8.07787 c 1.61564,-1.66978 4.01781,-2.33755 6.2628,-1.73893 0.0115,0.003 0.0238,0.006 0.0356,0.009 2.22125,0.59129 3.94621,2.34454 4.50397,4.57452 l 2.74233,10.95571 h 15.6632 l 2.72871,-10.90134 c 0.56509,-2.25792 2.31625,-4.03946 4.56509,-4.64052 0.0115,-0.003 0.0234,-0.006 0.0356,-0.009 2.21671,-0.59338 4.58185,0.0636 6.17759,1.71274 l 7.85155,8.11663 13.56498,-7.83164 -3.07377,-10.75664 c -0.64996,-2.27504 -0.0168,-4.73343 1.65406,-6.40949 0.001,-0.001 0.002,-0.002 0.004,-0.004 1.59923,-1.60446 3.94586,-2.21216 6.1238,-1.58945 l 10.92778,3.12267 7.83164,-13.56428 -8.07752,-7.81453 c -1.66978,-1.616 -2.3379,-4.01781 -1.73893,-6.26281 0.003,-0.0122 0.007,-0.0245 0.009,-0.0363 0.59129,-2.2216 2.34489,-3.94621 4.57487,-4.50397 l 10.95501,-2.74093 z m -71.9461,20.40335 c -15.59379,0 -28.23535,-12.64051 -28.23535,-28.235 0,-15.59344 12.64121,-28.235 28.23535,-28.235 15.59415,0 28.23605,12.64121 28.23605,28.235 0,15.59414 -12.6419,28.235 -28.23605,28.235 z"
     id="gear-7-icon"
     inkscape:connector-curvature="0" />
</svg>
