<?xml version="1.0" encoding="UTF-8" standalone="no"?>
<svg
   xmlns:dc="http://purl.org/dc/elements/1.1/"
   xmlns:cc="http://creativecommons.org/ns#"
   xmlns:rdf="http://www.w3.org/1999/02/22-rdf-syntax-ns#"
   xmlns:svg="http://www.w3.org/2000/svg"
   xmlns="http://www.w3.org/2000/svg"
   xmlns:sodipodi="http://sodipodi.sourceforge.net/DTD/sodipodi-0.dtd"
   xmlns:inkscape="http://www.inkscape.org/namespaces/inkscape"
   viewBox="0 0 350 200"
   height="200"
   width="350"
   preserveAspectRatio="xMid meet"
   id="svg2"
   version="1.1"
   inkscape:version="0.48.3.1 r9886"
   sodipodi:docname="radioactive.svg">
  <metadata
     id="metadata13">
    <rdf:RDF>
      <cc:Work
         rdf:about="">
        <dc:format>image/svg+xml</dc:format>
        <dc:type
           rdf:resource="http://purl.org/dc/dcmitype/StillImage" />
        <dc:title></dc:title>
      </cc:Work>
    </rdf:RDF>
  </metadata>
  <defs
     id="defs11" />
  <sodipodi:namedview
     pagecolor="#ffffff"
     bordercolor="#666666"
     borderopacity="1"
     objecttolerance="10"
     gridtolerance="10"
     guidetolerance="10"
     inkscape:pageopacity="0"
     inkscape:pageshadow="2"
     inkscape:window-width="1280"
     inkscape:window-height="974"
     id="namedview9"
     showgrid="false"
     inkscape:zoom="1.0257143"
     inkscape:cx="86.310747"
     inkscape:cy="100.35051"
     inkscape:window-x="1280"
     inkscape:window-y="0"
     inkscape:window-maximized="1"
     inkscape:current-layer="svg2" />
  <rect
     width="175"
     height="200"
     x="175"
     y="0"
     fill="#144f0b"
     id="rect4" />
  <rect
     width="175"
     height="200"
     x="0"
     y="0"
     fill="#294ba7"
     id="rect6" />
  <path
     d="m 249.3844,100 c 0,-41.74337 -33.85646,-74.3844 -74.3844,-74.3844 -40.24629,0 -74.38441,32.29908 -74.38441,74.3844 0,42.33194 34.34862,74.3844 74.38441,74.3844 40.28457,0 74.38441,-32.35144 74.38441,-74.3844 z M 139.80353,72.70778 c -1.4198,6.82532 -2.29905,14.09296 -2.58033,21.59062 h -21.33966 c 0.95147,-9.9834 4.37351,-19.2457 9.64939,-27.16908 4.58186,2.31927 9.40891,4.14169 14.2706,5.57846 z m -2.54784,32.99346 c 0.32425,7.5641 1.25984,14.88518 2.74427,21.74444 -4.97725,1.46024 -9.74616,3.26424 -14.36377,5.58244 -5.33472,-7.95769 -8.79469,-17.27704 -9.75266,-27.32688 h 21.37216 z m 5.73699,32.73997 c 1.78197,5.34051 4.04998,10.60736 6.96794,15.42321 -6.29487,-2.93133 -11.99177,-6.93075 -16.85384,-11.76971 3.06565,-1.38947 6.37466,-2.6114 9.8859,-3.6535 z m 37.70856,-15.63553 v -17.10444 h 20.82185 c -0.30946,6.67871 -1.13346,13.11368 -2.41965,19.12221 -5.87962,-1.08255 -12.05931,-1.76465 -18.4022,-2.01777 z m 15.34269,13.04182 c -2.79194,7.99705 -7.90641,18.37764 -15.34269,22.41607 v -24.04675 c 5.29357,0.22857 10.44054,0.77743 15.34269,1.63068 z M 180.70124,94.2984 V 77.40447 c 6.41439,-0.25637 12.66052,-0.95111 18.59898,-2.05423 1.22158,5.9688 1.98744,12.34492 2.25392,18.94852 h -20.85291 z m 0,-28.30579 V 40.97634 c 7.67243,4.16697 12.87212,15.04442 15.65575,23.32962 -4.99639,0.88539 -10.24916,1.45374 -15.65575,1.68665 z M 169.2984,41.07853 v 24.90613 c -5.33979,-0.23796 -10.52792,-0.80414 -15.46582,-1.6787 2.76956,-8.24439 7.91111,-18.9868 15.46582,-23.22743 z m 0,36.31728 V 94.2984 h -20.66334 c 0.26648,-6.60396 1.03271,-12.97972 2.25392,-18.94889 5.87997,1.09302 12.06146,1.78415 18.40942,2.0463 z m -18.2119,47.428 c -1.28657,-6.00889 -2.11057,-12.44314 -2.41967,-19.12257 h 20.63192 v 17.11274 c -6.27681,0.25927 -12.39114,0.93811 -18.21226,2.00983 z m 18.2119,9.40132 v 23.93625 c -7.33408,-4.11642 -12.37814,-14.36955 -15.15312,-22.31352 4.84438,-0.84314 9.92634,-1.38947 15.15312,-1.62273 z m 37.89849,4.21572 c 3.46213,1.02693 6.72674,2.23008 9.75664,3.595 -4.80755,4.79816 -10.43476,8.77411 -16.65164,11.7058 2.89775,-4.80971 5.13036,-10.0141 6.895,-15.3008 z m 2.99307,-10.9959 c 1.48372,-6.85889 2.41966,-14.17997 2.74428,-21.74371 h 21.18223 c -0.95509,10.0195 -4.39735,19.31214 -9.705,27.2543 -4.62665,-2.30628 -9.32912,-4.07526 -14.22151,-5.51059 z M 224.5151,67.20189 c 5.24771,7.9075 8.65278,17.14344 9.60137,27.09651 h -21.14973 c -0.28129,-7.4973 -1.1609,-14.76494 -2.58034,-21.59025 4.84111,-1.431 9.61796,-3.23536 14.1287,-5.50626 z m -7.41858,-9.09222 c -2.98476,1.35336 -6.20135,2.5482 -9.61039,3.57225 -1.70037,-5.26468 -3.83802,-10.3972 -6.56244,-15.12747 6.03272,2.93132 11.4942,6.85347 16.17283,11.55522 z m -67.7548,-11.68486 c -2.78472,4.81116 -4.92996,9.9686 -6.63863,15.25675 -3.45851,-1.03921 -6.71951,-2.25356 -9.74183,-3.63184 4.7346,-4.74435 10.26758,-8.69214 16.38046,-11.62491 z"
     id="globe-3-icon"
     inkscape:connector-curvature="0" />
</svg>
