<?xml version="1.0" encoding="UTF-8" standalone="no"?>
<svg
   xmlns:dc="http://purl.org/dc/elements/1.1/"
   xmlns:cc="http://creativecommons.org/ns#"
   xmlns:rdf="http://www.w3.org/1999/02/22-rdf-syntax-ns#"
   xmlns:svg="http://www.w3.org/2000/svg"
   xmlns="http://www.w3.org/2000/svg"
   xmlns:sodipodi="http://sodipodi.sourceforge.net/DTD/sodipodi-0.dtd"
   xmlns:inkscape="http://www.inkscape.org/namespaces/inkscape"
   viewBox="0 0 350 200"
   height="200"
   width="350"
   preserveAspectRatio="xMid meet"
   id="svg2"
   version="1.1"
   inkscape:version="0.48.3.1 r9886"
   sodipodi:docname="disk.svg">
  <metadata
     id="metadata13">
    <rdf:RDF>
      <cc:Work
         rdf:about="">
        <dc:format>image/svg+xml</dc:format>
        <dc:type
           rdf:resource="http://purl.org/dc/dcmitype/StillImage" />
        <dc:title></dc:title>
      </cc:Work>
    </rdf:RDF>
  </metadata>
  <defs
     id="defs11" />
  <sodipodi:namedview
     pagecolor="#ffffff"
     bordercolor="#666666"
     borderopacity="1"
     objecttolerance="10"
     gridtolerance="10"
     guidetolerance="10"
     inkscape:pageopacity="0"
     inkscape:pageshadow="2"
     inkscape:window-width="1280"
     inkscape:window-height="974"
     id="namedview9"
     showgrid="false"
     inkscape:zoom="1.0257143"
     inkscape:cx="87.202464"
     inkscape:cy="100"
     inkscape:window-x="1280"
     inkscape:window-y="0"
     inkscape:window-maximized="1"
     inkscape:current-layer="svg2" />
  <rect
     width="175"
     height="200"
     x="175"
     y="0"
     fill="#144f0b"
     id="rect4" />
  <rect
     width="175"
     height="200"
     x="0"
     y="0"
     fill="#294ba7"
     id="rect6" />
  <path
     d="m 193.15484,74.763762 36.91217,-36.912604 c 7.6354,-7.635832 20.01546,-7.635832 27.65086,0 7.63498,7.635832 7.63498,20.014592 0,27.650855 l -36.9126,36.911747 -6.77028,-6.769427 35.21628,-35.217135 c 1.10082,-1.099969 1.10082,-2.883451 0,-3.984715 -1.09955,-1.099537 -2.88303,-1.099537 -3.98343,8.46e-4 l -35.21714,35.216704 -5.79524,-5.795679 35.21585,-35.217558 c 1.1004,-1.099977 1.1004,-2.883459 8.4e-4,-3.98386 -1.1004,-1.1004 -2.88388,-1.1004 -3.98471,0 l -35.2167,35.216719 -7.1159,-7.115893 z m -20.47613,57.408918 -27.12834,27.1292 c -1.49412,1.49368 -2.75165,3.20632 -3.73012,5.07911 l -1.98012,3.79108 -13.72647,7.01157 -5.43074,-5.43073 6.7149,-14.024 3.79108,-1.97969 c 1.87279,-0.97718 3.58586,-2.23559 5.07911,-3.73012 l 27.12834,-27.12878 9.28236,9.28236 z M 118.56284,107.11719 86.555892,75.110665 96.568556,65.098431 c 0,0 8.042414,5.416572 14.607474,-1.149345 7.14037,-7.139947 5.01427,-17.788459 20.84579,-29.709114 27.90288,-21.009808 69.92207,-0.328452 69.92207,-0.328452 -33.39673,3.336841 -47.64785,18.268467 -33.8411,32.074792 l 4.65879,4.658775 -22.35623,22.356646 c 0,0 -1.09396,-1.09481 -4.48575,-4.48661 -6.07346,-6.073456 -11.873,-7.386384 -16.52277,-2.73576 -5.14351,5.14308 -0.82133,11.32516 -0.82133,11.32516 l -10.01266,10.012667 z m 59.52642,-31.143975 -22.3296,22.330028 72.09625,72.097107 c 6.16662,6.16663 16.16383,6.16663 22.33046,-4.3e-4 6.16577,-6.16534 6.16577,-16.16341 0,-22.32917 L 178.08926,75.973215 z"
     id="tools-icon"
     inkscape:connector-curvature="0" />
</svg>
