<?xml version="1.0" encoding="UTF-8" standalone="no"?>
<svg
   xmlns:dc="http://purl.org/dc/elements/1.1/"
   xmlns:cc="http://creativecommons.org/ns#"
   xmlns:rdf="http://www.w3.org/1999/02/22-rdf-syntax-ns#"
   xmlns:svg="http://www.w3.org/2000/svg"
   xmlns="http://www.w3.org/2000/svg"
   xmlns:sodipodi="http://sodipodi.sourceforge.net/DTD/sodipodi-0.dtd"
   xmlns:inkscape="http://www.inkscape.org/namespaces/inkscape"
   viewBox="0 0 350 200"
   height="200"
   width="350"
   preserveAspectRatio="xMid meet"
   id="svg2"
   version="1.1"
   inkscape:version="0.48.3.1 r9886"
   sodipodi:docname="3d-box-filled.svg">
  <metadata
     id="metadata13">
    <rdf:RDF>
      <cc:Work
         rdf:about="">
        <dc:format>image/svg+xml</dc:format>
        <dc:type
           rdf:resource="http://purl.org/dc/dcmitype/StillImage" />
        <dc:title></dc:title>
      </cc:Work>
    </rdf:RDF>
  </metadata>
  <defs
     id="defs11" />
  <sodipodi:namedview
     pagecolor="#ffffff"
     bordercolor="#666666"
     borderopacity="1"
     objecttolerance="10"
     gridtolerance="10"
     guidetolerance="10"
     inkscape:pageopacity="0"
     inkscape:pageshadow="2"
     inkscape:window-width="1280"
     inkscape:window-height="974"
     id="namedview9"
     showgrid="false"
     inkscape:zoom="1.0257143"
     inkscape:cx="87.202464"
     inkscape:cy="100"
     inkscape:window-x="1280"
     inkscape:window-y="0"
     inkscape:window-maximized="1"
     inkscape:current-layer="svg2" />
  <rect
     width="175"
     height="200"
     x="175"
     y="0"
     fill="#144f0b"
     id="rect4" />
  <rect
     width="175"
     height="200"
     x="0"
     y="0"
     fill="#294ba7"
     id="rect6" />
  <path
     d="m 192.46525,90.042933 9.90162,-14.85159 c 2.53227,-3.79629 7.66293,-4.82319 11.45965,-2.29092 3.79756,2.53101 4.82319,7.66251 2.29261,11.45881 l -9.90163,14.85159 c -2.53142,3.797557 -7.66293,4.824027 -11.45965,2.293027 -3.79714,-2.532267 -4.82487,-7.663357 -2.2926,-11.460917 z M 178.86,85.101393 c 3.80303,2.53606 8.94296,1.5079 11.4786,-2.29556 l 9.99934,-14.9969 c 2.53564,-3.8043 1.50706,-8.94381 -2.29766,-11.48113 -3.80219,-2.53564 -8.94296,-1.50748 -11.47776,2.29639 l -9.9985,14.99775 c -2.53648,3.80304 -1.50874,8.94255 2.29598,11.47945 z m 50.67021,28.548237 -8.7589,13.13688 c -2.32967,3.49429 -1.38534,8.21513 2.10853,10.54437 3.49388,2.3301 8.21429,1.38576 10.5448,-2.10811 l 8.75806,-13.13856 c 2.33051,-3.49388 1.38618,-8.21555 -2.10938,-10.54396 -3.49387,-2.32967 -8.21429,-1.38533 -10.54311,2.10938 z M 207.324,107.57885 c -2.523,3.78534 -1.50117,8.90042 2.28544,11.423 3.78577,2.52426 8.89959,1.50074 11.42343,-2.28544 l 9.48842,-14.23285 c 2.52469,-3.784917 1.50117,-8.899997 -2.28544,-11.424267 -3.78492,-2.523 -8.89958,-1.50074 -11.42258,2.28545 L 207.324,107.57885 z m 45.63642,66.62239 c -6.73165,6.73208 -17.64669,6.73208 -24.37876,0 L 185.32461,130.0622 c 7.86637,-8.69825 4.04354,-23.70947 -8.54577,-25.94522 l -22.22979,-3.94877 -7.64777,-7.648187 c -4.33712,-4.33754 -10.31314,-6.62551 -16.43784,-6.29908 -9.98671,0.53198 -20.14863,-3.01412 -27.77618,-10.64209 -10.220894,-10.22047 -13.114975,-24.98951 -8.688982,-37.78984 l 23.238572,23.23856 c 9.06553,0.53367 23.08398,-13.48394 22.55074,-22.54906 l -23.23857,-23.23941 c 12.79992,-4.42599 27.56895,-1.53191 37.789,8.68856 7.6284,7.62797 11.1745,17.7899 10.64252,27.77618 -0.32601,6.12007 1.96449,12.10409 6.29824,16.43784 l 0.19796,0.19796 c -8.98845,15.06135 3.12785,25.37912 13.05811,24.99794 -1.78674,8.535657 7.34956,17.429337 15.19193,17.429337 -1.93964,7.51931 3.88137,15.36167 12.93638,17.14041 -3.64845,13.17689 16.32833,27.23493 27.8958,9.51327 l 12.4023,12.40188 c 6.72997,6.73292 6.72997,17.64627 -8.4e-4,24.37876 z m -5.92589,-13.24133 c 0,-3.92308 -3.1805,-7.104 -7.10442,-7.104 -3.92308,0 -7.10442,3.18092 -7.10442,7.104 0,3.92476 3.18134,7.10568 7.10442,7.10568 3.92434,0 7.10442,-3.18092 7.10442,-7.10568 z m -61.98581,-20.74884 c -4.82487,-4.9723 -12.30542,-5.34506 -25.91447,-6.24643 -2.0681,-0.13689 -3.33929,1.18947 -3.51366,3.19945 -0.0387,0.45111 -3.31023,30.42596 -3.31023,30.42596 0,0 20.20043,13.64864 28.49433,19.17776 7.69283,-13.88956 19.51682,-14.72734 28.35154,-21.71045 l -24.10751,-24.84629 z m -11.72922,-12.2393 c 10.5368,-8.4e-4 12.12852,-14.92404 2.18731,-16.68971 -37.38592,-6.64194 -35.42227,-6.42713 -36.65513,-6.42713 -4.59026,0 -8.56809,3.27611 -9.45725,7.7914 l -3.22978,28.53561 c -0.43679,4.55825 1.04332,8.50323 4.57636,11.07256 3.5242,2.56344 14.65236,10.47951 14.65236,10.47951 0,0 2.37095,-20.49991 3.03814,-26.39632 0.66802,-5.89599 3.97994,-9.9627 10.29165,-9.65438 0.66845,0.0329 13.44772,1.28846 14.59634,1.28846 z"
     id="wrench-20-icon"
     inkscape:connector-curvature="0" />
</svg>
