<?xml version="1.0" encoding="UTF-8" standalone="no"?>
<svg
   xmlns:dc="http://purl.org/dc/elements/1.1/"
   xmlns:cc="http://creativecommons.org/ns#"
   xmlns:rdf="http://www.w3.org/1999/02/22-rdf-syntax-ns#"
   xmlns:svg="http://www.w3.org/2000/svg"
   xmlns="http://www.w3.org/2000/svg"
   xmlns:sodipodi="http://sodipodi.sourceforge.net/DTD/sodipodi-0.dtd"
   xmlns:inkscape="http://www.inkscape.org/namespaces/inkscape"
   viewBox="0 0 350 200"
   height="200"
   width="350"
   preserveAspectRatio="xMid meet"
   id="svg2"
   version="1.1"
   inkscape:version="0.48.3.1 r9886"
   sodipodi:docname="gear-single.svg">
  <metadata
     id="metadata13">
    <rdf:RDF>
      <cc:Work
         rdf:about="">
        <dc:format>image/svg+xml</dc:format>
        <dc:type
           rdf:resource="http://purl.org/dc/dcmitype/StillImage" />
        <dc:title></dc:title>
      </cc:Work>
    </rdf:RDF>
  </metadata>
  <defs
     id="defs11" />
  <sodipodi:namedview
     pagecolor="#ffffff"
     bordercolor="#666666"
     borderopacity="1"
     objecttolerance="10"
     gridtolerance="10"
     guidetolerance="10"
     inkscape:pageopacity="0"
     inkscape:pageshadow="2"
     inkscape:window-width="1280"
     inkscape:window-height="974"
     id="namedview9"
     showgrid="false"
     inkscape:zoom="1.0257143"
     inkscape:cx="87.202464"
     inkscape:cy="100"
     inkscape:window-x="1280"
     inkscape:window-y="0"
     inkscape:window-maximized="1"
     inkscape:current-layer="svg2" />
  <rect
     width="175"
     height="200"
     x="175"
     y="0"
     fill="#144f0b"
     id="rect4" />
  <rect
     width="175"
     height="200"
     x="0"
     y="0"
     fill="#294ba7"
     id="rect6" />
  <path
     d="m 233.63648,43.988943 c -26.45765,0 -43.76026,21.440878 -59.2533,37.666976 -15.49304,-16.226098 -31.56149,-37.666976 -58.01915,-37.666976 -30.205777,0 -50.712935,24.080112 -50.712935,56.011057 0,31.93095 20.507158,56.01106 50.712405,56.01106 26.80269,0 43.99595,-20.91218 59.36159,-36.68921 15.36566,15.77703 31.10819,36.68921 57.91139,36.68921 30.20474,0 50.71242,-24.08011 50.71242,-56.01106 0,-31.930945 -20.50768,-56.011057 -50.71242,-56.011057 z M 116.3635,133.30364 c -17.981527,0 -28.762477,-13.56775 -28.762477,-33.30364 0,-19.736419 10.78095,-33.30364 28.762477,-33.30364 18.65089,0 29.91277,16.774438 44.89251,34.72305 -13.71905,16.23779 -25.65666,31.88423 -44.89251,31.88423 z m 117.27298,0 c -19.23584,0 -31.06517,-17.38063 -44.7842,-33.618416 14.97973,-17.948091 26.13331,-32.988864 44.7842,-32.988864 17.98153,0 28.76249,13.567221 28.76249,33.30364 -5.4e-4,19.73642 -10.78095,33.30364 -28.76249,33.30364 z"
     id="infinity-icon"
     inkscape:connector-curvature="0" />
</svg>
