<?xml version="1.0" encoding="UTF-8" standalone="no"?>
<svg
   xmlns:dc="http://purl.org/dc/elements/1.1/"
   xmlns:cc="http://creativecommons.org/ns#"
   xmlns:rdf="http://www.w3.org/1999/02/22-rdf-syntax-ns#"
   xmlns:svg="http://www.w3.org/2000/svg"
   xmlns="http://www.w3.org/2000/svg"
   xmlns:sodipodi="http://sodipodi.sourceforge.net/DTD/sodipodi-0.dtd"
   xmlns:inkscape="http://www.inkscape.org/namespaces/inkscape"
   viewBox="0 0 350 200"
   height="200"
   width="350"
   preserveAspectRatio="xMid meet"
   id="svg2"
   version="1.1"
   inkscape:version="0.48.3.1 r9886"
   sodipodi:docname="infinity.svg">
  <metadata
     id="metadata13">
    <rdf:RDF>
      <cc:Work
         rdf:about="">
        <dc:format>image/svg+xml</dc:format>
        <dc:type
           rdf:resource="http://purl.org/dc/dcmitype/StillImage" />
        <dc:title></dc:title>
      </cc:Work>
    </rdf:RDF>
  </metadata>
  <defs
     id="defs11" />
  <sodipodi:namedview
     pagecolor="#ffffff"
     bordercolor="#666666"
     borderopacity="1"
     objecttolerance="10"
     gridtolerance="10"
     guidetolerance="10"
     inkscape:pageopacity="0"
     inkscape:pageshadow="2"
     inkscape:window-width="1280"
     inkscape:window-height="974"
     id="namedview9"
     showgrid="false"
     inkscape:zoom="1.0257143"
     inkscape:cx="87.202464"
     inkscape:cy="100"
     inkscape:window-x="1280"
     inkscape:window-y="0"
     inkscape:window-maximized="1"
     inkscape:current-layer="svg2" />
  <rect
     width="175"
     height="200"
     x="175"
     y="0"
     fill="#144f0b"
     id="rect4" />
  <rect
     width="175"
     height="200"
     x="0"
     y="0"
     fill="#294ba7"
     id="rect6" />
  <path
     d="m 175,17.816155 c -45.38902,0 -82.183844,36.79482 -82.183844,82.183855 0,45.38902 36.794824,82.18384 82.183844,82.18384 45.38902,0 82.18384,-36.79483 82.18384,-82.18385 0,-45.389025 -36.79482,-82.183845 -82.18384,-82.183845 z m 30.23129,111.061895 c -10.94681,0 -18.31583,-6.7666 -24.84386,-13.62297 l 7.15598,-8.94008 c 5.09939,5.94596 10.34838,10.85624 17.68828,10.85624 9.27081,0 14.82979,-6.9952 14.82979,-17.17084 0,-10.176035 -5.55898,-17.170435 -14.82979,-17.170435 -20.63733,0 -31.85861,46.048475 -60.46298,46.048475 -15.57343,0 -26.14682,-12.41494 -26.14682,-28.87804 0,-16.463095 10.57299,-28.878045 26.14682,-28.878045 10.81755,0 18.26636,6.95251 24.87099,14.00277 l -7.12247,9.05658 c -5.38823,-6.40914 -10.48083,-11.35174 -17.74892,-11.35174 -9.27121,0 -14.82939,6.9944 -14.82939,17.170435 0,10.17564 5.55818,17.17084 14.82939,17.17084 22.03604,0 31.9005,-46.048885 60.46298,-46.048885 15.57304,0 26.14643,12.41495 26.14643,28.878045 0,16.4631 -10.57339,28.87765 -26.14643,28.87765 z"
     id="infinity-6-icon"
     inkscape:connector-curvature="0" />
</svg>
