<?xml version="1.0" encoding="UTF-8" standalone="no"?>
<svg
   xmlns:dc="http://purl.org/dc/elements/1.1/"
   xmlns:cc="http://creativecommons.org/ns#"
   xmlns:rdf="http://www.w3.org/1999/02/22-rdf-syntax-ns#"
   xmlns:svg="http://www.w3.org/2000/svg"
   xmlns="http://www.w3.org/2000/svg"
   xmlns:sodipodi="http://sodipodi.sourceforge.net/DTD/sodipodi-0.dtd"
   xmlns:inkscape="http://www.inkscape.org/namespaces/inkscape"
   viewBox="0 0 350 200"
   height="200"
   width="350"
   preserveAspectRatio="xMid meet"
   id="svg2"
   version="1.1"
   inkscape:version="0.48.3.1 r9886"
   sodipodi:docname="infinty-circled-filled.svg">
  <metadata
     id="metadata13">
    <rdf:RDF>
      <cc:Work
         rdf:about="">
        <dc:format>image/svg+xml</dc:format>
        <dc:type
           rdf:resource="http://purl.org/dc/dcmitype/StillImage" />
        <dc:title></dc:title>
      </cc:Work>
    </rdf:RDF>
  </metadata>
  <defs
     id="defs11" />
  <sodipodi:namedview
     pagecolor="#ffffff"
     bordercolor="#666666"
     borderopacity="1"
     objecttolerance="10"
     gridtolerance="10"
     guidetolerance="10"
     inkscape:pageopacity="0"
     inkscape:pageshadow="2"
     inkscape:window-width="1280"
     inkscape:window-height="974"
     id="namedview9"
     showgrid="false"
     inkscape:zoom="1.0257143"
     inkscape:cx="87.202464"
     inkscape:cy="100"
     inkscape:window-x="1280"
     inkscape:window-y="0"
     inkscape:window-maximized="1"
     inkscape:current-layer="svg2" />
  <rect
     width="175"
     height="200"
     x="175"
     y="0"
     fill="#144f0b"
     id="rect4" />
  <rect
     width="175"
     height="200"
     x="0"
     y="0"
     fill="#294ba7"
     id="rect6" />
  <path
     d="m 175,34.167 c 17.58495,0 34.11696,6.84782 46.55107,19.28193 12.43411,12.43411 19.28194,28.96612 19.28194,46.55107 0,17.58495 -6.84783,34.11696 -19.28194,46.55107 -12.43411,12.43411 -28.96612,19.28194 -46.55107,19.28194 -17.58455,0 -34.11656,-6.84783 -46.55107,-19.28194 C 116.01522,134.11657 109.167,117.58495 109.167,100 c 0,-17.58495 6.84822,-34.11656 19.28193,-46.55107 C 140.88344,41.01482 157.41545,34.167 175,34.167 m 0,-15.86338 c -45.1198,0 -81.69638,36.57658 -81.69638,81.69638 0,45.1198 36.57658,81.69638 81.69638,81.69638 45.1198,0 81.69638,-36.57658 81.69638,-81.69638 0,-45.1198 -36.57658,-81.69638 -81.69638,-81.69638 l 0,0 z m 26.21899,56.65168 c -24.77146,0 -33.32657,39.93644 -52.43837,39.93644 -8.04035,0 -12.86123,-6.06694 -12.86123,-14.89174 0,-8.82559 4.82048,-14.89174 12.86123,-14.89174 6.30371,0 10.72007,4.28628 15.39303,9.84521 l 6.1768,-7.85475 c -5.72787,-6.11454 -12.18823,-12.14381 -21.57023,-12.14381 -13.50607,0 -22.6759,10.76647 -22.6759,25.0447 0,14.27783 9.16983,25.04509 22.6759,25.04509 24.80794,0 34.54012,-39.93684 52.43837,-39.93684 8.04035,0 12.86123,6.06616 12.86123,14.89175 0,8.82479 -4.82048,14.89174 -12.86123,14.89174 -6.36597,0 -10.91757,-4.25813 -15.34068,-9.41491 l -6.20614,7.75362 c 5.66203,5.94638 12.05299,11.81504 21.54682,11.81504 13.50647,0 22.6759,-10.76727 22.6759,-25.0451 4e-4,-14.27822 -9.16903,-25.0447 -22.6755,-25.0447 z"
     id="infinity-7-icon"
     inkscape:connector-curvature="0" />
</svg>
