<?xml version="1.0" encoding="UTF-8" standalone="no"?>
<svg
   xmlns:dc="http://purl.org/dc/elements/1.1/"
   xmlns:cc="http://creativecommons.org/ns#"
   xmlns:rdf="http://www.w3.org/1999/02/22-rdf-syntax-ns#"
   xmlns:svg="http://www.w3.org/2000/svg"
   xmlns="http://www.w3.org/2000/svg"
   xmlns:sodipodi="http://sodipodi.sourceforge.net/DTD/sodipodi-0.dtd"
   xmlns:inkscape="http://www.inkscape.org/namespaces/inkscape"
   viewBox="0 0 350 200"
   height="200"
   width="350"
   preserveAspectRatio="xMid meet"
   id="svg2"
   version="1.1"
   inkscape:version="0.48.3.1 r9886"
   sodipodi:docname="light-bulb-power.svg">
  <metadata
     id="metadata13">
    <rdf:RDF>
      <cc:Work
         rdf:about="">
        <dc:format>image/svg+xml</dc:format>
        <dc:type
           rdf:resource="http://purl.org/dc/dcmitype/StillImage" />
        <dc:title></dc:title>
      </cc:Work>
    </rdf:RDF>
  </metadata>
  <defs
     id="defs11" />
  <sodipodi:namedview
     pagecolor="#ffffff"
     bordercolor="#666666"
     borderopacity="1"
     objecttolerance="10"
     gridtolerance="10"
     guidetolerance="10"
     inkscape:pageopacity="0"
     inkscape:pageshadow="2"
     inkscape:window-width="1280"
     inkscape:window-height="974"
     id="namedview9"
     showgrid="false"
     inkscape:zoom="1.0257143"
     inkscape:cx="87.202464"
     inkscape:cy="100"
     inkscape:window-x="1280"
     inkscape:window-y="0"
     inkscape:window-maximized="1"
     inkscape:current-layer="svg2" />
  <rect
     width="175"
     height="200"
     x="175"
     y="0"
     fill="#144f0b"
     id="rect4" />
  <rect
     width="175"
     height="200"
     x="0"
     y="0"
     fill="#294ba7"
     id="rect6" />
  <path
     d="m 242.63848,99.297999 -7.89649,-3.64458 c 8.79101,-19.049153 10.04873,-38.309013 3.73623,-57.244786 l 8.251,-2.750036 c 7.03499,21.104088 5.65866,42.515762 -4.09074,63.639402 z m -135.27696,0 7.89649,-3.64458 C 106.46699,76.604266 105.20927,57.344406 111.52177,38.408633 l -8.251,-2.750036 c -7.034973,21.104088 -5.658654,42.515762 4.09075,63.639402 z m 91.42397,52.632701 c 0,2.6688 -2.16311,4.83147 -4.83191,4.83147 h -38.07833 c -2.6688,0 -4.83235,-2.1631 -4.83235,-4.83147 0,-2.66967 2.16355,-4.83234 4.83235,-4.83234 h 38.07789 c 2.66924,0 4.83235,2.1631 4.83235,4.83234 z m -0.86933,16.08884 c 0,2.6688 -2.16354,4.83148 -4.83234,4.83148 h -36.33924 c -2.66881,0 -4.83235,-2.16311 -4.83235,-4.83148 0,-2.66967 2.16354,-4.83235 4.83235,-4.83235 h 36.3388 c 2.66924,0 4.83278,2.16312 4.83278,4.83235 z m -5.08085,11.03276 c -9.89972,8.82447 -10.80423,10.44365 -14.47574,10.44365 h -7.23353 c -3.75578,0 -4.72416,-1.74691 -14.13253,-10.44365 h 35.8418 z M 119.90441,63.269378 c 0,32.718571 28.13777,51.053062 28.13777,76.873062 h 12.95432 c -0.63603,-32.56998 -28.04698,-48.609305 -28.04698,-76.873062 0,-53.037181 83.92977,-52.955063 83.92977,0 0,28.289829 -27.89447,45.050752 -27.90533,76.873062 h 12.81311 c 0,-25.82 28.13734,-44.154491 28.13734,-76.873062 -4.4e-4,-70.3893889 -110.02,-70.3181418 -110.02,0 z m 65.79817,6.881631 h 16.24654 c 0,-10.00617 -5.43579,-18.742445 -13.51518,-23.417517 l -8.12849,14.079525 c 3.22272,1.86769 5.39713,5.352384 5.39713,9.337992 z m -5.39713,9.338419 8.12849,14.078221 c -3.97649,2.30082 -8.59465,3.61807 -13.51952,3.61807 -4.92532,0 -9.54305,-1.31725 -13.51997,-3.61807 l 8.12805,-14.078221 c 3.40562,1.973687 7.51852,1.892005 10.78295,0 z M 164.12668,70.151009 H 147.8797 c 0,-10.00617 5.43579,-18.742445 13.51475,-23.417517 l 8.12892,14.079525 c -3.22272,1.86769 -5.39669,5.352384 -5.39669,9.337992 z m 4.5934,0 c 0,-3.421698 2.77307,-6.194768 6.19434,-6.194768 3.42082,0 6.19475,2.77307 6.19475,6.194768 0,3.419961 -2.77393,6.194768 -6.19475,6.194768 -3.42127,0 -6.19434,-2.77438 -6.19434,-6.194768 z"
     id="light-bulb-8-icon"
     inkscape:connector-curvature="0" />
</svg>
