<?xml version="1.0" encoding="UTF-8" standalone="no"?>
<svg
   xmlns:dc="http://purl.org/dc/elements/1.1/"
   xmlns:cc="http://creativecommons.org/ns#"
   xmlns:rdf="http://www.w3.org/1999/02/22-rdf-syntax-ns#"
   xmlns:svg="http://www.w3.org/2000/svg"
   xmlns="http://www.w3.org/2000/svg"
   xmlns:sodipodi="http://sodipodi.sourceforge.net/DTD/sodipodi-0.dtd"
   xmlns:inkscape="http://www.inkscape.org/namespaces/inkscape"
   viewBox="0 0 350 200"
   height="200"
   width="350"
   preserveAspectRatio="xMid meet"
   id="svg2"
   version="1.1"
   inkscape:version="0.48.3.1 r9886"
   sodipodi:docname="light-bulb-filled.svg">
  <metadata
     id="metadata13">
    <rdf:RDF>
      <cc:Work
         rdf:about="">
        <dc:format>image/svg+xml</dc:format>
        <dc:type
           rdf:resource="http://purl.org/dc/dcmitype/StillImage" />
        <dc:title></dc:title>
      </cc:Work>
    </rdf:RDF>
  </metadata>
  <defs
     id="defs11" />
  <sodipodi:namedview
     pagecolor="#ffffff"
     bordercolor="#666666"
     borderopacity="1"
     objecttolerance="10"
     gridtolerance="10"
     guidetolerance="10"
     inkscape:pageopacity="0"
     inkscape:pageshadow="2"
     inkscape:window-width="1280"
     inkscape:window-height="974"
     id="namedview9"
     showgrid="false"
     inkscape:zoom="1.0257143"
     inkscape:cx="87.202464"
     inkscape:cy="100"
     inkscape:window-x="1280"
     inkscape:window-y="0"
     inkscape:window-maximized="1"
     inkscape:current-layer="svg2" />
  <rect
     width="175"
     height="200"
     x="175"
     y="0"
     fill="#144f0b"
     id="rect4" />
  <rect
     width="175"
     height="200"
     x="0"
     y="0"
     fill="#294ba7"
     id="rect6" />
  <path
     d="m 194.1917,147.47617 h -38.38297 c -2.69065,0 -4.87155,2.1809 -4.87155,4.87111 0,2.69022 2.1809,4.87068 4.87155,4.87068 h 38.38341 c 2.69021,0 4.87111,-2.18046 4.87111,-4.87068 0,-2.69021 -2.1809,-4.87111 -4.87155,-4.87111 z m -0.8763,16.21792 h -36.63081 c -2.69021,0 -4.87111,2.1809 -4.87111,4.87112 0,2.69021 2.1809,4.87111 4.87111,4.87111 h 36.63125 c 2.68978,0 4.87068,-2.1809 4.87068,-4.87111 0,-2.69022 -2.1809,-4.87112 -4.87112,-4.87112 z m -36.37987,15.9924 c 9.48385,8.76652 10.46044,10.52744 14.24592,10.52744 h 7.29157 c 3.70052,0 4.61229,-1.63217 14.59145,-10.52744 H 156.93553 z M 230.45158,62.974585 c 0,32.98065 -28.36353,51.463125 -28.36353,77.488975 h -12.91592 c 0.0109,-32.07675 28.12923,-48.972605 28.12923,-77.488975 0,-53.3799395 -84.60316,-53.4631495 -84.60316,0 0,28.49053 27.63086,44.658545 28.272,77.488975 h -13.05825 c 0,-26.02628 -28.36353,-44.508765 -28.36353,-77.488975 4.4e-4,-70.8818795 110.90316,-70.9541395 110.90316,0 z m -63.26976,51.749095 30.12752,-44.247755 h -17.52122 l 8.70215,-30.38415 -31.45752,43.75902 h 19.082 l -8.93293,30.872885 z"
     id="light-bulb-7-icon"
     inkscape:connector-curvature="0" />
</svg>
