<?xml version="1.0" encoding="UTF-8" standalone="no"?>
<svg
   xmlns:dc="http://purl.org/dc/elements/1.1/"
   xmlns:cc="http://creativecommons.org/ns#"
   xmlns:rdf="http://www.w3.org/1999/02/22-rdf-syntax-ns#"
   xmlns:svg="http://www.w3.org/2000/svg"
   xmlns="http://www.w3.org/2000/svg"
   xmlns:sodipodi="http://sodipodi.sourceforge.net/DTD/sodipodi-0.dtd"
   xmlns:inkscape="http://www.inkscape.org/namespaces/inkscape"
   viewBox="0 0 350 200"
   height="200"
   width="350"
   preserveAspectRatio="xMid meet"
   id="svg2"
   version="1.1"
   inkscape:version="0.48.3.1 r9886"
   sodipodi:docname="light-bulb-radioactive.svg">
  <metadata
     id="metadata13">
    <rdf:RDF>
      <cc:Work
         rdf:about="">
        <dc:format>image/svg+xml</dc:format>
        <dc:type
           rdf:resource="http://purl.org/dc/dcmitype/StillImage" />
        <dc:title></dc:title>
      </cc:Work>
    </rdf:RDF>
  </metadata>
  <defs
     id="defs11" />
  <sodipodi:namedview
     pagecolor="#ffffff"
     bordercolor="#666666"
     borderopacity="1"
     objecttolerance="10"
     gridtolerance="10"
     guidetolerance="10"
     inkscape:pageopacity="0"
     inkscape:pageshadow="2"
     inkscape:window-width="1280"
     inkscape:window-height="974"
     id="namedview9"
     showgrid="false"
     inkscape:zoom="1.0257143"
     inkscape:cx="87.202464"
     inkscape:cy="100"
     inkscape:window-x="1280"
     inkscape:window-y="0"
     inkscape:window-maximized="1"
     inkscape:current-layer="svg2" />
  <rect
     width="175"
     height="200"
     x="175"
     y="0"
     fill="#144f0b"
     id="rect4" />
  <rect
     width="175"
     height="200"
     x="0"
     y="0"
     fill="#294ba7"
     id="rect6" />
  <path
     d="m 228.98158,107.6951 c 0,30.75899 -107.96317,30.74648 -107.96317,0 0,-6.65844 5.69442,-11.787817 14.46465,-15.389417 0.55383,3.57055 2.25284,7.31967 4.59496,10.385987 -6.18743,3.45883 -4.79294,8.61754 4.20805,11.72829 17.15011,5.92561 44.23676,5.82942 61.42698,0 9.13859,-3.09911 10.8169,-8.16637 4.46988,-11.65798 2.34686,-2.963237 4.12912,-6.796467 4.70882,-10.308357 8.55888,3.59298 14.08983,8.673177 14.08983,15.241477 z m -9.02989,72.29089 c -15.43299,12.06041 -74.86766,11.58465 -90.71126,0 8.45837,-17.48008 7.45985,-36.49138 2.547,-50.48156 22.71081,10.48477 64.94706,10.39332 87.28306,-0.39984 -5.18329,14.77348 -7.65826,32.46922 0.88121,50.8814 z m -11.09207,-2.33177 c -3.33764,-8.74134 -5.64224,-25.43812 -2.67555,-36.95117 l -6.209,1.3699 c -2.08375,9.60615 -0.90233,26.31673 2.98222,37.12327 1.39061,0.29589 4.83348,-0.60429 5.90233,-1.542 z M 206.58477,19.426453 c -3.89102,7.49954 -8.45104,17.47016 -10.60424,28.15679 2.36844,1.89008 4.50394,4.14421 6.29741,6.81328 1.34188,-12.75485 7.36237,-25.2742 11.86676,-33.72094 4.01741,-7.53361 -2.85972,-13.6860997 -13.78875,-5.97478 -8.91258,6.29052 -15.86044,15.04996 -20.67365,26.05362 2.47282,0.31401 4.88654,0.90105 7.19329,1.73912 6.64766,-14.34603 16.34396,-21.39569 19.70919,-23.06709 z m -69.88967,1.24913 c -4.00835,-7.51506 2.84505,-13.6964497 13.78875,-5.97478 8.91602,6.29138 15.86432,15.05428 20.67753,26.06225 -2.47282,0.31875 -4.88654,0.90795 -7.19329,1.7512 -5.86177,-12.60303 -14.64753,-20.57228 -19.71264,-23.0878 3.8962,7.50902 8.46226,17.4969 10.61287,28.19992 -2.38525,1.91252 -4.5199,4.18692 -6.29784,6.85124 -1.32419,-12.78246 -7.36065,-25.33761 -11.87538,-33.80203 z m 26.19725,47.41524 c 0,-2.97877 1.83057,-5.39335 4.08858,-5.39335 2.25715,0 4.08814,2.41458 4.08814,5.39335 0,2.97919 -1.83056,5.39378 -4.08814,5.39378 -2.25801,0 -4.08858,-2.41459 -4.08858,-5.39378 z m 17.51674,0 c 0,-2.97877 1.83057,-5.39335 4.08815,-5.39335 2.258,0 4.08858,2.41458 4.08858,5.39335 0,2.97919 -1.83058,5.39378 -4.08858,5.39378 -2.25758,0 -4.08815,-2.41459 -4.08815,-5.39378 z m 38.8956,18.76802 c -3.03527,-0.66468 -6.51049,-1.08609 -10.10346,-1.26638 -0.0427,-2.13724 -0.4171,-4.24644 -1.10291,-6.28448 2.31753,-0.58014 4.65836,-1.01492 6.98884,-1.2845 1.2707,-0.14794 1.05805,-2.07038 -0.22301,-1.92675 -2.49222,0.28856 -4.99479,0.75612 -7.47063,1.38673 -1.15726,-2.64578 -2.85282,-5.1393 -5.0375,-7.37833 -0.0763,-5.99463 -2.41416,-11.70543 -6.68302,-16.23483 -5.1104,-5.42354 -12.48054,-8.53429 -20.22205,-8.53429 -7.74021,0 -15.11035,3.11075 -20.2216,8.53429 -4.26888,4.5294 -6.60668,10.23977 -6.6826,16.23483 -2.13508,2.18813 -3.80131,4.61911 -4.95684,7.19717 -2.23041,-0.53701 -4.47936,-0.94505 -6.72012,-1.20514 -1.28278,-0.14277 -1.49025,1.77881 -0.22343,1.92675 2.07383,0.24025 4.15457,0.61033 6.21978,1.09731 -0.73025,2.11049 -1.12491,4.29906 -1.16416,6.51782 -3.29709,0.20057 -6.47081,0.60688 -9.27144,1.2198 -1.25387,0.27562 -0.8385,2.16916 0.41537,1.8957 2.69236,-0.59092 5.74359,-0.98387 8.91171,-1.18055 1.09213,14.671677 16.84473,24.664727 33.69333,24.664727 16.26329,0 32.60552,-9.55525 33.69722,-24.711747 3.46444,0.17685 6.81328,0.58575 9.74029,1.228 1.27026,0.27821 1.65501,-1.62439 0.41623,-1.89613 z m -17.37914,-1.30261 c -3.31262,0.13328 -6.54542,0.46799 -9.45174,1.00888 -0.0259,-0.25449 -0.0569,-0.50466 -0.0962,-0.75224 2.77172,-1.6727 5.73539,-3.1155 8.80302,-4.30511 0.42571,1.23835 0.69961,2.58798 0.74491,4.04847 z m -45.97459,-12.42101 c -0.76345,-12.82905 8.50281,-20.52785 19.50042,-20.52785 10.8941,0 20.26992,7.58795 19.50172,20.52785 1.56573,1.42209 3.86083,3.33073 5.47918,6.58511 -2.96151,1.15252 -5.82942,2.5332 -8.52868,4.12179 -0.63535,-1.92589 -1.84351,-3.78147 -3.50413,-4.7787 -1.75206,-0.93383 -3.9307,-0.52234 -5.80656,0.12077 -0.93383,-1.61533 -3.03613,-4.3051 -6.68345,-4.3051 -3.71462,0 -5.76602,2.77 -6.6386,4.36117 -1.91985,-0.67891 -4.16708,-1.13396 -5.96443,-0.17684 -1.64294,0.98472 -2.85799,2.8265 -3.50024,4.76404 -2.90285,-1.70678 -5.9998,-3.172 -9.19984,-4.37239 1.61231,-3.09178 3.78492,-4.90336 5.34461,-6.31985 z m 32.95834,14.8123 c 0.0129,2.39 -0.97868,5.96831 -3.36351,5.96831 -1.51957,0 -3.54164,-0.72118 -5.30406,-1.52691 -1.5571,-0.71083 -2.55649,-2.26663 -2.55649,-3.97815 v -0.004 c 0,-1.69082 0.92175,-3.25353 2.39906,-4.07435 2.0872,-1.15855 4.42415,-2.18166 5.92388,-2.18166 1.68521,4.3e-4 2.88862,3.23238 2.90112,5.79664 z m -14.89036,0.4598 v 0.004 c 0,1.71109 -1.00026,3.26732 -2.55693,3.97815 -1.76241,0.80573 -3.78362,1.52691 -5.30406,1.52691 -2.38957,0 -3.37559,-3.58823 -3.36351,-5.96831 0.0108,-2.1243 1.02053,-5.79621 2.90156,-5.79621 1.4993,0 3.83754,1.02311 5.92345,2.18167 1.47946,0.82125 2.39949,2.38137 2.39949,4.07391 z M 159.33,85.796483 c -0.0401,0.2506 -0.0729,0.50552 -0.0988,0.76259 -3.14095,-0.5823 -6.66232,-0.92564 -10.25314,-1.03174 0.0518,-1.56142 0.36533,-2.99602 0.84368,-4.30252 3.31951,1.23576 6.52429,2.77345 9.50823,4.57167 z m -10.28032,1.66968 c 3.55502,0.11128 7.03586,0.46195 10.11986,1.05589 0.007,0.18849 0.0185,0.3744 0.0323,0.55987 -2.80623,0.44944 -5.93165,1.35912 -9.01565,2.57159 -0.59696,-1.35395 -0.98042,-2.7575 -1.13656,-4.18735 z m 26.4017,17.499907 c -10.71897,0 -20.22937,-4.66656 -24.36194,-11.569557 2.8925,-1.1262 5.80656,-1.97592 8.39584,-2.39474 0.51457,2.29165 1.73265,4.55527 3.66458,5.79793 3.43726,2.06909 9.22312,-0.58531 12.70223,-2.57504 3.46185,1.97895 9.28653,4.63162 12.70266,2.57504 1.92244,-1.23705 3.14828,-3.49118 3.66544,-5.80311 2.39431,0.38561 5.06683,1.13828 7.74539,2.1394 -4.36247,7.600887 -14.53366,11.830077 -24.5142,11.830077 z m 17.05133,-15.889327 c 0.0134,-0.18116 0.025,-0.36404 0.0315,-0.54951 2.8498,-0.54909 6.03991,-0.89242 9.31543,-1.03088 -0.14751,1.32289 -0.48783,2.62378 -1.01405,3.8824 -2.86188,-1.07919 -5.73497,-1.88836 -8.33287,-2.30201 z m -21.97107,9.39566 c 2.22954,-0.63751 3.3001,-1.09471 5.30406,-2.26276 2.03329,1.24137 3.02535,1.66278 5.32994,2.26276 -1.83185,1.804677 -8.80215,1.804677 -10.634,0 z"
     id="magic-7-icon"
     inkscape:connector-curvature="0" />
</svg>
