<?xml version="1.0" encoding="UTF-8" standalone="no"?>
<svg
   xmlns:dc="http://purl.org/dc/elements/1.1/"
   xmlns:cc="http://creativecommons.org/ns#"
   xmlns:rdf="http://www.w3.org/1999/02/22-rdf-syntax-ns#"
   xmlns:svg="http://www.w3.org/2000/svg"
   xmlns="http://www.w3.org/2000/svg"
   xmlns:sodipodi="http://sodipodi.sourceforge.net/DTD/sodipodi-0.dtd"
   xmlns:inkscape="http://www.inkscape.org/namespaces/inkscape"
   viewBox="0 0 350 200"
   height="200"
   width="350"
   preserveAspectRatio="xMid meet"
   id="svg2"
   version="1.1"
   inkscape:version="0.48.3.1 r9886"
   sodipodi:docname="magic-wand-sweep.svg">
  <metadata
     id="metadata13">
    <rdf:RDF>
      <cc:Work
         rdf:about="">
        <dc:format>image/svg+xml</dc:format>
        <dc:type
           rdf:resource="http://purl.org/dc/dcmitype/StillImage" />
        <dc:title></dc:title>
      </cc:Work>
    </rdf:RDF>
  </metadata>
  <defs
     id="defs11" />
  <sodipodi:namedview
     pagecolor="#ffffff"
     bordercolor="#666666"
     borderopacity="1"
     objecttolerance="10"
     gridtolerance="10"
     guidetolerance="10"
     inkscape:pageopacity="0"
     inkscape:pageshadow="2"
     inkscape:window-width="1280"
     inkscape:window-height="974"
     id="namedview9"
     showgrid="false"
     inkscape:zoom="1.0257143"
     inkscape:cx="87.202464"
     inkscape:cy="100"
     inkscape:window-x="1280"
     inkscape:window-y="0"
     inkscape:window-maximized="1"
     inkscape:current-layer="svg2" />
  <rect
     width="175"
     height="200"
     x="175"
     y="0"
     fill="#144f0b"
     id="rect4" />
  <rect
     width="175"
     height="200"
     x="0"
     y="0"
     fill="#294ba7"
     id="rect6" />
  <path
     d="M 127.91588,34.10133 108.89064,53.12697 238.43499,182.67131 257.46022,163.64607 127.91588,34.10133 z m 14.84993,41.54274 -22.51669,-22.5171 7.66676,-7.66676 22.5167,22.5175 -7.66677,7.66636 z m 10.12162,-40.41303 c 8.48786,2.59251 15.13166,9.23631 17.72417,17.72417 2.59251,-8.48866 9.23551,-15.13206 17.72296,-17.72417 -8.48745,-2.59251 -15.13045,-9.23551 -17.72336,-17.72336 -2.59211,8.48745 -9.23551,15.13165 -17.72377,17.72336 z m -36.8417,47.91364 c -3.43809,11.25775 -12.24941,20.06746 -23.505947,23.50595 11.256537,3.43848 20.067857,12.24899 23.505947,23.50594 3.43808,-11.25695 12.24859,-20.06706 23.50594,-23.50594 -11.25735,-3.43809 -20.06786,-12.2482 -23.50594,-23.50595 l 0,0 z m 65.80556,-21.81037 c 6.0041,1.83401 10.70312,6.53304 12.53674,12.53714 1.83362,-6.0041 6.53184,-10.70313 12.53674,-12.53714 -6.0049,-1.83322 -10.70312,-6.53224 -12.53674,-12.53715 -1.83362,6.00411 -6.53264,10.70393 -12.53674,12.53715 z m 30.5021,-44.00562 c -2.09207,6.84928 -7.45326,12.21087 -14.30415,14.30294 6.85049,2.09287 12.21168,7.45406 14.30415,14.30414 2.09206,-6.85048 7.45326,-12.21208 14.30334,-14.30374 -6.85048,-2.09167 -12.21128,-7.45326 -14.30334,-14.30334 l 0,0 z"
     id="magic-icon"
     inkscape:connector-curvature="0" />
</svg>
