<?xml version="1.0" encoding="UTF-8" standalone="no"?>
<svg
   xmlns:dc="http://purl.org/dc/elements/1.1/"
   xmlns:cc="http://creativecommons.org/ns#"
   xmlns:rdf="http://www.w3.org/1999/02/22-rdf-syntax-ns#"
   xmlns:svg="http://www.w3.org/2000/svg"
   xmlns="http://www.w3.org/2000/svg"
   xmlns:sodipodi="http://sodipodi.sourceforge.net/DTD/sodipodi-0.dtd"
   xmlns:inkscape="http://www.inkscape.org/namespaces/inkscape"
   viewBox="0 0 350 200"
   height="200"
   width="350"
   preserveAspectRatio="xMid meet"
   id="svg2"
   version="1.1"
   inkscape:version="0.48.3.1 r9886"
   sodipodi:docname="megaphone-filled.svg">
  <metadata
     id="metadata13">
    <rdf:RDF>
      <cc:Work
         rdf:about="">
        <dc:format>image/svg+xml</dc:format>
        <dc:type
           rdf:resource="http://purl.org/dc/dcmitype/StillImage" />
        <dc:title></dc:title>
      </cc:Work>
    </rdf:RDF>
  </metadata>
  <defs
     id="defs11" />
  <sodipodi:namedview
     pagecolor="#ffffff"
     bordercolor="#666666"
     borderopacity="1"
     objecttolerance="10"
     gridtolerance="10"
     guidetolerance="10"
     inkscape:pageopacity="0"
     inkscape:pageshadow="2"
     inkscape:window-width="1280"
     inkscape:window-height="974"
     id="namedview9"
     showgrid="false"
     inkscape:zoom="1.0257143"
     inkscape:cx="87.202464"
     inkscape:cy="100"
     inkscape:window-x="1280"
     inkscape:window-y="0"
     inkscape:window-maximized="1"
     inkscape:current-layer="svg2" />
  <rect
     width="175"
     height="200"
     x="175"
     y="0"
     fill="#144f0b"
     id="rect4" />
  <rect
     width="175"
     height="200"
     x="0"
     y="0"
     fill="#294ba7"
     id="rect6" />
  <path
     d="m 175.82089,141.87747 14.91021,4.51508 -14.45895,14.45895 c -2.62924,2.62966 -6.49043,3.60221 -10.05161,2.53228 l -27.84342,-8.21798 c -3.44764,-1.03595 -6.08434,-3.82804 -6.92056,-7.32996 l -4.95225,-20.73764 14.99392,4.54036 2.04786,8.57642 c 0.5532,2.31721 2.29649,4.16576 4.57724,4.85529 l 15.09834,4.40858 c 2.36321,0.71481 4.92739,0.0704 6.67317,-1.67534 l 5.92605,-5.92604 z M 243.78704,58.527052 V 136.67244 L 120.48835,99.330612 c -2.93879,-0.88967 -5.95423,-1.46897 -9.00365,-1.73086 3.04901,-0.26189 6.06528,-0.84119 9.00406,-1.73128 L 243.78704,58.527052 M 260.36223,36.188671 115.68444,80.005182 c -6.0918,1.84482 -12.81635,1.56677 -18.952486,-1.10225 l -7.094182,-3.08547 v 43.564158 l 7.094596,-3.08506 c 5.872592,-2.55423 12.590102,-3.02953 18.951662,-1.10225 l 144.6782,43.81652 V 36.188671 z"
     id="megaphone-2-icon"
     inkscape:connector-curvature="0" />
</svg>
