<?xml version="1.0" encoding="UTF-8" standalone="no"?>
<svg
   xmlns:dc="http://purl.org/dc/elements/1.1/"
   xmlns:cc="http://creativecommons.org/ns#"
   xmlns:rdf="http://www.w3.org/1999/02/22-rdf-syntax-ns#"
   xmlns:svg="http://www.w3.org/2000/svg"
   xmlns="http://www.w3.org/2000/svg"
   xmlns:sodipodi="http://sodipodi.sourceforge.net/DTD/sodipodi-0.dtd"
   xmlns:inkscape="http://www.inkscape.org/namespaces/inkscape"
   viewBox="0 0 350 200"
   height="200"
   width="350"
   preserveAspectRatio="xMid meet"
   id="svg2"
   version="1.1"
   inkscape:version="0.48.3.1 r9886"
   sodipodi:docname="people-group.svg">
  <metadata
     id="metadata13">
    <rdf:RDF>
      <cc:Work
         rdf:about="">
        <dc:format>image/svg+xml</dc:format>
        <dc:type
           rdf:resource="http://purl.org/dc/dcmitype/StillImage" />
        <dc:title></dc:title>
      </cc:Work>
    </rdf:RDF>
  </metadata>
  <defs
     id="defs11" />
  <sodipodi:namedview
     pagecolor="#ffffff"
     bordercolor="#666666"
     borderopacity="1"
     objecttolerance="10"
     gridtolerance="10"
     guidetolerance="10"
     inkscape:pageopacity="0"
     inkscape:pageshadow="2"
     inkscape:window-width="1280"
     inkscape:window-height="974"
     id="namedview9"
     showgrid="false"
     inkscape:zoom="1.0257143"
     inkscape:cx="87.202464"
     inkscape:cy="100"
     inkscape:window-x="1280"
     inkscape:window-y="0"
     inkscape:window-maximized="1"
     inkscape:current-layer="svg2" />
  <rect
     width="175"
     height="200"
     x="175"
     y="0"
     fill="#144f0b"
     id="rect4" />
  <rect
     width="175"
     height="200"
     x="0"
     y="0"
     fill="#294ba7"
     id="rect6" />
  <path
     d="m 175.75282,138.40505 13.67388,4.1407 -13.26004,13.26004 c -2.41123,2.4116 -5.95225,3.30351 -9.21815,2.3223 l -25.5343,-7.53656 c -3.16215,-0.95005 -5.57983,-3.51062 -6.34671,-6.72217 l -4.54162,-19.0181 13.75026,4.16388 1.87806,7.86527 c 0.50733,2.12507 2.10607,3.82034 4.19732,4.4527 l 13.84641,4.04303 c 2.16725,0.65553 4.51882,0.0646 6.11984,-1.53642 l 5.43505,-5.43467 z M 120.60279,81.663123 c -5.73032,1.73517 -11.89082,1.3772 -17.38097,-1.01085 l -6.505943,-2.82963 v 39.951887 l 6.506323,-2.82925 c 5.49015,-2.38767 11.65065,-2.74641 17.38059,-1.01086 l 132.68133,40.18332 V 41.479813 l -132.68133,40.18331 z"
     id="megaphone-icon"
     inkscape:connector-curvature="0" />
</svg>
