<?xml version="1.0" encoding="UTF-8" standalone="no"?>
<svg
   xmlns:dc="http://purl.org/dc/elements/1.1/"
   xmlns:cc="http://creativecommons.org/ns#"
   xmlns:rdf="http://www.w3.org/1999/02/22-rdf-syntax-ns#"
   xmlns:svg="http://www.w3.org/2000/svg"
   xmlns="http://www.w3.org/2000/svg"
   xmlns:sodipodi="http://sodipodi.sourceforge.net/DTD/sodipodi-0.dtd"
   xmlns:inkscape="http://www.inkscape.org/namespaces/inkscape"
   viewBox="0 0 350 200"
   height="200"
   width="350"
   preserveAspectRatio="xMid meet"
   id="svg2"
   version="1.1"
   inkscape:version="0.48.3.1 r9886"
   sodipodi:docname="power-holt-circled-hollow.svg">
  <metadata
     id="metadata13">
    <rdf:RDF>
      <cc:Work
         rdf:about="">
        <dc:format>image/svg+xml</dc:format>
        <dc:type
           rdf:resource="http://purl.org/dc/dcmitype/StillImage" />
        <dc:title></dc:title>
      </cc:Work>
    </rdf:RDF>
  </metadata>
  <defs
     id="defs11" />
  <sodipodi:namedview
     pagecolor="#ffffff"
     bordercolor="#666666"
     borderopacity="1"
     objecttolerance="10"
     gridtolerance="10"
     guidetolerance="10"
     inkscape:pageopacity="0"
     inkscape:pageshadow="2"
     inkscape:window-width="1280"
     inkscape:window-height="974"
     id="namedview9"
     showgrid="false"
     inkscape:zoom="1.0257143"
     inkscape:cx="86.310747"
     inkscape:cy="100.35051"
     inkscape:window-x="1280"
     inkscape:window-y="0"
     inkscape:window-maximized="1"
     inkscape:current-layer="svg2" />
  <rect
     width="175"
     height="200"
     x="175"
     y="0"
     fill="#144f0b"
     id="rect4" />
  <rect
     width="175"
     height="200"
     x="0"
     y="0"
     fill="#294ba7"
     id="rect6" />
  <path
     d="m 86.373797,30.13488 c 2.3082,-3.94423 7.281996,-8.64543 17.870233,-8.64543 13.46251,0 30.73028,7.6425 42.69793,13.96419 -0.0298,0.0124 -0.0599,0.024 -0.0897,0.0364 -4.95604,2.09642 -9.6195,4.7154 -13.9522,7.82453 -12.33215,-5.76229 -22.21493,-8.50603 -28.65604,-8.50603 -1.93216,0 -5.328976,0.26683 -6.374526,2.05337 -1.635141,2.7939 -0.798258,12.55991 12.706866,31.44195 0.0946,0.13186 0.1918,0.26461 0.2868,0.39691 -2.3628,4.53604 -4.27143,9.32293 -5.68636,14.56932 C 94.336399,69.53411 77.608941,45.11265 86.373797,30.13488 z m 116.772993,5.35517 c 4.95648,2.09642 9.61949,4.7154 13.95176,7.82453 12.33215,-5.76229 22.21537,-8.50603 28.65648,-8.50603 1.93216,0 5.32898,0.26683 6.37452,2.05337 3.82658,6.53879 -8.1575,25.14468 -12.99411,31.83886 2.40943,4.62484 4.2963,9.41394 5.68681,14.56888 10.8342,-13.72756 27.5661,-38.15967 18.80302,-53.13522 -2.3082,-3.94423 -7.282,-8.64543 -17.87024,-8.64543 -13.45762,0 -30.71917,7.63673 -42.69793,13.96419 0.0302,0.0133 0.0599,0.0244 0.0897,0.0368 z M 129.43578,158.2553 c -10.72188,4.69188 -19.36331,6.93659 -25.18864,6.93659 -8.9e-4,0 -0.002,0 -0.003,0 -1.93216,0 -5.329858,-0.26727 -6.37452,-2.05336 -1.595628,-2.72687 -0.831112,-12.09907 11.76077,-30.10072 -2.26603,-4.78955 -4.03614,-9.83483 -5.24151,-15.30143 -10.51721,13.49358 -26.650192,37.37473 -18.014975,52.12874 2.307312,3.94378 7.28022,8.64454 17.868465,8.64587 0.002,0 0.003,0 0.004,0 12.0893,0 27.21669,-6.1845 38.36877,-11.74079 -4.69898,-2.35304 -9.10494,-5.19977 -13.18014,-8.5149 z M 245.6103,117.73638 c -1.21603,5.51278 -2.99502,10.55361 -5.24151,15.30187 12.59143,18.00165 13.35595,27.37341 11.76032,30.10072 -1.0451,1.78609 -4.44236,2.05292 -6.37363,2.05292 -5.82578,0 -14.46854,-2.24516 -25.19131,-6.93748 -4.0752,3.31557 -8.48116,6.16231 -13.18013,8.51535 11.15297,5.55717 26.2808,11.74123 38.37144,11.74123 10.58824,0 15.56159,-4.70164 17.86935,-8.64543 8.63832,-14.75978 -7.49644,-38.6285 -18.01453,-52.12918 z M 180.8111,83.15334 c 0.002,4.4e-4 0.005,4.4e-4 0.007,4.4e-4 0.0564,0.005 0.103,-0.0382 0.15938,-0.0413 0.15939,-0.0102 0.67129,0.34319 0.84799,0.41866 0.0573,0.0249 0.12031,0.0333 0.17448,0.0662 0.10167,0.0613 0.17581,0.15938 0.28281,0.21088 0.0364,0.0173 0.0963,0.0457 0.18202,0.0302 0.0599,-0.0102 0.15006,-0.0271 0.24552,-0.33964 0.0391,-0.12431 -0.11099,-0.19001 -0.0963,-0.30589 0.0226,-0.17759 0.16294,-0.30767 0.19579,-0.4826 0.0146,-0.0795 -0.0111,-0.12031 -0.079,-0.12697 -0.0102,-0.002 -0.0209,-0.001 -0.0302,8.9e-4 -0.0453,0.008 -0.0857,0.0346 -0.13275,0.0408 -0.15095,0.0155 -0.13363,-0.0519 -0.26372,0.0249 -0.0675,0.0395 -0.12742,0.0906 -0.20556,0.10878 -0.0746,0.0169 -0.14118,-0.0311 -0.21576,-0.024 -0.10167,0.008 -0.16472,0.1141 -0.27127,0.11099 -0.14207,-0.004 -0.23397,-0.12786 -0.36672,-0.15139 -0.0857,-0.0151 -0.13452,0.0817 -0.21577,0.0746 -0.0835,-0.007 -0.059,-0.0404 -0.12653,-0.0626 -0.10478,-0.0351 -0.22554,0.3423 -0.20289,0.37915 0.0324,0.0573 0.0817,0.0653 0.11143,0.0679 z m -10.83065,-15.8191 c -0.0102,-0.0111 -0.0173,-0.0271 -0.0182,-0.0488 -0.004,-0.0648 0.0635,-0.28991 0.15939,-0.30944 0.002,-4.5e-4 0.005,-0.001 0.007,-0.002 0.0244,-0.005 0.04,-0.004 0.0746,0.0484 0.007,0.0102 0.0191,0.016 0.0311,0.0133 0.009,-8.9e-4 0.0146,-0.007 0.0173,-0.0133 0.0275,-0.067 0.0364,-0.14029 0.0666,-0.20689 0.008,-0.0164 0.008,-0.0355 8.8e-4,-0.0515 -8.8e-4,-8.9e-4 -8.8e-4,-0.002 -0.002,-0.003 -0.0519,0.028 -0.1172,0.0169 -0.15716,-0.0266 -0.04,-0.0435 -0.0466,-0.10878 -0.0155,-0.1585 0.0253,-0.0409 0.0599,-0.0768 0.10566,-0.10167 0.005,-0.002 0.009,-0.005 0.0146,-0.007 0.0253,-0.01 0.0528,-0.01 0.0781,8.8e-4 0.0426,0.0173 0.0919,0.012 0.13009,-0.0169 0.007,-0.005 0.0146,-0.0111 0.0217,-0.0164 0.1363,-0.10833 0.25484,-0.23353 0.35651,-0.37516 0.0493,-0.0688 0.099,-0.1212 0.14029,-0.13718 0.0648,-0.0249 0.1292,-0.0333 0.19268,-0.0333 0.16649,4.4e-4 0.33742,0.0222 0.49947,0.0639 0.0675,0.0182 0.22376,0.0897 0.0373,0.20556 -0.0839,0.0519 -0.1838,0.0741 -0.25839,0.14473 -0.0546,0.0506 -0.0599,0.12831 -0.099,0.18691 -0.007,0.0102 -0.007,0.024 -8.9e-4,0.0333 0.005,0.0102 0.0173,0.0164 0.0293,0.0155 0.15273,-0.009 0.95898,-0.0417 0.77961,0.20822 -0.0772,0.10744 -0.14207,0.22776 -0.18913,0.35207 -0.11099,0.29968 -0.12564,0.63044 -0.0346,0.94477 0.0253,0.0848 0.0346,0.17448 0.0271,0.25217 -0.009,0.087 -0.0337,0.1736 -0.0244,0.26195 0.009,0.087 0.10167,0.14873 0.0772,0.24374 -0.002,0.008 -8.9e-4,0.0164 0.003,0.024 8.9e-4,0.002 0.004,0.003 0.005,0.003 0.0182,-0.003 0.0302,-0.004 0.04,-0.004 0.0755,4.5e-4 0.15539,-0.002 0.23131,-0.007 0.0244,-0.002 0.0311,0.005 0.0435,0.0186 0.002,0.003 0.18203,0.3898 0.1474,0.43686 -8.9e-4,8.9e-4 -8.9e-4,0.002 -0.002,0.003 -0.0382,0.0546 -0.0329,0.1292 0.012,0.17892 0.0511,0.0573 0.0963,0.11943 0.103,0.206 0.004,0.0395 0.004,0.0417 -0.17581,0.1807 -0.0191,0.0138 -0.0275,0.0386 -0.0217,0.0617 0.15849,0.0826 0.15849,0.0826 0.24462,0.0368 0.1292,-0.071 0.58516,0.16338 0.60514,0.17492 0.002,8.9e-4 0.004,0.002 0.004,0.003 0.2464,0.13719 0.20999,0.33032 0.20111,0.36805 -0.0311,0.12165 -0.0648,0.18514 -0.12031,0.21577 -0.10478,0.0582 -0.20822,0.12387 -0.30545,0.19357 -0.0164,0.0111 -0.0426,0.008 -0.0866,-0.0222 -0.007,-0.005 -0.0164,-0.0115 -0.0244,-0.0178 -0.012,-0.009 -0.0262,-0.0115 -0.0391,-0.008 -0.012,0.004 -0.02,0.0155 -0.0182,0.0275 0.0191,0.16427 0.11365,0.31034 0.25572,0.39513 0.003,10e-4 0.004,0.002 0.005,0.004 0.003,0.001 0.005,0.005 0.005,0.008 0.008,0.16693 -0.39779,0.24419 -0.40134,0.24419 0,0 0,0 -8.9e-4,0 -8.9e-4,0 -8.9e-4,0 -0.002,0 -0.13453,-0.0115 -0.26106,0.0697 -0.3978,0.0484 -0.11277,-0.0178 -0.19845,-0.11455 -0.31833,-0.11632 -0.28369,-0.005 -0.28369,-0.005 -0.33653,-0.0373 -0.0182,-0.0106 -0.21088,-0.0626 -0.28014,-0.0661 -0.18913,-0.009 -0.33298,0.12343 -0.50746,0.16028 -0.15628,0.032 -0.2686,-0.11632 -0.42044,-0.10434 -0.2131,0.0187 -0.2868,0.22243 -0.43287,0.33165 -0.0129,0.0102 -0.0302,0.0133 -0.0462,0.008 -0.003,0 -0.004,-4.4e-4 -0.005,-8.8e-4 -0.10744,-0.20778 -0.30589,-0.12698 -0.41378,-0.0604 -0.032,0.0195 -0.0617,0.0377 -0.0883,0.0533 -0.0382,0.0235 -0.0875,0.0146 -0.11543,-0.0204 -0.0284,-0.0346 -0.0253,-0.0852 0.006,-0.11765 0.0573,-0.0599 0.12209,-0.1252 0.1838,-0.18647 0.18203,-0.18247 0.42044,-0.2948 0.67217,-0.32188 0.0826,-0.009 0.1656,-0.008 0.2473,0.001 0.1545,0.0178 0.2646,-0.0626 0.37471,-0.14118 0.0271,-0.0191 0.0382,-0.0537 0.0271,-0.0844 -0.009,-0.0311 -0.04,-0.052 -0.0719,-0.0502 -0.0435,10e-4 -0.0848,0.0129 -0.12476,0.0484 -0.0102,0.009 -0.0217,0.0155 -0.0337,0.0204 -0.0484,0.0213 -0.103,0.0222 -0.15184,0.003 -0.0111,-0.004 -0.0217,-0.0102 -0.0302,-0.0195 -0.10167,-0.10699 -0.23086,-0.18424 -0.37382,-0.22154 -0.15184,-0.0395 -0.29302,0.0937 -0.44575,0.0209 -0.0999,-0.0475 -0.0848,-0.19579 -0.0626,-0.22154 0.0244,-0.0262 0.0719,-0.0324 0.14474,-0.044 0.11277,-0.0155 0.46928,-0.14207 0.52033,-0.19934 0.0466,-0.0519 0.15273,-0.4049 0.0111,-0.39602 -0.0737,0.007 -0.13097,0.0653 -0.20201,0.0817 -0.0155,0.004 -0.032,-8.9e-4 -0.0435,-0.0111 -0.012,-0.0106 -0.0182,-0.0266 -0.0164,-0.0426 8.9e-4,-0.008 0.003,-0.0133 0.005,-0.0195 8.9e-4,-8.9e-4 0.002,-8.9e-4 0.003,-0.002 0.0475,-0.0817 0.20112,-0.0355 0.20467,-0.15761 8.9e-4,-0.0333 -0.0217,-0.0559 -0.0417,-0.0799 -0.0217,-0.0266 -0.0235,-0.0648 -0.004,-0.0932 0.0191,-0.0284 0.0555,-0.0409 0.0883,-0.0298 8.9e-4,0 8.9e-4,0 8.9e-4,0 0.19668,0.0653 0.41289,0.0146 0.56029,-0.13141 0.14651,-0.14651 0.19846,-0.36228 0.13453,-0.5594 -0.002,-0.005 -0.004,-0.009 -0.004,-0.0138 -8.9e-4,-0.005 -0.003,-0.0102 -0.004,-0.0147 -0.0164,-0.0795 -0.0684,-0.14473 -0.13941,-0.17847 -0.0502,-0.0249 -0.0919,-0.0648 -0.1181,-0.11544 -0.003,-0.003 -0.004,-0.005 -0.008,-0.006 -0.007,-0.002 -0.0138,-0.001 -0.02,0.003 -0.18913,0.11454 -0.19357,0.11454 -0.22731,-0.0284 -0.002,-0.006 -0.005,-0.0106 -0.009,-0.0142 -0.006,-0.004 -0.006,-0.004 -0.006,-0.004 -0.0511,0.0146 -0.10567,-0.008 -0.13186,-0.0555 -0.0253,-0.0466 -0.0138,-0.10566 0.0275,-0.1394 0.0409,-0.0351 0.0963,-0.0781 0.1656,-0.13275 0.12121,-0.095 0.0817,-0.22643 0.0857,-0.34719 0,-0.0213 -0.009,-0.0413 -0.0262,-0.0537 -0.0164,-0.0124 -0.0382,-0.0164 -0.0591,-0.009 -0.0519,0.0169 -0.10478,0.0373 -0.15628,0.0595 -0.0644,0.028 -0.0799,0.0462 -0.12298,0.0994 -0.0466,0.0564 -0.0835,0.099 -0.11188,0.1323 -0.0235,0.0275 -0.0626,0.0333 -0.0928,0.0133 -0.0293,-0.02 -0.0409,-0.0595 -0.0244,-0.0914 0.009,-0.016 0.0182,-0.0315 0.0302,-0.0466 0,-4.4e-4 0,-4.4e-4 0,-4.4e-4 0.11144,-0.14962 0.10034,-0.35341 -0.024,-0.48926 z m 5.01908,-27.23268 c -34.24651,0 -62.0084,27.76189 -62.0084,62.00796 0,34.24607 27.76189,62.00885 62.0084,62.00885 34.24652,0 62.00841,-27.76278 62.00841,-62.00885 0,-34.24607 -27.76189,-62.00796 -62.00841,-62.00796 z m 18.44651,35.45412 c 0.28459,0.0852 0.4857,0.2908 0.57317,0.54297 0.004,0.0102 0.008,0.0195 0.0129,0.0293 0.012,0.0226 0.0626,0.0955 0.21266,0.0786 0.059,-0.008 0.61667,-0.53765 0.63754,-0.57983 0.0417,-0.0852 -0.079,-0.10877 -0.16294,-0.15361 -0.19845,-0.10567 -0.32854,-0.30634 -0.34496,-0.53099 -0.0164,-0.2242 0.0839,-0.44131 0.26549,-0.5745 8.9e-4,-0.001 0.002,-0.002 0.004,-0.003 l 1.02069,-0.59048 c 0.002,-4.4e-4 0,0 0.002,-4.4e-4 0.0173,-0.0102 0.0373,-0.0164 0.0573,-0.0191 0.002,-4.4e-4 0.003,-4.4e-4 0.003,-4.4e-4 0.0644,-0.008 0.51145,-0.2726 0.67394,-0.29124 0.0475,-0.007 0.15539,0.11099 0.12298,0.19801 -0.0209,0.0564 -0.0702,0.14562 -0.18735,0.2131 -0.13941,0.0804 -0.48126,0.25706 -0.46306,0.41556 0.0235,0.19845 0.25661,0.12475 0.37826,0.20156 0.091,0.0586 0.0599,0.10034 0.0355,0.18469 -8.9e-4,0.002 -8.9e-4,0.004 -0.002,0.006 -0.0666,0.23753 -0.17359,0.45818 -0.31655,0.65886 -0.008,0.0111 -0.0129,0.0235 -0.0111,0.0351 0.0284,0.15272 0.0284,0.15272 0.55851,0.36361 0.23664,0.0937 0.50391,-0.0315 0.73078,0.10789 0.51678,0.31743 0.90081,0.82134 1.48819,1.03356 0.19445,0.0701 0.84132,0.33697 0.98694,0.82889 0.26727,0.90525 -0.828,1.07618 -1.21559,0.88039 -0.22376,-0.11277 -0.32498,0.13852 -0.4857,0.21488 -0.007,0.004 -0.0155,0.007 -0.0226,0.0107 -0.11455,0.003 -0.23309,-0.0244 -0.31122,-0.0457 -0.19358,-0.0542 -1.00338,-0.0613 -1.30483,-0.18691 -0.002,-0.001 -0.004,-0.002 -0.005,-0.002 -0.0657,-0.0333 -1.09261,-0.41867 -1.1672,-0.39647 -0.32676,0.10078 -0.71213,-0.13585 -1.01536,0.10123 -0.17847,0.13896 -0.39558,0.21355 -0.57228,0.35429 -0.2464,0.19401 -0.25661,0.20156 -0.26016,0.25839 -8.9e-4,0.006 -8.9e-4,0.0111 -8.9e-4,0.0164 -0.008,0.0653 -0.0146,0.12121 -0.0937,0.15539 -0.0954,0.0408 -0.24818,0.0639 -0.32365,0.0639 -0.22021,4.4e-4 -0.44042,0.0386 -0.66152,0.0129 -0.19934,-0.0226 -0.39114,0.11277 -0.59137,0.0249 0,0 0,0 -8.8e-4,0 -0.36761,-0.15583 -0.67972,-0.40712 -0.91148,-0.7321 l -0.2313,-0.32321 c 0,-4.5e-4 0,-4.5e-4 0,-0.001 -0.0164,-0.0235 -0.0182,-0.0542 -0.004,-0.0795 0.02,-0.0342 0.0599,-0.0608 0.14029,0.0169 0,4.5e-4 8.9e-4,8.9e-4 0.002,0.001 0.0111,0.0129 0.0302,0.0155 0.0462,0.008 0.0155,-0.008 0.0226,-0.0262 0.0191,-0.0431 -0.0462,-0.19179 -0.12564,-0.47638 -0.0608,-0.66418 0.002,-0.002 0.002,-0.004 0.003,-0.006 0.0391,-0.11188 0.19757,-0.0861 0.23575,-0.19978 0.0444,-0.13186 -0.0293,-0.25307 -0.0391,-0.38004 -0.005,-0.0599 0.059,-0.61801 0.059,-0.61979 0.009,0 0.0111,0 0.0111,0 0.10655,-0.0511 0.15361,-0.13097 0.17537,-0.22198 0.0608,-0.24063 0.16737,-0.46262 0.31655,-0.65974 0.0417,-0.0533 0.0857,-0.17759 0.1949,-0.48748 0.0417,-0.11809 0.052,-0.14695 0.23086,-0.19623 0.21755,-0.0608 0.44753,-0.079 0.67306,-0.0511 0.11899,0.0146 0.26372,0.0395 0.43465,0.0817 0.0155,0.004 0.0293,0.0146 0.0364,0.0289 0.009,0.0191 0.003,0.0422 -0.0173,0.0528 -0.0484,0.0275 -0.0764,0.0835 -0.0657,0.1403 0.0111,0.0639 0.0657,0.1101 0.13097,0.11099 0.0808,8.9e-4 0.15273,-0.0324 0.21755,-0.0626 0.10832,-0.0493 0.14739,-0.067 0.23752,-0.007 0.0701,0.0475 0.10744,0.13053 0.0963,0.21444 -0.0244,0.18425 -0.27304,0.1807 -0.27038,0.32943 4.5e-4,0.0626 0.0395,0.11543 0.0968,0.13408 z m -18.44651,76.18614 c -14.10803,0 -26.83754,-5.88793 -35.87499,-15.33783 -0.41201,-0.4311 -0.92968,-1.5246 -0.93323,-1.67288 -0.0102,-0.34497 -0.0799,-0.69038 -0.20644,-1.01181 -0.10656,-0.27215 -0.2322,-0.5412 -0.35562,-0.8098 -0.41645,-0.90792 1.45666,-1.06065 1.97699,-1.91307 0,-0.002 0,-0.002 0,-0.003 0.04,-0.0781 0.35385,-0.1181 0.73078,0.15095 0.30101,0.21488 0.73699,-0.28192 0.69703,-0.45596 -0.12475,-0.55674 -0.12564,-0.64775 -0.0573,-1.15432 0.11721,-0.8653 -0.11987,-3.00967 -0.22109,-3.29959 -0.3423,-0.97895 -0.41556,-1.47487 -0.42044,-1.7115 -0.003,-0.17448 0.46394,-0.3059 0.54786,-0.5967 0.17004,-0.58693 1.17074,-1.6751 1.48019,-2.19898 0.2686,-0.45418 0.48304,-0.96874 0.41777,-1.49218 -0.14739,-1.17652 -3.89672,-5.47149 -4.95914,-6.27019 -0.83955,-0.63044 -1.44468,-0.63488 -1.44468,-0.63665 0.0493,-0.52655 -0.1545,-1.04511 -0.54786,-1.39762 -0.14828,-0.13364 -0.25927,-0.30945 -0.36849,-0.48659 -0.1474,-0.2393 -0.40756,-0.38404 -0.68771,-0.38404 -0.28103,0 -0.54209,0.14385 -0.6886,0.38226 0,0 -8.9e-4,0 -8.9e-4,8.9e-4 0.25129,-0.84044 0.26372,-0.87906 -0.40134,-1.69597 -0.3574,-0.43775 -0.40313,-0.39646 0.0271,-1.20271 0.0626,-1.10105 -2.09332,-4.6164 -4.00284,-6.76921 -0.0626,-0.0697 -0.1545,-0.10656 -0.26727,-0.0861 -0.19579,-0.17937 -1.141,-3.65343 -1.351,-4.46989 -0.009,-0.0391 0,-0.0804 0.0262,-0.111 0.16649,-0.20023 0.23309,-0.46483 0.18203,-0.71923 -0.0417,-0.21133 -0.12387,-0.45595 -0.13719,-0.67039 -0.0235,-0.39647 -0.39646,-0.72101 -0.46306,-0.67439 -0.103,0.0733 -0.2131,0.0817 -0.31033,0.0413 -0.0999,-0.0404 -0.1736,-0.12698 -0.19446,-0.24951 -0.0799,-0.42932 -0.4533,-0.73833 -0.89061,-0.73788 -0.1838,0 -0.21266,-0.0382 -0.24196,-0.18203 -0.006,-0.0297 -0.007,-0.0608 -0.002,-0.0915 0.21755,-1.29328 0.36672,-1.98321 0.4968,-2.54661 0.002,-0.008 0.004,-0.0151 0.004,-0.0226 1.97434,-8.85054 6.31104,-16.80915 12.31484,-23.18012 0.0253,-0.0253 0.0599,-0.0351 0.0937,-0.0258 0.5896,0.16382 0.54564,0.036 1.04999,-0.57361 0.29214,-0.35384 0.82357,-0.48615 1.11792,-0.58915 0.29568,-0.10344 0.78405,-0.15139 0.78582,-0.15139 0.2837,-0.0528 1.09794,0.13141 1.33458,-0.0599 0.19757,-0.16027 -0.0564,-0.21577 0.0608,-0.39069 0.11099,-0.16693 0.20644,-0.34497 0.28281,-0.53054 0.0648,-0.15717 0.25928,-0.20423 0.40312,-0.29258 0.24552,-0.15095 0.009,-0.15006 -0.0382,-0.23087 -0.0364,-0.0617 0.004,-0.28769 0.0946,-0.30323 8.9e-4,0 0.002,4.5e-4 0.004,0.001 0.1292,0.11942 0.30945,0.16782 0.48038,0.12786 0.14917,-0.0337 0.202,-0.0861 0.24551,-0.17759 0.0302,-0.0635 0.0848,-0.1101 0.15184,-0.13008 8.9e-4,0 0.002,-4.5e-4 0.003,-4.5e-4 0.40313,-0.96918 -1.38918,-0.41999 -1.39007,-0.42177 -0.0719,-0.1434 0.94699,-0.46794 1.10549,-0.51367 8.9e-4,8.9e-4 0.002,10e-4 0.002,0.002 0.002,8.9e-4 0.003,0.002 0.005,0.002 0.0946,0.0257 0.17936,0.0111 0.26105,-0.0204 0.48393,-0.19047 1.0309,0.0475 1.22181,0.53143 0,4.4e-4 0,8.9e-4 0,8.9e-4 0.0519,0.13008 0.16205,0.22864 0.29746,0.26416 0.15849,0.0426 0.31744,0.0884 0.48659,0.0253 0.86974,-0.32365 1.1228,-0.0462 1.84869,-0.36805 0.002,-8.9e-4 0.004,-0.002 0.006,-0.003 0.9461,-0.42222 0.98783,-2.52042 2.27357,-3.67252 0.12653,-0.11322 0.26283,-0.21666 0.40668,-0.30723 0.23486,-0.14829 0.38847,-0.37782 0.55229,-0.59625 0.079,-0.103 0.16561,-0.20645 0.25662,-0.29924 0.1101,-0.11188 0.13097,-0.2837 0.0502,-0.41778 -0.0835,-0.13807 -0.24951,-0.20023 -0.40224,-0.15006 -0.10833,0.0351 -0.31211,0.10345 -0.37293,0.01 -0.0217,-0.0333 -0.0217,-0.0764 -0.002,-0.1101 0.0453,-0.0755 0.16649,-0.23131 0.1767,-0.30324 0.008,-0.0595 0.0382,-0.1141 0.0848,-0.15317 0.0608,-0.0511 0.12831,-0.0959 0.19845,-0.13319 0.66773,-0.3494 1.34212,-0.68549 2.02717,-1.00603 0.1101,-0.0515 0.2393,-0.0275 0.32365,0.0559 0.17937,0.17625 0.31478,-0.04 0.48127,-0.22066 0.20556,-0.22464 0.45862,-0.40401 0.73876,-0.52388 0,-4.4e-4 8.9e-4,-4.4e-4 8.9e-4,-8.9e-4 -0.0355,0.0302 -0.0675,0.0635 -0.0937,0.10389 0,0.24463 -0.32099,0.38403 -0.0755,0.45063 0.079,0.0213 0.27393,-0.15628 0.29835,-0.16826 0.0275,-0.0142 0.0564,0.003 0.0173,0.0693 0.20645,-0.107 0.49236,-0.35518 0.73521,-0.58338 0.2877,-0.27216 0.63133,-0.48792 1.00249,-0.62778 0.412,-0.15672 0.3978,-0.0275 0.30545,-0.003 -0.12742,0.0342 -0.24196,0.10033 -0.34585,0.31255 -0.0311,0.0648 -0.21311,0.23708 -0.27127,0.28681 0,0 0.48837,-0.20601 0.87329,-0.27216 0.10922,-0.0195 0.22998,-0.0932 0.42044,-0.21577 0.0519,-0.0337 0.0599,0.007 0.0972,0.052 0.04,0.0488 0.30678,-0.0679 0.36006,-0.12209 0,-4.5e-4 0,-4.5e-4 8.9e-4,-4.5e-4 0.0346,-0.0368 0.0435,-0.0919 0.02,-0.13763 -0.0311,-0.0608 -0.19357,-0.0266 -0.1474,-0.11365 0.0382,-0.0728 0.16649,-0.0213 0.23397,-0.0715 0.0164,-0.0124 0.009,-0.0391 -0.012,-0.0417 -8.9e-4,-0.002 -8.9e-4,-0.004 -8.9e-4,-0.006 -0.009,-0.0298 0,-0.0622 0.0217,-0.0839 0.0444,-0.0444 0.39958,-0.214 0.38848,-0.26461 -0.002,-0.002 -0.002,-0.003 -0.002,-0.004 1.70573,-0.56385 3.33776,-1.09883 5.13495,-1.39407 0.36495,-0.0604 0.36317,0.31078 0.18914,0.37205 -0.40224,0.13851 -0.85687,0.14295 -1.19473,0.43464 -0.0293,0.0253 -0.0373,0.0675 -0.0182,0.10167 0.0182,0.0337 0.0582,0.0502 0.0963,0.0391 0.0684,-0.0204 0.1918,-0.0653 0.48659,-0.17537 0.0511,-0.0191 0.11366,0.016 0.10567,0.071 -0.004,0.0204 -0.0164,0.0382 -0.0364,0.0462 -0.14474,0.0639 -0.3059,0.091 -0.44664,0.16471 -0.0275,0.0147 -0.0426,0.0457 -0.0373,0.0764 0.0138,0.0746 -0.0528,0.21887 -0.009,0.26061 8.9e-4,4.4e-4 8.9e-4,8.9e-4 8.9e-4,0.002 -0.0102,0.0129 -1.43402,0.98251 -1.97256,1.01714 -8.8e-4,0 -0.002,4.4e-4 -0.003,4.4e-4 -0.64597,0.0284 -1.24267,0.28814 -1.41937,0.43465 -0.17847,0.14829 -0.37382,0.27437 -0.58116,0.37782 -0.43509,0.21621 -0.82356,0.58337 -1.07707,0.85952 -0.12919,0.14119 0.0981,0.19224 0.27571,0.26195 0,0 0.12298,0.0391 -0.0657,0.0657 -0.71435,0.0977 -1.32658,0.90304 -1.51128,1.17208 -0.0355,0.0515 -0.0355,0.11943 -8.8e-4,0.17004 8.8e-4,0.002 0.003,0.004 0.004,0.006 -0.33032,0.3272 -0.36228,0.35828 -0.60513,0.85286 -0.0155,0.0306 -0.0102,0.0679 0.0129,0.0937 0.0302,0.0351 0.42132,0.0582 0.45595,0.12742 0.0528,0.10344 -0.15095,0.19313 -0.10566,0.27748 0.012,0.024 0.0337,0.04 0.0599,0.0453 0.0626,0.0133 -0.19668,0.2686 -0.23309,0.32321 -0.0599,0.0906 0.0191,0.3272 0.1545,0.32143 0.13719,-0.005 0.22554,-0.0897 0.35474,-0.23886 0,0 0.35207,-0.19623 0.5887,-0.3938 0.23087,-0.1909 0.6997,-0.2464 0.87329,-0.57361 0.0946,-0.17803 0.26638,-0.29346 0.40756,-0.32365 0.0617,-0.0124 0.1221,0.0217 0.14385,0.0808 0.0182,0.0813 1.1006,-0.39779 1.06242,-0.58604 -0.0337,-0.17537 0.0666,-0.19312 0.17936,-0.14429 0.079,0.0329 0.14385,0.009 0.19491,-0.0337 0.32498,-0.27082 0.81779,-0.5998 1.22713,-0.49458 0.0999,0.0253 0.20467,0.0111 0.29302,-0.0395 0.41023,-0.23397 0.45596,-0.12386 0.35828,-0.0861 -0.10655,0.0413 -0.40667,0.15007 -0.34674,0.2473 0.0155,0.0244 0.0453,0.0342 0.0719,0.024 0.17582,-0.0693 0.36006,-0.10567 0.54875,-0.10877 0.26194,-0.004 0.64864,-0.0471 0.99361,-0.23131 0.0147,-0.008 0.0302,-0.0155 0.0462,-0.0235 0.003,-0.002 0.006,-0.003 0.009,-0.004 0.81957,-0.416 1.15743,-0.68949 1.33013,-0.57272 0.0528,0.036 0.0826,0.0981 0.0772,0.16249 8.9e-4,4.4e-4 0.002,8.9e-4 0.003,0.002 0.13452,0.0946 0.27748,0.003 0.43775,-0.0382 0,0 0.13186,0.13408 0.62511,0.12742 -0.1172,0.30146 5.05016,-0.8209 8.32089,-3.53133 0.89593,-0.74232 1.8922,-1.42914 2.88669,-2.04449 5.40312,0.29569 10.57448,1.45223 15.38134,3.3391 0.1585,0.0631 0.25218,0.22776 0.22643,0.39691 -0.0391,0.24596 -0.32676,0.31522 -0.34941,0.37427 -0.0684,0.18025 0.39647,0.41644 0.53232,0.55363 0.0755,0.0759 0.0781,0.19712 0.006,0.27615 -0.002,0.001 -0.004,0.003 -0.006,0.001 -0.22997,-0.055 -0.47238,0.004 -0.6513,0.15894 -0.17448,0.1514 -0.42133,0.25706 -0.56606,0.31034 -0.0857,0.0315 -0.1656,0.0804 -0.23309,0.14251 0,4.5e-4 0,8.9e-4 0,8.9e-4 -0.0808,-0.024 -0.16648,-0.0217 -0.24551,0.008 -0.3241,0.11987 -0.50968,0.73432 -0.44397,0.96119 0.0262,0.0884 0.008,0.18558 -0.0519,0.25972 -0.0755,0.095 -0.20201,0.13186 -0.31655,0.0928 -0.0675,-0.0235 -0.2575,0.13852 -0.16471,0.20911 0.10921,0.0826 -0.0408,0.14252 -0.15273,0.22066 -0.0537,0.0382 -0.12475,0.0511 -0.19268,0.0306 -0.39647,-0.12031 -0.37294,-0.21932 -0.49414,0.0897 -0.0564,0.14474 -0.13541,0.28148 -0.2322,0.40402 -0.0617,0.0777 -0.0546,0.19046 0.0182,0.26016 0.58249,0.56207 -0.2575,0.4715 -0.55851,0.3352 -0.27304,-0.12342 -0.43198,0.34008 0.0737,0.3423 0.13807,8.9e-4 0.26949,0.0595 0.36228,0.16294 0,-4.5e-4 0,-4.5e-4 0,-4.5e-4 0.26016,0.2877 -0.33653,0.19357 -0.70414,0.0639 -0.313,-0.111 -0.61046,-0.27393 -0.87062,-0.48038 -0.16472,-0.13097 -0.2282,-0.35251 -0.15628,-0.55008 0.071,-0.19757 0.26194,-0.32721 0.47238,-0.32188 0.30368,0.008 0.56296,-0.2171 0.59847,-0.51855 0.0355,-0.3019 -0.1656,-0.58027 -0.46306,-0.64199 -0.73033,-0.15272 -1.54279,-0.0586 -2.21896,-0.37204 -0.58338,-0.26949 -1.06819,-0.22154 -1.21648,-0.41822 -0.0644,-0.0852 -0.0901,-0.19357 -0.0737,-0.29879 -0.31477,-0.0608 -0.51323,-0.099 -0.64864,-0.12653 -0.12919,-0.0266 -0.52477,-0.0324 -1.06464,0.13629 -1.16631,0.37027 -2.27179,1.45223 -2.27179,1.45223 0,0 -0.22199,0.37915 -0.43687,0.62555 -0.19579,0.22421 -0.34407,0.49547 -0.56295,0.69837 -0.0866,0.0799 -0.14562,0.18469 -0.16827,0.29923 0,8.9e-4 -8.8e-4,10e-4 -8.8e-4,10e-4 -0.002,4.4e-4 -0.003,8.8e-4 -0.004,8.8e-4 -0.11366,0.0329 -0.2029,0.1221 -0.23487,0.2362 -0.14207,0.50568 -0.53942,1.25909 -2.67269,2.15547 0,4.4e-4 -8.9e-4,4.4e-4 -8.9e-4,4.4e-4 -0.626,0.26461 -1.0198,0.89283 -0.98606,1.57166 0.0346,0.67883 0.49014,1.26487 1.13923,1.46465 0.80625,0.24863 0.99183,-0.64331 1.90418,-0.3716 0.34231,0.10212 0.61757,0.36139 0.73788,0.69881 0.15006,0.41644 0.35473,0.66107 0.37294,1.19339 0.18203,0.18159 0.71612,0.58293 0.77961,0.31034 0.15095,-0.64598 0.80447,-0.22154 1.08639,-0.75786 0.24108,-0.4604 -0.12031,-0.94477 0.0564,-1.40827 8.9e-4,-0.004 0.003,-0.007 0.004,-0.0102 0.22199,-0.5452 0.27926,-1.13657 0.16738,-1.71373 -0.0519,-0.26904 0.0164,-0.6775 0.14562,-1.45267 0.0511,-0.30234 0.64509,-0.45951 0.78716,-0.68194 0.24729,-0.38581 -0.1656,-1.12235 0.45019,-1.26043 0.30767,-0.0684 0.86085,0.0737 0.93233,0.39247 0.0271,0.11322 0,0.2322 -0.0719,0.32366 -0.17448,0.22243 -0.25306,0.52743 -0.40934,0.76585 -0.31388,0.48037 -0.38137,1.08328 -0.18114,1.62093 0.17271,0.46306 0.45196,0.88261 0.89416,0.91813 0.12653,0.0102 0.25395,-0.0217 0.3605,-0.0915 8.9e-4,-4.4e-4 8.9e-4,-4.4e-4 0.002,-8.9e-4 8.9e-4,-8.8e-4 0.002,-0.001 0.003,-0.001 0.002,-4.4e-4 0.002,-4.4e-4 0.003,-8.9e-4 l 0.63488,-0.22242 c 0.52566,-0.18381 1.09261,-0.21977 1.63736,-0.10167 0.052,0.0111 0.0937,0.0502 0.10655,0.10167 0.0138,0.0511 -0.004,0.10566 -0.0426,0.14118 -0.65796,0.58515 -0.78316,0.19623 -1.47486,0.32321 -0.23664,0.0426 -0.41867,0.23308 -0.4493,0.47194 -0.0271,0.21488 0.0746,0.42355 0.25484,0.53631 0.0355,0.0222 0.0564,0.0631 0.0528,0.10434 0,0.001 -8.9e-4,0.002 -8.9e-4,0.004 -0.0146,0.20867 -0.14562,0.39203 -0.33831,0.47327 -0.14562,0.0626 -0.30856,0.0586 -0.44841,-0.005 -0.10832,-0.0484 -0.23397,-0.0382 -0.33475,0.0275 -0.19757,0.13052 -0.12653,0.22553 -0.1656,0.39824 -0.0608,0.27659 -0.0462,0.56517 0.0466,0.83333 0,4.4e-4 0,4.4e-4 0,4.4e-4 0.15095,0.44042 -0.6624,1.22891 -0.99183,1.16853 -0.66862,-0.12298 -1.35944,-0.0173 -1.95968,0.30146 -0.28459,0.15095 -0.63222,0.10611 -0.86885,-0.11099 -8.9e-4,-0.002 -0.003,-0.003 -0.004,-0.004 -0.15761,-0.14473 -0.008,-0.20955 -0.20556,-0.33342 -0.0417,-0.0262 -1.08551,0.41023 -1.13168,0.42621 -0.0484,0.0178 -0.10167,0.012 -0.14385,-0.0151 -0.0435,-0.0271 -0.0719,-0.0724 -0.0772,-0.12253 0,-0.002 0,-0.004 -8.8e-4,-0.006 -0.0355,-0.30146 -1.39096,-0.26239 -0.33387,-1.4358 0.002,-0.002 0.003,-0.004 0.005,-0.005 0.10922,-0.12032 0.1585,-0.28547 0.13275,-0.44663 -0.0417,-0.2686 0.0129,-0.52433 -0.23664,-0.63 -8.9e-4,0.001 -0.002,0.002 -0.003,0.003 -0.55319,0.57805 -0.81868,1.37808 -0.71701,2.17235 0.0675,0.88305 -0.35473,0.73432 -0.67617,0.72544 -0.1363,-0.004 -0.26638,0.0528 -0.35384,0.15539 -8.9e-4,10e-4 -0.003,0.003 -0.004,0.004 -0.12831,0 -0.31122,0 -0.61934,0.0293 -0.13097,0.012 -0.25129,0.0795 -0.3312,0.1838 -0.009,0.0111 -0.0129,0.0262 -0.0102,0.0395 0.0111,0.0741 -0.0364,0.14384 -0.10922,0.16116 -0.23752,0.0559 -0.45418,0.17004 -0.63576,0.33342 -0.42133,0.38181 -0.63754,0.54209 -1.07796,0.78805 -0.30945,0.17181 -0.58116,0.39424 -0.81247,0.66151 -0.0972,0.11188 -0.30367,0.23397 -0.79159,0.51057 -0.0453,0.0253 -0.0772,0.0684 -0.0892,0.11898 -0.0244,0.10522 -0.11189,0.18514 -0.21844,0.20112 -0.43376,0.0622 -0.5594,-0.0435 -0.80891,-0.20689 -0.12742,-0.0844 -0.22643,0.0906 -0.1949,0.20423 8.8e-4,0.002 0.002,0.004 0.002,0.006 0.0302,0.10921 0.009,0.22642 -0.0564,0.31877 -0.0666,0.0919 -0.17182,0.14873 -0.28548,0.1545 -0.29923,0.0142 -0.59936,-0.0488 -0.86618,-0.18425 -0.0244,-0.0115 -0.0511,-0.0142 -0.0764,-0.006 -0.43509,0.13896 -0.69126,0.66062 -0.58338,0.67217 0.75075,0.0812 0.73788,0.21222 1.03889,0.40312 0.3574,0.22643 0.18469,0.92302 0.72678,0.98162 0.003,4.4e-4 0.005,4.4e-4 0.009,8.9e-4 0.0675,0.006 0.12298,0.55496 0.1363,0.62378 0.009,0.0515 -0.0129,0.103 -0.0564,0.1323 -0.16205,0.107 -0.26949,0.27926 -0.29569,0.4715 -0.0484,0.36449 -0.0111,0.75208 -0.25661,1.06464 -0.103,0.13274 -0.33919,0.37515 -0.61756,0.26904 -0.29658,-0.11321 -0.61401,-0.18025 -0.93145,-0.1949 -1.31105,-0.0617 -2.07956,-0.34008 -2.46359,-0.53543 -0.28281,-0.1434 -0.62778,-0.0755 -0.83422,0.1656 -0.0919,0.004 -0.20378,0.009 -0.31034,0.0142 -0.19357,0.0111 -0.32942,0.19446 -0.28458,0.38137 0.10211,0.42577 0.103,0.85864 -0.39558,2.13372 -0.0191,0.0497 -0.0462,0.11676 -0.071,0.16338 -0.16116,0.30145 -0.74409,0.89105 -0.60247,1.04732 0.0155,0.0173 0.0382,0.0275 0.0626,0.0275 0.12032,0.003 0.2282,0.079 0.27216,0.19224 0.0364,0.0968 0.0435,0.20201 0.0182,0.30234 -0.0409,0.16605 -0.22199,0.74543 -0.15006,0.88883 0.0417,0.0804 0.11365,0.13941 0.20111,0.16471 0.12654,0.0373 0.21267,0.13808 0.32188,0.20467 0.0817,0.0475 0.34674,-0.0675 0.5048,-0.13629 0.1172,-0.0493 0.19002,-0.0821 0.44841,0.21576 0.24018,0.27482 0.0528,0.91059 0.56029,0.92124 0.13852,8.9e-4 0.21665,-0.13363 0.25128,-0.2131 0.0373,-0.0888 0.0373,-0.0888 1.01447,-0.3019 0.43376,-0.0955 0.85332,0.17803 1.28752,0.0475 0.33298,-0.10167 0.35029,-0.54164 0.68948,-0.63754 0.22465,-0.0644 0.46484,0.0608 0.68683,-0.0537 0.11987,-0.0648 0.009,-0.42887 0.14029,-0.54475 0,-4.4e-4 8.9e-4,-8.9e-4 0.002,-8.9e-4 0.20112,-0.17359 0.28103,-0.45063 0.20112,-0.70458 -0.0373,-0.12165 -0.0293,-0.1585 -0.0111,-0.24551 0.0226,-0.10523 0.34185,-0.28814 0.52477,-0.71036 0.0164,-0.0355 0.0346,-0.0688 0.0582,-0.0906 0.59936,-0.54741 1.41005,-0.67527 2.08799,-1.06375 0.59581,-0.34186 0.18025,-1.26132 0.8835,-1.54102 0.65131,-0.25883 1.13434,0.6442 1.80341,0.26239 0.70946,-0.4049 1.59207,-0.9097 1.77854,-0.91769 0.19268,-0.009 0.36672,0.0386 0.51412,0.10567 0.22376,0.10255 0.41378,0.26949 0.54386,0.47904 0.64331,1.03445 1.87045,1.47354 2.61765,2.40055 0.11277,0.13896 0.68327,0.47993 0.89993,0.68327 0.35206,0.32898 0.15095,-0.0994 0.45595,0.42976 0.002,0.002 0.004,0.005 0.004,0.008 0.15007,0.23131 0.41378,0.63932 0.16383,0.74498 -0.17537,0.0728 -0.17271,0.12565 -0.17093,0.18603 0.004,0.13363 -0.10922,0.25794 -0.0275,0.39691 0.0235,0.0391 0.11188,0.15982 0.30012,0.0684 0.22288,-0.11455 0.1403,-0.15539 0.22909,-0.32765 0.25306,-0.50702 0.20556,-0.46262 0.20556,-0.46262 0.0737,-0.055 0.21666,-0.009 0.24108,-0.13852 0.0582,-0.30545 -0.15717,-0.4089 -0.29835,-0.47505 -0.0892,-0.0444 -0.25839,-0.12342 -0.15717,-0.38492 0.003,-0.007 0.005,-0.0133 0.009,-0.02 0,-0.002 0.002,-0.004 0.003,-0.007 0.10656,-0.22953 0.3756,-0.33253 0.60869,-0.23397 0.17004,0.0733 0.30101,0.10833 0.36405,0.28458 0.0111,0.0315 0.0182,0.0622 0.0173,0.0857 -0.004,0.0772 -0.006,0.14962 0.0275,0.17981 0.0475,0.0435 0.20822,0.007 0.25218,-0.0755 0.0271,-0.0466 0.0591,-0.20467 0.0564,-0.25395 0,-0.002 0,-0.002 0,-0.003 0,-10e-4 0,-0.004 -8.9e-4,-0.006 -8.9e-4,-0.008 -0.004,-0.0147 -0.008,-0.0209 -0.41955,-0.65796 -1.20272,-0.70858 -1.80607,-1.05665 -0.0675,-0.0386 -0.11011,-0.10655 -0.11721,-0.17892 -0.0164,-0.15095 -0.14385,-0.26505 -0.29568,-0.26416 -0.37027,0.004 -0.71879,-0.1767 -0.92968,-0.4826 l -1.26753,-1.84469 c -0.0528,-0.0768 -0.103,-0.15717 -0.14917,-0.23975 -0.0835,-0.1505 -0.0111,-0.33519 0.14295,-0.39424 0.009,-0.004 0.0191,-0.008 0.0302,-0.0102 0.24463,-0.0733 0.50835,0.0231 0.64864,0.23663 0.0702,0.107 0.1403,0.22687 0.26727,0.21888 0.15451,-0.009 0.3059,0.0351 0.43199,0.12564 l 2.179,1.58897 c 8.9e-4,0.001 0.002,0.002 0.003,0.002 0,0 0.18558,0.0395 0.46395,0.22554 0.0599,0.0395 0.13008,0.0586 0.19934,0.0555 0.10922,-0.005 0.21577,0.0311 0.30101,0.10033 0.33032,0.26683 0.54387,0.65131 0.59404,1.07308 0.0226,0.18869 0.0364,0.3605 0.0462,0.48259 0,4.5e-4 0,4.5e-4 0,8.9e-4 0.0102,0.15717 0.0919,0.30101 0.22109,0.39203 0.0591,0.0417 0.13364,0.0981 0.17581,0.14207 0.0528,0.0564 0.0626,0.0728 0.16205,0.24196 0.04,0.0706 0.2948,0.29702 0.31744,0.31655 8.9e-4,8.9e-4 0.003,0.002 0.004,0.003 0.0102,0.009 0.0391,0.0275 0.0857,0.0275 0.002,0 0.004,0 0.006,0 0.0781,0.001 0.15184,-0.0306 0.2282,-0.0266 0.23664,0.0142 0.58871,0.313 0.86042,0.17803 0.0253,-0.012 0.30856,-0.17759 0.30856,-0.17759 l 0.004,-0.003 c 0.65885,-0.30367 -0.15451,-0.61312 -0.18114,-0.91413 -0.009,-0.10877 0.0302,-0.18824 0.10211,-0.23752 0.0684,-0.0462 0.15628,-0.0568 0.24463,-0.0151 0.0493,0.0222 0.10833,0.016 0.15272,-0.0155 8.9e-4,0 8.9e-4,0 8.9e-4,0 0.0537,-0.0386 0.0901,-0.0954 0.10389,-0.15938 0.071,-0.34541 0.42665,-0.44664 0.77517,-0.44664 0.29213,0 0.58027,0.0737 0.83511,0.21533 0.103,0.0577 0.22287,0.0852 0.34319,0.0786 0.22731,-0.0133 0.44308,-0.091 0.626,-0.22598 0.0857,-0.0635 -0.10922,0.17004 -0.53943,0.33298 -0.004,0.002 -0.007,0.003 -0.0102,0.004 -0.18025,0.0737 -0.27926,0.26549 -0.23575,0.45418 0.0875,0.37915 0.87862,0.7543 0.36051,1.24267 -0.006,0.006 -0.012,0.0115 -0.0191,0.0169 8.9e-4,4.5e-4 0.002,4.5e-4 0.003,8.9e-4 0.28769,0.11721 0.52788,0.32365 0.68771,0.59092 0.52388,0.87862 2.27978,1.15433 2.43384,0.78006 8.9e-4,-10e-4 8.9e-4,-0.003 0.002,-0.004 0.0773,-0.20067 0.30279,-0.3019 0.50391,-0.22554 0.40046,0.15184 0.75963,0.45108 1.21914,0.4049 0.26016,-0.0275 0.45018,-0.12342 0.60602,-0.25705 0.43198,-0.37072 0.9714,-0.5967 1.53924,-0.6411 0.005,0 0.0102,0.002 0.0129,0.006 0.004,0.004 0.005,0.009 0.004,0.0133 -0.28547,1.67599 1.58009,3.53756 -0.26017,5.05771 -0.14562,0.12032 -0.4049,0.18114 -0.59048,0.21444 -1.66044,0.29302 -3.34176,0.0302 -5.00753,0.14296 -0.96253,0.0648 -1.10194,-0.27971 -1.40295,-0.28503 -0.002,0 -0.004,0 -0.004,0 -0.003,0 -0.006,0 -0.009,0 -0.32498,0.007 -0.3867,0.007 -0.87151,-0.10345 -0.30101,-0.0684 -1.10549,-1.22402 -2.20254,-0.33076 -0.31388,0.25617 -0.50213,0.58915 -0.49236,0.78006 0.1363,2.74196 -3.23876,0.72589 -3.48916,0.42488 -0.38492,-0.4604 -0.89815,-0.79693 -1.47487,-0.96342 -0.63488,-0.18336 -1.39939,-0.43242 -1.88243,-0.6846 -0.36583,-0.19179 -0.80803,-0.30767 -0.99538,-0.31788 -0.0675,-0.0102 -0.10167,-0.34363 0.10477,-0.55186 0.54564,-0.55007 0.71613,-0.77117 0.54298,-1.0633 -0.45596,-0.76718 -0.15628,-0.70014 -0.55763,-1.21959 -8.8e-4,-10e-4 -0.003,-0.004 -0.004,-0.005 -0.14118,-0.18247 -0.36405,-0.28326 -0.5958,-0.26816 -6.81983,0.43465 -8.28715,0.63266 -9.63282,1.27774 -0.11899,0.0559 -0.36139,0.17182 -0.74143,0.005 -0.29125,-0.12831 -0.62067,-0.1403 -0.9208,-0.0355 -0.4413,-0.29169 -1.01979,-0.26283 -1.43002,0.0702 l -2.22074,1.80474 c -0.22465,0.18247 -0.42133,0.40268 -0.57672,0.64686 -0.40046,0.6331 -0.37471,1.10726 -0.36317,1.33546 0.0364,0.71169 -1.99697,2.02229 -3.07227,1.89975 -0.002,-4.4e-4 -0.003,-4.4e-4 -0.005,-4.4e-4 0,-0.001 0,-0.001 0,-0.001 -0.49236,0.19801 -0.91635,0.37072 -3.38793,3.81681 -1.35722,1.89132 -1.35722,1.89132 -1.08373,2.41609 0.14828,0.28148 0.44752,0.8542 0.22109,2.42496 -0.0129,0.10167 -0.0337,0.20512 -0.0582,0.30545 -0.012,0.0471 -0.0262,0.0963 -0.04,0.14208 l -0.95143,3.16106 c -0.26638,0.88261 -0.091,1.84514 0.46928,2.57725 0.004,0.004 0.006,0.008 0.009,0.0129 l 0.20733,0.39114 c 0.0346,0.0644 0.0675,0.13275 0.0972,0.19934 0.20379,0.46129 0.48837,3.04297 1.25111,4.21594 0.11987,0.18292 0.25839,0.35296 0.41556,0.50746 l 2.40543,2.36547 c 0.4231,0.41556 1.26265,0.69881 1.84425,0.81069 1.71683,0.32943 3.53888,0.3423 5.22686,0.97984 0.0826,0.0302 0.19357,0.0728 0.28103,0.0772 1.95524,0.13186 3.55886,-1.49484 5.4524,-1.62848 0.44485,-0.0302 1.351,0.26017 1.58097,1.58586 0.17093,0.98695 1.69508,0.67484 2.41342,0.46395 0.32499,-0.0946 0.67395,-0.0772 0.98873,0.0511 0.003,8.9e-4 0.004,0.003 0.005,0.006 0,0.002 0,0.005 8.8e-4,0.008 0.0217,0.214 0.21089,0.37116 0.42577,0.35296 0.006,0 0.0129,0 0.0191,-8.9e-4 0.12298,-0.0129 0.24374,0.0453 0.31122,0.1474 0.39203,0.59226 0.31567,0.9754 0.25573,1.26176 0,8.9e-4 0,8.9e-4 0,0.002 -0.002,0.004 -0.002,0.007 -0.003,0.0102 l -0.0209,0.0963 c 0,0.004 -8.9e-4,0.007 -0.002,0.0111 -0.0155,0.071 -0.0275,0.14474 -0.0382,0.21755 -0.19845,1.45222 -0.0781,2.12795 -0.75075,2.66648 -0.0728,0.0591 -0.12831,0.13275 -0.1656,0.21843 0.72944,1.49663 2.32063,2.25626 2.32063,2.25626 0.23308,0.24818 1.60495,2.61276 1.75057,3.65654 0.22287,1.58852 0.22287,1.28662 0.26372,1.35544 0.70147,1.14722 0.0883,1.68753 -0.34008,1.90596 -0.13008,0.0675 -0.19668,0.11898 -0.2322,0.18913 -0.0644,0.12565 -0.13852,0.25129 -0.21932,0.36672 -0.0702,0.0999 -0.94788,2.47025 -0.94344,2.96128 0,8.9e-4 0,0.002 0,0.003 0.004,0.45108 0.74943,0.88439 1.01092,1.25022 l 1.68753,2.35615 c 0.0284,0.0408 0.0599,0.0817 0.091,0.12032 0.58249,0.7361 -0.31477,1.77677 0.20734,2.51553 0.17004,0.24108 0.58604,1.20805 0.80447,1.359 0.3423,0.23574 1.77411,2.30464 1.34923,2.65582 -0.0453,0.0373 -0.0391,0.13808 -0.02,0.19446 0.1283,0.36939 1.86245,0.95809 2.50354,0.68416 0.95232,-0.40668 2.94841,-0.725 3.76265,-0.71879 1.12457,0.009 6.53923,-3.87364 6.11258,-5.21132 -0.006,-0.0173 -0.007,-0.0364 -0.004,-0.0537 0,-8.9e-4 0,-8.9e-4 0,-0.002 0.6331,-0.74765 2.47025,-1.66667 2.42097,-1.76123 -0.002,-8.9e-4 -0.003,-0.003 -0.004,-0.004 0.23841,-0.52788 0.32099,-0.96697 0.32409,-1.3146 0.0111,-0.9461 0.46573,-1.83137 1.22625,-2.39255 0.64864,-0.48038 1.59385,-1.16453 2.98037,-2.16879 0.8653,-0.626 1.30172,-1.07086 1.22713,-3.77286 -0.0675,-2.47913 -0.50967,-4.41351 -0.65707,-4.83173 -0.20822,-0.58604 -0.15006,-0.69437 0.0839,-1.13079 0.69525,-1.2844 1.63869,-2.41742 2.30465,-3.7218 1.05798,-2.07334 2.35792,-3.29159 3.0696,-3.95133 0.0311,-0.0293 0.0599,-0.0591 0.0875,-0.091 1.28841,-1.51038 2.02895,-3.55176 2.49734,-5.46704 0.0999,-0.40579 0.2575,-0.7916 0.37648,-1.19073 0.0892,-0.3019 0.22021,-0.56118 0.3796,-2.12262 0.0275,-0.26727 -0.12032,-0.50657 -0.10744,-0.77162 0.0591,-1.02912 -0.29391,-0.12121 -0.59581,0.0235 -0.76896,0.36494 -0.35296,0.23663 -0.68771,0.45418 -0.16294,0.10211 -1.40472,0.5412 -1.5539,0.67972 -0.17581,0.16205 -0.34097,0.34319 -0.59403,0.37648 -1.52859,0.1918 -1.79941,0.22554 -2.0689,-0.0244 -0.25573,-0.23575 -0.41777,-0.53144 -0.48659,-0.8724 -0.071,-0.3574 -0.25217,-0.68949 -0.52655,-0.9461 -1.46377,-1.36566 -4.33226,-2.25315 -5.01109,-5.95764 -0.103,-0.55629 -4.17864,-6.44289 -5.01553,-7.63362 -0.0937,-0.13319 -0.12386,-0.30057 -0.0826,-0.45773 0,-0.002 0,-0.004 8.9e-4,-0.006 0.1585,0.4049 0.7916,1.12857 1.17741,1.52725 0.11099,0.1141 0.26549,0.16649 0.39202,0.071 0.15095,-0.11499 0.0511,-0.28459 0.0817,-0.82312 0.009,-0.1545 0.2322,-0.1656 0.25751,-0.0138 0.0564,0.33652 0.21932,0.64331 0.46483,0.88039 0.5412,0.52211 1.20094,1.49041 1.6347,2.17234 0.26638,0.41733 0.62689,0.75786 1.05887,1.0016 0.61845,0.3494 0.80403,0.92079 1.24534,2.27623 0.52388,1.6054 2.40276,1.98855 3.09757,3.439 0.58782,1.22269 0.74499,2.61675 1.49219,3.77729 0.005,0.009 0.0102,0.0164 0.0155,0.0244 0.0954,0.1292 0.25839,0.18913 0.41467,0.15273 1.137,-0.26727 2.45559,-1.68975 2.78191,-1.94415 0.68594,-0.53454 1.18363,-0.93589 1.54946,-1.244 0.49858,-0.41867 0.84443,-0.98384 0.9936,-1.61783 0.12476,-0.5341 0.93722,-1.0016 1.18185,-1.00293 0.63488,-0.005 0.34941,-0.82978 0.6149,-1.19916 0.28281,-0.39025 0.30368,-0.82623 0.62866,-1.17208 0.10389,-0.11099 0.22643,-0.20112 0.36317,-0.2686 0.0138,-0.007 0.0235,-0.0195 0.0262,-0.0346 0.0799,-0.41645 -0.18114,-0.79648 -0.1767,-1.20538 8.8e-4,-0.10522 0.099,-0.18647 0.20378,-0.1656 0.004,8.9e-4 0.008,0 0.0102,-0.002 0.004,-0.002 0.005,-0.006 0.006,-0.009 0.22553,-1.28573 0.65885,-2.37124 -0.4786,-2.90489 -0.44753,-0.21311 -0.99006,0.12209 -1.41183,-0.24063 -0.003,-0.002 -0.005,-0.004 -0.008,-0.006 -0.22998,-0.1989 -0.54031,-0.27926 -0.83866,-0.21799 -0.29835,0.0622 -0.55053,0.25795 -0.68416,0.53143 -8.9e-4,0.003 -0.002,0.005 -0.003,0.007 -0.11721,0.23708 -0.34319,0.40135 -0.60424,0.43775 -0.42399,0.0599 -0.37649,0.13586 -0.70236,0.38048 0,8.9e-4 -8.9e-4,8.9e-4 -8.9e-4,8.9e-4 -0.68949,-0.36139 -1.11703,-0.3938 -3.55087,-4.02281 -0.72678,-1.08151 0.26194,-1.62227 0.60246,-1.22669 8.9e-4,4.5e-4 0.002,-0.001 0.002,-0.001 0,-4.4e-4 0.002,-4.4e-4 0.003,-8.9e-4 0.30279,0.3281 1.5357,1.63425 2.5364,2.19233 0.34008,0.18957 1.36743,0.44929 1.55567,0.10522 0.69437,-1.27198 1.19473,-0.34985 1.29196,-0.14563 0.51145,1.08773 1.93704,0.13941 2.25448,0.15584 0.69348,0.0351 0.63132,-0.10744 2.61942,-1.23202 0.78716,-0.44663 1.73415,-0.51545 2.57902,-0.18824 0.84354,0.32676 1.49574,1.01713 1.77766,1.87755 0.89992,2.74462 1.7812,7.93774 1.7812,13.07669 -0.001,27.41382 -22.22247,49.63496 -49.63407,49.63496 z m -7.98702,-81.31045 c -0.012,-0.067 -0.0173,-0.23486 0.0191,-0.31965 0.103,-0.23264 0.34585,-0.33342 0.49236,-0.523 0.17759,-0.23042 0.14563,-0.25972 0.0839,-0.313 -0.0817,-0.0741 -0.0608,-0.13763 -0.002,-0.20911 0.0693,-0.087 0.16028,-0.15583 0.2282,-0.24418 0.0582,-0.0724 0.0684,-0.17271 0.14651,-0.23264 0.10167,-0.0804 0.17182,-0.0755 0.32366,-0.067 0.11987,0.008 0.40756,-0.51456 0.76585,-0.60647 0.34407,-0.0888 0.89504,0.57317 0.73876,0.80359 -0.032,0.0511 -0.1212,0.0635 -0.21665,0.0768 -0.0981,0.0142 -0.15451,0.0209 -0.23753,0.2686 -0.032,0.0928 0.0746,0.22065 -0.0466,0.2868 -0.10744,0.0582 -0.0217,0.17404 -0.0555,0.25529 -0.071,0.16427 -0.22287,0.36938 -0.31122,0.4817 -0.091,0.11455 -0.35385,0.0329 -0.65486,0.11544 -0.002,4.4e-4 -0.004,0.001 -0.006,0.002 -0.21843,0.0586 -0.41111,0.18202 -0.61667,0.27171 -0.22731,0.0986 -0.60469,0.19579 -0.65131,-0.0471 z"
     id="network-5-icon"
     inkscape:connector-curvature="0" />
</svg>
