<?xml version="1.0" encoding="UTF-8" standalone="no"?>
<svg
   xmlns:dc="http://purl.org/dc/elements/1.1/"
   xmlns:cc="http://creativecommons.org/ns#"
   xmlns:rdf="http://www.w3.org/1999/02/22-rdf-syntax-ns#"
   xmlns:svg="http://www.w3.org/2000/svg"
   xmlns="http://www.w3.org/2000/svg"
   xmlns:sodipodi="http://sodipodi.sourceforge.net/DTD/sodipodi-0.dtd"
   xmlns:inkscape="http://www.inkscape.org/namespaces/inkscape"
   viewBox="0 0 350 200"
   height="200"
   width="350"
   preserveAspectRatio="xMid meet"
   id="svg2"
   version="1.1"
   inkscape:version="0.48.3.1 r9886"
   sodipodi:docname="orbit-planet.svg">
  <metadata
     id="metadata13">
    <rdf:RDF>
      <cc:Work
         rdf:about="">
        <dc:format>image/svg+xml</dc:format>
        <dc:type
           rdf:resource="http://purl.org/dc/dcmitype/StillImage" />
        <dc:title></dc:title>
      </cc:Work>
    </rdf:RDF>
  </metadata>
  <defs
     id="defs11" />
  <sodipodi:namedview
     pagecolor="#ffffff"
     bordercolor="#666666"
     borderopacity="1"
     objecttolerance="10"
     gridtolerance="10"
     guidetolerance="10"
     inkscape:pageopacity="0"
     inkscape:pageshadow="2"
     inkscape:window-width="1280"
     inkscape:window-height="974"
     id="namedview9"
     showgrid="false"
     inkscape:zoom="1.0257143"
     inkscape:cx="86.310747"
     inkscape:cy="100.35051"
     inkscape:window-x="1280"
     inkscape:window-y="0"
     inkscape:window-maximized="1"
     inkscape:current-layer="svg2" />
  <rect
     width="175"
     height="200"
     x="175"
     y="0"
     fill="#144f0b"
     id="rect4" />
  <rect
     width="175"
     height="200"
     x="0"
     y="0"
     fill="#294ba7"
     id="rect6" />
  <path
     d="m 161.7943,41.63103 c -4.40632,-2.13421 -8.30419,-3.85816 -12.00042,-5.36258 5.8444,-15.51335 14.28433,-25.7392 25.20718,-25.7392 10.64091,0 18.92547,9.70299 24.74936,24.5451 -3.73683,1.57556 -7.57447,3.33093 -11.93409,5.5079 -4.46307,-11.684 -9.55461,-16.95972 -12.81527,-16.95972 -3.35668,0 -8.65204,5.59126 -13.20676,18.0085 z m 13.20676,134.74644 c -3.26066,0 -8.35133,-5.27572 -12.81439,-16.96016 -4.40109,2.19792 -8.20643,3.93496 -11.93496,5.50834 5.82476,14.84167 14.10844,24.5451 24.74935,24.5451 10.92373,0 19.36278,-10.22585 25.20806,-25.73877 -3.68314,-1.49962 -7.56792,-3.21527 -12.00043,-5.36301 -4.55472,12.41767 -9.85095,18.0085 -13.20763,18.0085 z m -35.73985,-16.51761 c -14.55537,5.25695 -36.2732,10.37861 -44.904286,-2.36552 -4.264046,-6.29656 -5.855316,-18.40173 10.777956,-40.31683 4.41287,-5.81429 9.52143,-11.52558 14.70331,-16.76769 11.62466,-11.58537 24.72056,-22.73692 41.78416,-34.28345 -8.21473,-4.44822 -17.18144,-8.70092 -25.92994,-11.86557 -8.9558,-3.24015 -16.84058,-5.03436 -22.88182,-5.03436 -3.85902,0 -6.72296,0.80436 -7.66087,2.15166 -0.99728,1.43197 -1.04659,5.83655 3.37981,13.73747 0.52417,-0.0576 1.05532,-0.0899 1.59389,-0.0899 7.95416,0 14.40261,6.44844 14.40261,14.40261 0,7.95504 -6.44845,14.40261 -14.40261,14.40261 -7.95417,0 -14.402613,-6.44757 -14.402613,-14.40261 0,-2.57588 0.680415,-4.99247 1.86492,-7.08477 -8.428145,-14.61254 -6.689794,-23.40686 -3.182104,-28.44603 2.465029,-3.54173 7.660007,-7.76388 18.406537,-7.76388 19.08258,0 44.7943,12.37577 61.34813,21.96267 16.80741,-10.16038 43.392,-23.56267 63.03105,-23.56267 10.79017,0 15.99083,4.33475 18.45324,7.97119 4.26404,6.297 5.85531,18.40217 -10.77708,40.31727 -23.40992,30.84559 -69.95566,64.16231 -105.60429,77.03781 z m 95.17636,-84.95357 c 11.42694,-15.05596 11.77697,-22.97565 10.36552,-25.05967 -0.95538,-1.41058 -3.72941,-2.21974 -7.612,-2.21974 -14.81767,0 -37.38743,10.88051 -50.3812,18.24461 9.59388,6.23546 18.55667,12.80785 26.72775,19.50942 -3.09176,3.08042 -6.33278,6.10191 -9.64626,9.02564 C 194.8208,87.07126 184.7381,79.88872 174.2866,73.4525 c -12.00217,7.72853 -24.08552,16.80697 -34.93942,26.47985 8.16366,7.08914 17.88237,14.5318 28.24876,21.41886 -3.96552,2.46765 -7.96945,4.83273 -12.53856,7.3078 -0.002,-0.001 -0.003,-0.002 -0.004,-0.003 -0.034,-0.024 -0.0672,-0.0476 -0.10126,-0.0716 -8.67866,-6.04604 -17.24385,-12.68041 -25.16616,-19.62465 -21.39442,21.45901 -27.42082,37.00816 -24.58744,41.19277 0.95538,1.41102 3.73115,2.22062 7.61287,2.22062 17.83785,0 46.15295,-15.03938 62.90406,-25.82562 20.56605,-13.24255 44.01874,-32.26708 58.72249,-51.64121 z m 18.04211,52.86456 c 1.06535,-2.00982 1.67157,-4.30115 1.67157,-6.73519 0,-7.95417 -6.44844,-14.40261 -14.40261,-14.40261 -7.95417,0 -14.40261,6.44844 -14.40261,14.40261 0,7.95504 6.44844,14.40261 14.40261,14.40261 0.66383,0 1.31631,-0.0489 1.95527,-0.13617 4.19465,7.63993 4.12569,11.9127 3.14631,13.3198 -0.93748,1.34686 -3.80098,2.15122 -7.66,2.15122 -12.15755,0 -29.09502,-7.04462 -39.99998,-12.3618 -3.64735,2.54839 -8.17457,5.57337 -12.58962,8.34566 14.61821,7.73245 36.1165,17.10942 52.5896,17.10942 10.74565,0 15.94019,-4.22214 18.40566,-7.76344 3.49983,-5.02607 5.23687,-13.78766 -3.1162,-28.33211 z"
     id="network-6-icon"
     inkscape:connector-curvature="0" />
</svg>
