<?xml version="1.0" encoding="UTF-8" standalone="no"?>
<svg
   xmlns:dc="http://purl.org/dc/elements/1.1/"
   xmlns:cc="http://creativecommons.org/ns#"
   xmlns:rdf="http://www.w3.org/1999/02/22-rdf-syntax-ns#"
   xmlns:svg="http://www.w3.org/2000/svg"
   xmlns="http://www.w3.org/2000/svg"
   xmlns:sodipodi="http://sodipodi.sourceforge.net/DTD/sodipodi-0.dtd"
   xmlns:inkscape="http://www.inkscape.org/namespaces/inkscape"
   viewBox="0 0 350 200"
   height="200"
   width="350"
   preserveAspectRatio="xMid meet"
   id="svg2"
   version="1.1"
   inkscape:version="0.48.3.1 r9886"
   sodipodi:docname="elephant.svg">
  <metadata
     id="metadata13">
    <rdf:RDF>
      <cc:Work
         rdf:about="">
        <dc:format>image/svg+xml</dc:format>
        <dc:type
           rdf:resource="http://purl.org/dc/dcmitype/StillImage" />
        <dc:title></dc:title>
      </cc:Work>
    </rdf:RDF>
  </metadata>
  <defs
     id="defs11" />
  <sodipodi:namedview
     pagecolor="#ffffff"
     bordercolor="#666666"
     borderopacity="1"
     objecttolerance="10"
     gridtolerance="10"
     guidetolerance="10"
     inkscape:pageopacity="0"
     inkscape:pageshadow="2"
     inkscape:window-width="1280"
     inkscape:window-height="974"
     id="namedview9"
     showgrid="false"
     inkscape:zoom="1.0257143"
     inkscape:cx="87.202464"
     inkscape:cy="100"
     inkscape:window-x="1280"
     inkscape:window-y="0"
     inkscape:window-maximized="1"
     inkscape:current-layer="svg2" />
  <rect
     width="175"
     height="200"
     x="175"
     y="0"
     fill="#144f0b"
     id="rect4" />
  <rect
     width="175"
     height="200"
     x="0"
     y="0"
     fill="#294ba7"
     id="rect6" />
  <g
     id="g7625"
     transform="matrix(1.5557103,0,0,1.5557103,97.214485,22.214485)">
	<rect
   id="rect7627"
   height="9.8129997"
   width="4.079"
   y="53.25"
   x="47.562" />

	<path
   id="path7629"
   d="m 47.562,94.43 c 0,0.862 -0.231,1.857 -0.695,2.984 L 43.484,100 h 12.932 v -0.199 c -0.133,0 -0.796,-0.298 -1.989,-0.895 C 52.57,98.044 51.642,96.32 51.642,93.733 V 63.063 H 47.563 V 94.43 z"
   inkscape:connector-curvature="0" />

	<path
   id="path7631"
   d="M 92.921,36.804 V 36.406 C 77.669,19.96 69.513,11.041 68.451,9.648 c -0.397,0 -4.642,1.957 -12.731,5.869 4.575,-4.841 6.863,-7.361 6.863,-7.56 3.315,-2.917 4.974,-4.774 4.974,-5.57 V 0 C 67.159,0 61.124,2.652 49.453,7.958 38.113,2.652 32.179,0 31.647,0 v 2.984 l 12.036,12.334 v 0.199 L 31.15,9.648 c -0.331,0 -2.918,2.818 -7.759,8.455 C 12.517,30.305 7.079,36.472 7.079,36.605 v 0.199 l 24.37,-9.848 h 0.397 c 0,0.066 -4.442,4.874 -13.329,14.423 -0.464,0 -0.961,2.719 -1.492,8.156 h 0.398 L 47.562,30.536 V 53.25 h 4.079 V 30.537 h 0.198 l 30.14,18.999 h 0.397 C 81.979,45.16 81.779,42.772 81.779,42.374 81.581,41.844 76.772,36.704 67.356,26.956 v -0.298 l 25.565,10.146 z"
   inkscape:connector-curvature="0" />

</g>
</svg>
