<?xml version="1.0" encoding="UTF-8" standalone="no"?>
<svg
   xmlns:dc="http://purl.org/dc/elements/1.1/"
   xmlns:cc="http://creativecommons.org/ns#"
   xmlns:rdf="http://www.w3.org/1999/02/22-rdf-syntax-ns#"
   xmlns:svg="http://www.w3.org/2000/svg"
   xmlns="http://www.w3.org/2000/svg"
   xmlns:sodipodi="http://sodipodi.sourceforge.net/DTD/sodipodi-0.dtd"
   xmlns:inkscape="http://www.inkscape.org/namespaces/inkscape"
   viewBox="0 0 350 200"
   height="200"
   width="350"
   preserveAspectRatio="xMid meet"
   id="svg2"
   version="1.1"
   inkscape:version="0.48.3.1 r9886"
   sodipodi:docname="pie-arc.svg">
  <metadata
     id="metadata13">
    <rdf:RDF>
      <cc:Work
         rdf:about="">
        <dc:format>image/svg+xml</dc:format>
        <dc:type
           rdf:resource="http://purl.org/dc/dcmitype/StillImage" />
        <dc:title></dc:title>
      </cc:Work>
    </rdf:RDF>
  </metadata>
  <defs
     id="defs11" />
  <sodipodi:namedview
     pagecolor="#ffffff"
     bordercolor="#666666"
     borderopacity="1"
     objecttolerance="10"
     gridtolerance="10"
     guidetolerance="10"
     inkscape:pageopacity="0"
     inkscape:pageshadow="2"
     inkscape:window-width="1280"
     inkscape:window-height="974"
     id="namedview9"
     showgrid="false"
     inkscape:zoom="1.0257143"
     inkscape:cx="87.202464"
     inkscape:cy="100"
     inkscape:window-x="1280"
     inkscape:window-y="0"
     inkscape:window-maximized="1"
     inkscape:current-layer="svg2" />
  <rect
     width="175"
     height="200"
     x="175"
     y="0"
     fill="#144f0b"
     id="rect4" />
  <rect
     width="175"
     height="200"
     x="0"
     y="0"
     fill="#294ba7"
     id="rect6" />
  <path
     d="m 182.14281,52.105565 v -11.42355 l 18.9749,-18.9745 c 2.80262,0.93116 5.53903,2.00832 8.19923,3.22353 l -27.17413,27.17452 z m 48.33528,-13.21404 -48.33528,48.33487 v 5.6268 h 5.79596 l 48.24591,-48.24591 c -1.80805,-1.99674 -3.71264,-3.90492 -5.70659,-5.71576 z m -48.33528,-10.05835 9.62748,-9.62748 c -3.14772,-0.6455 -6.35967,-1.11466 -9.62748,-1.38954 v 11.01702 z m 73.67982,54.53018 -9.48984,9.48984 h 10.85106 c -0.27129,-3.21993 -0.73048,-6.386 -1.36122,-9.48984 z m -2.48985,-9.35819 c -0.92756,-2.80701 -2.00154,-5.54661 -3.21355,-8.2108 l -27.05883,27.05883 h 11.42395 l 18.84843,-18.84803 z m -7.27367,-15.99952 c -1.40271,-2.37136 -2.91833,-4.66852 -4.54445,-6.8795 L 199.788,92.853195 h 11.42396 l 34.84715,-34.84755 z m -22.0915,-24.45288 c -2.20779,-1.62892 -4.50256,-3.14613 -6.87192,-4.55163 l -34.95288,34.95327 v 11.42315 l 41.8248,-41.82479 z m -55.8164,73.292025 V 17.816155 c -42.19661,3.55026 -75.335056,38.91724 -75.335056,82.03105 0,45.471995 36.861446,82.336635 82.332656,82.336635 43.11381,0 78.48079,-33.14243 82.03504,-75.33905 h -89.03264 z"
     id="pie_chart_2_icon"
     inkscape:connector-curvature="0" />
</svg>
