<?xml version="1.0" encoding="UTF-8" standalone="no"?>
<svg
   xmlns:dc="http://purl.org/dc/elements/1.1/"
   xmlns:cc="http://creativecommons.org/ns#"
   xmlns:rdf="http://www.w3.org/1999/02/22-rdf-syntax-ns#"
   xmlns:svg="http://www.w3.org/2000/svg"
   xmlns="http://www.w3.org/2000/svg"
   xmlns:sodipodi="http://sodipodi.sourceforge.net/DTD/sodipodi-0.dtd"
   xmlns:inkscape="http://www.inkscape.org/namespaces/inkscape"
   viewBox="0 0 350 200"
   height="200"
   width="350"
   preserveAspectRatio="xMid meet"
   id="svg2"
   version="1.1"
   inkscape:version="0.48.3.1 r9886"
   sodipodi:docname="planet-rings.svg">
  <metadata
     id="metadata13">
    <rdf:RDF>
      <cc:Work
         rdf:about="">
        <dc:format>image/svg+xml</dc:format>
        <dc:type
           rdf:resource="http://purl.org/dc/dcmitype/StillImage" />
        <dc:title></dc:title>
      </cc:Work>
    </rdf:RDF>
  </metadata>
  <defs
     id="defs11" />
  <sodipodi:namedview
     pagecolor="#ffffff"
     bordercolor="#666666"
     borderopacity="1"
     objecttolerance="10"
     gridtolerance="10"
     guidetolerance="10"
     inkscape:pageopacity="0"
     inkscape:pageshadow="2"
     inkscape:window-width="1280"
     inkscape:window-height="974"
     id="namedview9"
     showgrid="false"
     inkscape:zoom="1.0257143"
     inkscape:cx="87.202464"
     inkscape:cy="100"
     inkscape:window-x="1280"
     inkscape:window-y="0"
     inkscape:window-maximized="1"
     inkscape:current-layer="svg2" />
  <rect
     width="175"
     height="200"
     x="175"
     y="0"
     fill="#144f0b"
     id="rect4" />
  <rect
     width="175"
     height="200"
     x="0"
     y="0"
     fill="#294ba7"
     id="rect6" />
  <g
     id="g4086"
     transform="matrix(1.6286972,0,0,1.6286972,93.564891,19.179501)">
	<g
   id="g4088">
		<path
   id="path4090"
   d="m 50.841,1.151 c 1.355,-1.108 3.291,-1.454 4.943,-0.872 1.913,0.627 3.368,2.465 3.485,4.481 0.786,0.196 1.593,0.303 2.384,0.479 9.905,2.077 19.062,7.472 25.734,15.074 3.318,3.762 6.039,8.051 8.017,12.661 4.153,9.613 4.951,20.608 2.316,30.735 -0.029,0.153 -0.133,0.37 0.062,0.463 1.213,0.849 2.044,2.229 2.187,3.708 0.182,1.596 -0.433,3.262 -1.624,4.344 -1.149,1.104 -2.816,1.571 -4.382,1.343 -1.68,3.143 -3.642,6.143 -5.958,8.854 -5.439,6.44 -12.623,11.401 -20.587,14.175 -11.002,3.867 -23.436,3.494 -34.17,-1.071 C 24.053,91.667 16.157,84.816 11.018,76.274 7.979,71.245 5.866,65.645 4.9,59.848 3.662,59.721 2.434,59.249 1.551,58.348 0.224,57.084 -0.298,55.09 0.166,53.327 0.633,51.397 2.317,49.878 4.259,49.524 4.637,40.076 7.992,30.787 13.676,23.235 18.843,16.338 25.908,10.87 33.907,7.653 38.159,5.924 42.671,4.839 47.24,4.412 47.829,4.326 48.437,4.379 49.015,4.227 49.207,3.02 49.9,1.92 50.841,1.151 z M 34.034,9.746 c -4.166,1.756 -8.062,4.145 -11.53,7.047 C 14.829,23.189 9.348,32.171 7.23,41.94 c -0.529,2.503 -0.919,5.05 -0.979,7.61 1.592,0.337 2.996,1.445 3.662,2.934 0.577,1.252 0.608,2.731 0.126,4.018 -0.544,1.416 -1.733,2.575 -3.176,3.049 1.096,6.569 3.741,12.865 7.563,18.312 5.744,8.209 14.258,14.445 23.843,17.385 5.772,1.788 11.905,2.39 17.919,1.807 5.688,-0.555 11.268,-2.195 16.347,-4.814 8.281,-4.26 15.23,-11.111 19.516,-19.385 -0.218,-0.152 -0.425,-0.317 -0.626,-0.486 -1.751,-1.446 -2.311,-4.105 -1.318,-6.144 0.801,-1.783 2.701,-2.996 4.654,-2.986 0.348,-0.006 0.696,0.069 1.047,0.035 0.905,-3.671 1.445,-7.441 1.457,-11.226 C 97.31,45.988 96.144,39.917 93.814,34.319 91.944,29.785 89.32,25.565 86.103,21.865 79.203,13.894 69.458,8.394 59.027,6.784 58.551,8.455 57.105,9.779 55.436,10.212 54.099,10.553 52.623,10.373 51.44,9.647 50.203,8.923 49.318,7.656 49.023,6.256 43.878,6.564 38.781,7.738 34.034,9.746 z"
   inkscape:connector-curvature="0"
   style="fill:#000000" />

	</g>

	<g
   id="g4092">
		<path
   id="path4094"
   d="m 37.095,17.959 c 7.578,-3.3 16.279,-3.908 24.254,-1.749 5.124,1.385 9.937,3.9 13.999,7.315 3.586,3.005 6.594,6.699 8.806,10.822 2.891,5.371 4.394,11.473 4.353,17.57 -0.014,8.131 -2.837,16.219 -7.895,22.587 -0.99,1.285 -2.124,2.451 -3.231,3.631 0.352,0.825 0.64,1.702 0.591,2.615 -0.02,1.997 -1.315,3.902 -3.163,4.658 -1.922,0.83 -4.352,0.366 -5.763,-1.199 -4.812,2.521 -10.162,4.033 -15.597,4.256 -6.564,0.309 -13.227,-1.133 -19.009,-4.271 -0.697,0.672 -1.533,1.229 -2.485,1.454 -1.688,0.45 -3.59,-0.02 -4.854,-1.229 -1.078,-0.992 -1.702,-2.46 -1.641,-3.926 -0.013,-0.829 0.269,-1.618 0.6,-2.366 -0.79,-0.884 -1.667,-1.705 -2.418,-2.632 -3.731,-4.396 -6.409,-9.683 -7.724,-15.297 -1.702,-7.188 -1.185,-14.886 1.493,-21.771 1.79,-4.621 4.527,-8.874 7.999,-12.411 3.319,-3.412 7.316,-6.162 11.685,-8.057 z m 6.194,-0.009 c -4.871,1.211 -9.467,3.502 -13.375,6.652 -6.319,5.062 -10.794,12.389 -12.333,20.344 -1.306,6.48 -0.688,13.329 1.727,19.481 1.778,4.51 4.496,8.659 7.962,12.051 0.315,0.123 0.593,-0.327 0.903,-0.418 1.641,-0.905 3.783,-0.812 5.338,0.236 1.204,0.791 2.053,2.107 2.259,3.535 0.174,0.917 -0.03,1.838 -0.253,2.726 4.984,2.562 10.567,4.015 16.186,3.957 5.621,0.064 11.215,-1.382 16.2,-3.952 -0.092,-0.561 -0.312,-1.101 -0.3,-1.679 -0.1,-1.632 0.638,-3.287 1.92,-4.301 0.978,-0.798 2.252,-1.206 3.512,-1.131 1.104,0.006 2.13,0.484 3.022,1.098 1.1,-0.961 2.037,-2.106 2.96,-3.239 3.57,-4.486 5.989,-9.874 6.981,-15.521 1.017,-5.738 0.565,-11.731 -1.312,-17.25 C 82.915,35.305 79.86,30.514 75.883,26.68 72.317,23.243 68.019,20.562 63.348,18.915 56.948,16.634 49.877,16.301 43.289,17.95 z"
   inkscape:connector-curvature="0"
   style="fill:#000000" />

	</g>

	<g
   id="g4096">
		<path
   id="path4098"
   d="m 44.723,26.63 c 5.892,-1.652 12.365,-1.143 17.918,1.438 5.349,2.464 9.825,6.795 12.416,12.088 1.251,-0.031 2.534,0.289 3.532,1.067 1.423,1.057 2.217,2.88 2.029,4.643 -0.15,1.79 -1.319,3.391 -2.905,4.199 0.344,5.185 -0.911,10.469 -3.576,14.933 -2.686,4.538 -6.775,8.238 -11.577,10.419 -5.139,2.37 -11.061,2.963 -16.575,1.721 -4.738,-1.056 -9.158,-3.483 -12.597,-6.908 -3.899,-3.842 -6.542,-8.947 -7.383,-14.359 -0.95,-5.855 0.155,-12.035 3.15,-17.162 0.095,-0.153 0.227,-0.354 0.041,-0.499 -1.557,-1.906 -1.422,-4.913 0.265,-6.693 1.225,-1.363 3.204,-1.979 4.987,-1.561 0.661,0.13 1.24,0.483 1.841,0.761 2.547,-1.835 5.4,-3.259 8.434,-4.087 z m -7.012,5.548 c 0.052,0.298 0.266,0.542 0.37,0.824 0.621,1.5 0.515,3.301 -0.337,4.693 -0.672,1.136 -1.802,1.991 -3.078,2.33 -1.247,0.343 -2.601,0.188 -3.759,-0.374 -2.213,3.78 -3.355,8.184 -3.243,12.564 0.07,5.278 1.99,10.501 5.315,14.599 3.061,3.816 7.315,6.667 12.018,8.021 5.209,1.532 10.939,1.221 15.947,-0.882 4.159,-1.718 7.808,-4.642 10.407,-8.312 3.111,-4.355 4.699,-9.778 4.403,-15.124 -1.96,0.189 -3.931,-0.935 -4.859,-2.653 -0.766,-1.393 -0.845,-3.148 -0.197,-4.603 0.474,-1.097 1.356,-1.991 2.41,-2.542 -1.163,-2.327 -2.761,-4.431 -4.618,-6.246 -3.573,-3.494 -8.261,-5.828 -13.206,-6.553 -6.11,-0.936 -12.583,0.599 -17.573,4.258 z"
   inkscape:connector-curvature="0"
   style="fill:#000000" />

	</g>

	<path
   id="path4100"
   d="m 49.658,37.531 c 2.85,-0.399 5.82,0.043 8.401,1.33 3.979,1.929 6.942,5.804 7.743,10.155 0.59,3.076 0.153,6.347 -1.269,9.142 -1.909,3.877 -5.681,6.771 -9.919,7.612 -3.104,0.635 -6.416,0.226 -9.254,-1.188 -4.014,-1.962 -7.001,-5.899 -7.75,-10.311 -0.581,-3.188 -0.048,-6.567 1.513,-9.409 2.106,-3.917 6.129,-6.72 10.535,-7.331 z"
   inkscape:connector-curvature="0"
   style="fill:#000000" />

</g>
</svg>
