<?xml version="1.0" encoding="UTF-8" standalone="no"?>
<svg
   xmlns:dc="http://purl.org/dc/elements/1.1/"
   xmlns:cc="http://creativecommons.org/ns#"
   xmlns:rdf="http://www.w3.org/1999/02/22-rdf-syntax-ns#"
   xmlns:svg="http://www.w3.org/2000/svg"
   xmlns="http://www.w3.org/2000/svg"
   xmlns:sodipodi="http://sodipodi.sourceforge.net/DTD/sodipodi-0.dtd"
   xmlns:inkscape="http://www.inkscape.org/namespaces/inkscape"
   viewBox="0 0 350 200"
   height="200"
   width="350"
   preserveAspectRatio="xMid meet"
   id="svg2"
   version="1.1"
   inkscape:version="0.48.3.1 r9886"
   sodipodi:docname="deer.svg">
  <metadata
     id="metadata13">
    <rdf:RDF>
      <cc:Work
         rdf:about="">
        <dc:format>image/svg+xml</dc:format>
        <dc:type
           rdf:resource="http://purl.org/dc/dcmitype/StillImage" />
        <dc:title></dc:title>
      </cc:Work>
    </rdf:RDF>
  </metadata>
  <defs
     id="defs11" />
  <sodipodi:namedview
     pagecolor="#ffffff"
     bordercolor="#666666"
     borderopacity="1"
     objecttolerance="10"
     gridtolerance="10"
     guidetolerance="10"
     inkscape:pageopacity="0"
     inkscape:pageshadow="2"
     inkscape:window-width="1280"
     inkscape:window-height="974"
     id="namedview9"
     showgrid="false"
     inkscape:zoom="1.0257143"
     inkscape:cx="87.202464"
     inkscape:cy="100"
     inkscape:window-x="1280"
     inkscape:window-y="0"
     inkscape:window-maximized="1"
     inkscape:current-layer="svg2" />
  <rect
     width="175"
     height="200"
     x="175"
     y="0"
     fill="#144f0b"
     id="rect4" />
  <rect
     width="175"
     height="200"
     x="0"
     y="0"
     fill="#294ba7"
     id="rect6" />
  <g
     id="g4048"
     transform="matrix(2.2129289,0,0,2.2129289,64.355783,-12.564362)">
	<path
   id="path4050"
   d="m 48.61,22.778 c 3.583,-0.212 7.193,0.357 10.589,1.504 3.857,1.341 7.418,3.53 10.346,6.377 3.591,3.456 6.235,7.892 7.563,12.696 0.876,3.232 1.226,6.621 0.9,9.96 -1.569,1.424 -3.35,2.607 -5.151,3.719 -6.023,3.598 -12.692,6.018 -19.504,7.621 -3.25,0.773 -6.559,1.295 -9.877,1.639 -2.844,0.314 -5.715,0.383 -8.576,0.307 -3.031,-0.162 -6.09,-0.443 -9.021,-1.271 -2.161,-3.539 -3.485,-7.584 -3.873,-11.707 -0.131,-0.699 -0.028,-1.418 -0.152,-2.117 -0.008,-0.424 -0.008,-0.849 0,-1.272 0.124,-0.699 0.021,-1.418 0.152,-2.118 0.38,-4.098 1.701,-8.107 3.821,-11.636 3.031,-5.106 7.726,-9.202 13.195,-11.512 3.034,-1.29 6.297,-2.031 9.588,-2.19 z"
   inkscape:connector-curvature="0"
   style="fill:#000000" />

	<path
   id="path4052"
   d="m 68.901,27.872 c 6.066,-0.059 12.189,0.304 18.083,1.839 2.356,0.641 4.674,1.479 6.812,2.67 1.855,1.056 3.599,2.411 4.78,4.213 0.977,1.477 1.506,3.261 1.413,5.034 -0.047,2.07 -0.863,4.04 -1.914,5.795 -1.296,2.137 -3.017,3.975 -4.842,5.667 -3.388,3.066 -7.26,5.547 -11.263,7.725 -8.826,4.697 -18.368,7.943 -28.103,10.148 -9.206,2.051 -18.654,3.166 -28.094,2.83 C 24.762,73.68 23.737,73.725 22.722,73.619 19.069,73.305 15.417,72.758 11.896,71.713 9.157,70.899 6.469,69.766 4.174,68.039 2.455,66.721 0.964,64.978 0.35,62.867 c -0.636,-2.072 -0.362,-4.334 0.445,-6.318 1.082,-2.668 2.939,-4.938 4.961,-6.953 2.891,-2.803 6.199,-5.142 9.657,-7.19 2.455,-1.439 4.976,-2.779 7.578,-3.927 -1.039,2.392 -1.848,4.891 -2.265,7.47 -0.17,0.565 -0.083,1.196 -0.286,1.739 -1.206,1.164 -2.4,2.362 -3.343,3.757 -1.242,1.795 -2.2,3.918 -2.09,6.145 0.059,2.057 1.125,3.982 2.627,5.348 2.644,2.367 6.101,3.584 9.523,4.291 4.582,0.959 9.297,1.094 13.957,0.814 5.423,-0.377 10.809,-1.312 16.044,-2.773 4.927,-1.383 9.742,-3.209 14.253,-5.637 2.259,-1.215 4.431,-2.598 6.459,-4.172 2.192,-1.723 4.224,-3.717 5.65,-6.132 0.865,-1.491 1.512,-3.172 1.466,-4.919 0.043,-1.947 -0.87,-3.818 -2.209,-5.194 -2.061,-2.116 -4.86,-3.286 -7.631,-4.147 -1.737,-2.661 -3.835,-5.101 -6.293,-7.125 l 0.048,-0.072 z"
   inkscape:connector-curvature="0"
   style="fill:#000000" />

	<path
   id="path4054"
   d="m 41.902,74.59 c 10.738,-1.332 21.32,-4.006 31.373,-8.016 -0.029,0.189 -0.185,0.324 -0.279,0.484 -2.942,4.168 -7.026,7.527 -11.704,9.574 -6.297,2.787 -13.618,3.131 -20.145,0.936 -1.806,-0.57 -3.521,-1.395 -5.178,-2.303 -0.004,-0.039 -0.01,-0.119 -0.013,-0.156 1.991,-0.041 3.971,-0.297 5.946,-0.519 z"
   inkscape:connector-curvature="0"
   style="fill:#000000" />

</g>
</svg>
