<?xml version="1.0" encoding="UTF-8" standalone="no"?>
<svg
   xmlns:dc="http://purl.org/dc/elements/1.1/"
   xmlns:cc="http://creativecommons.org/ns#"
   xmlns:rdf="http://www.w3.org/1999/02/22-rdf-syntax-ns#"
   xmlns:svg="http://www.w3.org/2000/svg"
   xmlns="http://www.w3.org/2000/svg"
   xmlns:sodipodi="http://sodipodi.sourceforge.net/DTD/sodipodi-0.dtd"
   xmlns:inkscape="http://www.inkscape.org/namespaces/inkscape"
   viewBox="0 0 350 200"
   height="200"
   width="350"
   preserveAspectRatio="xMid meet"
   id="svg2"
   version="1.1"
   inkscape:version="0.48.3.1 r9886"
   sodipodi:docname="planets.svg">
  <metadata
     id="metadata13">
    <rdf:RDF>
      <cc:Work
         rdf:about="">
        <dc:format>image/svg+xml</dc:format>
        <dc:type
           rdf:resource="http://purl.org/dc/dcmitype/StillImage" />
        <dc:title></dc:title>
      </cc:Work>
    </rdf:RDF>
  </metadata>
  <defs
     id="defs11" />
  <sodipodi:namedview
     pagecolor="#ffffff"
     bordercolor="#666666"
     borderopacity="1"
     objecttolerance="10"
     gridtolerance="10"
     guidetolerance="10"
     inkscape:pageopacity="0"
     inkscape:pageshadow="2"
     inkscape:window-width="1280"
     inkscape:window-height="974"
     id="namedview9"
     showgrid="false"
     inkscape:zoom="1.0257143"
     inkscape:cx="87.202464"
     inkscape:cy="100"
     inkscape:window-x="1280"
     inkscape:window-y="0"
     inkscape:window-maximized="1"
     inkscape:current-layer="svg2" />
  <rect
     width="175"
     height="200"
     x="175"
     y="0"
     fill="#144f0b"
     id="rect4" />
  <rect
     width="175"
     height="200"
     x="0"
     y="0"
     fill="#294ba7"
     id="rect6" />
  <g
     id="g4136"
     transform="matrix(1.4471863,0,0,1.4471863,102.63913,26.270599)">
	<g
   id="g4138">
		<path
   id="path4140"
   d="m 33.561,2.162 c 8.041,-0.817 16.216,0.265 23.88,2.775 5.161,1.735 10.153,4.009 14.764,6.914 1.793,1.105 3.512,2.326 5.2,3.585 0.57,-0.477 1.27,-0.839 2.029,-0.827 1.339,-0.061 2.622,0.953 2.886,2.264 0.193,0.8 -0.018,1.63 -0.428,2.325 3.847,3.495 7.271,7.463 10.122,11.811 2.956,4.523 5.274,9.484 6.64,14.721 1.445,5.672 1.848,11.675 0.614,17.427 -0.892,4.256 -2.643,8.338 -5.167,11.885 -2.032,2.879 -4.55,5.408 -7.391,7.492 -5.611,4.148 -12.399,6.527 -19.294,7.369 -0.255,0.023 -0.505,0.061 -0.746,0.135 -0.46,2.746 -1.95,5.299 -4.073,7.092 -1.83,1.559 -4.135,2.551 -6.526,2.799 -2.562,0.279 -5.216,-0.268 -7.434,-1.584 C 44.969,96.232 42.573,92.083 42.66,87.843 42.623,87.626 42.766,87.251 42.467,87.187 32.795,84.035 23.874,78.619 16.58,71.531 12.516,67.568 8.963,63.064 6.175,58.117 2.16,51.008 -0.303,42.869 0.031,34.657 0.237,29.166 1.774,23.705 4.634,19.001 6.002,16.816 7.551,14.731 9.391,12.918 9.556,12.793 9.421,12.588 9.388,12.435 8.809,10.903 9.077,9.088 10.076,7.789 10.579,7.156 11.212,6.613 11.96,6.291 13.592,5.532 15.639,5.784 17.034,6.924 17.15,7.07 17.324,7.037 17.46,6.942 22.426,4.264 27.964,2.736 33.561,2.162 z m 1.341,1.536 c -5.725,0.614 -11.378,2.309 -16.326,5.289 0.182,0.688 0.356,1.395 0.285,2.114 -0.115,1.894 -1.436,3.641 -3.232,4.255 -1.387,0.514 -2.961,0.306 -4.233,-0.418 -1.343,1.489 -2.516,3.127 -3.523,4.858 -2.565,4.393 -3.906,9.455 -4.04,14.53 -0.147,5.301 0.958,10.593 2.909,15.51 2.418,6.077 6.087,11.62 10.525,16.411 7.17,7.707 16.308,13.582 26.304,16.889 0.171,-0.223 0.266,-0.49 0.392,-0.738 1.157,-2.281 3.053,-4.186 5.348,-5.322 1.812,-0.928 3.869,-1.363 5.901,-1.279 3.023,0.08 5.987,1.383 8.113,3.531 1.77,1.75 2.963,4.066 3.373,6.52 1.062,-0.018 2.11,-0.252 3.156,-0.42 7.407,-1.33 14.584,-4.732 19.761,-10.277 3.087,-3.27 5.409,-7.258 6.716,-11.562 C 98.067,57.98 98.068,51.93 96.8,46.226 95.581,40.703 93.212,35.472 90.103,30.761 87.5,26.838 84.425,23.211 80.931,20.054 c -1.07,0.593 -2.518,0.47 -3.412,-0.39 -0.786,-0.693 -1.115,-1.834 -0.856,-2.845 0.011,-0.144 0.126,-0.352 -0.049,-0.441 C 70.89,11.983 64.426,8.557 57.569,6.308 50.296,3.92 42.531,2.883 34.902,3.698 z"
   inkscape:connector-curvature="0"
   style="fill:#000000" />

	</g>

	<g
   id="g4142">
		<path
   id="path4144"
   d="m 33.041,15.598 c 4.092,-2.309 8.841,-3.263 13.509,-3.24 6.08,0.014 12.062,1.722 17.482,4.413 4.758,2.419 9.094,5.695 12.633,9.696 3.391,3.83 6.09,8.354 7.397,13.326 1.247,4.756 1.141,9.989 -0.973,14.491 0.831,1.23 1.046,2.865 0.468,4.244 -0.613,1.555 -2.185,2.668 -3.855,2.725 -0.646,0.045 -1.283,-0.104 -1.894,-0.301 -1.884,1.473 -3.997,2.648 -6.244,3.465 -6.267,2.266 -13.229,2.07 -19.588,0.279 -5.12,-1.373 -9.949,-3.766 -14.202,-6.92 -4.146,-3.086 -7.768,-6.921 -10.42,-11.368 -2.087,-3.501 -3.573,-7.404 -4.015,-11.471 -0.408,-3.67 0.076,-7.491 1.7,-10.829 1.635,-3.621 4.554,-6.581 8.002,-8.51 z m 11.867,-1.411 c -4.534,0.385 -9.079,1.916 -12.57,4.902 -3.002,2.529 -5.038,6.154 -5.684,10.021 -0.675,3.824 -0.051,7.789 1.335,11.387 1.215,3.146 3.002,6.057 5.152,8.649 3.136,3.771 7.028,6.898 11.34,9.232 5.077,2.725 10.764,4.418 16.544,4.531 5.075,0.09 10.326,-1.121 14.461,-4.168 -0.439,-1.002 -0.553,-2.154 -0.211,-3.201 0.4,-1.328 1.478,-2.428 2.795,-2.862 0.833,-0.295 1.74,-0.277 2.596,-0.086 L 80.77,52.537 C 82.469,49.12 82.892,45.159 82.286,41.414 81.496,36.424 79.065,31.81 75.874,27.938 72.363,23.69 67.897,20.255 62.946,17.843 57.372,15.144 51.113,13.663 44.908,14.187 z"
   inkscape:connector-curvature="0"
   style="fill:#000000" />

	</g>

	<g
   id="g4146">
		<path
   id="path4148"
   d="m 49.689,23.08 c 2.942,-0.435 5.983,-0.026 8.751,1.041 4.397,1.566 8.292,4.642 10.684,8.668 1.365,2.334 2.202,5.09 1.837,7.811 -0.208,2.333 -1.459,4.532 -3.297,5.97 -1.591,1.265 -3.556,1.998 -5.554,2.29 -2.67,0.372 -5.419,0.053 -7.962,-0.826 -2.308,-0.72 -4.47,-1.881 -6.384,-3.355 -0.064,-0.038 -0.194,-0.112 -0.26,-0.149 -1.239,0.548 -2.667,0.695 -3.972,0.298 -1.757,-0.502 -3.201,-1.946 -3.72,-3.696 -0.593,-1.936 -0.033,-4.175 1.448,-5.565 -0.343,-1.435 -0.526,-2.926 -0.309,-4.395 0.28,-1.818 1.021,-3.604 2.324,-4.929 1.668,-1.789 4.027,-2.799 6.414,-3.163 z m 0.14,2.154 c -1.949,0.505 -3.799,1.62 -4.92,3.325 -1.098,1.608 -1.418,3.645 -1.153,5.55 0.436,0.004 0.865,-0.111 1.304,-0.1 1.262,-0.02 2.525,0.416 3.508,1.208 1.326,1.054 2.13,2.751 2.046,4.45 0.018,1.169 -0.443,2.289 -1.103,3.236 2.356,1.794 5.178,2.996 8.117,3.393 2.534,0.334 5.243,0 7.444,-1.369 1.736,-1.06 3.028,-2.849 3.398,-4.86 0.421,-2.13 -0.069,-4.35 -1.034,-6.266 -1.938,-3.776 -5.476,-6.604 -9.442,-8.021 -2.598,-0.916 -5.473,-1.247 -8.165,-0.546 z"
   inkscape:connector-curvature="0"
   style="fill:#000000" />

	</g>

</g>
</svg>
