<?xml version="1.0" encoding="UTF-8" standalone="no"?>
<svg
   xmlns:dc="http://purl.org/dc/elements/1.1/"
   xmlns:cc="http://creativecommons.org/ns#"
   xmlns:rdf="http://www.w3.org/1999/02/22-rdf-syntax-ns#"
   xmlns:svg="http://www.w3.org/2000/svg"
   xmlns="http://www.w3.org/2000/svg"
   xmlns:sodipodi="http://sodipodi.sourceforge.net/DTD/sodipodi-0.dtd"
   xmlns:inkscape="http://www.inkscape.org/namespaces/inkscape"
   viewBox="0 0 350 200"
   height="200"
   width="350"
   preserveAspectRatio="xMid meet"
   id="svg2"
   version="1.1"
   inkscape:version="0.48.3.1 r9886"
   sodipodi:docname="power-jolt-circled.svg">
  <metadata
     id="metadata13">
    <rdf:RDF>
      <cc:Work
         rdf:about="">
        <dc:format>image/svg+xml</dc:format>
        <dc:type
           rdf:resource="http://purl.org/dc/dcmitype/StillImage" />
        <dc:title></dc:title>
      </cc:Work>
    </rdf:RDF>
  </metadata>
  <defs
     id="defs11" />
  <sodipodi:namedview
     pagecolor="#ffffff"
     bordercolor="#666666"
     borderopacity="1"
     objecttolerance="10"
     gridtolerance="10"
     guidetolerance="10"
     inkscape:pageopacity="0"
     inkscape:pageshadow="2"
     inkscape:window-width="1280"
     inkscape:window-height="974"
     id="namedview9"
     showgrid="false"
     inkscape:zoom="1.0257143"
     inkscape:cx="86.310747"
     inkscape:cy="100.35051"
     inkscape:window-x="1280"
     inkscape:window-y="0"
     inkscape:window-maximized="1"
     inkscape:current-layer="svg2" />
  <rect
     width="175"
     height="200"
     x="175"
     y="0"
     fill="#144f0b"
     id="rect4" />
  <rect
     width="175"
     height="200"
     x="0"
     y="0"
     fill="#294ba7"
     id="rect6" />
  <path
     d="m 158.50202,144.92311 15.76489,-36.78716 -32.08841,5.76404 50.40221,-58.823115 -15.24151,35.85708 31.93576,-4.67258 -50.77294,58.661735 z M 175,39.666355 c 33.34379,0 60.33364,26.98368 60.33364,60.33364 0,33.344155 -26.98404,60.333645 -60.33364,60.333645 -33.34415,0 -60.33364,-26.98404 -60.33364,-60.333645 0,-33.34342 26.98404,-60.33364 60.33364,-60.33364 m 0,-14.53822 c -41.35071,0 -74.87187,33.52115 -74.87187,74.87186 0,41.350725 33.52116,74.871875 74.87187,74.871875 41.35071,0 74.87186,-33.52115 74.87186,-74.871875 0,-41.35071 -33.52115,-74.87186 -74.87186,-74.87186 l 0,0 z"
     id="connection-5-icon"
     inkscape:connector-curvature="0" />
</svg>
