<?xml version="1.0" encoding="UTF-8" standalone="no"?>
<svg
   xmlns:dc="http://purl.org/dc/elements/1.1/"
   xmlns:cc="http://creativecommons.org/ns#"
   xmlns:rdf="http://www.w3.org/1999/02/22-rdf-syntax-ns#"
   xmlns:svg="http://www.w3.org/2000/svg"
   xmlns="http://www.w3.org/2000/svg"
   xmlns:sodipodi="http://sodipodi.sourceforge.net/DTD/sodipodi-0.dtd"
   xmlns:inkscape="http://www.inkscape.org/namespaces/inkscape"
   viewBox="0 0 350 200"
   height="200"
   width="350"
   preserveAspectRatio="xMid meet"
   id="svg2"
   version="1.1"
   inkscape:version="0.48.3.1 r9886"
   sodipodi:docname="rocket-circled.svg">
  <metadata
     id="metadata13">
    <rdf:RDF>
      <cc:Work
         rdf:about="">
        <dc:format>image/svg+xml</dc:format>
        <dc:type
           rdf:resource="http://purl.org/dc/dcmitype/StillImage" />
        <dc:title></dc:title>
      </cc:Work>
    </rdf:RDF>
  </metadata>
  <defs
     id="defs11">
    <pattern
       inkscape:stockid="Stripes 1:1"
       id="Strips1_1"
       patternTransform="translate(0,0) scale(10,10)"
       height="1"
       width="2"
       patternUnits="userSpaceOnUse"
       inkscape:collect="always">
      <rect
         id="rect6683"
         height="2"
         width="1"
         y="-0.5"
         x="0"
         style="fill:black;stroke:none" />
    </pattern>
  </defs>
  <sodipodi:namedview
     pagecolor="#ffffff"
     bordercolor="#666666"
     borderopacity="1"
     objecttolerance="10"
     gridtolerance="10"
     guidetolerance="10"
     inkscape:pageopacity="0"
     inkscape:pageshadow="2"
     inkscape:window-width="1280"
     inkscape:window-height="974"
     id="namedview9"
     showgrid="false"
     inkscape:zoom="1.0257143"
     inkscape:cx="87.202464"
     inkscape:cy="100"
     inkscape:window-x="1280"
     inkscape:window-y="0"
     inkscape:window-maximized="1"
     inkscape:current-layer="svg2" />
  <rect
     width="175"
     height="200"
     x="175"
     y="0"
     fill="#144f0b"
     id="rect4" />
  <rect
     width="175"
     height="200"
     x="0"
     y="0"
     fill="#294ba7"
     id="rect6" />
  <g
     id="g5952"
     transform="matrix(0.1534216,0,0,-0.1534216,98.7775,1250.6626)"
     style="fill:#000000;fill-opacity:1">
	<path
   id="path5954"
   d="m 428.311,7863.5 c -58.35,-114.375 -69.736,-137.534 -67.925,-138.311 1.162,-0.518 13.716,-2.065 27.944,-3.618 14.233,-1.553 26.006,-2.847 26.138,-2.979 0.127,-0.259 -15.918,-5.693 -35.581,-12.29 l -35.84,-11.904 -45.542,-88.237 c -25.103,-48.516 -45.41,-88.496 -45.156,-88.623 0.132,-0.137 11.646,-1.553 25.488,-2.979 13.848,-1.426 26.523,-2.979 28.208,-3.369 2.197,-0.518 -8.413,-4.521 -34.937,-13.32 l -38.037,-12.549 -17.207,-33.643 c -9.443,-18.369 -29.888,-58.613 -45.542,-89.277 l -28.462,-55.762 32.729,-4.141 c 17.856,-2.324 33.511,-4.531 34.546,-4.785 1.035,-0.391 -18.369,-8.408 -43.34,-17.725 L 120.639,7262.908 76.259,7177 c -24.453,-47.227 -44.248,-86.172 -43.989,-86.426 0.908,-0.781 674.077,-91.084 675.503,-90.566 3.496,1.416 253.721,194.199 253.594,195.488 -0.137,1.426 -82.812,144.141 -84.619,146.074 -0.518,0.654 -16.299,0.654 -35.068,0 -18.75,-0.771 -34.277,-1.162 -34.541,-1.035 -0.127,0.127 11.904,8.027 26.914,17.471 l 27.168,17.207 -2.451,4.014 c -1.299,2.197 -21.23,36.611 -44.121,76.465 -22.91,39.844 -41.924,72.705 -42.188,72.969 -0.254,0.254 -12.803,1.289 -27.939,2.197 -15.146,0.908 -30.02,1.816 -33.125,2.07 l -5.557,0.391 22.383,12.158 c 12.285,6.729 22.637,12.295 22.891,12.549 0.137,0.137 -20.703,36.748 -46.572,81.26 l -46.836,80.991 h -4.658 c -7.5,0.127 -59.902,3.75 -60.42,4.268 -0.264,0.259 9.697,6.987 22.119,15.01 l 22.646,14.619 -3.105,5.303 c -1.807,2.979 -32.607,58.096 -68.701,122.524 -35.977,64.434 -65.859,117.48 -66.377,117.998 -0.514,0.518 -32.472,-60.937 -70.899,-136.499 z m 95.224,-20.83 c 14.355,-72.451 25.879,-131.841 25.625,-132.1 -0.264,-0.259 -24.59,2.72 -54.087,6.47 -29.502,3.75 -69.092,8.413 -87.983,10.352 -18.887,2.07 -34.805,4.141 -35.449,4.658 -0.518,0.518 27.041,56.279 61.455,123.818 42.695,83.838 62.881,122.266 63.525,120.845 0.522,-1.294 12.554,-61.46 26.914,-134.043 z m 40.762,25.747 c 31.816,-56.929 58.994,-105.317 60.293,-107.515 l 2.451,-4.141 -25.488,-16.431 c -14.102,-9.189 -29.756,-19.409 -34.805,-22.773 l -9.316,-6.211 -25.361,128.35 c -13.965,70.64 -25.742,129.512 -26.26,130.933 -0.391,1.426 -0.391,2.329 0,1.943 0.258,-0.39 26.65,-47.226 58.486,-104.155 z m 131.318,-229.004 c 22.256,-38.428 41.533,-71.68 42.822,-73.877 l 2.461,-4.141 -17.08,-9.443 c -9.443,-5.176 -39.072,-20.967 -65.732,-35.068 -40.742,-21.348 -48.643,-25.098 -49.287,-23.281 -2.842,8.018 -40.244,175.439 -39.209,175.83 0.654,0.254 19.541,9.961 41.924,21.602 30.791,16.045 41.143,20.83 42.178,19.795 0.781,-0.904 19.667,-32.989 41.923,-71.417 z m -240.137,38.164 c 57.578,-5.557 104.795,-10.479 105.059,-10.605 0.771,-0.781 40.635,-176.094 40.244,-176.611 -0.908,-0.898 -336.138,32.607 -336.787,33.643 -0.127,0.391 77.114,149.697 81.641,157.842 1.812,3.369 3.75,6.084 4.268,6.084 0.522,0 48.002,-4.659 105.575,-10.353 z m 329.795,-186.435 c 9.189,-15.918 27.695,-47.998 41.016,-71.162 l 24.326,-42.305 -29.365,-18.379 c -16.055,-10.215 -32.998,-20.957 -37.656,-24.062 -4.658,-2.979 -34.287,-22.119 -65.986,-42.441 -54.082,-34.795 -57.568,-36.865 -58.486,-34.15 -3.105,9.961 -36.221,181.133 -35.186,182.168 2.334,2.334 142.197,80.215 143.35,79.824 0.653,-0.255 8.808,-13.448 17.987,-29.493 z m -358.125,-32.344 c 101.816,-10.615 185.664,-19.668 186.436,-19.932 1.162,-0.391 38.818,-184.238 37.783,-184.883 -0.264,-0.264 -51.621,5.693 -114.248,12.939 -62.622,7.373 -156.294,18.369 -208.306,24.453 -80.601,9.443 -171.431,20.703 -174.145,21.738 -1.685,0.508 83.579,165.215 85.522,165.215 1.036,10e-4 85.259,-8.798 186.958,-19.53 z m 485.176,-193.174 c 38.428,-66.113 39.59,-68.438 37.266,-70.645 -1.289,-1.289 -53.828,-41.787 -116.836,-89.912 -63.008,-48.262 -116.562,-89.404 -119.16,-91.348 l -4.648,-3.623 -18.242,91.475 c -10.098,50.332 -18.506,92.764 -18.633,94.316 -0.391,2.334 14.355,12.812 99.883,70.771 55.117,37.393 100.273,67.803 100.391,67.666 0.135,-0.126 18.124,-31.044 39.979,-68.7 z m -512.607,-39.463 c 144.268,-16.299 262.9,-30.01 263.428,-30.664 1.416,-1.553 38.027,-185.527 37.129,-186.436 -0.781,-0.781 -647.041,85.654 -653.125,87.334 l -3.359,0.908 27.817,53.691 c 15.264,29.502 33.896,65.469 41.27,79.824 l 13.584,26.143 5.435,-0.654 c 2.977,-0.38 123.558,-13.974 267.821,-30.146 z"
   inkscape:connector-curvature="0"
   style="fill:#000000;fill-opacity:1" />

</g>
</svg>
