<?xml version="1.0" encoding="UTF-8" standalone="no"?>
<svg
   xmlns:dc="http://purl.org/dc/elements/1.1/"
   xmlns:cc="http://creativecommons.org/ns#"
   xmlns:rdf="http://www.w3.org/1999/02/22-rdf-syntax-ns#"
   xmlns:svg="http://www.w3.org/2000/svg"
   xmlns="http://www.w3.org/2000/svg"
   xmlns:sodipodi="http://sodipodi.sourceforge.net/DTD/sodipodi-0.dtd"
   xmlns:inkscape="http://www.inkscape.org/namespaces/inkscape"
   viewBox="0 0 350 200"
   height="200"
   width="350"
   preserveAspectRatio="xMid meet"
   id="svg2"
   version="1.1"
   inkscape:version="0.48.3.1 r9886"
   sodipodi:docname="ringing-bells.svg">
  <metadata
     id="metadata13">
    <rdf:RDF>
      <cc:Work
         rdf:about="">
        <dc:format>image/svg+xml</dc:format>
        <dc:type
           rdf:resource="http://purl.org/dc/dcmitype/StillImage" />
        <dc:title></dc:title>
      </cc:Work>
    </rdf:RDF>
  </metadata>
  <defs
     id="defs11" />
  <sodipodi:namedview
     pagecolor="#ffffff"
     bordercolor="#666666"
     borderopacity="1"
     objecttolerance="10"
     gridtolerance="10"
     guidetolerance="10"
     inkscape:pageopacity="0"
     inkscape:pageshadow="2"
     inkscape:window-width="1280"
     inkscape:window-height="974"
     id="namedview9"
     showgrid="false"
     inkscape:zoom="1.0257143"
     inkscape:cx="87.202464"
     inkscape:cy="100"
     inkscape:window-x="1280"
     inkscape:window-y="0"
     inkscape:window-maximized="1"
     inkscape:current-layer="svg2" />
  <rect
     width="175"
     height="200"
     x="175"
     y="0"
     fill="#144f0b"
     id="rect4" />
  <rect
     width="175"
     height="200"
     x="0"
     y="0"
     fill="#294ba7"
     id="rect6" />
  <path
     d="m 177.71989,106.86458 c 7.72538,-0.41046 19.01657,-2.58056 27.85239,-7.50795 6.4103,-9.83502 10.65089,-17.86001 14.82132,-26.61172 -5.73357,0.42634 -12.33999,-0.0581 -18.2348,-1.71004 7.11493,-1.21663 16.04688,-3.75688 22.80174,-8.0901 8.3711,-11.8683 14.55854,-30.99804 16.67748,-42.77603 -19.153,-0.3186 -37.09556,5.92194 -49.21812,13.73453 -4.0933,4.65918 -7.63817,15.89571 -8.47614,21.84324 -1.84917,-4.29369 -3.19294,-11.17414 -1.61546,-16.91546 -9.71758,5.10064 -18.22124,10.92879 -27.83727,19.02664 -4.79096,10.16641 -5.55335,21.88975 -5.11189,28.45509 -2.61001,-3.68208 -6.10216,-10.8443 -5.60799,-18.69138 -17.26584,16.66236 -29.17406,38.48157 -17.8759,62.03949 12.52332,-12.9175 26.92063,-25.17106 35.68164,-30.86665 -20.23204,23.11491 -39.09434,53.54049 -53.21491,81.0487 l 16.68523,-5.22777 c 7.22191,-13.17176 13.71399,-24.50868 19.54524,-32.63521 21.52076,2.81543 40.61872,-14.4287 53.50134,-31.90461 -5.13243,1.26314 -14.97442,-0.38798 -20.3739,-3.21077 z"
     id="pen-12-icon"
     inkscape:connector-curvature="0" />
</svg>
