<?xml version="1.0" encoding="UTF-8" standalone="no"?>
<svg
   xmlns:dc="http://purl.org/dc/elements/1.1/"
   xmlns:cc="http://creativecommons.org/ns#"
   xmlns:rdf="http://www.w3.org/1999/02/22-rdf-syntax-ns#"
   xmlns:svg="http://www.w3.org/2000/svg"
   xmlns="http://www.w3.org/2000/svg"
   xmlns:sodipodi="http://sodipodi.sourceforge.net/DTD/sodipodi-0.dtd"
   xmlns:inkscape="http://www.inkscape.org/namespaces/inkscape"
   viewBox="0 0 350 200"
   height="200"
   width="350"
   preserveAspectRatio="xMid meet"
   id="svg2"
   version="1.1"
   inkscape:version="0.48.3.1 r9886"
   sodipodi:docname="radio-tower.svg">
  <metadata
     id="metadata13">
    <rdf:RDF>
      <cc:Work
         rdf:about="">
        <dc:format>image/svg+xml</dc:format>
        <dc:type
           rdf:resource="http://purl.org/dc/dcmitype/StillImage" />
        <dc:title></dc:title>
      </cc:Work>
    </rdf:RDF>
  </metadata>
  <defs
     id="defs11" />
  <sodipodi:namedview
     pagecolor="#ffffff"
     bordercolor="#666666"
     borderopacity="1"
     objecttolerance="10"
     gridtolerance="10"
     guidetolerance="10"
     inkscape:pageopacity="0"
     inkscape:pageshadow="2"
     inkscape:window-width="1280"
     inkscape:window-height="974"
     id="namedview9"
     showgrid="false"
     inkscape:zoom="1.0257143"
     inkscape:cx="86.310747"
     inkscape:cy="100.35051"
     inkscape:window-x="1280"
     inkscape:window-y="0"
     inkscape:window-maximized="1"
     inkscape:current-layer="svg2" />
  <rect
     width="175"
     height="200"
     x="175"
     y="0"
     fill="#144f0b"
     id="rect4" />
  <rect
     width="175"
     height="200"
     x="0"
     y="0"
     fill="#294ba7"
     id="rect6" />
  <path
     d="m 144.15108,138.28304 c 7.89495,-7.89496 18.8017,-12.7781 30.84892,-12.7781 12.04722,0 22.95398,4.88314 30.84893,12.7781 L 175,169.13196 144.15108,138.28304 z M 129.91264,124.0446 c 11.53844,-11.53845 27.47927,-18.67594 45.08689,-18.67594 17.60809,0 33.54844,7.13701 45.08736,18.67594 l 18.98396,-18.98396 C 222.67346,88.663255 200.02133,78.521555 174.99953,78.521555 c -25.02133,0 -47.67345,10.1417 -64.07085,26.539085 l 18.98396,18.98396 z M 96.691193,90.823155 C 116.73208,70.781795 144.41828,58.386695 175,58.386695 c 30.58173,0 58.26745,12.3951 78.30881,32.43646 l 19.45855,-19.45855 C 247.74604,46.343755 213.18053,30.868035 175,30.868035 c -38.18053,0 -72.74651,15.47572 -97.76736,40.49657 l 19.458553,19.45855 z"
     id="wireless-icon"
     inkscape:connector-curvature="0" />
</svg>
