<?xml version="1.0" encoding="UTF-8" standalone="no"?>
<svg
   xmlns:dc="http://purl.org/dc/elements/1.1/"
   xmlns:cc="http://creativecommons.org/ns#"
   xmlns:rdf="http://www.w3.org/1999/02/22-rdf-syntax-ns#"
   xmlns:svg="http://www.w3.org/2000/svg"
   xmlns="http://www.w3.org/2000/svg"
   xmlns:sodipodi="http://sodipodi.sourceforge.net/DTD/sodipodi-0.dtd"
   xmlns:inkscape="http://www.inkscape.org/namespaces/inkscape"
   viewBox="0 0 350 200"
   height="200"
   width="350"
   preserveAspectRatio="xMid meet"
   id="svg2"
   version="1.1"
   inkscape:version="0.48.3.1 r9886"
   sodipodi:docname="biohazard.svg">
  <metadata
     id="metadata13">
    <rdf:RDF>
      <cc:Work
         rdf:about="">
        <dc:format>image/svg+xml</dc:format>
        <dc:type
           rdf:resource="http://purl.org/dc/dcmitype/StillImage" />
        <dc:title></dc:title>
      </cc:Work>
    </rdf:RDF>
  </metadata>
  <defs
     id="defs11" />
  <sodipodi:namedview
     pagecolor="#ffffff"
     bordercolor="#666666"
     borderopacity="1"
     objecttolerance="10"
     gridtolerance="10"
     guidetolerance="10"
     inkscape:pageopacity="0"
     inkscape:pageshadow="2"
     inkscape:window-width="1280"
     inkscape:window-height="974"
     id="namedview9"
     showgrid="false"
     inkscape:zoom="1.0257143"
     inkscape:cx="86.310747"
     inkscape:cy="100.35051"
     inkscape:window-x="1280"
     inkscape:window-y="0"
     inkscape:window-maximized="1"
     inkscape:current-layer="svg2" />
  <rect
     width="175"
     height="200"
     x="175"
     y="0"
     fill="#144f0b"
     id="rect4" />
  <rect
     width="175"
     height="200"
     x="0"
     y="0"
     fill="#294ba7"
     id="rect6" />
  <path
     d="m 192.32676,64.17539 26.12428,-45.24783 c 25.96611,15.02342 43.43586,43.10097 43.43586,75.2584 h -52.2165 c 0,-12.8078 -6.98638,-24.00778 -17.34364,-30.01057 z m -34.65395,60.02198 -26.12385,45.24741 c 12.78165,7.39509 27.62202,11.62766 43.45104,11.62766 15.82902,0 30.66939,-4.23257 43.45104,-11.62766 l -26.12428,-45.24825 c -10.4918,6.08208 -23.71,6.34316 -34.65395,8.4e-4 z m 4.2e-4,-60.0224 -26.12427,-45.24741 C 105.58285,33.95098 88.113096,62.02853 88.113096,94.18596 h 52.216074 c 0,-12.8078 6.98638,-24.00778 17.34406,-30.01099 z M 175,114.09445 c 10.99414,0 19.90806,-8.91434 19.90806,-19.90849 0,-10.99457 -8.91392,-19.90722 -19.90806,-19.90722 -10.99457,0 -19.90849,8.91265 -19.90849,19.90722 0,10.99415 8.91392,19.90849 19.90849,19.90849 z"
     id="danger-2-icon"
     inkscape:connector-curvature="0" />
</svg>
