<?xml version="1.0" encoding="UTF-8" standalone="no"?>
<svg
   xmlns:dc="http://purl.org/dc/elements/1.1/"
   xmlns:cc="http://creativecommons.org/ns#"
   xmlns:rdf="http://www.w3.org/1999/02/22-rdf-syntax-ns#"
   xmlns:svg="http://www.w3.org/2000/svg"
   xmlns="http://www.w3.org/2000/svg"
   xmlns:sodipodi="http://sodipodi.sourceforge.net/DTD/sodipodi-0.dtd"
   xmlns:inkscape="http://www.inkscape.org/namespaces/inkscape"
   viewBox="0 0 350 200"
   height="200"
   width="350"
   preserveAspectRatio="xMid meet"
   id="svg2"
   version="1.1"
   inkscape:version="0.48.3.1 r9886"
   sodipodi:docname="rubber-duck.svg">
  <metadata
     id="metadata13">
    <rdf:RDF>
      <cc:Work
         rdf:about="">
        <dc:format>image/svg+xml</dc:format>
        <dc:type
           rdf:resource="http://purl.org/dc/dcmitype/StillImage" />
        <dc:title></dc:title>
      </cc:Work>
    </rdf:RDF>
  </metadata>
  <defs
     id="defs11" />
  <sodipodi:namedview
     pagecolor="#ffffff"
     bordercolor="#666666"
     borderopacity="1"
     objecttolerance="10"
     gridtolerance="10"
     guidetolerance="10"
     inkscape:pageopacity="0"
     inkscape:pageshadow="2"
     inkscape:window-width="1280"
     inkscape:window-height="974"
     id="namedview9"
     showgrid="false"
     inkscape:zoom="1.0257143"
     inkscape:cx="87.202464"
     inkscape:cy="100"
     inkscape:window-x="1280"
     inkscape:window-y="0"
     inkscape:window-maximized="1"
     inkscape:current-layer="svg2" />
  <rect
     width="175"
     height="200"
     x="175"
     y="0"
     fill="#144f0b"
     id="rect4" />
  <rect
     width="175"
     height="200"
     x="0"
     y="0"
     fill="#294ba7"
     id="rect6" />
  <g
     id="g5852"
     transform="matrix(1.8676708,0,0,1.8676708,81.482877,6.6145831)">
	<g
   id="g5854">
		<path
   id="path5856"
   d="m 93.061,1.22 c 1.992,-0.586 4.028,-1.101 6.109,-1.214 0.263,0.001 0.534,-0.03 0.793,0.04 0.105,0.624 -0.045,1.249 -0.06,1.873 -0.58,4.13 -2.07,8.084 -3.979,11.776 -2.185,4.183 -4.955,8.042 -8.072,11.58 -2.089,2.389 -4.358,4.611 -6.667,6.787 -3.612,3.398 -7.399,6.611 -11.357,9.602 -0.794,0.623 -1.645,1.176 -2.421,1.82 -0.199,0.59 -0.136,1.237 -0.259,1.846 -0.204,1.597 -0.438,3.19 -0.619,4.792 -1.471,1.272 -3.066,2.393 -4.651,3.513 -3.316,2.25 -6.753,4.365 -10.47,5.891 -0.497,0.222 -1.011,0.444 -1.547,0.541 0.007,-0.169 0.14,-0.29 0.226,-0.423 0.81,-1.143 1.571,-2.318 2.27,-3.532 0.716,-1.375 1.516,-2.772 1.713,-4.335 -0.824,0.33 -1.585,0.845 -2.445,1.091 C 46.005,58.807 40.137,64.512 34.19,70.122 26.725,77.136 19.085,83.964 11.295,90.618 7.619,93.795 3.855,96.868 0.143,100.002 0.144,99.796 0.307,99.66 0.42,99.509 6.91,91.61 13.572,83.852 20.399,76.241 29.036,66.657 37.896,57.264 47.241,48.369 l 0.043,-0.065 c -0.167,-0.377 0.185,-0.703 0.315,-1.035 0.171,-0.407 0.505,-0.763 0.555,-1.208 -0.525,-0.008 -1.013,0.238 -1.51,0.381 -2.33,0.905 -4.416,2.318 -6.461,3.729 l -0.126,0.022 c -0.053,-0.208 0.058,-0.405 0.123,-0.594 1.708,-4.376 4.178,-8.412 6.872,-12.245 0.911,-1.28 1.853,-2.54 2.85,-3.755 2.118,-0.346 4.271,-0.555 6.404,-0.848 0.16,-0.025 0.358,-0.041 0.45,-0.198 3.021,-4.225 6.262,-8.296 9.732,-12.161 2.569,-2.834 5.221,-5.597 8.084,-8.135 C 79.98,7.492 86.158,3.438 93.061,1.22 z m -9.507,5.385 c -4.39,2.728 -8.415,6.034 -12.034,9.716 -0.266,0.189 -0.164,0.542 -0.088,0.801 0.364,1.152 0.985,2.206 1.665,3.199 0.045,0.002 0.133,0.006 0.178,0.008 C 77.664,16.08 82.3,12.088 87.127,8.343 86.881,7.822 86.423,7.402 86.129,6.895 85.829,6.49 85.635,6.013 85.298,5.636 84.668,5.849 84.137,6.288 83.554,6.605 z m 8.122,6.31 c -3.631,4.792 -7.614,9.308 -11.754,13.662 -0.077,0.109 -0.261,0.205 -0.218,0.359 1.025,0.701 2.109,1.345 3.314,1.683 0.158,0.021 0.377,0.132 0.506,-0.017 3.579,-3.504 6.815,-7.372 9.5,-11.605 0.452,-0.749 0.975,-1.486 1.34,-2.271 -0.905,-0.554 -1.785,-1.153 -2.612,-1.821 l -0.076,0.01 z M 71.813,22.952 c -3.591,3.538 -6.993,7.259 -10.316,11.047 -0.057,0.185 0.15,0.319 0.236,0.463 1.259,1.461 2.612,2.857 4.142,4.038 0.042,0.011 0.125,0.032 0.168,0.042 4.111,-3.568 8.094,-7.282 11.914,-11.162 0.098,-0.129 0.27,-0.229 0.281,-0.406 -0.903,-0.824 -1.879,-1.577 -2.721,-2.473 -0.898,-0.841 -1.651,-1.825 -2.47,-2.732 -0.458,0.336 -0.816,0.796 -1.234,1.183 z M 58.36,31.78 c -3.683,5.098 -7.131,10.382 -10.034,15.966 -0.229,0.298 0.178,0.507 0.344,0.706 0.088,0.142 0.302,0.195 0.383,0.012 3.486,-4.824 7.137,-9.53 10.996,-14.063 0.105,-0.142 0.346,-0.335 0.157,-0.513 -0.59,-0.748 -1.065,-1.576 -1.55,-2.391 C 58.5,31.482 58.46,31.694 58.36,31.78 z m 7.503,8.03 c -4.646,3.972 -9.482,7.717 -14.434,11.303 0.074,0.27 0.359,0.436 0.552,0.63 0.201,0.007 0.378,-0.104 0.557,-0.184 5.685,-2.836 11.048,-6.293 16.117,-10.114 0.005,-0.163 -0.219,-0.18 -0.315,-0.268 -0.813,-0.389 -1.531,-0.943 -2.289,-1.419 -0.048,0.013 -0.14,0.039 -0.188,0.052 z m -18.216,8.946 c -1.469,1.347 -2.877,2.756 -4.28,4.172 -6.7,6.894 -12.852,14.318 -18.554,22.051 l -0.029,0.091 c 1.01,-0.666 1.967,-1.451 2.947,-2.176 7.683,-5.861 15.07,-12.14 21.82,-19.061 0.496,-0.579 1.095,-1.069 1.535,-1.69 -0.265,-0.393 -0.656,-0.827 -1.081,-1.013 -1.51,1.222 -3.072,2.378 -4.62,3.553 -0.248,0.126 -0.413,0.423 -0.683,0.478 0.019,-0.044 0.053,-0.132 0.071,-0.177 1.298,-1.604 2.557,-3.24 3.844,-4.853 0.102,-0.116 0.222,-0.273 0.115,-0.427 -0.237,-0.247 -0.493,-0.475 -0.725,-0.727 -0.104,-0.09 -0.195,-0.267 -0.36,-0.221 z"
   inkscape:connector-curvature="0"
   style="fill:#000000" />

	</g>

</g>
</svg>
