<?xml version="1.0" encoding="UTF-8" standalone="no"?>
<svg
   xmlns:dc="http://purl.org/dc/elements/1.1/"
   xmlns:cc="http://creativecommons.org/ns#"
   xmlns:rdf="http://www.w3.org/1999/02/22-rdf-syntax-ns#"
   xmlns:svg="http://www.w3.org/2000/svg"
   xmlns="http://www.w3.org/2000/svg"
   xmlns:sodipodi="http://sodipodi.sourceforge.net/DTD/sodipodi-0.dtd"
   xmlns:inkscape="http://www.inkscape.org/namespaces/inkscape"
   viewBox="0 0 350 200"
   height="200"
   width="350"
   preserveAspectRatio="xMid meet"
   id="svg2"
   version="1.1"
   inkscape:version="0.48.3.1 r9886"
   sodipodi:docname="rocket-launching.svg">
  <metadata
     id="metadata13">
    <rdf:RDF>
      <cc:Work
         rdf:about="">
        <dc:format>image/svg+xml</dc:format>
        <dc:type
           rdf:resource="http://purl.org/dc/dcmitype/StillImage" />
        <dc:title></dc:title>
      </cc:Work>
    </rdf:RDF>
  </metadata>
  <defs
     id="defs11" />
  <sodipodi:namedview
     pagecolor="#ffffff"
     bordercolor="#666666"
     borderopacity="1"
     objecttolerance="10"
     gridtolerance="10"
     guidetolerance="10"
     inkscape:pageopacity="0"
     inkscape:pageshadow="2"
     inkscape:window-width="1280"
     inkscape:window-height="974"
     id="namedview9"
     showgrid="false"
     inkscape:zoom="1.0257143"
     inkscape:cx="87.202464"
     inkscape:cy="100"
     inkscape:window-x="1280"
     inkscape:window-y="0"
     inkscape:window-maximized="1"
     inkscape:current-layer="svg2" />
  <rect
     width="175"
     height="200"
     x="175"
     y="0"
     fill="#144f0b"
     id="rect4" />
  <rect
     width="175"
     height="200"
     x="0"
     y="0"
     fill="#294ba7"
     id="rect6" />
  <g
     id="g5887"
     transform="matrix(1.9359287,0,0,1.9359287,78.300939,3.2040284)">
	<g
   id="g5889">
		<path
   id="path5891"
   d="m 86.747,2.727 c 3.722,-1.365 7.604,-2.335 11.561,-2.679 0.51,-0.04 1.022,-0.064 1.536,-0.037 0.158,1.457 -0.049,2.918 -0.281,4.354 -1.708,9.696 -6.34,18.621 -11.959,26.609 l -0.053,0.065 c -0.178,-0.534 -0.494,-1.014 -0.647,-1.555 1.492,-2.227 2.978,-4.467 4.266,-6.823 -1.418,-0.789 -2.716,-1.757 -4.026,-2.703 -1.193,1.414 -2.237,2.953 -3.473,4.331 -1.672,-2.162 -3.497,-4.216 -5.575,-5.998 -0.769,-0.689 -1.606,-1.292 -2.398,-1.951 l 0.078,-0.077 c 1.336,-1.229 2.835,-2.267 4.254,-3.398 -0.936,-1.377 -1.908,-2.729 -2.789,-4.145 -2.399,1.248 -4.594,2.837 -6.879,4.274 l -0.097,0.058 c -0.517,-0.234 -1.021,-0.522 -1.59,-0.597 l 0.084,-0.064 C 74.344,8.481 80.317,5.05 86.747,2.727 z"
   inkscape:connector-curvature="0"
   style="fill:#000000" />

		<g
   id="g5893">
			<path
   id="path5895"
   d="m 18.441,57.398 0.085,-0.092 c 1.236,3.629 2.908,7.123 5.162,10.232 -1.125,2.012 -2.29,4.006 -3.3,6.078 0.302,0.332 0.623,0.646 0.982,0.916 1.29,-1.615 2.405,-3.367 3.74,-4.945 l 0.063,-0.074 c 1.581,1.877 3.324,3.605 5.195,5.191 l -0.075,0.062 c -1.59,1.332 -3.353,2.445 -4.974,3.74 0.255,0.289 0.506,0.592 0.818,0.828 0.295,0.016 0.559,-0.166 0.826,-0.268 1.557,-0.746 3.068,-1.586 4.593,-2.393 0.274,-0.135 0.52,-0.318 0.726,-0.543 0.051,0.002 0.15,0.008 0.201,0.012 0.344,0.48 0.894,0.734 1.37,1.061 2.753,1.781 5.759,3.154 8.879,4.16 l -0.087,0.066 c -2.544,1.879 -5.229,3.566 -7.942,5.189 -3.357,1.992 -6.844,3.783 -10.479,5.215 -0.473,0.178 -0.947,0.363 -1.448,0.451 0.194,-0.561 0.584,-1.023 0.894,-1.523 1.591,-2.311 3.087,-4.701 4.298,-7.234 0.567,-1.27 1.082,-2.59 1.288,-3.973 -1.131,0.482 -2.193,1.117 -3.355,1.527 -0.396,-0.229 -0.655,-0.648 -1.024,-0.922 -2.063,2.164 -4.171,4.289 -6.377,6.309 C 13.21,91.171 7.478,95.364 1.483,99.122 0.992,99.42 0.526,99.762 0,100 0.134,99.514 0.462,99.121 0.712,98.693 4.553,92.558 8.834,86.685 13.664,81.289 c 1.96,-2.115 3.988,-4.17 6.099,-6.135 -0.155,-0.539 -0.916,-0.795 -1.098,-1.35 0.471,-1.051 1.129,-2.018 1.511,-3.109 -3.511,0.711 -6.577,2.684 -9.57,4.559 -1.043,0.615 -1.949,1.445 -3.029,2.006 0.161,-0.809 0.469,-1.578 0.782,-2.338 2.532,-5.986 5.874,-11.604 9.588,-16.928 0.143,-0.217 0.312,-0.412 0.494,-0.596 z m 1.768,18.174 c -2.058,1.875 -3.841,4.037 -5.375,6.357 -1.363,2.08 -2.623,4.248 -3.588,6.541 0.77,-0.201 1.443,-0.654 2.16,-0.984 3.956,-2.062 7.747,-4.604 10.722,-7.959 -0.101,-0.422 -0.614,-0.676 -0.876,-1.031 -0.339,0.162 -0.623,0.412 -0.917,0.645 -2.129,1.65 -4.309,3.234 -6.41,4.922 -0.321,0.25 -0.602,0.57 -0.986,0.732 -0.084,-0.428 0.328,-0.688 0.534,-1.006 1.892,-2.459 3.879,-4.85 5.731,-7.336 -0.325,-0.301 -0.599,-0.666 -0.995,-0.881 z"
   inkscape:connector-curvature="0"
   style="fill:#000000" />

		</g>

	</g>

	<g
   id="g5897">
		<path
   id="path5899"
   d="m 41.437,11.336 c 8.28,-2.948 17.613,-2.817 25.803,0.378 0.512,0.208 1.049,0.372 1.519,0.677 l -0.084,0.064 c -4.24,3.194 -8.396,6.53 -12.134,10.312 -7.924,7.726 -15.091,16.205 -21.651,25.11 -0.506,0.663 -0.936,1.382 -1.481,2.014 -0.274,0.321 -0.731,0.338 -1.115,0.424 -2.995,0.395 -5.993,0.754 -8.989,1.135 -0.511,0.031 -0.778,0.526 -1.082,0.871 -1.257,1.641 -2.583,3.24 -3.695,4.984 l -0.085,0.092 c 0.007,-0.219 -0.018,-0.432 -0.075,-0.639 -1.825,-6.049 -2.036,-12.57 -0.656,-18.732 1.368,-6.134 4.363,-11.89 8.574,-16.554 4.099,-4.569 9.36,-8.091 15.151,-10.136 z"
   inkscape:connector-curvature="0"
   style="fill:#000000" />

		<path
   id="path5901"
   d="m 70.264,13.053 0.097,-0.058 c 0.399,0.372 0.917,0.563 1.385,0.827 1.11,0.612 2.188,1.281 3.224,2.014 0.248,0.178 0.519,0.323 0.806,0.428 l -0.078,0.077 c -2.546,1.944 -4.947,4.075 -7.394,6.146 -2.9,2.5 -5.685,5.134 -8.504,7.724 -0.392,0.361 -0.753,0.763 -1.21,1.043 -1.043,-1.557 -2.064,-3.172 -2.582,-4.991 -0.075,-0.337 -0.259,-0.745 0.029,-1.033 0.738,-0.997 1.745,-1.745 2.621,-2.614 3.618,-3.478 7.532,-6.633 11.606,-9.563 z"
   inkscape:connector-curvature="0"
   style="fill:#000000" />

		<path
   id="path5903"
   d="m 82.998,25.131 c 0.22,-0.241 0.375,-0.567 0.672,-0.724 0.204,0.073 0.284,0.304 0.419,0.459 0.996,1.431 1.914,2.918 2.706,4.473 0.175,0.222 -0.118,0.431 -0.213,0.616 -3.482,4.871 -7.44,9.389 -11.653,13.64 -0.232,0.209 -0.499,0.539 -0.854,0.42 -1.969,-0.504 -3.754,-1.542 -5.404,-2.703 1.289,-1.483 2.705,-2.856 4.014,-4.324 3.558,-3.845 7.011,-7.789 10.313,-11.857 z"
   inkscape:connector-curvature="0"
   style="fill:#000000" />

		<path
   id="path5905"
   d="m 87.551,31.04 0.053,-0.065 c 3.047,6.792 3.985,14.502 2.637,21.823 -1.242,6.919 -4.559,13.438 -9.369,18.558 -6.845,7.365 -16.804,11.75 -26.87,11.697 -3.63,0.059 -7.256,-0.494 -10.737,-1.508 -0.205,-0.055 -0.41,-0.094 -0.618,-0.113 l 0.087,-0.066 c 1.679,-1.148 3.298,-2.385 4.893,-3.648 0.365,-0.318 0.815,-0.637 0.909,-1.145 0.438,-3.061 0.773,-6.133 1.186,-9.195 0.1,-0.996 1.198,-1.352 1.863,-1.928 8.364,-6.123 16.221,-12.924 23.611,-20.19 4.49,-4.4 8.603,-9.177 12.355,-14.22 z"
   inkscape:connector-curvature="0"
   style="fill:#000000" />

		<path
   id="path5907"
   d="m 57.514,34.385 c 0.328,-0.309 0.611,-0.672 0.997,-0.913 1.178,1.447 2.391,2.869 3.697,4.201 1.22,1.227 2.557,2.326 3.855,3.467 0.111,0.134 0.422,0.272 0.275,0.49 -2.176,2.422 -4.61,4.59 -6.923,6.876 -3.714,3.564 -7.562,6.986 -11.415,10.4 -0.146,0.119 -0.356,0.357 -0.545,0.158 -1.19,-0.891 -2.288,-1.9 -3.331,-2.957 -1.159,-1.172 -2.363,-2.316 -3.335,-3.651 -0.155,-0.213 0.125,-0.39 0.229,-0.544 2.607,-2.917 5.179,-5.864 7.863,-8.709 2.8,-3.015 5.707,-5.926 8.633,-8.818 z"
   inkscape:connector-curvature="0"
   style="fill:#000000" />

		<path
   id="path5909"
   d="m 35.219,49.79 c 0.353,-0.47 0.665,-0.979 1.127,-1.353 0.733,1.335 1.712,2.532 2.417,3.872 -0.29,0.549 -0.74,0.984 -1.125,1.461 -4.324,5.111 -8.5,10.352 -12.463,15.744 l -0.063,0.074 c -0.356,-0.764 -1.054,-1.303 -1.396,-2.068 1.253,-2.334 2.689,-4.568 4.092,-6.816 2.359,-3.714 4.845,-7.343 7.411,-10.914 z"
   inkscape:connector-curvature="0"
   style="fill:#000000" />

		<path
   id="path5911"
   d="m 47.178,61.387 c 0.185,-0.105 0.403,-0.428 0.636,-0.244 1.258,0.877 2.571,1.668 3.916,2.408 -0.705,0.633 -1.508,1.143 -2.261,1.715 -3.174,2.32 -6.427,4.535 -9.751,6.635 -2.38,1.465 -4.749,2.965 -7.233,4.244 -0.05,-0.004 -0.15,-0.01 -0.201,-0.012 -0.708,-0.391 -1.262,-1.012 -1.989,-1.365 l 0.075,-0.062 c 5.765,-4.227 11.335,-8.718 16.808,-13.319 z"
   inkscape:connector-curvature="0"
   style="fill:#000000" />

	</g>

</g>
</svg>
