<?xml version="1.0" encoding="UTF-8" standalone="no"?>
<svg
   xmlns:dc="http://purl.org/dc/elements/1.1/"
   xmlns:cc="http://creativecommons.org/ns#"
   xmlns:rdf="http://www.w3.org/1999/02/22-rdf-syntax-ns#"
   xmlns:svg="http://www.w3.org/2000/svg"
   xmlns="http://www.w3.org/2000/svg"
   xmlns:sodipodi="http://sodipodi.sourceforge.net/DTD/sodipodi-0.dtd"
   xmlns:inkscape="http://www.inkscape.org/namespaces/inkscape"
   viewBox="0 0 350 200"
   height="200"
   width="350"
   preserveAspectRatio="xMid meet"
   id="svg2"
   version="1.1"
   inkscape:version="0.48.3.1 r9886"
   sodipodi:docname="chicken.svg">
  <metadata
     id="metadata13">
    <rdf:RDF>
      <cc:Work
         rdf:about="">
        <dc:format>image/svg+xml</dc:format>
        <dc:type
           rdf:resource="http://purl.org/dc/dcmitype/StillImage" />
        <dc:title></dc:title>
      </cc:Work>
    </rdf:RDF>
  </metadata>
  <defs
     id="defs11" />
  <sodipodi:namedview
     pagecolor="#ffffff"
     bordercolor="#666666"
     borderopacity="1"
     objecttolerance="10"
     gridtolerance="10"
     guidetolerance="10"
     inkscape:pageopacity="0"
     inkscape:pageshadow="2"
     inkscape:window-width="1280"
     inkscape:window-height="974"
     id="namedview9"
     showgrid="false"
     inkscape:zoom="1.0257143"
     inkscape:cx="87.202464"
     inkscape:cy="100"
     inkscape:window-x="1280"
     inkscape:window-y="0"
     inkscape:window-maximized="1"
     inkscape:current-layer="svg2" />
  <rect
     width="175"
     height="200"
     x="175"
     y="0"
     fill="#144f0b"
     id="rect4" />
  <rect
     width="175"
     height="200"
     x="0"
     y="0"
     fill="#294ba7"
     id="rect6" />
  <g
     id="g3965"
     transform="matrix(3.0435016,0,0,3.0435016,22.821555,-37.62541)">
    <path
       id="path3953"
       d="m 25.069,45.08 c 0,0 -1.459,-1.251 -2.892,-1.642 -0.478,-0.13 -6.927,2.753 -7.111,2.753 -0.186,0 -2.37,0.924 -3.335,0.741 -0.91,-0.173 -2.07,-0.838 -3.149,-1.664 -0.296,-0.227 -2.408,-0.553 -2.223,-1.945 0.185,-1.393 0.556,-1.474 2.037,-2.267 1.483,-0.793 2.779,-3.386 6.484,-4.683 3.706,-1.297 4.075,-6.484 30.752,-6.484 0,0 0.186,-0.741 2.409,-1.482 2.222,-0.741 5.002,2.779 5.187,3.891 0.186,1.112 0.371,3.334 0,3.705 -0.371,0.371 -3.706,1.846 -5.372,1.757 -1.668,-0.089 -7.045,0.482 -6.299,1.948 0.687,1.349 1.667,1.349 1.667,1.349 l 7.039,2.912 7.596,3.244 9.264,2.128 c 0,0 18.339,-9.344 24.823,-8.284 6.483,1.06 -6.854,0.874 -17.043,13.473 0,0 1.852,5.37 2.964,7.594 0,0 -2.408,0.012 -3.705,-0.74 -1.138,-0.661 -6.299,-6.483 -6.483,-7.225 -0.186,-0.742 -2.39,-0.069 -5.558,1.111 -2.268,0.844 -8.337,0 -8.893,-0.186 -0.311,-0.104 -3.564,-0.207 -7.152,-0.471 -2.841,-0.21 -5.89,-0.521 -7.854,-1.012 0,0 -10.744,8.894 -12.413,8.521 -1.667,-0.369 5.187,-10.744 5.187,-10.744 L 25.069,45.08 z"
       inkscape:connector-curvature="0"
       style="fill:#000000" />
    <path
       id="path3955"
       d="m 57.858,47.524 c 0,0 1.668,-2.036 2.594,-1.992 0.926,0.044 2.459,3.154 2.636,3.194"
       inkscape:connector-curvature="0"
       style="fill:#000000" />
    <path
       id="path3957"
       d="m 46.075,54.508 c 0,0 10.166,3.65 11.783,3.657 1.618,0.005 -5.033,-3.28 -5.033,-3.28"
       inkscape:connector-curvature="0"
       style="fill:#000000" />
  </g>
</svg>
