<?xml version="1.0" encoding="UTF-8" standalone="no"?>
<svg
   xmlns:dc="http://purl.org/dc/elements/1.1/"
   xmlns:cc="http://creativecommons.org/ns#"
   xmlns:rdf="http://www.w3.org/1999/02/22-rdf-syntax-ns#"
   xmlns:svg="http://www.w3.org/2000/svg"
   xmlns="http://www.w3.org/2000/svg"
   xmlns:sodipodi="http://sodipodi.sourceforge.net/DTD/sodipodi-0.dtd"
   xmlns:inkscape="http://www.inkscape.org/namespaces/inkscape"
   viewBox="0 0 350 200"
   height="200"
   width="350"
   preserveAspectRatio="xMid meet"
   id="svg2"
   version="1.1"
   inkscape:version="0.48.3.1 r9886"
   sodipodi:docname="shield-filled.svg">
  <metadata
     id="metadata13">
    <rdf:RDF>
      <cc:Work
         rdf:about="">
        <dc:format>image/svg+xml</dc:format>
        <dc:type
           rdf:resource="http://purl.org/dc/dcmitype/StillImage" />
        <dc:title></dc:title>
      </cc:Work>
    </rdf:RDF>
  </metadata>
  <defs
     id="defs11" />
  <sodipodi:namedview
     pagecolor="#ffffff"
     bordercolor="#666666"
     borderopacity="1"
     objecttolerance="10"
     gridtolerance="10"
     guidetolerance="10"
     inkscape:pageopacity="0"
     inkscape:pageshadow="2"
     inkscape:window-width="1280"
     inkscape:window-height="974"
     id="namedview9"
     showgrid="false"
     inkscape:zoom="1.0257143"
     inkscape:cx="86.310747"
     inkscape:cy="100.35051"
     inkscape:window-x="1280"
     inkscape:window-y="0"
     inkscape:window-maximized="1"
     inkscape:current-layer="svg2" />
  <rect
     width="175"
     height="200"
     x="175"
     y="0"
     fill="#144f0b"
     id="rect4" />
  <rect
     width="175"
     height="200"
     x="0"
     y="0"
     fill="#294ba7"
     id="rect6" />
  <path
     d="m 175,44.495705 c 16.97799,12.3473 36.42493,17.17425 51.84948,18.88311 C 222.82455,100.57395 202.54017,135.08256 175,156.65944 147.50067,135.11509 127.18051,100.62419 123.15052,63.378815 138.57507,61.669955 158.02201,56.842645 175,44.495705 m 0,-18.95106 c -18.5842,18.58384 -45.23958,24.21607 -67.04596,24.21607 0,53.251485 30.23972,100.478585 67.04596,124.694635 36.80624,-24.21605 67.04596,-71.44316 67.04596,-124.694635 -21.80638,0 -48.46212,-5.63223 -67.04596,-24.21607 z m 39.50543,46.92639 C 201.99549,70.070035 188.09511,65.604155 175,57.538765 v 84.905485 c 19.3049,-17.65532 34.09188,-42.496295 39.50543,-69.973215 z"
     id="shield-4-icon"
     inkscape:connector-curvature="0" />
</svg>
