<?xml version="1.0" encoding="UTF-8" standalone="no"?>
<svg
   xmlns:dc="http://purl.org/dc/elements/1.1/"
   xmlns:cc="http://creativecommons.org/ns#"
   xmlns:rdf="http://www.w3.org/1999/02/22-rdf-syntax-ns#"
   xmlns:svg="http://www.w3.org/2000/svg"
   xmlns="http://www.w3.org/2000/svg"
   xmlns:sodipodi="http://sodipodi.sourceforge.net/DTD/sodipodi-0.dtd"
   xmlns:inkscape="http://www.inkscape.org/namespaces/inkscape"
   viewBox="0 0 350 200"
   height="200"
   width="350"
   preserveAspectRatio="xMid meet"
   id="svg2"
   version="1.1"
   inkscape:version="0.48.3.1 r9886"
   sodipodi:docname="smile-filled.svg">
  <metadata
     id="metadata13">
    <rdf:RDF>
      <cc:Work
         rdf:about="">
        <dc:format>image/svg+xml</dc:format>
        <dc:type
           rdf:resource="http://purl.org/dc/dcmitype/StillImage" />
        <dc:title></dc:title>
      </cc:Work>
    </rdf:RDF>
  </metadata>
  <defs
     id="defs11" />
  <sodipodi:namedview
     pagecolor="#ffffff"
     bordercolor="#666666"
     borderopacity="1"
     objecttolerance="10"
     gridtolerance="10"
     guidetolerance="10"
     inkscape:pageopacity="0"
     inkscape:pageshadow="2"
     inkscape:window-width="1280"
     inkscape:window-height="974"
     id="namedview9"
     showgrid="false"
     inkscape:zoom="1.0257143"
     inkscape:cx="87.202464"
     inkscape:cy="100"
     inkscape:window-x="1280"
     inkscape:window-y="0"
     inkscape:window-maximized="1"
     inkscape:current-layer="svg2" />
  <rect
     width="175"
     height="200"
     x="175"
     y="0"
     fill="#144f0b"
     id="rect4" />
  <rect
     width="175"
     height="200"
     x="0"
     y="0"
     fill="#294ba7"
     id="rect6" />
  <path
     d="m 175,31.0245 c 38.11976,0 68.97549,30.84908 68.97549,68.9755 0,38.12018 -30.84908,68.9755 -68.97549,68.9755 -38.11935,0 -68.9755,-30.84909 -68.9755,-68.9755 0,-38.11977 30.8495,-68.9755 68.9755,-68.9755 m 0,-16.6206 c -47.27356,0 -85.596101,38.32254 -85.596101,85.5961 0,47.27356 38.322541,85.5961 85.596101,85.5961 47.27356,0 85.5961,-38.32254 85.5961,-85.5961 0,-47.27356 -38.32254,-85.5961 -85.5961,-85.5961 z m -23.40763,54.64023 c -7.11361,0 -12.88096,5.76693 -12.88096,12.88096 0,7.11404 5.76735,12.88097 12.88096,12.88097 7.11404,0 12.88097,-5.76693 12.88097,-12.88097 0,-7.11403 -5.76693,-12.88096 -12.88097,-12.88096 z m 48.4769,0 c -7.11403,0 -12.88097,5.76693 -12.88097,12.88096 0,7.11404 5.76694,12.88097 12.88097,12.88097 7.11403,0 12.88096,-5.76693 12.88096,-12.88097 0,-7.11403 -5.76693,-12.88096 -12.88096,-12.88096 z m 16.62101,42.72907 c -11.21932,8.86419 -23.54598,14.32322 -40.85925,14.32322 -17.31327,0 -29.63994,-5.45903 -40.85926,-14.32322 l -3.65279,3.6528 c 8.36224,12.76005 23.7363,26.45999 44.51205,26.45999 20.77575,0 36.14981,-13.69994 44.51205,-26.45999 l -3.6528,-3.6528 z"
     id="smiley-2-icon"
     inkscape:connector-curvature="0" />
</svg>
