<?xml version="1.0" encoding="UTF-8" standalone="no"?>
<svg
   xmlns:dc="http://purl.org/dc/elements/1.1/"
   xmlns:cc="http://creativecommons.org/ns#"
   xmlns:rdf="http://www.w3.org/1999/02/22-rdf-syntax-ns#"
   xmlns:svg="http://www.w3.org/2000/svg"
   xmlns="http://www.w3.org/2000/svg"
   xmlns:sodipodi="http://sodipodi.sourceforge.net/DTD/sodipodi-0.dtd"
   xmlns:inkscape="http://www.inkscape.org/namespaces/inkscape"
   viewBox="0 0 350 200"
   height="200"
   width="350"
   preserveAspectRatio="xMid meet"
   id="svg2"
   version="1.1"
   inkscape:version="0.48.3.1 r9886"
   sodipodi:docname="magic-wand.svg">
  <metadata
     id="metadata13">
    <rdf:RDF>
      <cc:Work
         rdf:about="">
        <dc:format>image/svg+xml</dc:format>
        <dc:type
           rdf:resource="http://purl.org/dc/dcmitype/StillImage" />
        <dc:title></dc:title>
      </cc:Work>
    </rdf:RDF>
  </metadata>
  <defs
     id="defs11" />
  <sodipodi:namedview
     pagecolor="#ffffff"
     bordercolor="#666666"
     borderopacity="1"
     objecttolerance="10"
     gridtolerance="10"
     guidetolerance="10"
     inkscape:pageopacity="0"
     inkscape:pageshadow="2"
     inkscape:window-width="1280"
     inkscape:window-height="974"
     id="namedview9"
     showgrid="false"
     inkscape:zoom="1.0257143"
     inkscape:cx="87.202464"
     inkscape:cy="100"
     inkscape:window-x="1280"
     inkscape:window-y="0"
     inkscape:window-maximized="1"
     inkscape:current-layer="svg2" />
  <rect
     width="175"
     height="200"
     x="175"
     y="0"
     fill="#144f0b"
     id="rect4" />
  <rect
     width="175"
     height="200"
     x="0"
     y="0"
     fill="#294ba7"
     id="rect6" />
  <path
     d="m 175,29.027855 c -39.19695,0 -70.97215,31.77519 -70.97215,70.97214 0,39.196955 31.7752,70.972145 70.97215,70.972145 39.19696,0 70.97215,-31.77519 70.97215,-70.972145 0,-39.19695 -31.77519,-70.97214 -70.97215,-70.97214 z m 22.79619,42.28527 c 6.48844,0 11.7483,5.26021 11.7483,11.7483 0,6.48844 -5.25986,11.74865 -11.7483,11.74865 -6.48844,0 -11.74865,-5.26021 -11.74865,-11.74865 0,-6.48809 5.26021,-11.7483 11.74865,-11.7483 z m -44.21393,0 c 6.48809,0 11.7483,5.26021 11.7483,11.7483 0,6.48844 -5.26021,11.74865 -11.7483,11.74865 -6.48844,0 -11.74865,-5.26021 -11.74865,-11.74865 0,-6.48809 5.26021,-11.7483 11.74865,-11.7483 z m 22.10679,66.436485 c -18.94887,0 -32.9707,-12.49524 -40.59779,-24.13329 l 3.33156,-3.33156 c 10.23273,8.08497 21.47562,13.0637 37.26623,13.0637 15.79096,0 27.03385,-4.97873 37.26658,-13.0637 l 3.33156,3.33156 c -7.6271,11.6384 -21.64926,24.13329 -40.59814,24.13329 z"
     id="smiley-icon"
     inkscape:connector-curvature="0" />
</svg>
