<?xml version="1.0" encoding="UTF-8" standalone="no"?>
<svg
   xmlns:dc="http://purl.org/dc/elements/1.1/"
   xmlns:cc="http://creativecommons.org/ns#"
   xmlns:rdf="http://www.w3.org/1999/02/22-rdf-syntax-ns#"
   xmlns:svg="http://www.w3.org/2000/svg"
   xmlns="http://www.w3.org/2000/svg"
   xmlns:sodipodi="http://sodipodi.sourceforge.net/DTD/sodipodi-0.dtd"
   xmlns:inkscape="http://www.inkscape.org/namespaces/inkscape"
   viewBox="0 0 350 200"
   height="200"
   width="350"
   preserveAspectRatio="xMid meet"
   id="svg2"
   version="1.1"
   inkscape:version="0.48.3.1 r9886"
   sodipodi:docname="smile-hollow.svg">
  <metadata
     id="metadata13">
    <rdf:RDF>
      <cc:Work
         rdf:about="">
        <dc:format>image/svg+xml</dc:format>
        <dc:type
           rdf:resource="http://purl.org/dc/dcmitype/StillImage" />
        <dc:title></dc:title>
      </cc:Work>
    </rdf:RDF>
  </metadata>
  <defs
     id="defs11" />
  <sodipodi:namedview
     pagecolor="#ffffff"
     bordercolor="#666666"
     borderopacity="1"
     objecttolerance="10"
     gridtolerance="10"
     guidetolerance="10"
     inkscape:pageopacity="0"
     inkscape:pageshadow="2"
     inkscape:window-width="1280"
     inkscape:window-height="974"
     id="namedview9"
     showgrid="false"
     inkscape:zoom="1.0257143"
     inkscape:cx="87.202464"
     inkscape:cy="100"
     inkscape:window-x="1280"
     inkscape:window-y="0"
     inkscape:window-maximized="1"
     inkscape:current-layer="svg2" />
  <rect
     width="175"
     height="200"
     x="175"
     y="0"
     fill="#144f0b"
     id="rect4" />
  <rect
     width="175"
     height="200"
     x="0"
     y="0"
     fill="#294ba7"
     id="rect6" />
  <path
     d="m 174.99999,11.966575 c -48.61966,0 -88.033415,39.41376 -88.033415,88.03342 0,48.619675 39.413755,88.033435 88.033415,88.033435 48.61967,0 88.03343,-39.41377 88.03343,-88.033435 0,-48.61966 -39.41376,-88.03342 -88.03343,-88.03342 z m 0,17.09387 c 25.06603,0 47.07738,12.9704 59.69436,32.57364 H 115.3065 c 12.6157,-19.60196 34.62448,-32.57364 59.69349,-32.57364 z m 0,141.879115 c -39.20478,0 -70.93954,-31.7275 -70.93954,-70.939565 0,-8.68539 1.55981,-17.00241 4.41064,-24.69081 h 10.8576 c 2.22392,12.59049 12.31827,28.481385 30.12794,28.481385 17.32421,0 15.06141,-16.159695 25.8438,-16.159695 10.78237,0 8.51957,16.159695 25.84379,16.159695 17.80968,0 27.90404,-15.891325 30.12795,-28.481385 h 10.25717 c 2.85041,7.68754 4.41022,16.00499 4.41022,24.69081 0,39.205655 -31.7275,70.939565 -70.93956,70.939565 z m 42.87741,-58.83111 3.75681,3.7568 c -8.60036,13.12339 -24.41219,27.21344 -45.77952,27.21344 -21.36734,0 -37.17917,-14.09005 -45.77952,-27.21344 l 3.75681,-3.7568 c 11.53879,9.11658 24.21645,14.73107 42.02271,14.73107 17.80625,0 30.48392,-5.61449 42.02271,-14.73107 z"
     id="smiley-cool-icon"
     inkscape:connector-curvature="0" />
</svg>
