<?xml version="1.0" encoding="UTF-8" standalone="no"?>
<svg
   xmlns:dc="http://purl.org/dc/elements/1.1/"
   xmlns:cc="http://creativecommons.org/ns#"
   xmlns:rdf="http://www.w3.org/1999/02/22-rdf-syntax-ns#"
   xmlns:svg="http://www.w3.org/2000/svg"
   xmlns="http://www.w3.org/2000/svg"
   xmlns:sodipodi="http://sodipodi.sourceforge.net/DTD/sodipodi-0.dtd"
   xmlns:inkscape="http://www.inkscape.org/namespaces/inkscape"
   viewBox="0 0 350 200"
   height="200"
   width="350"
   preserveAspectRatio="xMid meet"
   id="svg2"
   version="1.1"
   inkscape:version="0.48.3.1 r9886"
   sodipodi:docname="music-note.svg">
  <metadata
     id="metadata13">
    <rdf:RDF>
      <cc:Work
         rdf:about="">
        <dc:format>image/svg+xml</dc:format>
        <dc:type
           rdf:resource="http://purl.org/dc/dcmitype/StillImage" />
        <dc:title></dc:title>
      </cc:Work>
    </rdf:RDF>
  </metadata>
  <defs
     id="defs11" />
  <sodipodi:namedview
     pagecolor="#ffffff"
     bordercolor="#666666"
     borderopacity="1"
     objecttolerance="10"
     gridtolerance="10"
     guidetolerance="10"
     inkscape:pageopacity="0"
     inkscape:pageshadow="2"
     inkscape:window-width="1280"
     inkscape:window-height="974"
     id="namedview9"
     showgrid="false"
     inkscape:zoom="1.0257143"
     inkscape:cx="86.310747"
     inkscape:cy="100.35051"
     inkscape:window-x="1280"
     inkscape:window-y="0"
     inkscape:window-maximized="1"
     inkscape:current-layer="svg2" />
  <rect
     width="175"
     height="200"
     x="175"
     y="0"
     fill="#144f0b"
     id="rect4" />
  <rect
     width="175"
     height="200"
     x="0"
     y="0"
     fill="#294ba7"
     id="rect6" />
  <path
     d="M 73.076643,105.47987 H 62.116905 V 94.52013 h 10.959738 v 10.95974 z M 287.8831,94.52013 h -10.95974 v 10.95974 H 287.8831 V 94.52013 z m -16.5229,-8.2198 h -10.95974 v 27.39934 H 271.3602 V 86.30033 z M 89.599542,89.04027 H 78.639805 v 21.91946 H 89.599542 V 89.04027 z M 106.12299,83.5604 H 95.163253 v 32.8792 H 106.12299 V 83.5604 z m 16.5229,-10.959741 h -10.95974 v 54.798681 h 10.95974 V 72.600659 z M 139.16878,83.5604 h -10.95973 v 32.8792 h 10.95973 V 83.5604 z m 16.52345,-21.919478 h -10.95974 v 76.718148 h 10.95974 V 61.640922 z M 172.21512,39.721449 H 161.25539 V 160.27855 h 10.95973 V 39.721449 z M 188.7446,61.640922 H 177.78377 V 138.35907 H 188.7446 V 61.640922 z m 16.5229,16.439605 H 194.30776 V 121.91947 H 205.2675 V 78.080527 z m 16.52345,5.479873 h -10.95974 v 32.8792 h 10.95974 V 83.5604 z m 16.5229,5.47987 h -10.95974 v 21.91946 h 10.95974 V 89.04027 z m 16.5229,-10.959743 h -10.95974 v 43.838943 h 10.95974 V 78.080527 z"
     id="sound-wave-icon"
     inkscape:connector-curvature="0" />
</svg>
