<?xml version="1.0" encoding="UTF-8" standalone="no"?>
<svg
   xmlns:dc="http://purl.org/dc/elements/1.1/"
   xmlns:cc="http://creativecommons.org/ns#"
   xmlns:rdf="http://www.w3.org/1999/02/22-rdf-syntax-ns#"
   xmlns:svg="http://www.w3.org/2000/svg"
   xmlns="http://www.w3.org/2000/svg"
   xmlns:sodipodi="http://sodipodi.sourceforge.net/DTD/sodipodi-0.dtd"
   xmlns:inkscape="http://www.inkscape.org/namespaces/inkscape"
   viewBox="0 0 350 200"
   height="200"
   width="350"
   preserveAspectRatio="xMid meet"
   id="svg2"
   version="1.1"
   inkscape:version="0.48.3.1 r9886"
   sodipodi:docname="arrow-rocket.svg">
  <metadata
     id="metadata13">
    <rdf:RDF>
      <cc:Work
         rdf:about="">
        <dc:format>image/svg+xml</dc:format>
        <dc:type
           rdf:resource="http://purl.org/dc/dcmitype/StillImage" />
        <dc:title></dc:title>
      </cc:Work>
    </rdf:RDF>
  </metadata>
  <defs
     id="defs11" />
  <sodipodi:namedview
     pagecolor="#ffffff"
     bordercolor="#666666"
     borderopacity="1"
     objecttolerance="10"
     gridtolerance="10"
     guidetolerance="10"
     inkscape:pageopacity="0"
     inkscape:pageshadow="2"
     inkscape:window-width="1280"
     inkscape:window-height="974"
     id="namedview9"
     showgrid="false"
     inkscape:zoom="1.0257143"
     inkscape:cx="87.202464"
     inkscape:cy="100"
     inkscape:window-x="1280"
     inkscape:window-y="0"
     inkscape:window-maximized="1"
     inkscape:current-layer="svg2" />
  <rect
     width="175"
     height="200"
     x="175"
     y="0"
     fill="#144f0b"
     id="rect4" />
  <rect
     width="175"
     height="200"
     x="0"
     y="0"
     fill="#294ba7"
     id="rect6" />
  <path
     d="m 174.75766,51.532034 c -26.72572,0 -48.46797,21.742726 -48.46797,48.467966 0,26.72572 21.74225,48.46797 48.46797,48.46797 26.72572,0 48.46797,-21.74225 48.46797,-48.46797 0,-26.72524 -21.74225,-48.467966 -48.46797,-48.467966 z M 124.00152,62.710686 108.16995,46.87814 121.87814,33.16946 137.74849,49.039811 c -5.25247,3.825092 -9.89328,8.440212 -13.74697,13.670875 z M 112.49523,109.69359 H 90.18106 V 90.30641 h 22.31417 c -0.4905,3.16059 -0.74593,6.39777 -0.74593,9.69359 0,3.29631 0.25543,6.533 0.74593,9.69359 z M 165.30641,37.700731 V 15.181059 h 19.38718 v 22.596736 c -3.23766,-0.51473 -6.55529,-0.786151 -9.93593,-0.786151 -3.21197,0 -6.36772,0.243309 -9.45125,0.709087 z m 46.74056,11.54313 16.0744,-16.074401 13.70917,13.70868 -16.11221,16.112691 c -3.82557,-5.252474 -8.44021,-9.893766 -13.67136,-13.74697 z m -74.29799,101.716809 -15.87036,15.87035 -13.70819,-13.70868 15.83158,-15.83206 c 3.8532,5.23018 8.49401,9.8453 13.74697,13.67039 z m 46.94461,11.26153 v 22.59674 h -19.38718 v -22.51967 c 3.08353,0.46626 6.23928,0.70909 9.45125,0.70909 3.38064,0 6.69827,-0.27094 9.93593,-0.78616 z m 75.12535,-71.91579 v 19.38718 h -22.79885 c 0.4905,-3.16059 0.74592,-6.39728 0.74592,-9.69359 0,-3.29582 -0.25542,-6.533 -0.74592,-9.69359 h 22.79885 z m -34.10061,46.70276 16.11221,16.11269 -13.70917,13.70868 -16.0744,-16.0744 c 5.23067,-3.85321 9.84579,-8.49401 13.67136,-13.74697 z"
     id="brightness-2-icon"
     inkscape:connector-curvature="0" />
</svg>
