<?xml version="1.0" encoding="UTF-8" standalone="no"?>
<svg
   xmlns:dc="http://purl.org/dc/elements/1.1/"
   xmlns:cc="http://creativecommons.org/ns#"
   xmlns:rdf="http://www.w3.org/1999/02/22-rdf-syntax-ns#"
   xmlns:svg="http://www.w3.org/2000/svg"
   xmlns="http://www.w3.org/2000/svg"
   xmlns:sodipodi="http://sodipodi.sourceforge.net/DTD/sodipodi-0.dtd"
   xmlns:inkscape="http://www.inkscape.org/namespaces/inkscape"
   viewBox="0 0 350 200"
   height="200"
   width="350"
   preserveAspectRatio="xMid meet"
   id="svg2"
   version="1.1"
   inkscape:version="0.48.3.1 r9886"
   sodipodi:docname="palm-tree.svg">
  <metadata
     id="metadata13">
    <rdf:RDF>
      <cc:Work
         rdf:about="">
        <dc:format>image/svg+xml</dc:format>
        <dc:type
           rdf:resource="http://purl.org/dc/dcmitype/StillImage" />
        <dc:title></dc:title>
      </cc:Work>
    </rdf:RDF>
  </metadata>
  <defs
     id="defs11" />
  <sodipodi:namedview
     pagecolor="#ffffff"
     bordercolor="#666666"
     borderopacity="1"
     objecttolerance="10"
     gridtolerance="10"
     guidetolerance="10"
     inkscape:pageopacity="0"
     inkscape:pageshadow="2"
     inkscape:window-width="1280"
     inkscape:window-height="974"
     id="namedview9"
     showgrid="false"
     inkscape:zoom="1.0257143"
     inkscape:cx="87.202464"
     inkscape:cy="100"
     inkscape:window-x="1280"
     inkscape:window-y="0"
     inkscape:window-maximized="1"
     inkscape:current-layer="svg2" />
  <rect
     width="175"
     height="200"
     x="175"
     y="0"
     fill="#144f0b"
     id="rect4" />
  <rect
     width="175"
     height="200"
     x="0"
     y="0"
     fill="#294ba7"
     id="rect6" />
  <path
     id="path7663"
     d="m 172.19445,28.446689 v 0.07656 l 0.15461,-0.07656 h 4.5348 l 0.53739,0.07656 0.0766,-0.07656 0.46233,0.07656 c 6.35262,0 14.09075,1.486081 23.21138,4.458243 5.12473,1.895879 10.19692,4.356168 15.21957,7.379367 3.12528,1.844842 6.76392,4.534798 10.91444,8.06987 5.02266,4.765966 8.35208,8.454149 9.99127,11.069051 3.8443,5.2253 6.84198,10.836381 8.99304,16.831742 2.46029,7.481442 3.68968,14.014193 3.68968,19.599756 l 0.0751,0.306223 h -0.0766 l 0.0766,0.07655 v 4.841023 l -0.0766,0.0781 0.0766,0.0781 c 0,3.79026 -0.76856,9.24672 -2.30568,16.37091 -1.43504,5.02115 -2.99768,9.32478 -4.68791,12.91239 -1.84484,3.63865 -4.35467,7.558 -7.53398,11.75955 -2.04899,2.51133 -4.71493,5.3544 -7.99331,8.53221 -5.27784,4.45824 -9.73458,7.76364 -13.37323,9.91471 -1.58815,0.8196 -3.0232,1.22939 -4.30363,1.22939 -3.433,0 -5.73867,-1.69173 -6.91703,-5.07369 -0.20565,-0.92167 -0.30772,-1.71725 -0.30772,-2.38223 0,-2.92112 2.56236,-5.71315 7.68709,-8.37759 1.58815,-0.76856 4.1235,-2.71698 7.60753,-5.84225 4.45824,-4.40721 7.558,-8.06987 9.30077,-10.991 1.99795,-3.07423 3.66266,-6.27756 4.99563,-9.60699 1.84484,-5.2253 2.76651,-8.63428 2.76651,-10.22243 l 0.77006,-4.91908 -0.15461,-0.0766 0.15461,-0.46233 v -0.69201 l 0.0766,-0.0781 -0.0766,-0.0766 0.0766,-0.30772 0.0766,-3.458517 c 0,-15.269106 -5.66061,-28.54176 -16.98485,-39.813458 -4.20156,-3.740721 -7.30131,-6.173991 -9.29926,-7.301311 -10.45361,-6.507233 -21.49564,-9.7616 -33.1276,-9.7616 h -3.53507 l -0.46084,0.07656 v -0.07656 l -0.0765,0.07656 h -0.0781 c -5.17426,0 -11.42631,1.203875 -18.75314,3.613128 -3.89533,1.486081 -7.81468,3.432997 -11.75955,5.842249 -2.51132,1.486081 -5.99536,4.30363 -10.4536,8.454149 l -2.53684,2.766512 c -9.7873,10.914445 -14.68086,23.417039 -14.68086,37.507788 l 0.0766,0.84511 h -0.0781 l 0.0765,0.0766 v 0.0766 c 0,10.04381 4.20156,21.57219 12.60467,34.58817 6.81496,10.14588 11.83761,17.80595 15.06496,22.98171 1.12732,1.89738 2.22762,3.99591 3.3039,6.30309 h -0.0766 c -6.866,-3.12528 -13.27116,-6.78944 -19.21548,-10.991 -4.50928,-3.53507 -8.17195,-7.09866 -10.991,-10.68327 -3.22734,-4.50928 -5.61108,-8.35207 -7.1482,-11.52988 -1.84484,-3.58762 -3.56209,-8.06988 -5.15024,-13.45129 -0.92167,-3.38196 -1.66471,-7.04463 -2.22912,-10.9895 l -0.38428,-4.22707 h 0.0766 l -0.0766,-0.0781 -0.07506,-3.919352 v -2.152565 l 0.07656,-0.07656 -0.07656,-0.07656 v -0.07655 l 0.07656,-0.07656 -0.07656,-0.07656 0.07656,-0.460835 c 0,-7.020606 1.84484,-15.090476 5.53452,-24.21111 2.30568,-5.072189 5.30336,-10.094842 8.99304,-15.064957 1.94692,-2.664438 5.15025,-6.122954 9.60699,-10.377048 4.61136,-3.893832 9.04408,-7.019105 13.29668,-9.37732 3.79175,-2.101529 8.58324,-4.125001 14.37294,-6.071917 4.71493,-1.537118 10.88892,-2.6134 18.52348,-3.227347 l 1.84484,-0.07656 z m 0.84511,20.060591 v 0.154613 l 0.0766,-0.154613 h 4.38169 l 0.0765,0.154613 0.0781,-0.154613 c 3.43299,0.102074 7.8402,0.819596 13.22011,2.152566 4.66239,1.486081 8.53221,3.099754 11.60494,4.842522 2.87009,1.588155 6.14998,3.997408 9.83966,7.224755 4.61135,4.458243 7.58352,7.814684 8.91499,10.069324 2.51132,3.638646 4.45824,7.50696 5.84224,11.606442 1.12732,2.817549 1.9214,6.891512 2.38224,12.220388 v 0.07656 h -0.0766 l 0.0766,0.07655 v 2.844569 c 0,13.885104 -5.73868,26.287124 -17.21753,37.200064 -5.27783,4.66239 -8.65979,7.07164 -10.14588,7.22475 -0.92167,0.4098 -1.91989,0.61395 -2.99768,0.61395 h -0.15311 c -3.22885,0 -5.48349,-1.61367 -6.76392,-4.84252 l -0.38578,-2.30568 c 0,-3.38196 2.25464,-6.07192 6.76392,-8.06987 1.43505,-0.71903 3.09976,-1.99946 4.99564,-3.8443 3.0247,-3.17781 5.17576,-6.09743 6.45769,-8.76337 1.17836,-2.04899 2.30568,-4.91758 3.38196,-8.60726 0.61395,-3.0232 0.92167,-5.20129 0.92167,-6.53276 h 0.0766 l -0.0766,-0.15611 0.0766,-0.38428 v -4.150518 l -0.0766,-0.384279 h 0.0766 l -0.0766,-0.307724 c 0,-3.740721 -1.30595,-8.250001 -3.91935,-13.527839 -1.28193,-2.356715 -3.15229,-4.868041 -5.61108,-7.532479 -2.6119,-2.664438 -4.8155,-4.50928 -6.60931,-5.534526 -7.27579,-4.662391 -14.52606,-6.995087 -21.75082,-6.995087 h -0.22966 l -0.0781,-0.154613 -0.0766,0.154613 h -0.23116 l -0.0766,-0.154613 -0.0766,0.154613 h -0.84511 l -0.0781,-0.154613 -0.0766,0.154613 h -1.38401 l -0.46083,0.07656 v -0.07656 c -3.22735,0.307723 -5.73868,0.717521 -7.53398,1.229394 -8.60726,2.458788 -15.32015,6.507233 -20.13714,12.143833 -2.76802,3.023198 -4.91908,6.225027 -6.4562,9.606987 -1.99795,4.662391 -2.99768,9.044078 -2.99768,13.14356 v 1.613678 l -0.0766,0.0766 0.0766,0.0766 v 0.15311 c 0,6.76392 2.56236,13.91212 7.68559,21.4446 13.01596,20.70006 23.03275,37.1235 30.05335,49.26733 l -0.0765,0.0766 h -0.0781 c -8.96752,-0.8196 -14.96288,-1.66471 -17.98458,-2.53534 -11.93797,-18.85676 -18.62533,-29.33588 -20.06038,-31.43441 -6.35412,-9.63401 -10.29898,-16.70565 -11.8361,-21.21493 -1.69173,-5.07219 -2.53685,-10.32601 -2.53685,-15.75696 0,-11.785074 3.86832,-22.597438 11.60644,-32.435594 1.17836,-1.537118 3.61163,-3.971889 7.30131,-7.30131 6.96957,-5.534526 14.5771,-9.19719 22.8271,-10.990995 2.97366,-0.658979 6.4562,-1.121315 10.4536,-1.376501 z m 1.2309,20.444871 v 0.154612 l 0.0765,-0.154612 h 2.38374 l 0.15461,0.154612 0.0766,-0.154612 h 0.0765 l 0.0781,0.154612 0.0765,-0.154612 c 2.25464,0 5.30336,0.537391 9.14766,1.613673 7.78766,2.766513 13.70647,7.89124 17.75491,15.372682 2.25464,4.662391 3.38196,9.224209 3.38196,13.68095 v 0.460834 c 0,8.50669 -3.66416,16.2178 -10.99099,23.13483 -3.07424,2.46029 -5.86777,3.68968 -8.3776,3.68968 -3.12677,0 -5.45797,-1.66471 -6.99508,-4.99563 -0.25519,-0.71752 -0.4083,-1.46056 -0.46084,-2.22912 0,-2.56086 1.89588,-5.14875 5.68764,-7.76215 2.71547,-1.84484 4.45824,-3.97189 5.2253,-6.37964 0.61545,-1.74277 0.92167,-3.45851 0.92167,-5.15024 v -0.30773 c 0,-5.124726 -2.25464,-9.659524 -6.76392,-13.604394 -2.97066,-2.203602 -6.66185,-3.305404 -11.06755,-3.305404 l -0.61395,0.07656 v -0.07656 l -0.078,0.07656 h -0.15462 c -4.04694,0 -7.94227,1.741266 -11.68149,5.225301 -3.0247,3.484034 -4.5348,7.481441 -4.5348,11.990717 0,3.8428 2.63892,9.50492 7.91676,16.98636 13.62991,21.47011 24.10903,38.40393 31.43436,50.80595 -6.55827,1.74127 -11.60494,2.6119 -15.14151,2.6119 -6.76392,-9.83815 -14.7062,-22.46834 -23.82683,-37.89056 -3.12528,-5.2268 -6.60931,-10.63373 -10.4521,-16.21929 -3.433,-5.32888 -5.15175,-10.88892 -5.15175,-16.67864 0,-8.044347 2.94665,-15.167027 8.83993,-21.366536 3.17631,-2.921125 6.07191,-4.997135 8.68531,-6.225028 4.66239,-1.946916 7.76365,-2.921125 9.29927,-2.921125 0.87213,-0.204148 2.56236,-0.409798 5.07369,-0.613946 z"
     inkscape:connector-curvature="0"
     style="fill:#000000" />
</svg>
