<?xml version="1.0" encoding="UTF-8" standalone="no"?>
<svg
   xmlns:dc="http://purl.org/dc/elements/1.1/"
   xmlns:cc="http://creativecommons.org/ns#"
   xmlns:rdf="http://www.w3.org/1999/02/22-rdf-syntax-ns#"
   xmlns:svg="http://www.w3.org/2000/svg"
   xmlns="http://www.w3.org/2000/svg"
   xmlns:sodipodi="http://sodipodi.sourceforge.net/DTD/sodipodi-0.dtd"
   xmlns:inkscape="http://www.inkscape.org/namespaces/inkscape"
   viewBox="0 0 350 200"
   height="200"
   width="350"
   preserveAspectRatio="xMid meet"
   id="svg2"
   version="1.1"
   inkscape:version="0.48.3.1 r9886"
   sodipodi:docname="mountains.svg">
  <metadata
     id="metadata13">
    <rdf:RDF>
      <cc:Work
         rdf:about="">
        <dc:format>image/svg+xml</dc:format>
        <dc:type
           rdf:resource="http://purl.org/dc/dcmitype/StillImage" />
        <dc:title></dc:title>
      </cc:Work>
    </rdf:RDF>
  </metadata>
  <defs
     id="defs11" />
  <sodipodi:namedview
     pagecolor="#ffffff"
     bordercolor="#666666"
     borderopacity="1"
     objecttolerance="10"
     gridtolerance="10"
     guidetolerance="10"
     inkscape:pageopacity="0"
     inkscape:pageshadow="2"
     inkscape:window-width="1280"
     inkscape:window-height="974"
     id="namedview9"
     showgrid="false"
     inkscape:zoom="1.0257143"
     inkscape:cx="87.202464"
     inkscape:cy="100"
     inkscape:window-x="1280"
     inkscape:window-y="0"
     inkscape:window-maximized="1"
     inkscape:current-layer="svg2" />
  <rect
     width="175"
     height="200"
     x="175"
     y="0"
     fill="#144f0b"
     id="rect4" />
  <rect
     width="175"
     height="200"
     x="0"
     y="0"
     fill="#294ba7"
     id="rect6" />
  <g
     id="g7487"
     transform="matrix(1.6827426,0,0,1.6827426,90.863614,15.655454)">
	<path
   id="path7489"
   d="m 46.154,3.097 c 2.376,-0.12 4.759,-0.125 7.137,-0.032 5.371,0.365 10.69,1.557 15.669,3.615 11.157,4.535 20.542,13.257 25.871,24.058 3.332,6.718 5.172,14.201 5.159,21.707 0.214,10.44 -3.126,20.884 -9.177,29.38 -3.58,4.999 -8.044,9.398 -13.212,12.743 l -0.12,-0.042 c -1.672,-2.105 -2.944,-4.544 -3.613,-7.154 -0.494,-1.568 -0.751,-3.197 -1.062,-4.808 -0.381,-0.986 -1.588,-0.962 -2.3,-1.579 -1.218,-0.941 -2.102,-2.447 -2.13,-4 0.193,-0.096 0.444,-0.078 0.572,0.117 0.443,0.521 0.741,1.167 1.276,1.613 1.493,1.28 3.516,1.85 5.461,1.731 1.413,-0.188 2.898,0.002 4.249,-0.549 2.511,-0.874 4.402,-2.818 6.472,-4.397 0.754,-0.509 1.422,-1.132 2.111,-1.723 0.027,-0.056 0.08,-0.164 0.105,-0.219 -0.472,-0.083 -0.928,0.121 -1.39,0.192 -1.271,0.219 -2.544,0.447 -3.832,0.55 -1.891,0.312 -3.815,0.386 -5.729,0.308 -0.679,-0.072 -1.376,-0.098 -2.02,-0.346 -1.299,-0.437 -2.288,-1.448 -3.197,-2.431 -1.97,-2.259 -3.412,-4.903 -5.146,-7.335 -0.853,-1.153 -1.843,-2.272 -3.152,-2.912 -0.861,-0.373 -1.781,-0.608 -2.714,-0.701 -0.419,0.013 -0.629,-0.412 -0.92,-0.643 -0.709,-0.713 -1.74,-0.861 -2.64,-1.207 C 57.337,58.813 56.746,58.78 56.167,58.767 53.505,58.37 50.756,58.755 48.131,58.063 47.038,57.714 46.095,57.037 45.145,56.415 43.823,55.556 42.594,54.556 41.214,53.787 39.185,52.899 37.97,50.918 36.151,49.723 34.942,48.609 33.506,47.785 31.997,47.145 31.021,46.628 29.92,46.012 29.523,44.916 l 0.042,-0.147 c 0.784,0.074 1.73,0.367 2.397,-0.196 0.018,-0.243 -0.167,-0.423 -0.294,-0.605 -0.455,-0.554 -0.883,-1.139 -1.447,-1.591 -0.779,-0.643 -1.848,-0.859 -2.537,-1.626 -1.037,-1.216 -1.417,-2.869 -2.54,-4.023 -0.595,-0.616 -1.563,-0.458 -2.22,-0.968 -1.354,-0.92 -2.378,-2.22 -3.535,-3.359 -0.602,-0.563 -0.854,-1.371 -1.339,-2.02 -0.182,-0.24 -0.525,-0.117 -0.709,0.051 -0.454,0.398 -0.835,0.878 -1.179,1.375 -0.334,0.511 -0.202,1.145 -0.21,1.717 -0.539,-0.107 -1.293,-0.307 -1.59,0.323 -0.348,0.827 -0.282,1.853 0.125,2.657 1.039,1.946 1.122,4.206 1.885,6.25 0.287,1.015 0.856,2.022 0.688,3.106 -0.527,0.941 -0.88,1.982 -0.937,3.066 -0.134,2.245 0.05,4.5 0.389,6.72 0.422,1.857 1.125,3.641 1.957,5.353 0.71,1.679 1.972,3.023 3.1,4.425 0.912,1.164 2.135,2.031 3.099,3.148 0.595,0.675 1.389,1.203 1.812,2.015 0.941,2.568 1.975,5.127 3.463,7.435 1.779,3.017 2.138,6.654 1.826,10.086 -0.07,0.339 -0.101,0.928 -0.578,0.902 -1.016,-0.029 -2.031,-0.155 -3.041,-0.275 -0.336,-0.012 -0.722,-0.083 -0.995,0.168 -0.927,0.672 -1.852,1.348 -2.782,2.015 -0.294,0.229 -0.682,0.109 -1.019,0.109 C 21.739,90.953 20.118,90.978 18.519,90.716 17.924,90.601 17.281,90.584 16.746,90.269 11.831,85.873 7.752,80.532 4.896,74.583 1.753,67.996 -0.031,60.719 0.01,53.407 -0.222,42.586 3.374,31.763 9.854,23.107 15.7,15.259 23.884,9.157 33.111,5.883 37.307,4.367 41.716,3.474 46.154,3.097 z"
   inkscape:connector-curvature="0"
   style="fill:#000000" />

	<path
   id="path7491"
   d="m 42.94,75.73 c 0.954,-1.127 2.509,-1.578 3.948,-1.482 0.627,-0.051 1.261,0.199 1.682,0.668 0.225,0.289 0.323,0.651 0.461,0.987 0.795,2.048 1.513,4.14 2.554,6.082 0.696,1.087 1.643,1.985 2.598,2.841 1.183,1.015 2.381,2.017 3.666,2.903 0.551,0.396 1.214,0.697 1.55,1.325 0.555,0.985 0.587,2.152 0.782,3.243 0.05,0.533 0.256,1.064 0.14,1.604 -0.362,0.044 -0.575,-0.416 -0.951,-0.381 -1.606,0.082 -3.178,0.473 -4.78,0.613 -0.507,0.021 -1.065,0.273 -1.534,-0.02 -1.314,-0.694 -2.578,-1.479 -3.884,-2.189 -0.452,-0.271 -1.002,-0.154 -1.499,-0.137 -0.942,0.134 -1.901,0.204 -2.85,0.106 -0.491,-0.136 -0.984,-0.269 -1.477,-0.396 -0.611,-0.17 -0.498,-0.955 -0.536,-1.446 -0.078,-0.651 0.219,-1.239 0.45,-1.825 0.243,-1.785 -0.049,-3.576 -0.146,-5.36 -0.216,-1.753 -0.269,-3.52 -0.315,-5.283 C 42.75,76.972 42.6,76.284 42.94,75.73 z"
   inkscape:connector-curvature="0"
   style="fill:#000000" />

	<path
   id="path7493"
   d="m 35.896,74.445 c 0.594,-0.253 1.546,-0.248 1.734,0.519 0.888,3.413 1.372,6.916 1.92,10.396 0.211,1.571 0.045,3.192 -0.557,4.665 l -0.124,0.088 c -1.207,-0.202 -2.389,-0.526 -3.583,-0.786 -0.429,-0.043 -0.392,-0.552 -0.445,-0.867 -0.025,-0.924 -0.067,-1.854 0.103,-2.767 0.072,-1.279 -0.032,-2.569 0.157,-3.841 0.005,-1.476 0.302,-2.937 0.194,-4.414 -0.053,-0.646 -0.709,-1.107 -0.634,-1.779 0.147,-0.593 0.684,-1.009 1.235,-1.214 z"
   inkscape:connector-curvature="0"
   style="fill:#000000" />

	<path
   id="path7495"
   d="m 61.812,82.574 c 0.214,-0.101 0.443,-0.041 0.646,0.057 1.513,0.642 3.04,1.271 4.45,2.122 0.521,0.311 0.944,0.762 1.303,1.248 1.29,1.694 2.448,3.492 3.444,5.377 0.945,1.793 1.404,3.843 1.275,5.868 -2.788,-0.369 -5.514,-1.09 -8.275,-1.609 -0.256,-0.074 -0.671,-0.06 -0.704,-0.408 -0.296,-2.092 -0.178,-4.222 0.226,-6.289 0.153,-0.729 -0.541,-1.164 -0.992,-1.593 -1.23,-1.192 -1.429,-3.02 -1.438,-4.643 l 0.065,-0.13 z"
   inkscape:connector-curvature="0"
   style="fill:#000000" />

</g>
</svg>
