<?xml version="1.0" encoding="UTF-8" standalone="no"?>
<svg
   xmlns:dc="http://purl.org/dc/elements/1.1/"
   xmlns:cc="http://creativecommons.org/ns#"
   xmlns:rdf="http://www.w3.org/1999/02/22-rdf-syntax-ns#"
   xmlns:svg="http://www.w3.org/2000/svg"
   xmlns="http://www.w3.org/2000/svg"
   xmlns:sodipodi="http://sodipodi.sourceforge.net/DTD/sodipodi-0.dtd"
   xmlns:inkscape="http://www.inkscape.org/namespaces/inkscape"
   viewBox="0 0 350 200"
   height="200"
   width="350"
   preserveAspectRatio="xMid meet"
   id="svg2"
   version="1.1"
   inkscape:version="0.48.3.1 r9886"
   sodipodi:docname="wrench-screwdriver-filled.svg">
  <metadata
     id="metadata13">
    <rdf:RDF>
      <cc:Work
         rdf:about="">
        <dc:format>image/svg+xml</dc:format>
        <dc:type
           rdf:resource="http://purl.org/dc/dcmitype/StillImage" />
        <dc:title></dc:title>
      </cc:Work>
    </rdf:RDF>
  </metadata>
  <defs
     id="defs11" />
  <sodipodi:namedview
     pagecolor="#ffffff"
     bordercolor="#666666"
     borderopacity="1"
     objecttolerance="10"
     gridtolerance="10"
     guidetolerance="10"
     inkscape:pageopacity="0"
     inkscape:pageshadow="2"
     inkscape:window-width="1280"
     inkscape:window-height="974"
     id="namedview9"
     showgrid="false"
     inkscape:zoom="1.0257143"
     inkscape:cx="87.202464"
     inkscape:cy="100"
     inkscape:window-x="1280"
     inkscape:window-y="0"
     inkscape:window-maximized="1"
     inkscape:current-layer="svg2" />
  <rect
     width="175"
     height="200"
     x="175"
     y="0"
     fill="#144f0b"
     id="rect4" />
  <rect
     width="175"
     height="200"
     x="0"
     y="0"
     fill="#294ba7"
     id="rect6" />
  <path
     d="M 215.32971,166.83339 144.12278,95.523199 c -2.91762,-2.91618 -6.90696,-4.5122 -11.03135,-4.40893 -8.37444,0.21052 -16.69182,-2.91618 -22.96543,-9.19051 -9.09879,-9.09878 -13.217038,-23.01056 -5.33477,-38.6592 l 20.63423,20.63423 c 4.25293,-1.16886 9.90944,-6.786 11.08407,-11.08443 L 115.8753,32.179049 c 15.82846,-7.96966 29.55066,-3.77305 38.6592,5.33549 6.17142,6.17142 9.40247,14.4935 9.19195,22.97121 -0.10183,4.12403 1.49167,8.10976 4.40929,11.02666 L 239.3423,142.8208 c 6.61881,6.62025 6.61881,17.39234 3.6e-4,24.01223 -6.63578,6.63398 -17.37573,6.63759 -24.01295,3.6e-4 z M 133.84142,82.913879 c 5.50845,-0.36182 10.90389,1.67221 14.80837,5.57561 l 72.45991,72.564271 c 3.4412,3.44084 9.01068,3.44084 12.45333,-3.6e-4 3.43254,-3.43326 3.43254,-9.01935 -7.2e-4,-12.45189 L 161.10095,76.036889 c -3.89726,-3.89691 -5.93381,-9.29559 -5.5767,-14.79429 0.86626,-13.36762 -9.86646,-25.0789 -23.76777,-24.74128 l 12.99569,12.99424 c 1.18835,3.18628 -1.42884,10.08746 -6.18984,15.13661 -5.36654,5.69297 -13.12062,8.75214 -16.45495,7.50781 l -13.01555,-13.01482 c -0.39178,13.74062 11.29748,24.67303 24.74959,23.78872 z m 93.17574,76.844281 c -2.84179,0 -5.147,-2.30448 -5.147,-5.14628 0,-2.84251 2.30521,-5.14627 5.147,-5.14627 2.84215,0 5.14592,2.30376 5.14592,5.14627 0,2.8418 -2.30377,5.14628 -5.14592,5.14628 z M 242.42458,37.039699 c -9.30425,-9.30352 -24.36141,-9.30425 -33.66566,0 l -29.91464,29.91465 5.94212,5.94248 29.91537,-29.91428 c 6.01831,-6.01867 15.76057,-6.02012 21.7796,0 6.00929,6.00929 6.00965,15.77032 0,21.77997 l -29.91428,29.915 5.94249,5.942851 29.915,-29.915001 c 9.28078,-9.28187 9.28078,-24.38416 0,-33.66567 z m -12.16157,19.91493 c -1.11938,-1.11866 -2.93278,-1.11866 -4.05217,0 l -28.41358,28.41323 4.05253,4.05253 28.41322,-28.41358 c 1.11939,-1.11939 1.11939,-2.93315 0,-4.05218 z m -11.97957,-8.02237 -28.46089,28.46089 4.05217,4.05217 28.46089,-28.46089 c 1.11902,-1.11938 1.11902,-2.93279 0,-4.05217 -1.11903,-1.11866 -2.93279,-1.11866 -4.05217,0 z m -61.17038,74.680991 -24.3968,24.39788 c -1.80149,1.8004 -3.31302,3.85935 -4.49307,6.11797 l -1.36601,2.61395 -9.84733,5.03001 -1.18077,-1.18041 4.84369,-10.11527 2.5605,-1.33748 c 2.25863,-1.17932 4.31685,-2.69049 6.11834,-4.4927 l 24.39752,-24.39752 -5.94285,-5.94285 -24.3986,24.39824 c -1.19702,1.19738 -2.56484,2.2023 -4.06554,2.98551 l -5.04084,2.63308 -8.62214,18.00475 9.71011,9.70976 17.56856,-8.97421 0.10797,-0.0553 2.60599,-4.98776 c 0.78502,-1.50214 1.78957,-2.86996 2.98659,-4.06661 l 24.39789,-24.39753 -5.94321,-5.94356 z"
     id="tools-3-icon"
     inkscape:connector-curvature="0" />
</svg>
