<?xml version="1.0" encoding="utf-8"?>

<!-- The icon can be used freely in both personal and commercial projects with no attribution required, but always appreciated. 
You may NOT sub-license, resell, rent, redistribute or otherwise transfer the icon without express written permission from iconmonstr.com -->

<!DOCTYPE svg PUBLIC "-//W3C//DTD SVG 1.1//EN" "http://www.w3.org/Graphics/SVG/1.1/DTD/svg11.dtd">
<svg version="1.1" xmlns="http://www.w3.org/2000/svg" xmlns:xlink="http://www.w3.org/1999/xlink" x="0px" y="0px"
	 width="512px" height="512px" viewBox="0 0 512 512" enable-background="new 0 0 512 512" xml:space="preserve">
<path id="compass-icon" d="M320.23,287.427L462,256.001l-141.77-31.427c-6.241-12.733-16.16-23.326-28.369-30.421L256,50
	l-35.862,144.153c-12.208,7.095-22.126,17.688-28.368,30.421L50,256.001l141.771,31.426c6.241,12.732,16.16,23.326,28.368,30.42
	L256,462l35.86-144.152C304.069,310.753,313.988,300.16,320.23,287.427z M256,288.012c-17.68,0-32.013-14.331-32.013-32.012
	c0-17.678,14.333-32.01,32.013-32.01c17.679,0,32.01,14.332,32.01,32.01C288.01,273.681,273.679,288.012,256,288.012z
	 M117.349,210.344c14.132-43.066,48.122-77.477,90.796-92.248l-9.205,37.001c-19.426,11.01-35.355,27.466-45.72,47.295
	L117.349,210.344z M303.854,118.096c42.57,14.733,76.632,49.078,90.799,92.248l-35.871-7.951
	c-10.364-19.831-26.295-36.287-45.724-47.297L303.854,118.096z M208.145,393.902c-42.568-14.734-76.629-49.075-90.795-92.244
	l35.871,7.952c10.363,19.828,26.294,36.283,45.72,47.292L208.145,393.902z M394.653,301.658
	c-14.132,43.063-48.125,77.476-90.799,92.244l9.204-36.999c19.428-11.009,35.358-27.465,45.723-47.294L394.653,301.658z"/>
</svg>
