<?xml version="1.0" encoding="utf-8"?>
<!-- Generator: Adobe Illustrator 16.0.0, SVG Export Plug-In . SVG Version: 6.00 Build 0)  -->
<!DOCTYPE svg PUBLIC "-//W3C//DTD SVG 1.1//EN" "http://www.w3.org/Graphics/SVG/1.1/DTD/svg11.dtd">
<svg version="1.1" id="Layer_1" xmlns="http://www.w3.org/2000/svg" xmlns:xlink="http://www.w3.org/1999/xlink" x="0px" y="0px"
	 width="100px" height="95.706px" viewBox="0 0 100 95.706" enable-background="new 0 0 100 95.706" xml:space="preserve">
<path fill="#010101" d="M35.714,35.682c3.445-8.742,9.304-16.163,16.678-21.562C51.262,9.494,50.838,4.73,51.175,0
	c-1.895,1.077-3.739,2.301-5.497,3.677c-1.659,1.293-3.247,2.722-4.747,4.275c-1.38,1.425-2.634,2.933-3.792,4.485
	c-4.721,6.335-7.535,13.61-8.536,21.078C31.012,34.04,33.378,34.754,35.714,35.682z"/>
<path fill="#010101" d="M93.213,68.966c-6.738,1.011-17.5,1.354-27.636-6.092c-0.522-0.387-1.053-0.811-1.59-1.263
	c7.214-6.311,12.436-14.838,14.541-24.549c0.109-0.625,0.226-1.247,0.359-1.863c2.181-10.049,7.674-18.864,15.286-25.231
	c-2.093-0.619-4.253-1.091-6.461-1.402c-2.084-0.294-4.211-0.445-6.377-0.445c-1.987,0-3.937,0.144-5.857,0.391
	c-17.926,2.301-32.583,15.034-37.703,31.915c-7.024-3.453-15.423-5.432-25.739-4.077C-1.343,38.104,0.041,51.192,0.041,51.192
	s4.839-2.521,10.396,0.07c5.206,2.429,6.509,7.673,6.509,7.673c3.393,20.645,21.342,29.73,34.62,29.73
	c12.367,0,20.315-6.489,20.315-6.489l4.204,9.485c0,0,1.765,6.972,10.773,2.606c8.743-4.234,13.201-13.61,13.14-21.352
	C99.965,69.378,97.841,68.269,93.213,68.966z"/>
</svg>
