<svg xmlns="http://www.w3.org/2000/svg" xmlns:xlink="http://www.w3.org/1999/xlink" version="1.1" id="Your_Icon" x="0px" y="0px" width="100px" height="100px" viewBox="0 0 100 100" enable-background="new 0 0 100 100" xml:space="preserve">
<g>
	<g>
		<path fill="#000000" d="M92.397,3.091c0.807-0.397,1.878-0.109,2.354,0.66c0.614,0.88,0.251,2.248-0.738,2.684    c-7.804,4.031-15.201,8.826-22.169,14.167c-6.318,4.849-12.303,10.13-17.934,15.759c-0.078,0.072-0.142,0.153-0.192,0.246    C66.967,24.812,81.483,14.339,97.288,6.229c0.599-0.324,1.369-0.265,1.926,0.123c0.833,0.55,1.04,1.803,0.449,2.601    c-0.302,0.459-0.836,0.654-1.3,0.898c-16.779,8.699-32.07,20.083-45.888,32.938c-0.221,0.277-0.568,0.422-0.766,0.718    c0.305-0.175,0.564-0.415,0.824-0.647C65.593,31.94,79.601,22.078,94.703,14.182c0.561-0.29,1.147-0.665,1.811-0.543    c0.987,0.112,1.748,1.123,1.573,2.104c-0.073,0.564-0.436,1.072-0.929,1.347C85.084,23.324,73.72,30.87,62.994,39.196    c-0.207,0.162-0.46,0.293-0.589,0.531c3.262-2.316,6.635-4.479,10.017-6.616c6.116-3.832,12.382-7.428,18.799-10.735    c0.845-0.442,2.024-0.115,2.464,0.748c0.492,0.851,0.171,2.071-0.714,2.524c-15.833,8.178-30.762,18.059-44.703,29.146    c-8.059,6.427-15.811,13.247-23.141,20.494c-0.335,0.339-0.743,0.631-0.983,1.047c2.901,0.041,5.806,0.007,8.707,0.017    c0.497-0.01,1.085-0.042,1.463,0.34c0.236,0.445-0.212,0.864-0.534,1.116c-2.067,1.525-4.157,3.02-6.229,4.537    c-0.671,0.516-1.461,0.928-1.927,1.662c-0.577,0.9-0.849,2.045-0.55,3.092c0.941,2.878,1.874,5.758,2.811,8.638    c0.103,0.358,0.206,0.76,0.053,1.121c-0.084,0.203-0.336,0.231-0.527,0.216c-0.368-0.048-0.674-0.275-0.969-0.48    c-2.146-1.56-4.29-3.121-6.438-4.678c-0.505-0.356-0.984-0.788-1.595-0.957c-1.1-0.353-2.376-0.229-3.332,0.444    c-2.41,1.754-4.822,3.505-7.234,5.256c-0.356,0.238-0.799,0.549-1.242,0.361c-0.34-0.248-0.232-0.728-0.165-1.079    c0.945-2.968,1.927-5.924,2.878-8.891c0.334-1.385-0.177-2.961-1.301-3.848c-2.144-1.562-4.293-3.114-6.436-4.679    c-0.498-0.386-1.077-0.693-1.458-1.207c-0.153-0.203-0.178-0.556,0.042-0.718c0.244-0.188,0.563-0.239,0.863-0.247    c2.969,0.003,5.939-0.002,8.908,0.003c1.647,0.047,3.289-1.096,3.734-2.697c0.905-2.761,1.794-5.526,2.697-8.287    c0.15-0.391,0.298-0.898,0.745-1.033c0.476-0.048,0.691,0.471,0.831,0.837c0.733,2.134,1.387,4.292,2.11,6.429    c0.083,0.248,0.16,0.499,0.218,0.756c0.239-0.226,0.376-0.531,0.558-0.8c4.768-7.479,10.021-14.646,15.645-21.506    C47.187,37.02,59.31,25.075,72.967,15.13C79.137,10.648,85.619,6.587,92.397,3.091z M53.48,36.747 M51.406,43.669    c-0.177,0.036-0.149,0.323,0.047,0.211C51.647,43.852,51.607,43.54,51.406,43.669z"/>
	</g>
</g>
</svg>