<?xml version="1.0" encoding="utf-8"?>

<!-- License Agreement at http://iconmonstr.com/license/ -->

<!DOCTYPE svg PUBLIC "-//W3C//DTD SVG 1.1//EN" "http://www.w3.org/Graphics/SVG/1.1/DTD/svg11.dtd">
<svg version="1.1" xmlns="http://www.w3.org/2000/svg" xmlns:xlink="http://www.w3.org/1999/xlink" x="0px" y="0px"
	 width="512px" height="512px" viewBox="0 0 512 512" enable-background="new 0 0 512 512" xml:space="preserve">
<path id="infinity-6-icon" d="M256,50C142.229,50,50,142.229,50,256s92.229,206,206,206c113.771,0,206-92.229,206-206
	S369.771,50,256,50z M331.777,328.385c-27.439,0-45.91-16.961-62.273-34.147l17.937-22.409
	c12.782,14.904,25.939,27.212,44.337,27.212c23.238,0,37.172-17.534,37.172-43.04c0-25.507-13.934-43.039-37.172-43.039
	c-51.729,0-79.856,115.424-151.555,115.424c-39.036,0-65.539-31.119-65.539-72.385s26.502-72.385,65.539-72.385
	c27.115,0,45.786,17.427,62.341,35.099l-17.853,22.701c-13.506-16.065-26.271-28.454-44.489-28.454
	c-23.239,0-37.171,17.532-37.171,43.039c0,25.506,13.932,43.04,37.171,43.04c55.235,0,79.961-115.425,151.555-115.425
	c39.035,0,65.538,31.119,65.538,72.385S370.812,328.385,331.777,328.385z"/>
</svg>
