<?xml version="1.0" encoding="utf-8"?>

<!-- License Agreement at http://iconmonstr.com/license/ -->

<!DOCTYPE svg PUBLIC "-//W3C//DTD SVG 1.1//EN" "http://www.w3.org/Graphics/SVG/1.1/DTD/svg11.dtd">
<svg version="1.1" xmlns="http://www.w3.org/2000/svg" xmlns:xlink="http://www.w3.org/1999/xlink" x="0px" y="0px"
	 width="512px" height="512px" viewBox="0 0 512 512" enable-background="new 0 0 512 512" xml:space="preserve">
<path id="light-bulb-8-icon" d="M411.689,254.384l-18.176-8.389c20.235-43.847,23.13-88.179,8.6-131.765l18.992-6.33
	C437.298,156.477,434.13,205.762,411.689,254.384z M100.311,254.384l18.176-8.389c-20.235-43.847-23.13-88.179-8.6-131.765
	l-18.992-6.33C74.702,156.477,77.87,205.762,100.311,254.384z M310.749,375.533c0,6.143-4.979,11.121-11.122,11.121h-87.648
	c-6.143,0-11.123-4.979-11.123-11.121c0-6.145,4.98-11.123,11.123-11.123h87.647C305.77,364.41,310.749,369.389,310.749,375.533z
	 M308.748,412.566c0,6.143-4.98,11.121-11.123,11.121H213.98c-6.143,0-11.123-4.979-11.123-11.121
	c0-6.145,4.98-11.123,11.123-11.123h83.644C303.768,401.443,308.748,406.422,308.748,412.566z M297.053,437.961
	C274.266,458.273,272.184,462,263.733,462h-16.65c-8.645,0-10.874-4.021-32.53-24.039H297.053z M129.182,171.454
	c0,75.311,64.767,117.513,64.767,176.945h29.818c-1.464-74.969-64.558-111.888-64.558-176.945c0-122.08,193.188-121.891,193.188,0
	c0,65.117-64.207,103.697-64.232,176.945h29.493c0-59.432,64.766-101.634,64.766-176.945
	C382.423,9.433,129.182,9.597,129.182,171.454z M280.635,187.294h37.396c0-23.032-12.512-43.141-31.109-53.902l-18.71,32.408
	C275.63,170.099,280.635,178.12,280.635,187.294z M268.212,208.789l18.71,32.405c-9.153,5.296-19.783,8.328-31.119,8.328
	c-11.337,0-21.966-3.032-31.12-8.328l18.709-32.405C251.231,213.332,260.698,213.144,268.212,208.789z M230.972,187.294h-37.397
	c0-23.032,12.512-43.141,31.108-53.902l18.711,32.408C235.976,170.099,230.972,178.12,230.972,187.294z M241.545,187.294
	c0-7.876,6.383-14.259,14.258-14.259c7.874,0,14.259,6.383,14.259,14.259c0,7.872-6.385,14.259-14.259,14.259
	C247.928,201.553,241.545,195.167,241.545,187.294z"/>
</svg>
