<?xml version="1.0" encoding="utf-8"?>

<!-- License Agreement at http://iconmonstr.com/license/ -->

<!DOCTYPE svg PUBLIC "-//W3C//DTD SVG 1.1//EN" "http://www.w3.org/Graphics/SVG/1.1/DTD/svg11.dtd">
<svg version="1.1" xmlns="http://www.w3.org/2000/svg" xmlns:xlink="http://www.w3.org/1999/xlink" x="0px" y="0px"
	 width="512px" height="512px" viewBox="0 0 512 512" enable-background="new 0 0 512 512" xml:space="preserve">
<path id="magic-5-icon" d="M104.072,262.819c-7.803,25.546-27.796,45.537-53.341,53.341c25.545,7.803,45.538,27.796,53.341,53.34
	c7.803-25.544,27.795-45.537,53.341-53.34C131.867,308.357,111.875,288.365,104.072,262.819L104.072,262.819z M241.979,161.319
	c-5.276,17.276-18.798,30.795-36.072,36.072c17.274,5.277,30.796,18.797,36.072,36.072c5.276-17.275,18.797-30.795,36.072-36.072
	C260.776,192.115,247.256,178.595,241.979,161.319L241.979,161.319z M79.562,50.523C75.237,64.682,64.157,75.761,50,80.086
	c14.157,4.324,25.237,15.406,29.562,29.562c4.324-14.157,15.406-25.238,29.563-29.562C94.968,75.762,83.886,64.682,79.562,50.523
	L79.562,50.523z M50,172.533l288.946,288.943l43.868-43.868L93.866,128.662L50,172.533z M149.971,213.069l-15.567,15.566
	L78.3,172.531l15.568-15.567L149.971,213.069z M462,119.167C382.814,76,248.699,98.553,187.083,181.5
	c-12.164-12.249-17.378-17.393-28.334-28.5c22.501-29.167,57.501-54.167,92.834-63c-37,0.167-78.833,20.667-107.5,48.167
	c-6.625-6.686-8.426-8.259-12.734-12.483C192.583,66,344.083,27.5,462,119.167z"/>
</svg>
