<?xml version="1.0" encoding="utf-8"?>

<!-- The icon can be used freely in both personal and commercial projects with no attribution required, but always appreciated. 
You may NOT sub-license, resell, rent, redistribute or otherwise transfer the icon without express written permission from iconmonstr.com -->

<!DOCTYPE svg PUBLIC "-//W3C//DTD SVG 1.1//EN" "http://www.w3.org/Graphics/SVG/1.1/DTD/svg11.dtd">
<svg version="1.1" xmlns="http://www.w3.org/2000/svg" xmlns:xlink="http://www.w3.org/1999/xlink" x="0px" y="0px"
	 width="512px" height="512px" viewBox="0 0 512 512" enable-background="new 0 0 512 512" xml:space="preserve">
<path id="megaphone-icon" d="M257.981,357.061l35.982,10.896l-34.893,34.893c-6.345,6.346-15.663,8.693-24.257,6.111l-67.192-19.832
	c-8.321-2.5-14.683-9.238-16.701-17.689l-11.951-50.045l36.183,10.957l4.942,20.697c1.335,5.592,5.542,10.053,11.045,11.717
	l36.436,10.639c5.703,1.725,11.891,0.17,16.104-4.043L257.981,357.061z M112.857,207.748c-15.079,4.566-31.29,3.624-45.737-2.66
	L50,197.642v105.131l17.121-7.445c14.447-6.283,30.658-7.227,45.736-2.66L462,398.408v-296.4L112.857,207.748z"/>
</svg>
