<svg xmlns="http://www.w3.org/2000/svg" xmlns:xlink="http://www.w3.org/1999/xlink" version="1.1" id="Calque_1" x="0px" y="0px" width="100px" height="100px" viewBox="0 0 100 100" enable-background="new 0 0 100 100" xml:space="preserve">
<g>
	<rect x="47.562" y="53.25" width="4.079" height="9.813"/>
	<path d="M47.562,94.43c0,0.862-0.231,1.857-0.695,2.984L43.484,100h12.932v-0.199c-0.133,0-0.796-0.298-1.989-0.895   c-1.857-0.862-2.785-2.586-2.785-5.173v-30.67h-4.079V94.43z"/>
	<path d="M92.921,36.804v-0.398C77.669,19.96,69.513,11.041,68.451,9.648c-0.397,0-4.642,1.957-12.731,5.869   c4.575-4.841,6.863-7.361,6.863-7.56c3.315-2.917,4.974-4.774,4.974-5.57V0c-0.398,0-6.433,2.652-18.104,7.958   C38.113,2.652,32.179,0,31.647,0v2.984l12.036,12.334v0.199L31.15,9.648c-0.331,0-2.918,2.818-7.759,8.455   C12.517,30.305,7.079,36.472,7.079,36.605v0.199l24.37-9.848h0.397c0,0.066-4.442,4.874-13.329,14.423   c-0.464,0-0.961,2.719-1.492,8.156h0.398l30.139-18.999V53.25h4.079V30.537h0.198l30.14,18.999h0.397   c-0.397-4.376-0.597-6.764-0.597-7.162c-0.198-0.53-5.007-5.67-14.423-15.418v-0.298L92.921,36.804z"/>
</g>
</svg>