<svg xmlns="http://www.w3.org/2000/svg" xmlns:xlink="http://www.w3.org/1999/xlink" version="1.1" id="Your_Icon" x="0px" y="0px" width="100px" height="100px" viewBox="0 0 100 100" enable-background="new 0 0 100 100" xml:space="preserve">
<g transform="translate(0.000000,800.000000) scale(0.100000,-0.100000)">
	<path fill="#000000" d="M428.311,7863.5c-58.35-114.375-69.736-137.534-67.925-138.311c1.162-0.518,13.716-2.065,27.944-3.618   c14.233-1.553,26.006-2.847,26.138-2.979c0.127-0.259-15.918-5.693-35.581-12.29l-35.84-11.904l-45.542-88.237   c-25.103-48.516-45.41-88.496-45.156-88.623c0.132-0.137,11.646-1.553,25.488-2.979c13.848-1.426,26.523-2.979,28.208-3.369   c2.197-0.518-8.413-4.521-34.937-13.32l-38.037-12.549l-17.207-33.643c-9.443-18.369-29.888-58.613-45.542-89.277l-28.462-55.762   l32.729-4.141c17.856-2.324,33.511-4.531,34.546-4.785c1.035-0.391-18.369-8.408-43.34-17.725l-45.156-17.08l-44.38-85.908   c-24.453-47.227-44.248-86.172-43.989-86.426c0.908-0.781,674.077-91.084,675.503-90.566   c3.496,1.416,253.721,194.199,253.594,195.488c-0.137,1.426-82.812,144.141-84.619,146.074c-0.518,0.654-16.299,0.654-35.068,0   c-18.75-0.771-34.277-1.162-34.541-1.035c-0.127,0.127,11.904,8.027,26.914,17.471l27.168,17.207l-2.451,4.014   c-1.299,2.197-21.23,36.611-44.121,76.465c-22.91,39.844-41.924,72.705-42.188,72.969c-0.254,0.254-12.803,1.289-27.939,2.197   c-15.146,0.908-30.02,1.816-33.125,2.07l-5.557,0.391l22.383,12.158c12.285,6.729,22.637,12.295,22.891,12.549   c0.137,0.137-20.703,36.748-46.572,81.26l-46.836,80.991h-4.658c-7.5,0.127-59.902,3.75-60.42,4.268   c-0.264,0.259,9.697,6.987,22.119,15.01l22.646,14.619l-3.105,5.303c-1.807,2.979-32.607,58.096-68.701,122.524   c-35.977,64.434-65.859,117.48-66.377,117.998C498.696,8000.517,466.738,7939.062,428.311,7863.5z M523.535,7842.67   c14.355-72.451,25.879-131.841,25.625-132.1c-0.264-0.259-24.59,2.72-54.087,6.47c-29.502,3.75-69.092,8.413-87.983,10.352   c-18.887,2.07-34.805,4.141-35.449,4.658c-0.518,0.518,27.041,56.279,61.455,123.818c42.695,83.838,62.881,122.266,63.525,120.845   C497.143,7975.419,509.175,7915.253,523.535,7842.67z M564.297,7868.417c31.816-56.929,58.994-105.317,60.293-107.515l2.451-4.141   l-25.488-16.431c-14.102-9.189-29.756-19.409-34.805-22.773l-9.316-6.211l-25.361,128.35   c-13.965,70.64-25.742,129.512-26.26,130.933c-0.391,1.426-0.391,2.329,0,1.943   C506.069,7972.182,532.461,7925.346,564.297,7868.417z M695.615,7639.413c22.256-38.428,41.533-71.68,42.822-73.877l2.461-4.141   l-17.08-9.443c-9.443-5.176-39.072-20.967-65.732-35.068c-40.742-21.348-48.643-25.098-49.287-23.281   c-2.842,8.018-40.244,175.439-39.209,175.83c0.654,0.254,19.541,9.961,41.924,21.602c30.791,16.045,41.143,20.83,42.178,19.795   C654.473,7709.926,673.359,7677.841,695.615,7639.413z M455.478,7677.577c57.578-5.557,104.795-10.479,105.059-10.605   c0.771-0.781,40.635-176.094,40.244-176.611c-0.908-0.898-336.138,32.607-336.787,33.643   c-0.127,0.391,77.114,149.697,81.641,157.842c1.812,3.369,3.75,6.084,4.268,6.084   C350.425,7687.929,397.905,7683.271,455.478,7677.577z M785.273,7491.142c9.189-15.918,27.695-47.998,41.016-71.162l24.326-42.305   l-29.365-18.379c-16.055-10.215-32.998-20.957-37.656-24.062c-4.658-2.979-34.287-22.119-65.986-42.441   c-54.082-34.795-57.568-36.865-58.486-34.15c-3.105,9.961-36.221,181.133-35.186,182.168c2.334,2.334,142.197,80.215,143.35,79.824   C767.939,7520.38,776.094,7507.187,785.273,7491.142z M427.148,7458.798c101.816-10.615,185.664-19.668,186.436-19.932   c1.162-0.391,38.818-184.238,37.783-184.883c-0.264-0.264-51.621,5.693-114.248,12.939   c-62.622,7.373-156.294,18.369-208.306,24.453c-80.601,9.443-171.431,20.703-174.145,21.738   c-1.685,0.508,83.579,165.215,85.522,165.215C241.226,7478.329,325.449,7469.53,427.148,7458.798z M912.324,7265.624   c38.428-66.113,39.59-68.438,37.266-70.645c-1.289-1.289-53.828-41.787-116.836-89.912   c-63.008-48.262-116.562-89.404-119.16-91.348l-4.648-3.623l-18.242,91.475c-10.098,50.332-18.506,92.764-18.633,94.316   c-0.391,2.334,14.355,12.812,99.883,70.771c55.117,37.393,100.273,67.803,100.391,67.666   C872.48,7334.198,890.469,7303.28,912.324,7265.624z M399.717,7226.161c144.268-16.299,262.9-30.01,263.428-30.664   c1.416-1.553,38.027-185.527,37.129-186.436c-0.781-0.781-647.041,85.654-653.125,87.334l-3.359,0.908l27.817,53.691   c15.264,29.502,33.896,65.469,41.27,79.824l13.584,26.143l5.435-0.654C134.873,7255.927,255.454,7242.333,399.717,7226.161z"/>
</g>
</svg>