<?xml version="1.0" encoding="utf-8"?>

<!-- License Agreement at http://iconmonstr.com/license/ -->

<!DOCTYPE svg PUBLIC "-//W3C//DTD SVG 1.1//EN" "http://www.w3.org/Graphics/SVG/1.1/DTD/svg11.dtd">
<svg version="1.1" xmlns="http://www.w3.org/2000/svg" xmlns:xlink="http://www.w3.org/1999/xlink" x="0px" y="0px"
	 width="512px" height="512px" viewBox="0 0 512 512" enable-background="new 0 0 512 512" xml:space="preserve">
<path id="pen-13-icon" d="M126.996,334.23c5.987-8.013,14.728-19.688,20.72-27.698c-2.79-9.033-3.667-18.4-2.657-28.334
	c2.921-28.701,21.095-56.755,40.068-78.467c4.039,12.038,14.571,27.28,19.901,34.812c-0.671-10.003-3.835-36,3.505-58.661
	c17.518-16.484,34.824-29.179,57.494-43.293c0.95,10.312,5.565,27.686,8.333,34.121c1.226-8.719,7.5-34.167,17.312-48.876
	c34.507-18.604,67.27-30.114,97.543-35.28c-9.529,28.75-19.754,53.279-33.333,80.33c-14.021,12.659-41.046,24.663-52.688,26.659
	c9.35,2.624,25.601,4.334,36.499,4.452c-11.25,20.372-19.831,35.006-33.168,53.351c-16.664,10.197-44.48,19.732-56.331,20.364
	c7.577,3.968,22.277,8.938,32.329,10.503c-23.295,26.954-57.446,57.882-93.214,58.365c22.537-39.972,41.09-72.186,48.328-82.356
	C161.131,312.783,113.978,403.13,83.807,462l43.147-13.542c7.23-13.213,29.712-50.678,47.72-82.887
	c133.367,20.006,247.729-257.73,253.52-315.141C302.04,40.489,56.978,204.865,126.996,334.23z"/>
</svg>
