<?xml version="1.0" encoding="utf-8"?>

<!-- The icon can be used freely in both personal and commercial projects with no attribution required, but always appreciated. 
You may NOT sub-license, resell, rent, redistribute or otherwise transfer the icon without express written permission from iconmonstr.com -->

<!DOCTYPE svg PUBLIC "-//W3C//DTD SVG 1.1//EN" "http://www.w3.org/Graphics/SVG/1.1/DTD/svg11.dtd">
<svg version="1.1" xmlns="http://www.w3.org/2000/svg" xmlns:xlink="http://www.w3.org/1999/xlink" x="0px" y="0px"
	 width="512px" height="512px" viewBox="0 0 512 512" enable-background="new 0 0 512 512" xml:space="preserve">
<path id="antenna-icon" d="M144.726,50c-94.493,193.396,86.833,371.562,278.275,278.272L144.726,50z M331.855,186.591l49.139-78.86
	c2.9-4.649,8.278-7.151,13.699-6.372c8.527,1.226,17.469-1.932,23.291-9.111c8.816-10.86,7.158-26.812-3.704-35.625
	s-26.815-7.153-35.627,3.709c-4.637,5.709-6.371,12.826-5.398,19.574c0.783,5.425-1.719,10.805-6.371,13.703l-78.867,49.144
	L331.855,186.591z M148.358,462l13.227-11.934c23.114-20.852,58.252-20.852,81.366,0.001L256.178,462h60.007L202.269,359.229
	L88.352,462H148.358z"/>
</svg>
