<?xml version="1.0" encoding="utf-8"?>

<!-- The icon can be used freely in both personal and commercial projects with no attribution required, but always appreciated. 
You may NOT sub-license, resell, rent, redistribute or otherwise transfer the icon without express written permission from iconmonstr.com -->

<!DOCTYPE svg PUBLIC "-//W3C//DTD SVG 1.1//EN" "http://www.w3.org/Graphics/SVG/1.1/DTD/svg11.dtd">
<svg version="1.1" xmlns="http://www.w3.org/2000/svg" xmlns:xlink="http://www.w3.org/1999/xlink" x="0px" y="0px"
	 width="512px" height="512px" viewBox="0 0 512 512" enable-background="new 0 0 512 512" xml:space="preserve">
<path id="antenna-2-icon" d="M295.051,50c33.789,0,67.576,12.89,93.355,38.669c25.781,25.779,38.67,59.568,38.67,93.356h-27.33
	c0-26.794-10.221-53.588-30.664-74.031S321.846,77.33,295.051,77.33V50z M295.053,129.299c13.494,0,26.99,5.148,37.283,15.443
	c10.295,10.295,15.443,23.789,15.443,37.283h27.568c0-20.548-7.842-41.098-23.52-56.776c-15.676-15.678-36.225-23.517-56.775-23.517
	V129.299z M315.365,161.71c-11.428-11.43-29.963-11.432-41.393,0l41.393,41.395C326.799,191.672,326.799,173.141,315.365,161.71z
	 M138.09,73.431c-89.119,182.397,81.895,350.433,262.451,262.446L138.09,73.431z M141.518,462l12.475-11.255
	c21.799-19.666,54.939-19.666,76.738,0L243.205,462h56.594l-107.438-96.927L84.924,462H141.518z"/>
</svg>
