<svg xmlns="http://www.w3.org/2000/svg" xmlns:xlink="http://www.w3.org/1999/xlink" version="1.1" id="Your_Icon" x="0px" y="0px" width="100px" height="100px" viewBox="0 0 100 100" enable-background="new 0 0 100 100" xml:space="preserve">
<g>
	<g>
		<path fill="#000000" d="M93.061,1.22c1.992-0.586,4.028-1.101,6.109-1.214c0.263,0.001,0.534-0.03,0.793,0.04    c0.105,0.624-0.045,1.249-0.06,1.873c-0.58,4.13-2.07,8.084-3.979,11.776c-2.185,4.183-4.955,8.042-8.072,11.58    c-2.089,2.389-4.358,4.611-6.667,6.787c-3.612,3.398-7.399,6.611-11.357,9.602c-0.794,0.623-1.645,1.176-2.421,1.82    c-0.199,0.59-0.136,1.237-0.259,1.846c-0.204,1.597-0.438,3.19-0.619,4.792c-1.471,1.272-3.066,2.393-4.651,3.513    c-3.316,2.25-6.753,4.365-10.47,5.891c-0.497,0.222-1.011,0.444-1.547,0.541c0.007-0.169,0.14-0.29,0.226-0.423    c0.81-1.143,1.571-2.318,2.27-3.532c0.716-1.375,1.516-2.772,1.713-4.335c-0.824,0.33-1.585,0.845-2.445,1.091    c-5.62,5.939-11.488,11.644-17.435,17.254c-7.465,7.014-15.105,13.842-22.895,20.496c-3.676,3.177-7.44,6.25-11.152,9.384    c0.001-0.206,0.164-0.342,0.277-0.493c6.49-7.899,13.152-15.657,19.979-23.268c8.637-9.584,17.497-18.977,26.842-27.872    l0.043-0.065c-0.167-0.377,0.185-0.703,0.315-1.035c0.171-0.407,0.505-0.763,0.555-1.208c-0.525-0.008-1.013,0.238-1.51,0.381    c-2.33,0.905-4.416,2.318-6.461,3.729l-0.126,0.022c-0.053-0.208,0.058-0.405,0.123-0.594c1.708-4.376,4.178-8.412,6.872-12.245    c0.911-1.28,1.853-2.54,2.85-3.755c2.118-0.346,4.271-0.555,6.404-0.848c0.16-0.025,0.358-0.041,0.45-0.198    c3.021-4.225,6.262-8.296,9.732-12.161c2.569-2.834,5.221-5.597,8.084-8.135C79.98,7.492,86.158,3.438,93.061,1.22z M83.554,6.605    c-4.39,2.728-8.415,6.034-12.034,9.716c-0.266,0.189-0.164,0.542-0.088,0.801c0.364,1.152,0.985,2.206,1.665,3.199    c0.045,0.002,0.133,0.006,0.178,0.008c4.389-4.249,9.025-8.241,13.852-11.986c-0.246-0.521-0.704-0.941-0.998-1.448    c-0.3-0.405-0.494-0.882-0.831-1.259C84.668,5.849,84.137,6.288,83.554,6.605z M91.676,12.915    c-3.631,4.792-7.614,9.308-11.754,13.662c-0.077,0.109-0.261,0.205-0.218,0.359c1.025,0.701,2.109,1.345,3.314,1.683    c0.158,0.021,0.377,0.132,0.506-0.017c3.579-3.504,6.815-7.372,9.5-11.605c0.452-0.749,0.975-1.486,1.34-2.271    c-0.905-0.554-1.785-1.153-2.612-1.821L91.676,12.915z M71.813,22.952c-3.591,3.538-6.993,7.259-10.316,11.047    c-0.057,0.185,0.15,0.319,0.236,0.463c1.259,1.461,2.612,2.857,4.142,4.038c0.042,0.011,0.125,0.032,0.168,0.042    c4.111-3.568,8.094-7.282,11.914-11.162c0.098-0.129,0.27-0.229,0.281-0.406c-0.903-0.824-1.879-1.577-2.721-2.473    c-0.898-0.841-1.651-1.825-2.47-2.732C72.589,22.105,72.231,22.565,71.813,22.952z M58.36,31.78    c-3.683,5.098-7.131,10.382-10.034,15.966c-0.229,0.298,0.178,0.507,0.344,0.706c0.088,0.142,0.302,0.195,0.383,0.012    c3.486-4.824,7.137-9.53,10.996-14.063c0.105-0.142,0.346-0.335,0.157-0.513c-0.59-0.748-1.065-1.576-1.55-2.391    C58.5,31.482,58.46,31.694,58.36,31.78z M65.863,39.81c-4.646,3.972-9.482,7.717-14.434,11.303c0.074,0.27,0.359,0.436,0.552,0.63    c0.201,0.007,0.378-0.104,0.557-0.184c5.685-2.836,11.048-6.293,16.117-10.114c0.005-0.163-0.219-0.18-0.315-0.268    c-0.813-0.389-1.531-0.943-2.289-1.419C66.003,39.771,65.911,39.797,65.863,39.81z M47.647,48.756    c-1.469,1.347-2.877,2.756-4.28,4.172c-6.7,6.894-12.852,14.318-18.554,22.051l-0.029,0.091c1.01-0.666,1.967-1.451,2.947-2.176    c7.683-5.861,15.07-12.14,21.82-19.061c0.496-0.579,1.095-1.069,1.535-1.69c-0.265-0.393-0.656-0.827-1.081-1.013    c-1.51,1.222-3.072,2.378-4.62,3.553c-0.248,0.126-0.413,0.423-0.683,0.478c0.019-0.044,0.053-0.132,0.071-0.177    c1.298-1.604,2.557-3.24,3.844-4.853c0.102-0.116,0.222-0.273,0.115-0.427c-0.237-0.247-0.493-0.475-0.725-0.727    C47.903,48.887,47.812,48.71,47.647,48.756z"/>
	</g>
</g>
</svg>