<?xml version="1.0" encoding="utf-8"?>

<!-- License Agreement at http://iconmonstr.com/license/ -->

<!DOCTYPE svg PUBLIC "-//W3C//DTD SVG 1.1//EN" "http://www.w3.org/Graphics/SVG/1.1/DTD/svg11.dtd">
<svg version="1.1" xmlns="http://www.w3.org/2000/svg" xmlns:xlink="http://www.w3.org/1999/xlink" x="0px" y="0px"
	 width="512px" height="512px" viewBox="0 0 512 512" enable-background="new 0 0 512 512" xml:space="preserve">
<path id="smiley-cool-icon" d="M256,50C142.229,50,50,142.229,50,256c0,113.771,92.229,206,206,206c113.771,0,206-92.229,206-206
	C462,142.229,369.771,50,256,50z M256,90c58.655,0,110.162,30.351,139.686,76.223h-279.37C145.837,120.354,197.338,90,256,90z
	 M256,422c-91.74,0-166-74.243-166-166c0-20.324,3.65-39.786,10.321-57.777h25.407c5.204,29.462,28.825,66.647,70.5,66.647
	c40.539,0,35.244-37.814,60.475-37.814s19.936,37.814,60.475,37.814c41.675,0,65.296-37.186,70.5-66.647h24.002
	C418.35,216.212,422,235.675,422,256C422,347.742,347.757,422,256,422z M356.334,284.334l8.791,8.791
	C345,323.834,308,356.805,258,356.805s-87-32.971-107.125-63.68l8.791-8.791c27.001,21.333,56.667,34.471,98.334,34.471
	S329.333,305.667,356.334,284.334z"/>
</svg>
