<?xml version="1.0" encoding="utf-8"?>

<!-- License Agreement at http://iconmonstr.com/license/ -->

<!DOCTYPE svg PUBLIC "-//W3C//DTD SVG 1.1//EN" "http://www.w3.org/Graphics/SVG/1.1/DTD/svg11.dtd">
<svg version="1.1" xmlns="http://www.w3.org/2000/svg" xmlns:xlink="http://www.w3.org/1999/xlink" x="0px" y="0px"
	 width="512px" height="512px" viewBox="0 0 512 512" enable-background="new 0 0 512 512" xml:space="preserve">
<path id="brightness-2-icon" d="M255.5,156c-55.141,0-100,44.86-100,100c0,55.141,44.859,100,100,100s100-44.859,100-100
	C355.5,200.86,310.641,156,255.5,156z M150.779,179.064l-32.664-32.666l28.283-28.284l32.744,32.744
	C168.305,158.75,158.73,168.272,150.779,179.064z M127.039,276H81v-40h46.039c-1.012,6.521-1.539,13.2-1.539,20
	C125.5,262.801,126.027,269.479,127.039,276z M236,127.463V81h40v46.622c-6.68-1.062-13.525-1.622-20.5-1.622
	C248.873,126,242.362,126.502,236,127.463z M332.436,151.279l33.165-33.165l28.285,28.284l-33.243,33.244
	C352.75,168.805,343.229,159.229,332.436,151.279z M179.143,361.143l-32.744,32.744l-28.283-28.284l32.664-32.665
	C158.73,343.729,168.305,353.251,179.143,361.143z M276,384.378V431h-40v-46.463c6.362,0.962,12.873,1.463,19.5,1.463
	C262.475,386,269.32,385.441,276,384.378z M431,236v40h-47.039c1.012-6.521,1.539-13.199,1.539-20c0-6.8-0.527-13.479-1.539-20H431z
	 M360.643,332.358l33.243,33.244l-28.285,28.284l-33.165-33.165C343.228,352.771,352.75,343.196,360.643,332.358z"/>
</svg>
