<svg xmlns="http://www.w3.org/2000/svg" xmlns:xlink="http://www.w3.org/1999/xlink" version="1.1" id="Your_Icon" x="0px" y="0px" width="100px" height="100px" viewBox="0 0 100 100" enable-background="new 0 0 100 100" xml:space="preserve">
<g>
	<path fill="#000000" d="M46.154,3.097c2.376-0.12,4.759-0.125,7.137-0.032C58.662,3.43,63.981,4.622,68.96,6.68   c11.157,4.535,20.542,13.257,25.871,24.058c3.332,6.718,5.172,14.201,5.159,21.707c0.214,10.44-3.126,20.884-9.177,29.38   c-3.58,4.999-8.044,9.398-13.212,12.743l-0.12-0.042c-1.672-2.105-2.944-4.544-3.613-7.154c-0.494-1.568-0.751-3.197-1.062-4.808   c-0.381-0.986-1.588-0.962-2.3-1.579c-1.218-0.941-2.102-2.447-2.13-4c0.193-0.096,0.444-0.078,0.572,0.117   c0.443,0.521,0.741,1.167,1.276,1.613c1.493,1.28,3.516,1.85,5.461,1.731c1.413-0.188,2.898,0.002,4.249-0.549   c2.511-0.874,4.402-2.818,6.472-4.397c0.754-0.509,1.422-1.132,2.111-1.723c0.027-0.056,0.08-0.164,0.105-0.219   c-0.472-0.083-0.928,0.121-1.39,0.192c-1.271,0.219-2.544,0.447-3.832,0.55c-1.891,0.312-3.815,0.386-5.729,0.308   c-0.679-0.072-1.376-0.098-2.02-0.346c-1.299-0.437-2.288-1.448-3.197-2.431c-1.97-2.259-3.412-4.903-5.146-7.335   c-0.853-1.153-1.843-2.272-3.152-2.912c-0.861-0.373-1.781-0.608-2.714-0.701c-0.419,0.013-0.629-0.412-0.92-0.643   c-0.709-0.713-1.74-0.861-2.64-1.207c-0.545-0.22-1.136-0.253-1.715-0.266c-2.662-0.397-5.411-0.012-8.036-0.704   c-1.093-0.349-2.036-1.026-2.986-1.648c-1.322-0.859-2.551-1.859-3.931-2.628c-2.029-0.888-3.244-2.869-5.063-4.064   c-1.209-1.114-2.645-1.938-4.154-2.578c-0.976-0.517-2.077-1.133-2.474-2.229l0.042-0.147c0.784,0.074,1.73,0.367,2.397-0.196   c0.018-0.243-0.167-0.423-0.294-0.605c-0.455-0.554-0.883-1.139-1.447-1.591c-0.779-0.643-1.848-0.859-2.537-1.626   c-1.037-1.216-1.417-2.869-2.54-4.023c-0.595-0.616-1.563-0.458-2.22-0.968c-1.354-0.92-2.378-2.22-3.535-3.359   c-0.602-0.563-0.854-1.371-1.339-2.02c-0.182-0.24-0.525-0.117-0.709,0.051c-0.454,0.398-0.835,0.878-1.179,1.375   c-0.334,0.511-0.202,1.145-0.21,1.717c-0.539-0.107-1.293-0.307-1.59,0.323c-0.348,0.827-0.282,1.853,0.125,2.657   c1.039,1.946,1.122,4.206,1.885,6.25c0.287,1.015,0.856,2.022,0.688,3.106c-0.527,0.941-0.88,1.982-0.937,3.066   c-0.134,2.245,0.05,4.5,0.389,6.72c0.422,1.857,1.125,3.641,1.957,5.353c0.71,1.679,1.972,3.023,3.1,4.425   c0.912,1.164,2.135,2.031,3.099,3.148c0.595,0.675,1.389,1.203,1.812,2.015c0.941,2.568,1.975,5.127,3.463,7.435   c1.779,3.017,2.138,6.654,1.826,10.086c-0.07,0.339-0.101,0.928-0.578,0.902c-1.016-0.029-2.031-0.155-3.041-0.275   c-0.336-0.012-0.722-0.083-0.995,0.168c-0.927,0.672-1.852,1.348-2.782,2.015c-0.294,0.229-0.682,0.109-1.019,0.109   c-1.615-0.074-3.236-0.049-4.835-0.311c-0.595-0.115-1.238-0.132-1.773-0.447c-4.915-4.396-8.994-9.737-11.85-15.686   C1.753,67.996-0.031,60.719,0.01,53.407c-0.232-10.821,3.364-21.644,9.844-30.3c5.846-7.848,14.03-13.95,23.257-17.224   C37.307,4.367,41.716,3.474,46.154,3.097z"/>
	<path fill="#000000" d="M42.94,75.73c0.954-1.127,2.509-1.578,3.948-1.482c0.627-0.051,1.261,0.199,1.682,0.668   c0.225,0.289,0.323,0.651,0.461,0.987c0.795,2.048,1.513,4.14,2.554,6.082c0.696,1.087,1.643,1.985,2.598,2.841   c1.183,1.015,2.381,2.017,3.666,2.903c0.551,0.396,1.214,0.697,1.55,1.325c0.555,0.985,0.587,2.152,0.782,3.243   c0.05,0.533,0.256,1.064,0.14,1.604c-0.362,0.044-0.575-0.416-0.951-0.381c-1.606,0.082-3.178,0.473-4.78,0.613   c-0.507,0.021-1.065,0.273-1.534-0.02c-1.314-0.694-2.578-1.479-3.884-2.189c-0.452-0.271-1.002-0.154-1.499-0.137   c-0.942,0.134-1.901,0.204-2.85,0.106c-0.491-0.136-0.984-0.269-1.477-0.396c-0.611-0.17-0.498-0.955-0.536-1.446   c-0.078-0.651,0.219-1.239,0.45-1.825c0.243-1.785-0.049-3.576-0.146-5.36c-0.216-1.753-0.269-3.52-0.315-5.283   C42.75,76.972,42.6,76.284,42.94,75.73z"/>
	<path fill="#000000" d="M35.896,74.445c0.594-0.253,1.546-0.248,1.734,0.519c0.888,3.413,1.372,6.916,1.92,10.396   c0.211,1.571,0.045,3.192-0.557,4.665l-0.124,0.088c-1.207-0.202-2.389-0.526-3.583-0.786c-0.429-0.043-0.392-0.552-0.445-0.867   c-0.025-0.924-0.067-1.854,0.103-2.767c0.072-1.279-0.032-2.569,0.157-3.841c0.005-1.476,0.302-2.937,0.194-4.414   c-0.053-0.646-0.709-1.107-0.634-1.779C34.808,75.066,35.345,74.65,35.896,74.445z"/>
	<path fill="#000000" d="M61.812,82.574c0.214-0.101,0.443-0.041,0.646,0.057c1.513,0.642,3.04,1.271,4.45,2.122   c0.521,0.311,0.944,0.762,1.303,1.248c1.29,1.694,2.448,3.492,3.444,5.377c0.945,1.793,1.404,3.843,1.275,5.868   c-2.788-0.369-5.514-1.09-8.275-1.609c-0.256-0.074-0.671-0.06-0.704-0.408c-0.296-2.092-0.178-4.222,0.226-6.289   c0.153-0.729-0.541-1.164-0.992-1.593c-1.23-1.192-1.429-3.02-1.438-4.643L61.812,82.574z"/>
</g>
</svg>